<?xml version="1.0" encoding="utf-8"?>
<!-- Generator: Adobe Illustrator 16.0.0, SVG Export Plug-In . SVG Version: 6.00 Build 0)  -->
<!DOCTYPE svg PUBLIC "-//W3C//DTD SVG 1.1//EN" "http://www.w3.org/Graphics/SVG/1.1/DTD/svg11.dtd">
<svg version="1.1" id="Layer_1" xmlns="http://www.w3.org/2000/svg" xmlns:xlink="http://www.w3.org/1999/xlink" x="0px" y="0px"
	 width="40px" height="40px" viewBox="286 376 40 40" enable-background="new 286 376 40 40" xml:space="preserve">
<rect x="-1728" y="-1629" display="none" fill="#2B2B60" width="6858" height="2385"/>
<g>
	<polygon points="301.118,398.177 305.588,398.177 303.353,392.471 	"/>
	<path d="M321.294,376h-30.588c-2.588,0-4.706,2.118-4.706,4.706v30.588c0,2.589,2.118,4.706,4.706,4.706h30.588
		c2.589,0,4.706-2.117,4.706-4.706v-30.588C326,378.118,323.883,376,321.294,376z M307.823,403.941l-1.235-3.177h-6.529
		l-1.235,3.177h-3.353l6.294-14.824H305l6.294,14.824H307.823z M315,403.941h-2.941v-10.765H315V403.941z M313.529,391.706
		c-1.117,0-1.823-0.765-1.823-1.765s0.765-1.765,1.823-1.765c1.118,0,1.823,0.706,1.823,1.706
		C315.353,390.941,314.588,391.706,313.529,391.706z"/>
</g>
</svg>
