<svg xmlns="http://www.w3.org/2000/svg" width="41.025" height="40" viewBox="285.487 376 41.025 40"><path fill="#300" d="M292.752 376h26.496a7.26 7.26 0 017.265 7.265v25.47a7.26 7.26 0 01-7.265 7.266h-26.496a7.26 7.26 0 01-7.265-7.266v-25.47a7.26 7.26 0 017.265-7.265z"/><g fill="#FF9A00"><path d="M305.316 399.932h-6.359l-1.299 4.017a.298.298 0 01-.325.239h-3.214c-.188 0-.239-.103-.188-.308l5.504-15.846c.051-.171.103-.359.171-.564.068-.359.103-.735.103-1.111-.017-.085.051-.171.137-.188H304.273c.137 0 .205.051.222.137l6.24 17.606c.051.188 0 .273-.171.273h-3.573c-.119.018-.239-.068-.273-.188l-1.402-4.067zm-5.367-3.471h4.342a24.412 24.412 0 00-.393-1.231 47.881 47.881 0 01-.461-1.47c-.171-.53-.325-1.042-.496-1.572a37.658 37.658 0 01-.462-1.521c-.137-.479-.256-.923-.376-1.333h-.034a21.1 21.1 0 01-.581 2.205c-.256.821-.513 1.675-.787 2.53-.24.871-.496 1.674-.752 2.392zM314.547 389.162a2.115 2.115 0 01-1.521-.598 2.222 2.222 0 01-.581-1.573 2.011 2.011 0 01.615-1.521 2.19 2.19 0 011.521-.598c.667 0 1.18.205 1.556.598.376.41.581.958.564 1.521a2.162 2.162 0 01-.599 1.573 2.01 2.01 0 01-1.555.598zM312.633 404v-13.163c0-.171.068-.239.222-.239h3.385c.154 0 .223.085.223.239V404c0 .188-.068.273-.223.273h-3.351c-.171 0-.256-.102-.256-.273z"/></g></svg>