<?xml version="1.0" encoding="utf-8"?>
<!-- Generator: Adobe Illustrator 16.0.0, SVG Export Plug-In . SVG Version: 6.00 Build 0)  -->
<!DOCTYPE svg PUBLIC "-//W3C//DTD SVG 1.1//EN" "http://www.w3.org/Graphics/SVG/1.1/DTD/svg11.dtd">
<svg version="1.1" id="Layer_1" xmlns="http://www.w3.org/2000/svg" xmlns:xlink="http://www.w3.org/1999/xlink" x="0px" y="0px"
	 width="37.235px" height="40px" viewBox="15.332 14 37.235 40" enable-background="new 15.332 14 37.235 40" xml:space="preserve">
<rect x="-443" y="-191" display="none" fill="#2B2B60" width="762" height="265"/>
<g>
	<polygon points="30.568,35.059 33.979,35.059 33.979,35.059 33.979,35.059 37.391,35.059 33.979,26.882 	"/>
	<path d="M33.979,14L33.979,14L33.979,14l-18.647,6.647l2.824,24.647L33.979,54l0,0l0,0l15.765-8.765l2.823-24.647L33.979,14z
		 M45.626,44.529h-4.353l0,0l-2.353-5.823h-4.941l0,0l0,0h-4.941l-2.353,5.823l0,0h-4.353l0,0l11.647-26.118l0,0l0,0l0,0l0,0
		L45.626,44.529L45.626,44.529z"/>
</g>
</svg>
