<?xml version="1.0" encoding="utf-8"?>
<!-- Generator: Adobe Illustrator 16.0.0, SVG Export Plug-In . SVG Version: 6.00 Build 0)  -->
<!DOCTYPE svg PUBLIC "-//W3C//DTD SVG 1.1//EN" "http://www.w3.org/Graphics/SVG/1.1/DTD/svg11.dtd">
<svg version="1.1" id="Layer_1" xmlns="http://www.w3.org/2000/svg" xmlns:xlink="http://www.w3.org/1999/xlink" x="0px" y="0px"
	 width="88.312px" height="40px" viewBox="261.844 376 88.312 40" enable-background="new 261.844 376 88.312 40"
	 xml:space="preserve">
<rect x="-3348" y="-108" display="none" fill="#2B2B60" width="6858" height="2385"/>
<g>
	<path d="M281.584,388.597c2.078-1.169,3.506-3.117,3.506-5.714c0-4.026-3.376-6.753-9.87-6.753h-12.987v26.234h13.636
		c6.883,0,10.52-2.598,10.52-7.143C286.26,391.844,284.441,389.636,281.584,388.597z M268.337,380.675h5.974
		c2.987,0,4.545,1.039,4.545,3.117s-1.558,3.117-4.545,3.117h-5.974V380.675z M275.351,397.688h-7.013v-6.494h7.143
		c3.117,0,4.805,1.039,4.805,3.247C280.286,396.779,278.468,397.688,275.351,397.688z"/>
	<path d="M299.247,397.429v-6.104h12.208v-4.675h-12.208v-5.714h13.766V376h-19.87v26.233h20.26v-4.935h-14.156V397.429z"/>
	<path d="M350.026,376h-4.936l-9.74,16.363L325.61,376h-5.064v26.233h5.714v-15.325l7.662,12.597h2.728l7.792-12.987v15.714h5.715
		L350.026,376z"/>
	<path d="M261.844,412.623V416h18.701v-3.377H261.844z"/>
	<path d="M280.545,412.623V416h18.701v-3.377H280.545z"/>
</g>
</svg>
