<svg xmlns="http://www.w3.org/2000/svg" width="48.477" height="40" viewBox="282.063 376 48.477 40"><path fill="#282828" d="M282.063 382.19h11.333v3.333h-11.333v-3.333zm0-6.19h11.333v3.333h-11.333V376zm20.333 12.333h-20.333v3.333h19.572c2.143 0 7.143.048 9 3.048v-1.857c-.906-2.952-3.572-4.524-8.239-4.524zm.048 6.191h-20.381v3.333h19.572c4.762 0 7.762.19 9 .856v-1.476c-.953-2.332-4.953-2.713-8.191-2.713zm-.048 15.714h-20.333v-3.333h19.572c2.143 0 7.143-.048 9-3.048v1.856c-.906 2.954-3.572 4.525-8.239 4.525zm.048-6.19h-20.381v-3.334h19.572c4.762 0 7.762-.19 9-.856v1.476c-.953 2.333-4.953 2.714-8.191 2.714zM315.587 416h14.952v-2.048h-14.524c-1.285 0-4.333-.048-5.428-1.81v1.144c.523 1.762 2.142 2.714 5 2.714zm-.048-3.762h14.952v-2.048h-14.477c-2.904 0-4.714-.095-5.428-.523v.904c.572 1.429 3.001 1.667 4.953 1.667z"/></svg>