<svg xmlns="http://www.w3.org/2000/svg" width="50.213" height="40" viewBox=".079 0 50.213 40"><path fill="#7952B3" d="M10.508 0c-2.865 0-4.985 2.508-4.89 5.227.091 2.613-.027 5.997-.879 8.756-.855 2.768-2.3 4.521-4.66 4.746v2.541c2.36.226 3.805 1.979 4.66 4.746.852 2.76.97 6.144.879 8.756C5.523 37.492 7.644 40 10.509 40h29.357c2.865 0 4.985-2.508 4.89-5.228-.091-2.612.027-5.996.879-8.756.855-2.768 2.297-4.521 4.657-4.746v-2.541c-2.36-.226-3.802-1.979-4.657-4.746-.852-2.759-.97-6.144-.879-8.756C44.852 2.508 42.731 0 39.866 0H10.508zm23.614 24.623c0 3.744-2.794 6.016-7.429 6.016h-7.891a.852.852 0 01-.852-.852V10.213c0-.47.381-.851.852-.851h7.846c3.865 0 6.401 2.094 6.401 5.308 0 2.256-1.706 4.276-3.88 4.63v.118c2.96.324 4.953 2.374 4.953 5.205zM25.833 12.06h-4.5v6.355h3.79c2.93 0 4.545-1.179 4.545-3.288-.001-1.976-1.39-3.067-3.835-3.067zm-4.5 8.877v7.003h4.665c3.051 0 4.666-1.224 4.666-3.523s-1.661-3.48-4.861-3.48h-4.47z"/></svg>