<?xml version="1.0" encoding="utf-8"?>
<!-- Generator: Adobe Illustrator 16.0.0, SVG Export Plug-In . SVG Version: 6.00 Build 0)  -->
<!DOCTYPE svg PUBLIC "-//W3C//DTD SVG 1.1//EN" "http://www.w3.org/Graphics/SVG/1.1/DTD/svg11.dtd">
<svg version="1.1" id="Layer_1" xmlns="http://www.w3.org/2000/svg" xmlns:xlink="http://www.w3.org/1999/xlink" x="0px" y="0px"
	 width="50.371px" height="40px" viewBox="280.815 376 50.371 40" enable-background="new 280.815 376 50.371 40"
	 xml:space="preserve">
<rect x="-4113" y="-108" display="none" fill="#2B2B60" width="6858" height="2385"/>
<g>
	<path d="M307.037,387.852h-4.741v6.667h4c3.111,0,4.741-1.259,4.741-3.481C311.037,388.963,309.556,387.852,307.037,387.852z
		 M306.519,397.481h-4.222v6.667h4.445c2.889,0,4.444-1.186,4.444-3.334C311.186,398.593,309.63,397.481,306.519,397.481z
		 M306.519,397.481h-4.222v6.667h4.445c2.889,0,4.444-1.186,4.444-3.334C311.186,398.593,309.63,397.481,306.519,397.481z
		 M307.037,387.852h-4.741v6.667h4c3.111,0,4.741-1.259,4.741-3.481C311.037,388.963,309.556,387.852,307.037,387.852z
		 M307.037,387.852h-4.741v6.667h4c3.111,0,4.741-1.259,4.741-3.481C311.037,388.963,309.556,387.852,307.037,387.852z
		 M306.519,397.481h-4.222v6.667h4.445c2.889,0,4.444-1.186,4.444-3.334C311.186,398.593,309.63,397.481,306.519,397.481z
		 M306.519,397.481h-4.222v6.667h4.445c2.889,0,4.444-1.186,4.444-3.334C311.186,398.593,309.63,397.481,306.519,397.481z
		 M307.037,387.852h-4.741v6.667h4c3.111,0,4.741-1.259,4.741-3.481C311.037,388.963,309.556,387.852,307.037,387.852z
		 M307.037,387.852h-4.741v6.667h4c3.111,0,4.741-1.259,4.741-3.481C311.037,388.963,309.556,387.852,307.037,387.852z
		 M306.519,397.481h-4.222v6.667h4.445c2.889,0,4.444-1.186,4.444-3.334C311.186,398.593,309.63,397.481,306.519,397.481z
		 M306.519,397.481h-4.222v6.667h4.445c2.889,0,4.444-1.186,4.444-3.334C311.186,398.593,309.63,397.481,306.519,397.481z
		 M307.037,387.852h-4.741v6.667h4c3.111,0,4.741-1.259,4.741-3.481C311.037,388.963,309.556,387.852,307.037,387.852z
		 M307.037,387.852h-4.741v6.667h4c3.111,0,4.741-1.259,4.741-3.481C311.037,388.963,309.556,387.852,307.037,387.852z
		 M306.519,397.481h-4.222v6.667h4.445c2.889,0,4.444-1.186,4.444-3.334C311.186,398.593,309.63,397.481,306.519,397.481z
		 M306.519,397.481h-4.222v6.667h4.445c2.889,0,4.444-1.186,4.444-3.334C311.186,398.593,309.63,397.481,306.519,397.481z
		 M307.037,387.852h-4.741v6.667h4c3.111,0,4.741-1.259,4.741-3.481C311.037,388.963,309.556,387.852,307.037,387.852z
		 M307.037,387.852h-4.741v6.667h4c3.111,0,4.741-1.259,4.741-3.481C311.037,388.963,309.556,387.852,307.037,387.852z
		 M306.519,397.481h-4.222v6.667h4.445c2.889,0,4.444-1.186,4.444-3.334C311.186,398.593,309.63,397.481,306.519,397.481z
		 M306.519,397.481h-4.222v6.667h4.445c2.889,0,4.444-1.186,4.444-3.334C311.186,398.593,309.63,397.481,306.519,397.481z
		 M307.037,387.852h-4.741v6.667h4c3.111,0,4.741-1.259,4.741-3.481C311.037,388.963,309.556,387.852,307.037,387.852z
		 M307.037,387.852h-4.741v6.667h4c3.111,0,4.741-1.259,4.741-3.481C311.037,388.963,309.556,387.852,307.037,387.852z
		 M306.519,397.481h-4.222v6.667h4.445c2.889,0,4.444-1.186,4.444-3.334C311.186,398.593,309.63,397.481,306.519,397.481z
		 M306.519,397.481h-4.222v6.667h4.445c2.889,0,4.444-1.186,4.444-3.334C311.186,398.593,309.63,397.481,306.519,397.481z
		 M307.037,387.852h-4.741v6.667h4c3.111,0,4.741-1.259,4.741-3.481C311.037,388.963,309.556,387.852,307.037,387.852z
		 M307.037,387.852h-4.741v6.667h4c3.111,0,4.741-1.259,4.741-3.481C311.037,388.963,309.556,387.852,307.037,387.852z
		 M306.519,397.481h-4.222v6.667h4.445c2.889,0,4.444-1.186,4.444-3.334C311.186,398.593,309.63,397.481,306.519,397.481z
		 M306.519,397.481h-4.222v6.667h4.445c2.889,0,4.444-1.186,4.444-3.334C311.186,398.593,309.63,397.481,306.519,397.481z
		 M307.037,387.852h-4.741v6.667h4c3.111,0,4.741-1.259,4.741-3.481C311.037,388.963,309.556,387.852,307.037,387.852z
		 M307.037,387.852h-4.741v6.667h4c3.111,0,4.741-1.259,4.741-3.481C311.037,388.963,309.556,387.852,307.037,387.852z
		 M306.519,397.481h-4.222v6.667h4.445c2.889,0,4.444-1.186,4.444-3.334C311.186,398.593,309.63,397.481,306.519,397.481z
		 M306.519,397.481h-4.222v6.667h4.445c2.889,0,4.444-1.186,4.444-3.334C311.186,398.593,309.63,397.481,306.519,397.481z
		 M307.037,387.852h-4.741v6.667h4c3.111,0,4.741-1.259,4.741-3.481C311.037,388.963,309.556,387.852,307.037,387.852z
		 M307.037,387.852h-4.741v6.667h4c3.111,0,4.741-1.259,4.741-3.481C311.037,388.963,309.556,387.852,307.037,387.852z
		 M306.519,397.481h-4.222v6.667h4.445c2.889,0,4.444-1.186,4.444-3.334C311.186,398.593,309.63,397.481,306.519,397.481z
		 M306.519,397.481h-4.222v6.667h4.445c2.889,0,4.444-1.186,4.444-3.334C311.186,398.593,309.63,397.481,306.519,397.481z
		 M307.037,387.852h-4.741v6.667h4c3.111,0,4.741-1.259,4.741-3.481C311.037,388.963,309.556,387.852,307.037,387.852z
		 M307.037,387.852h-4.741v6.667h4c3.111,0,4.741-1.259,4.741-3.481C311.037,388.963,309.556,387.852,307.037,387.852z
		 M306.519,397.481h-4.222v6.667h4.445c2.889,0,4.444-1.186,4.444-3.334C311.186,398.593,309.63,397.481,306.519,397.481z
		 M306.519,397.481h-4.222v6.667h4.445c2.889,0,4.444-1.186,4.444-3.334C311.186,398.593,309.63,397.481,306.519,397.481z
		 M311.037,391.037c0-2.074-1.481-3.185-4-3.185h-4.741v6.667h4C309.333,394.519,311.037,393.259,311.037,391.037z M326.519,390
		c-0.814-2.741-0.963-6.148-0.889-8.741c0.074-2.741-2-5.259-4.89-5.259h-29.481c-2.889,0-5.037,2.519-4.889,5.259
		c0.074,2.593,0,6-0.889,8.741c-0.815,2.741-2.296,4.519-4.667,4.741v2.518c2.37,0.223,3.852,2,4.667,4.741s0.963,6.148,0.889,8.74
		c-0.074,2.741,2,5.26,4.889,5.26h29.481c2.89,0,5.037-2.519,4.89-5.26c-0.074-2.592,0-5.999,0.889-8.74s2.296-4.519,4.667-4.741
		v-2.518C328.814,394.519,327.333,392.741,326.519,390z M307.259,407.111h-7.852c-0.444,0-0.814-0.37-0.814-0.889v-19.778
		c0-0.444,0.37-0.814,0.889-0.814h7.777c3.853,0,6.371,2.074,6.371,5.333c0,2.296-1.704,4.296-3.853,4.667v0.148
		c2.964,0.296,4.89,2.371,4.89,5.259C314.593,404.814,311.852,407.111,307.259,407.111z M306.519,397.481h-4.222v6.667h4.445
		c2.889,0,4.444-1.186,4.444-3.334C311.186,398.593,309.63,397.481,306.519,397.481z M311.037,391.037c0-2.074-1.481-3.185-4-3.185
		h-4.741v6.667h4C309.333,394.519,311.037,393.259,311.037,391.037z M307.037,387.852h-4.741v6.667h4
		c3.111,0,4.741-1.259,4.741-3.481C311.037,388.963,309.556,387.852,307.037,387.852z M306.519,397.481h-4.222v6.667h4.445
		c2.889,0,4.444-1.186,4.444-3.334C311.186,398.593,309.63,397.481,306.519,397.481z M306.519,397.481h-4.222v6.667h4.445
		c2.889,0,4.444-1.186,4.444-3.334C311.186,398.593,309.63,397.481,306.519,397.481z M307.037,387.852h-4.741v6.667h4
		c3.111,0,4.741-1.259,4.741-3.481C311.037,388.963,309.556,387.852,307.037,387.852z M307.037,387.852h-4.741v6.667h4
		c3.111,0,4.741-1.259,4.741-3.481C311.037,388.963,309.556,387.852,307.037,387.852z M306.519,397.481h-4.222v6.667h4.445
		c2.889,0,4.444-1.186,4.444-3.334C311.186,398.593,309.63,397.481,306.519,397.481z M306.519,397.481h-4.222v6.667h4.445
		c2.889,0,4.444-1.186,4.444-3.334C311.186,398.593,309.63,397.481,306.519,397.481z M307.037,387.852h-4.741v6.667h4
		c3.111,0,4.741-1.259,4.741-3.481C311.037,388.963,309.556,387.852,307.037,387.852z M307.037,387.852h-4.741v6.667h4
		c3.111,0,4.741-1.259,4.741-3.481C311.037,388.963,309.556,387.852,307.037,387.852z M306.519,397.481h-4.222v6.667h4.445
		c2.889,0,4.444-1.186,4.444-3.334C311.186,398.593,309.63,397.481,306.519,397.481z M306.519,397.481h-4.222v6.667h4.445
		c2.889,0,4.444-1.186,4.444-3.334C311.186,398.593,309.63,397.481,306.519,397.481z M307.037,387.852h-4.741v6.667h4
		c3.111,0,4.741-1.259,4.741-3.481C311.037,388.963,309.556,387.852,307.037,387.852z M307.037,387.852h-4.741v6.667h4
		c3.111,0,4.741-1.259,4.741-3.481C311.037,388.963,309.556,387.852,307.037,387.852z M306.519,397.481h-4.222v6.667h4.445
		c2.889,0,4.444-1.186,4.444-3.334C311.186,398.593,309.63,397.481,306.519,397.481z M306.519,397.481h-4.222v6.667h4.445
		c2.889,0,4.444-1.186,4.444-3.334C311.186,398.593,309.63,397.481,306.519,397.481z M307.037,387.852h-4.741v6.667h4
		c3.111,0,4.741-1.259,4.741-3.481C311.037,388.963,309.556,387.852,307.037,387.852z M307.037,387.852h-4.741v6.667h4
		c3.111,0,4.741-1.259,4.741-3.481C311.037,388.963,309.556,387.852,307.037,387.852z M306.519,397.481h-4.222v6.667h4.445
		c2.889,0,4.444-1.186,4.444-3.334C311.186,398.593,309.63,397.481,306.519,397.481z M306.519,397.481h-4.222v6.667h4.445
		c2.889,0,4.444-1.186,4.444-3.334C311.186,398.593,309.63,397.481,306.519,397.481z M307.037,387.852h-4.741v6.667h4
		c3.111,0,4.741-1.259,4.741-3.481C311.037,388.963,309.556,387.852,307.037,387.852z M307.037,387.852h-4.741v6.667h4
		c3.111,0,4.741-1.259,4.741-3.481C311.037,388.963,309.556,387.852,307.037,387.852z M306.519,397.481h-4.222v6.667h4.445
		c2.889,0,4.444-1.186,4.444-3.334C311.186,398.593,309.63,397.481,306.519,397.481z M306.519,397.481h-4.222v6.667h4.445
		c2.889,0,4.444-1.186,4.444-3.334C311.186,398.593,309.63,397.481,306.519,397.481z M307.037,387.852h-4.741v6.667h4
		c3.111,0,4.741-1.259,4.741-3.481C311.037,388.963,309.556,387.852,307.037,387.852z M307.037,387.852h-4.741v6.667h4
		c3.111,0,4.741-1.259,4.741-3.481C311.037,388.963,309.556,387.852,307.037,387.852z M306.519,397.481h-4.222v6.667h4.445
		c2.889,0,4.444-1.186,4.444-3.334C311.186,398.593,309.63,397.481,306.519,397.481z M306.519,397.481h-4.222v6.667h4.445
		c2.889,0,4.444-1.186,4.444-3.334C311.186,398.593,309.63,397.481,306.519,397.481z M307.037,387.852h-4.741v6.667h4
		c3.111,0,4.741-1.259,4.741-3.481C311.037,388.963,309.556,387.852,307.037,387.852z M307.037,387.852h-4.741v6.667h4
		c3.111,0,4.741-1.259,4.741-3.481C311.037,388.963,309.556,387.852,307.037,387.852z M306.519,397.481h-4.222v6.667h4.445
		c2.889,0,4.444-1.186,4.444-3.334C311.186,398.593,309.63,397.481,306.519,397.481z M306.519,397.481h-4.222v6.667h4.445
		c2.889,0,4.444-1.186,4.444-3.334C311.186,398.593,309.63,397.481,306.519,397.481z M307.037,387.852h-4.741v6.667h4
		c3.111,0,4.741-1.259,4.741-3.481C311.037,388.963,309.556,387.852,307.037,387.852z M307.037,387.852h-4.741v6.667h4
		c3.111,0,4.741-1.259,4.741-3.481C311.037,388.963,309.556,387.852,307.037,387.852z M306.519,397.481h-4.222v6.667h4.445
		c2.889,0,4.444-1.186,4.444-3.334C311.186,398.593,309.63,397.481,306.519,397.481z M306.519,397.481h-4.222v6.667h4.445
		c2.889,0,4.444-1.186,4.444-3.334C311.186,398.593,309.63,397.481,306.519,397.481z M307.037,387.852h-4.741v6.667h4
		c3.111,0,4.741-1.259,4.741-3.481C311.037,388.963,309.556,387.852,307.037,387.852z M307.037,387.852h-4.741v6.667h4
		c3.111,0,4.741-1.259,4.741-3.481C311.037,388.963,309.556,387.852,307.037,387.852z M306.519,397.481h-4.222v6.667h4.445
		c2.889,0,4.444-1.186,4.444-3.334C311.186,398.593,309.63,397.481,306.519,397.481z M307.037,387.852h-4.741v6.667h4
		c3.111,0,4.741-1.259,4.741-3.481C311.037,388.963,309.556,387.852,307.037,387.852z M306.519,397.481h-4.222v6.667h4.445
		c2.889,0,4.444-1.186,4.444-3.334C311.186,398.593,309.63,397.481,306.519,397.481z"/>
</g>
</svg>
