<?xml version="1.0" encoding="utf-8"?>
<!-- Generator: Adobe Illustrator 16.0.0, SVG Export Plug-In . SVG Version: 6.00 Build 0)  -->
<!DOCTYPE svg PUBLIC "-//W3C//DTD SVG 1.1//EN" "http://www.w3.org/Graphics/SVG/1.1/DTD/svg11.dtd">
<svg version="1.1" id="Layer_1" xmlns="http://www.w3.org/2000/svg" xmlns:xlink="http://www.w3.org/1999/xlink" x="0px" y="0px"
	 width="35.353px" height="40px" viewBox="289.376 376.34 35.353 40" enable-background="new 289.376 376.34 35.353 40"
	 xml:space="preserve">
<rect x="-1836" y="-108" display="none" fill="#2B2B60" width="6858" height="2385"/>
<g id="layer1_2_" transform="translate(-193.633,-276.3622)">
	<path d="M483.009,652.702l3.235,36l14.412,4l14.471-4l3.235-36H483.009z M510.833,669.055l-0.118,1.176l-1.059,11.647l-0.059,0.765
		l-9.059,2.529v-0.059l0,0l-9.059-2.529l-0.647-6.941h4.412l0.294,3.529l4.941,1.353l0,0l0,0l4.941-1.353l0.529-5.765l-15.235-0.118
		l-0.412-4.353h16l0.411-4.529h-16.764l-0.412-4.353h22.059L510.833,669.055z"/>
</g>
</svg>
