<?xml version="1.0" encoding="utf-8"?>
<!-- Generator: Adobe Illustrator 16.0.0, SVG Export Plug-In . SVG Version: 6.00 Build 0)  -->
<!DOCTYPE svg PUBLIC "-//W3C//DTD SVG 1.1//EN" "http://www.w3.org/Graphics/SVG/1.1/DTD/svg11.dtd">
<svg version="1.1" id="Layer_1" xmlns="http://www.w3.org/2000/svg" xmlns:xlink="http://www.w3.org/1999/xlink" x="0px" y="0px"
	 width="26.985px" height="40.001px" viewBox="292.401 375.656 26.985 40.001"
	 enable-background="new 292.401 375.656 26.985 40.001" xml:space="preserve">
<rect x="-3222" y="-927" display="none" fill="#2B2B60" width="6858" height="2385"/>
<g>
	<path d="M305.841,408.812v-6.537h-6.537c-3.356,0-6.36,2.414-6.831,5.712c-0.648,4.476,3.121,8.245,7.597,7.598
		C303.427,415.171,305.841,412.168,305.841,408.812z"/>
	<path d="M299.481,388.965h6.419v13.309h-6.713c-3.828,0-6.89-3.239-6.654-7.067C292.768,391.674,295.889,388.965,299.481,388.965z"
		/>
	<path d="M299.481,375.656h6.419v13.309h-6.713c-3.828,0-6.89-3.239-6.654-7.067C292.768,378.365,295.889,375.656,299.481,375.656z"
		/>
	<path d="M305.841,375.656h6.419c3.533,0,6.713,2.709,6.89,6.242c0.235,3.887-2.826,7.067-6.654,7.067h-6.655V375.656z"/>
	<path d="M319.386,395.738c0,3.709-3.003,6.713-6.713,6.713s-6.713-3.004-6.713-6.713c0-3.71,3.003-6.713,6.713-6.713
		S319.386,392.086,319.386,395.738z"/>
</g>
</svg>
