<svg xmlns="http://www.w3.org/2000/svg" width="26.666" height="40" viewBox=".159 0 26.666 40"><path fill="#0ACF83" d="M6.825 40a6.669 6.669 0 006.667-6.668v-6.666H6.825a6.668 6.668 0 000 13.334z"/><path fill="#A259FF" d="M.159 20a6.668 6.668 0 016.666-6.667h6.667v13.333H6.825A6.668 6.668 0 01.159 20z"/><path fill="#F24E1E" d="M.159 6.667A6.67 6.67 0 016.825 0h6.667v13.333H6.825A6.669 6.669 0 01.159 6.667z"/><path fill="#FF7262" d="M13.492 0h6.666a6.669 6.669 0 016.667 6.667 6.669 6.669 0 01-6.667 6.667h-6.666V0z"/><path fill="#1ABCFE" d="M26.825 20a6.668 6.668 0 01-6.667 6.666A6.668 6.668 0 0113.492 20a6.668 6.668 0 016.666-6.667A6.669 6.669 0 0126.825 20z"/></svg>