<?xml version="1.0" encoding="utf-8"?>
<!-- Generator: Adobe Illustrator 16.0.0, SVG Export Plug-In . SVG Version: 6.00 Build 0)  -->
<!DOCTYPE svg PUBLIC "-//W3C//DTD SVG 1.1//EN" "http://www.w3.org/Graphics/SVG/1.1/DTD/svg11.dtd">
<svg version="1.1" id="Layer_1" xmlns="http://www.w3.org/2000/svg" xmlns:xlink="http://www.w3.org/1999/xlink" x="0px" y="0px"
	 width="40.007px" height="40px" viewBox="286.054 376 40.007 40" enable-background="new 286.054 376 40.007 40"
	 xml:space="preserve">
<rect x="-225" y="-927" display="none" fill="#2B2B60" width="6858" height="2385"/>
<g>
	<path d="M325.303,394.234l-17.483-17.483c-1.001-1.001-2.649-1.001-3.649,0l-3.65,3.649l4.592,4.592
		c1.06-0.353,2.295-0.118,3.179,0.707c0.883,0.883,1.118,2.119,0.706,3.179l4.415,4.415c1.06-0.354,2.296-0.118,3.179,0.706
		c1.177,1.178,1.177,3.12,0,4.356c-1.178,1.178-3.12,1.178-4.356,0c-0.883-0.883-1.118-2.237-0.647-3.355l-4.415-4.121v10.89
		c0.589,0.177,0.824,0.354,1.06,0.589c1.178,1.178,1.178,3.12,0,4.356c-1.177,1.177-3.12,1.177-4.356,0
		c-1.177-1.178-1.177-3.12,0-4.356c0.294-0.294,0.647-0.53,1.06-0.647v-11.008c-0.412-0.176-0.765-0.353-1.06-0.647
		c-0.883-0.883-1.119-2.237-0.647-3.355l-4.533-4.533l-11.891,11.95c-1.001,1-1.001,2.648,0,3.649l17.483,17.483
		c1,1.001,2.649,1.001,3.65,0l17.425-17.425C326.304,396.883,326.304,395.234,325.303,394.234L325.303,394.234z"/>
</g>
</svg>
