<svg xmlns="http://www.w3.org/2000/svg" width="40.001" height="40" viewBox=".003 0 40.001 40"><path fill="#DE4C36" d="M39.25 18.218L21.786.754a2.577 2.577 0 00-3.644 0l-3.626 3.627 4.601 4.601a3.06 3.06 0 013.875 3.9l4.434 4.434a3.062 3.062 0 013.168 5.061 3.065 3.065 0 01-5.004-3.333l-4.135-4.135V25.79a3.067 3.067 0 11-3.524 4.915 3.067 3.067 0 011.003-5.005V14.719a3.066 3.066 0 01-1.664-4.02l-4.535-4.536L.758 18.138a2.577 2.577 0 000 3.644l17.465 17.464a2.578 2.578 0 003.645 0L39.25 21.862a2.577 2.577 0 000-3.644"/></svg>