<svg xmlns="http://www.w3.org/2000/svg" width="43.422" height="40"><path fill="#E24329" d="M21.711 40l7.997-24.607H13.716L21.711 40z"/><path fill="#FC6D26" d="M21.711 40l-7.995-24.607H2.51L21.711 40z"/><path fill="#FCA326" d="M2.51 15.393L.08 22.872a1.655 1.655 0 00.602 1.851L21.711 40 2.51 15.393z"/><path fill="#E24329" d="M2.51 15.393h11.206L8.901.572c-.248-.763-1.326-.763-1.574 0L2.51 15.393z"/><path fill="#FC6D26" d="M21.711 40l7.997-24.607h11.205L21.711 40z"/><path fill="#FCA326" d="M40.913 15.393l2.43 7.479a1.654 1.654 0 01-.602 1.851L21.711 40l19.202-24.607z"/><path fill="#E24329" d="M40.913 15.393H29.708L34.522.573c.248-.763 1.328-.763 1.574 0l4.817 14.82z"/></svg>