<svg xmlns="http://www.w3.org/2000/svg" width="34.508" height="39.999" viewBox="-.249 0 34.508 39.999"><path fill="#010101" d="M5.165 17.486C3.997 18.035.907 20.508.311 21.24c-.618.732-.801-.412-.16-2.313.504-1.534 1.785-3.617 3.938-5.403 1.26-1.03 4.029-2.518 5.724-3.388.344-.184 4.785-2.061 8.746-2.999.343-.092-.412.572-.526.938-.596 1.741-12.479 9.205-12.479 9.205l-.389.206zm16.736 20.993c.205 1.236.022 1.328-1.26 1.488s-2.221-.32-2.564-.641c-.343-.32-.412-1.03-.068-1.672.206-.412.412-.549.527-1.053.113-.48.205-.596.297-.778.092-.16.115-.32.138-1.442s0-3.229.114-4.121c.115-.916 4.075.412 4.075.412s-.938 2.335-1.19 2.908c-.252.572-.229 1.671-.229 1.899 0 .229-.092.687-.16.71-.069.022.229.618.091.962-.091.322.206 1.146.229 1.328zm1.511-35.004c-.138-.87 0-2.587.183-2.862.572-.778 3.595-.87 4.236.046.274.412.252 1.374.205 1.992-.045.618-.205 1.946-.229 2.381-.022.32-3.342.824-4.075-.046-.206-.23-.32-1.511-.32-1.511zm6.732 32.784c1.396 1.008 2.472 1.191 3.182 1.557.71.367.526 1.076-.664 1.283-.961.183-2.473-.184-3.479-.184-1.008 0-3.251.114-3.847-.298-.687-.48-.389-1.374-.389-1.374.183-.503.641-1.625.503-2.541s-.32-1.419-.663-2.267c-.344-.847-.596-2.93-.275-3.045.32-.114.229 0 .641.092s.871.229 1.764.229 1.877-.137 2.221-.206c.344-.068.618-.137.504.572-.115.71-.458 2.038-.481 3.068-.022 1.03-.022 2.221.046 2.427s.569.435.937.687z"/><path fill="#8AC640" d="M25.243 5.764c-2.518 2.175-7.395 2.771-14.629 5.563-1.854.71-6.8 2.839-7.99 5.06 4.006-2.312 5.494.87 5.814 4.144.298 3.068 1.832 4.671 5.77 4.579 4.053-.091 5.289 2.267 6.411 5.037 2.175-10.601 5.655-12.661 7.898-14.469 4.762-3.87-1.098-10.693-3.274-9.914z"/><path fill="#8AC640" d="M25.243 5.764c-6.044 2.106-12.02 2.633-19.048 6.96-1.671 1.03-5.196 3.365-5.884 7.83 2.564-2.839 8.494-6.41 15.752-8.677 3.662-1.145 6.342-1.9 9.592-3.16-.228-1.465-.228-2.037-.412-2.953z"/><path fill="#010101" d="M32.959 18.31s-.436 1.488-1.306 1.969c0 0-.641.229-1.922-.481-.367-.206-.642-.915-.619-1.145.023-.549.367-.801.367-.801s.366-.618.801-.595c.436.023 1.168.092 1.396-.114.207-.23 1.329.411 1.283 1.167zM23.618 3.909s-.092 1.168-.252 1.9c-.023.138-.71.206-1.213.412.961 2.747 6.754 2.725 7.509 1.374-.366-.251-1.099-.641-1.442-.778s-.32-.114-.344-.755c-.022-.641-.068-1.832-.114-2.152-.046-.321-3.595-.321-4.144-.001z"/><path fill="#F0EFEF" d="M23.847 3.909s0 .664-.068 1.305a5.358 5.358 0 01-.092.709c-.022.138.779.687 1.008 1.9 1.099 2.45 3.641 1.236 4.693.069a8.87 8.87 0 00-1.648-.87c-.344-.137-.184-.435-.206-1.076s-.114-1.58-.16-1.923-2.978-.434-3.527-.114z"/><g fill="#010101"><path d="M23.618 3.909s-.023.412-.092.893c.298.297.688.709.984.961.206.184.71.16 1.168.16.412 0 .778.046.938-.045.366-.183.894-.641 1.19-.985a18.74 18.74 0 00-.068-.984c-.022-.32-3.571-.32-4.12 0z"/><path d="M25.702 5.649c-.275 0-.596-.023-.848-.069-.115-.023-.229-.091-.32-.137-.16-.115-.321-.252-.504-.39-.366-.274-.389-.435-.389-.503.16-1.442-.047-2.656-.047-2.656s-.16-.618.71-.778S25.7.933 25.7.933s.55 0 1.396.183c.87.16.71.778.71.778S27.6 3.107 27.76 4.55c0 .069-.022.229-.39.503-.32.229-.572.481-.823.527a5.02 5.02 0 01-.845.069z"/><path d="M25.702.338c-1.512 0-1.81.412-2.244.87-.092.114-.023.801.137 2.267h.207s-.138-.413-.115-.893c.023-.481.115-.458.046-.573-.091-.137-.274-.366.138-.595.412-.229 1.053.183 1.832.206.777-.023 1.441-.436 1.854-.206.412.229.229.458.138.595-.092.138.022.092.046.573.022.48-.115.893-.115.893h.207c.137-1.466.229-2.106.16-2.221-.391-.504-.781-.894-2.291-.916zm7.257 18.041s-.436 1.396-1.282 1.877c-.184-.092-.16-.229-.32-.435-.046-.069-.206-.115-.275-.184-.068-.068-.045-.184-.16-.274-.092-.092-.16-.023-.252-.092-.091-.092-.114-.206-.183-.274-.046-.046-.229-.068-.274-.115-.115-.114-1.122-.32-1.076-.549.092-.344.274-.596.274-.596s.435-.641.87-.618c.436.023.848.115 1.076-.091.251-.229 1.67.618 1.602 1.351z"/><path d="M29.982 8.259s1.442-.343 2.427.595c.985.962.916 2.152.618 2.885.252.298.71 1.122.367 2.106 1.511 1.282.847 3.251-.504 4.556 0 0-.32-1.19-1.603-1.259.045-.458-1.191-.824-.619-2.015-.869-.206-.847-.801-.984-1.534-.113-.732.298-5.334.298-5.334z"/></g><path fill="#F0EFEF" d="M29.456 8.9s1.672-.847 2.656.114c.984.962.709 2.015.411 2.748.252.297.848 1.145.481 2.152-.069.229-.572.229-.938.824.915-.526 1.487-.389 1.693.275.321 1.03-.389 2.266-1.007 2.953 0-.023-.023-.046-.023-.069-.091.344-.206 1.008-.893 1.74-.344.366-.618.32-1.008.229-.457-.114-.617-.32-1.259-.663-.366-.206-.16-.458-.16-.664 0-.046.046-.115.114-.206.046-.115.184-.298.39-.504 0 0 .298-.412.732-.389s.894-.069 1.007-.183c0-.801-.915-.824-.595-2.198.022-.068.138-.183.504-.229-.55-.115-.802-.138-1.19-.504a1.695 1.695 0 01-.55-.984c-.136-.71-.365-4.442-.365-4.442z"/><path fill="#010101" d="M24.626 7.458a4.148 4.148 0 00-2.198-1.465c-.39-.115-.642.206-1.03.435-.115-.068-.618-.298-.893-.138-.275.16-.458.321-.732.436-.139-.069-.504-.069-.802.045-.298.092-.756.298-1.19.893-.275.984 4.854.252 4.854.252l1.991-.458z"/><path fill="#8AC640" d="M24.671 7.458c-.732-.252-.618-1.099-2.243-1.236-.321-.023-.526.229-.756.389.114.115.229.297.298.481-.206-.229-.572-.527-.939-.596-.343-.068-.572.184-.938.367.068.068.137.183.229.321-.32-.206-.55-.275-.984-.115-.298.091-.87.343-1.305.961-.275.984 4.624-.114 4.624-.114l2.014-.458z"/><path fill="#010101" d="M28.976 7.824s0-.252-.023-.48c0-.046-.183-.16-.183-.206l-.046-.046s.366-.206.641-.092c.298.092.458.481.458.481.526-.183.572.023.824.297.55-.114.618.092.962.596 0 0-.412-.069-1.213.068-.78.115-1.42-.641-1.42-.618z"/><path fill="#8AC640" d="M28.884 7.71s.137-.115.092-.138c.252-.137.595-.297.756.138.525-.184.595.068.847.343.641-.297.687.069.732.229-.206 0-.504.023-.916.068-.779.115-1.535-.663-1.511-.64z"/><path fill="#010101" d="M21.1 7.138s1.306.458 2.404.389c1.099-.091 2.976-.183 3.983.412 0 0 1.03-.366 1.992-.114.961.252 2.724 1.9 2.197 3.64-.046.115-.344.298-.687.412 0 0 .183.778-.138 1.419-.32.618-1.03 1.809-1.053 3.457-.023.275-.068.847-.115 1.122-1.785-.069-4.532-.733-7.234-.687.023-.297.046-.481.068-.778h.069c-.138-.755-.183-1.145-.321-1.717-.869-.549-1.785-1.19-2.563-2.404-.755-1.214 1.398-5.151 1.398-5.151zm8.837 12.363s1.42 5.082-.252 7.211c0 0 .252.984-.32 2.038-.092.458-.206.87-.274 1.327-.298 1.9-.802 2.702-.938 5.747l-1.374-.022s-.16-2.198-.642-3.366c-.273-.663-1.35-1.557-1.305-2.449.046-.687.184-1.26 1.352-2.175.092-1.328-1.236-2.588-1.03-7.533l4.783-.778z"/><path fill="#F0EFEF" d="M29.524 19.294c.367 2.336 1.214 5.793-.32 7.486.091.43.099.873.023 1.306a5.443 5.443 0 01-.252.893c-.229.55-.32 1.351-.39 1.831-.298 1.9-.298 1.992-.435 5.037l-1.374-.022s-.16-2.198-.642-3.365c-.273-.664-.847-1.236-.893-2.13-.045-.687.436-2.061 1.58-2.015-.068-2.77-1.351-2.221-1.694-7.99l4.397-1.031zM21.1 7.138s.504.16 1.054.206c.549.045 1.145 0 1.671-.023 1.099-.091 2.655-.206 3.687.39 0 0 .572-.184 1.189-.138.275.023.55.252.871.344 1.007.251 1.969 1.923 1.533 3.434-.046.114-.366 0-.732.114.068.321.114 1.053-.252 1.832-.389.779-.893 1.786-.802 3.709-2.403-.114-3.479-.274-5.86-.389-.207-.847-.344-1.694-.367-2.129.321-.16.504-.297.756-.572-.687.115-.961.069-1.373-.16s-1.145-.961-1.512-1.442c-.045-.046-.297.71-.869.733-.207-.298.663-1.145.503-1.465-.574-1.171.503-4.444.503-4.444z"/><path fill="#010101" d="M29.708 17.394s.046.824.046 1.03c0 .229.183.916.206 1.237-.252.435-1.352 1.419-3.343 1.785-1.969.412-4.579-2.679-4.579-2.679.068-.297.298-1.167.458-1.625a.77.77 0 00.069-.206c.206-.297 7.143.458 7.143.458z"/><path fill="#F0EFEF" d="M29.204 17.463c0 .572.092.984.16 1.351.115.664.298 1.1.298 1.534 0 1.328-1.74 1.099-3.205 1.145-1.97.412-3.641-2.679-3.641-2.679.138-.526.229-1.122.435-1.625.023-.274.069-.618.092-.778 2.793 0 4.762.161 5.907.275.046.251 0 .685-.046.777z"/><path fill="#010101" d="M27.007 20.416s-1.214-2.701-4.854-1.9c-.871 2.45-2.038 5.266-1.283 8.311-.755 1.029-1.625 1.603-1.625 3.502 0 1.9.092 2.221.092 2.221l2.678.138s.871-1.121 1.214-2.335c.092-.344.184-.962.114-1.671.092-.138.481-.458.527-1.076 0 0 1.305-.687 2.061-2.358.709-1.512.526-2.817 1.076-4.832z"/><path fill="#F0EFEF" d="M27.007 20.416c-.069-.252-.984-2.724-4.373-1.992-1.992 5.312-1.26 7.509-.962 8.471-1.351 1.717-1.969 2.083-1.694 5.563h1.786c.824-1.306 1.007-1.786 1.054-3.503 0-.069-.252.137-.436.366.137-.71.526-.847.824-1.282a1.36 1.36 0 00.252-.824c1.603-1.076 2.197-2.427 2.541-3.823.275-.961.596-2.54 1.008-2.976z"/><g fill="#010101"><path d="M21.352 16.73s.618.022 1.167.206c.527.183.527.297.733.526s.71.572.618.916c-.046.183-.16.229-.32.389-.068.069-.572.618-.688.687-.068.046-.16.115-.229.161l-.344.229c-.229.114-.389.184-.641.16 0 0-.572-.022-.939-.412 0 0-.045-.183.047-.274 0 0-.481-.412-.619-.687-.137-.274-.137-.664-.045-.87.046-.207.938-.779 1.26-1.031zm.572 22.277l-.068.572s-.206.252-1.74.229c-1.557-.022-1.969-.503-2.106-.755l-.092-.596s.299-.435.367-.435c.504.045 2.221.732 3.411.915.114.001.136.046.228.07zm3.319-1.168c0 .252-.022.252-.022.504.274.206.962.32 2.267.297 1.9-.045 3.663.573 5.815.206l.022-.411-.206-.023-7.624-.618-.252.045z"/><path d="M26.915 38.641h.572c1.236-.046 2.404.229 3.663.297.664-.022 1.488-.183 1.42-.663l-6.503-.55c-.388.434-.091.8.848.916zm-7.464-9.639c.206.137 1.603.961 3.869.847-.046.436-.022 1.282-1.03 2.771-.504.732-.938 2.015-1.03 3.64.022.367.229.688-.046 1.168.092.298.458.893.641 1.259.184.367.275.779-.938.802-1.236.022-3.229-.114-2.954-1.076.138-.504.526-1.03.573-1.236.045-.206.045-.824.434-1.236.344-1.145.229-2.243.161-3.273-.114-1.079-.138-2.796.32-3.666zm2.13-18.659c1.625-2.175.251-3.915-2.358-3.389-1.054.206-2.106.939-2.175 2.267-.344.046-1.122.092-1.512 1.511-.297 1.099-.457 1.305-.984 1.854-.344.39.023 1.191.275 1.763.847 1.969 3.457 2.152 5.219 3.64.596-.16 1.214-.824 1.397-1.259-1.488-1.763-1.168-2.45-1.763-3.366.641-.228 2.106-1.121 1.901-3.021z"/></g><path fill="#F0EFEF" d="M21.26 10.205c.092-.137.252-.435.321-.549.022-.023.273.412.297.389.618-1.007.778-2.473.068-2.61a4.039 4.039 0 01-.709-.183c-.458-.161-.87-.161-1.604-.023-1.007.183-2.014.916-2.014 1.969 0 .069.709.275.915 1.122-.343-.481-.938-1.007-1.648-.549-.755.48-.366 1.579-1.374 2.724-.343.389-.297.847.069 1.763.595 1.442 3.411 2.221 4.945 3.595.366-.161.618-.527.802-.801-1.031-1.076-1.443-2.083-1.74-2.816-.367-.847-.779-1.328-1.58-1.969.412.16.732.32.916.458.205.137.504.16.778.068.986-.344 1.512-1.718 1.558-2.588z"/><path fill="#010101" d="M31.219 10.572c-.068.87-.71.435-1.053.274-.687-.297-1.374-.503-2.175-.503-.802 0-1.832.068-2.725.297-1.236.343-1.603.321-2.152.046-.549-.297-1.511-1.03-1.511-1.03s-.022.229.206.527c.297.366.961.824 1.854 1.122.435.137.778.045 1.167-.046 2.038-.503 4.19-.595 5.999.504.091.045.412-.092.55-.298.184-.298-.16-.893-.16-.893z"/><path fill="#0A1825" d="M20.802 19.294c.184.115.412.184.664.39 0 0-.206 0-.297-.092a3.263 3.263 0 01-.367-.298z"/><path fill="#F0EFEF" d="M27.419 1.139c-.069-.206-.572-.573-1.74-.573-1.26 0-1.626.39-1.648.596 0 .068-.092.801-.115 1.099 0 0 0 .366.023.916.023.366.114.572.16 1.053.046.504.184.824.436 1.236.114.069.205.138.32.161.458.091 1.259.114 1.694 0 .251-.069.572-.504.641-.893.092-.48.183-.824.206-1.122.046-.297.068-.961.092-1.145.068-.504-.047-1.282-.069-1.328z"/><path fill="#010101" d="M25.015 29.437s1.213.526 4.213.068c0 0-.848 4.259-.458 6.388 0 0 .39.55 3.273 1.603 0 0 1.282.32 1.236.962 0 0 .046.138-1.511.092s-3.021-.321-4.053-.321c-1.029 0-2.129.046-2.313-.251-.205-.275.047-.985.344-1.397.32-.435.229-.755.207-1.533-.068-2.04-1.626-4.147-.938-5.611z"/><path fill="#8AC640" d="M24.763 29.826c-.16.229.023 1.099.252 1.945.229.848.732 1.352.848 2.748.113 1.373.137 1.557-.252 2.357-.39.802-.504 1.534.847 1.558 1.351.022 2.083-.023 3.457.183s1.854.274 2.609.16c.756-.114.916-.366.596-.595-.32-.229-1.648-.481-2.221-.939-.55-.412-2.106-1.099-2.129-1.281-.069-.619-.092-2.862.022-3.595.115-.733.275-1.786.32-2.061.047-.274.275-.55-.114-.458s-1.854.298-2.953.229c-1.099-.068-1.214-.32-1.282-.251z"/><path opacity=".3" fill="#010101" d="M25.541 36.9c.39.183.962.32 1.396.32 0 0-.16.756.092 1.214.252.457-1.831.183-1.831.183l-.092-1.625.435-.092zm6.067 1.969c.366-.114.618-.526.32-.916-.32-.389-.596-.458-.184-.48.413-.022 1.924.893 1.924.893l-.778.71-1.282-.207zm-6.914-8.15c.526.183 1.328.229 2.015.206.687-.023 1.717-.114 2.381-.344.664-.229.39.252.39.252l-.367.344s-.869.344-2.289.32c-1.671-.022-2.175-.206-2.175-.206l.045-.572zm.045 1.144c.527.184 1.328.229 2.016.206.687-.022 1.603-.022 2.266-.274.275-.092.115.298.115.298l-.115.206s-.893.32-2.289.297c-1.671-.022-1.969-.16-1.969-.16l-.024-.573z"/><path fill="none" d="M25.015 29.437s1.992.71 4.235.229c0 0-.87 4.098-.48 6.204 0 0 .39.549 3.273 1.603 0 0 1.282.32 1.236.962 0 0 .046.137-1.511.091s-3.021-.32-4.053-.32c-1.029 0-2.129.046-2.313-.252-.205-.274.047-.984.344-1.396.32-.435.229-.756.207-1.534-.068-2.016-1.626-4.123-.938-5.587z"/><path fill="none" d="M25.015 29.437s1.992.687 4.235.206c0 0-.87 4.121-.48 6.228 0 0 .39.549 3.273 1.603 0 0 1.282.32 1.236.962 0 0 .046.137-1.511.091s-3.045-.48-4.053-.32c-1.076.184-2.129.114-2.313-.252-.16-.298.047-.984.344-1.396.32-.435.229-.756.207-1.534-.068-2.017-1.626-4.124-.938-5.588z"/><path fill="#010101" d="M23.229 15.814c0 .16 1.786 1.053 2.771 1.236s3.045 0 3.365-.068l-.046.32s-2.449.366-4.327-.137c-1.877-.504-1.671-.619-1.671-.619l-.092-.732z"/><path fill="#F0EFEF" d="M19.405 35.344c.275.137 1.26.389 1.9.252.092-.023 0-1.58.252-2.29.366-.984.961-1.785 1.236-3.525a14.38 14.38 0 01-2.633-.527c-.731 2.243-.479 4.166-.755 6.09zm1.534 1.442c.16.045.274.229.32.114.092-.206-.16-.596-.183-.87v-.022c-.207-.184-1.604-.206-1.512-.115-.16.298-.412.252-.503.848-.046.298.32.046.663.022-.617.412-1.327.939-1.441 1.396-.138.642.092.824.778 1.168.595.138 1.305.16 1.854.138.617-.115.732-.412.549-.824-.273-.619-.456-1.42-.525-1.855z"/><path fill="#010101" d="M21.191 7.046c.755.435 1.809.32 2.199.298.091 0 1.007-.161 1.053-.138.092.023.092.092.092.092s-.345.182-1.123.228c-.733.046-1.603 0-2.083-.229-.572-.251-.138-.251-.138-.251zm7.785.435c.137.091 1.03.435 1.42.847.343.366.16.343.091.252-.091-.115-.802-.596-1.076-.71s-.618-.32-.618-.366.183-.023.183-.023z"/><path fill="#F0EFEF" d="M21.077 16.982c.664-.045 1.351.115 1.785.572.229.229.596.481.55.71 0 .069-.138.252-.252.389a5.096 5.096 0 01-.343.366c-.092.068-.412.32-.481.366-.068.046-.16.16-.229.184-.229.114-.48.022-.709-.092s.046-.138-.206-.32c-.618-.435-.962-.733-.71-1.58.023-.16.275-.343.595-.595z"/><path opacity=".4" fill="#010101" d="M15.239 11.739c-2.061.824-7.304 3.434-8.792 4.235 1.236.778 1.809 2.656 1.991 4.556.023.184.047.344.069.527.022.16.046.274.068.344 0 .022 0 .068.022.091 1.352-3.686 6.182-7.578 6.365-7.875.092-.137-.114-.733.206-1.305.414-.733 1.216-1.054.071-.573zm4.899 17.285c1.054-2.106 1.076-4.121 1.054-6.479 0-.985.71-2.382.343-1.992-1.373 1.533-4.83 4.418-7.326 4.579 3.503-.114 4.876 1.649 5.929 3.892z"/><path fill="#010101" d="M4.433 17.921c1.305-.939 8.059-4.533 9.684-5.037 1.626-.526 1.123-1.145 1.123-1.145s-6.594 2.839-10.532 5.289"/><path opacity=".4" fill="#010101" d="M23.664 11.304c-.526-.206-.938.412-.802 1.007.138.596 1.374 1.259 1.305 3.435-.045 1.786-.435 2.518-.435 2.518l-.87-1.099s-.137-2.473-.435-2.839-1.236-1.03-1.603-1.374c-.367-.343.412-.801.366-1.442-.046-.618.39-1.854.39-1.854l2.084 1.648zm3.183 9.754c-.047 1.717.343 4.258.503 5.472.161 1.213.366 1.305 0 1.854-.366.526-.847 1.396-.847 1.396l-1.58-.138s1.26-1.603 1.328-1.9c.068-.297-.641-2.563-.641-2.563l1.237-4.121zM23.802 5.031c.32.709.709 1.03 1.327 1.236.366.137 1.809.32 2.382-.321.251-.297.091-1.099.091-1.099L26.297 5.9l-1.763-.32-.207-.527-.525-.022z"/><path fill="#8AC640" stroke="#010101" stroke-width="1.586" stroke-linejoin="round" stroke-miterlimit="10" d="M23.938 6.611c.596.389 2.084.755 2.497.824.412.091 1.075-.435 1.396-.572.343-.16.938-.252 1.625.366.068.069-.16.366-.16.366-.023-.023-.16-.023-.344-.114-.184-.092-.344-.161-.618-.137-1.145.137-1.327.526-2.335.297s-1.26-.412-2.244-.367"/><path fill="#8AC640" d="M23.732 6.68c.756.32 2.221.664 2.633.755.412.092 1.076-.321 1.396-.527.573-.366 1.306-.068 1.648.321.229.252.321.412.321.481 0 .091-.275 0-.275 0-.16-.069-.344-.092-.48-.184-.184-.091-.367-.229-.641-.206-1.146.138-1.374.527-2.358.298s-1.236-.435-2.29-.366"/><path fill="#010101" d="M20.184 28.063c-.046-.046.046-.091 0-.091-.298 0-.71-.229-.938-.55-.984-1.419-2.427-2.358-5.037-2.289-3.914.091-5.472-1.511-5.77-4.579-.16-1.672-.617-3.297-1.557-4.213l-.549.344c1.053.916 1.396 2.404 1.625 4.441.366 3.068 2.839 4.487 5.724 4.533 2.999.046 4.075.664 5.197 2.175.366.481.778.642 1.099.71l.206-.481z"/><path opacity=".4" fill="#010101" d="M30.807 13.342c.069.343.252 1.007.618 1.328.16.161.184.206.046.206s-1.145-.045-1.145-.045l-.274-.481.755-1.008z"/></svg>