<?xml version="1.0" encoding="utf-8"?>
<!-- Generator: Adobe Illustrator 16.0.0, SVG Export Plug-In . SVG Version: 6.00 Build 0)  -->
<!DOCTYPE svg PUBLIC "-//W3C//DTD SVG 1.1//EN" "http://www.w3.org/Graphics/SVG/1.1/DTD/svg11.dtd">
<svg version="1.1" id="Layer_1" xmlns="http://www.w3.org/2000/svg" xmlns:xlink="http://www.w3.org/1999/xlink" x="0px" y="0px"
	 width="34.01px" height="40px" viewBox="290.121 375.83 34.01 40" enable-background="new 290.121 375.83 34.01 40"
	 xml:space="preserve">
<rect x="-963" y="-927" display="none" fill="#2B2B60" width="6858" height="2385"/>
<g>
	<path d="M300.233,390.021c-0.353,0.176-0.765,0.353-1.117,0.529l0,0c0.118-0.059,0.176-0.118,0.294-0.177
		c0.47-0.235,0.882-0.411,1.411-0.646c0.118-0.059,0.176-0.118,0.294-0.176C300.821,389.727,300.527,389.903,300.233,390.021z
		 M298.234,391.02c-0.176,0.118-0.353,0.176-0.529,0.294c-0.118,0.059-0.176,0.118-0.294,0.176s-0.176,0.118-0.294,0.118
		c-0.059,0-0.118,0.059-0.118,0.059c-0.059,0-0.117,0.059-0.117,0.059l0,0c-0.059,0-0.118,0.059-0.177,0.059
		c-0.059,0-0.059,0.059-0.117,0.059c-0.118,0.059-0.177,0.117-0.294,0.117l0,0l0,0l0,0l0,0c-0.177,0.118-0.412,0.235-0.588,0.353
		c-0.177,0.118-0.412,0.235-0.588,0.353c0.353-0.235,0.764-0.47,1.176-0.706l0,0c0.588-0.353,1.234-0.646,1.822-1l0,0
		c0.059,0,0.118-0.059,0.118-0.059C298.292,391.02,298.292,391.02,298.234,391.02z M311.344,411.891c0-0.059,0-0.117,0-0.176
		C311.344,411.773,311.344,411.832,311.344,411.891z M312.696,406.776c-0.059,0.294-0.177,0.588-0.235,0.822
		c0.059-0.117,0.118-0.294,0.177-0.411C312.638,407.011,312.696,406.894,312.696,406.776L312.696,406.776z M317.929,376.499
		c-0.646-0.94-3.704-0.823-4.292-0.059c-0.059,0.118-0.117,0.353-0.117,0.646c0,0.059,0,0.118,0,0.176
		c-0.059,0.353-0.059,0.765-0.059,1.176c0,0.353,0,0.646,0.059,0.882c0,0,0.059,0.588,0.117,1.058l0,0
		c0.06,0.235,0.118,0.412,0.177,0.47l0.059,0.059l0,0c0.118,0.117,0.353,0.235,0.588,0.294l0,0c0,0,0,0,0.059,0l0,0l0,0
		c0.706,0.176,1.705,0.117,2.47,0l0,0c0,0,0.059,0,0.117,0l0,0c0.177-0.059,0.353-0.059,0.471-0.118l0,0
		c0.059,0,0.117-0.059,0.176-0.059c0.118-0.059,0.177-0.117,0.177-0.117c0-0.059,0-0.118,0-0.235c0-0.294,0.059-0.706,0.117-1.117
		c0.06-0.412,0.06-0.823,0.118-1.058C318.223,377.91,318.223,376.91,317.929,376.499z M323.455,414.771L323.455,414.771
		L323.455,414.771L323.455,414.771C323.455,414.83,323.455,414.83,323.455,414.771L323.455,414.771
		C323.455,414.83,323.455,414.83,323.455,414.771C323.455,414.83,323.455,414.83,323.455,414.771
		C323.455,414.83,323.455,414.83,323.455,414.771C323.455,414.83,323.455,414.83,323.455,414.771
		C323.455,414.83,323.455,414.771,323.455,414.771L323.455,414.771L323.455,414.771z M322.69,415.124c-0.059,0-0.059,0-0.117,0
		C322.632,415.124,322.632,415.124,322.69,415.124c0.06,0,0.118,0,0.177,0c0.117,0,0.177-0.059,0.235-0.059s0.059,0,0.117-0.059
		C323.103,415.065,322.926,415.065,322.69,415.124z M322.75,414.595l-0.529-0.059c0,0.059,0,0.059,0,0.118
		c0,0.059,0,0.117-0.059,0.234c0.176,0,0.353,0,0.528,0l0,0c0.06-0.059,0.06-0.117,0.06-0.176S322.75,414.654,322.75,414.595z
		 M322.162,415.183L322.162,415.183c0,0,0.059,0,0.117,0H322.162z M321.927,414.889c-1.588-0.059-3.058-0.294-4.115-0.294h-0.118
		c0.059,0,0.118,0,0.118,0h-0.765c0-0.117-0.059-0.176-0.059-0.294v-0.117c0-0.294,0.059-0.588,0.059-0.588
		c-0.411,0-0.999-0.117-1.353-0.294l0,0c0,0,0,0,0-0.059c0.06-0.118,0.118-0.235,0.118-0.294c0.117-0.118,0.176-0.294,0.176-0.412
		c0-0.059,0-0.117,0.06-0.176c0-0.059,0-0.118,0-0.235v-0.059c0-0.06,0-0.118,0-0.177c0-0.117,0-0.235,0-0.353
		c0-0.059,0-0.177,0-0.235c0-0.117,0-0.177,0-0.294s0-0.177-0.06-0.294c0-0.177-0.059-0.353-0.117-0.471c0,0.06,0,0.118,0,0.177
		c0,0.117,0.059,0.294,0.059,0.411c0,0.294,0.059,0.471,0.059,0.706c0,0.294,0.06,0.529,0,0.705c0,0.06,0,0.118,0,0.235
		c0,0.059,0,0.117-0.059,0.177c0,0.059-0.059,0.117-0.059,0.235l0,0l0,0l0,0l0,0c0,0,0,0,0,0.059
		c-0.059,0.059-0.059,0.117-0.117,0.176c0,0,0,0.06-0.06,0.06c0,0,0,0,0,0.059c0,0,0,0,0,0.059l0,0l0,0l0,0
		c0,0.059-0.059,0.117-0.059,0.177c0,0,0,0,0,0.059l0,0l0,0v0.059l0,0l0,0l0,0l0,0l0,0c0,0.059,0,0.117,0,0.117
		c0,0.06,0,0.118,0,0.118v0.059v0.059l0,0l0,0l0,0l0,0l0,0l0,0l0,0l0,0l0,0c0,0,0,0.059,0.059,0.118l0,0c0,0,0,0.059,0.06,0.059l0,0
		c0,0,0.059,0.059,0.059,0.117c0.059,0.059,0.117,0.059,0.176,0.118l0,0l0,0c0.06,0.059,0.177,0.059,0.235,0.059s0.118,0,0.177,0
		c0.117,0,0.235,0,0.353,0s0.235,0,0.294,0c0.117,0,0.177,0,0.294,0c0.294,0,0.529,0,0.823,0s0.588,0,0.882,0.059
		c0.059,0,0.177,0,0.235,0c0.176,0,0.353,0.059,0.588,0.059c0.117,0,0.294,0.059,0.411,0.059c0.882,0.118,1.353,0.235,1.822,0.235
		l0,0c0.118-0.059,0.235-0.176,0.294-0.294C322.103,414.889,322.044,414.889,321.927,414.889z M318.869,409.422L318.869,409.422
		L318.869,409.422L318.869,409.422z M318.811,410.479c0-0.353,0-0.646,0-0.94c0,0.117,0,0.177,0,0.294l0,0c0,0.059,0,0.117,0,0.177
		l0,0c0,0.059,0,0.117,0,0.176v0.118C318.811,410.421,318.811,410.421,318.811,410.479c0,0.235,0,0.471,0,0.706
		c0,0.234,0,0.411,0.059,0.646c0,0.117,0,0.235,0.059,0.353v-0.059C318.869,411.715,318.811,411.067,318.811,410.479z
		 M319.34,406.129L319.34,406.129C319.34,406.07,319.34,406.07,319.34,406.129c-0.059-0.059-0.059-0.059-0.059-0.059
		c0,0.059-0.059,0.177-0.059,0.235c0,0.177-0.06,0.353-0.118,0.529c-0.059,0.235-0.117,0.47-0.117,0.646
		c-0.06,0.235-0.118,0.411-0.177,0.646c-0.059,0.177-0.059,0.353-0.117,0.529c0.059,0,0.117-0.059,0.176-0.059
		c0,0.176-0.059,0.411-0.059,0.646c0,0.059,0,0.059,0,0.117l0,0l0,0c0,0,0,0,0-0.059c0-0.117,0-0.176,0.059-0.294
		c0-0.176,0-0.294,0.059-0.47c0-0.118,0-0.177,0.06-0.294l0.059-0.235c0-0.059,0-0.118,0-0.177s0-0.117,0-0.117
		c0-0.059,0-0.118,0.059-0.177c0-0.059,0-0.059,0-0.117l0,0c0-0.059,0-0.118,0-0.177s0-0.059,0-0.117v-0.059c0,0,0-0.06,0-0.118l0,0
		c0-0.059,0-0.059,0-0.117c0-0.118,0.059-0.235,0.059-0.353l0,0c0,0,0,0,0-0.06l0,0C319.34,406.306,319.34,406.188,319.34,406.129
		L319.34,406.129z M319.398,405.895L319.398,405.895L319.398,405.895L319.398,405.895z M317.812,414.536
		c1.058,0,2.469,0.294,4.057,0.294C320.339,414.83,318.811,414.36,317.812,414.536z M317.87,406.247h-0.059c0.059,0,0.117,0,0.234,0
		C317.929,406.247,317.929,406.247,317.87,406.247z M315.577,409.245c-0.059-0.117-0.117-0.294-0.117-0.411
		c-0.06-0.177-0.118-0.412-0.177-0.588c-0.059-0.235-0.117-0.412-0.177-0.588c0-0.118-0.059-0.177-0.059-0.294c0,0,0,0,0-0.06
		c0-0.059,0-0.059,0-0.117s0-0.117,0-0.117c0.059,0,0.118,0.059,0.177,0.059c-0.118-0.177-0.177-0.412-0.235-0.646
		c0-0.118,0-0.235,0.059-0.354c0,0,0,0-0.059,0s-0.059,0-0.059,0c-0.118,0.118-0.059,0.471,0,0.941l0,0
		c0.059,0.176,0.059,0.411,0.117,0.588c0.059,0.117,0.059,0.294,0.118,0.411c0,0.059,0.059,0.117,0.059,0.177
		c0.059,0.176,0.176,0.411,0.235,0.588c0.117,0.234,0.234,0.47,0.294,0.764v0.059c0,0,0,0,0,0.06
		C315.694,409.539,315.636,409.362,315.577,409.245z M316.048,408.305c-0.118-0.177-0.235-0.412-0.354-0.646
		c-0.059,0-0.059,0-0.117,0C315.694,407.893,315.871,408.128,316.048,408.305c0,0.059,0.059,0.117,0.059,0.117
		S316.048,408.363,316.048,408.305z M316.282,408.834c0-0.06-0.059-0.118-0.059-0.177s-0.059-0.177-0.117-0.235
		c0.059,0.059,0.059,0.177,0.117,0.235C316.224,408.774,316.282,408.834,316.282,408.834c0.118,0.353,0.235,0.822,0.354,1.293
		C316.518,409.716,316.459,409.245,316.282,408.834z M318.693,405.835c0.059,0,0.117,0,0.234,0l0,0
		C318.869,405.835,318.811,405.835,318.693,405.835z M315.694,405.835L315.694,405.835
		C315.694,405.835,315.754,405.835,315.694,405.835c0.06,0,0.06,0,0.118,0l0,0h0.059l0,0
		C315.871,405.835,315.813,405.835,315.694,405.835C315.754,405.835,315.694,405.835,315.694,405.835z M315.46,405.776h0.059
		c0,0,0,0,0.059,0h0.059c-0.059,0-0.059,0-0.117,0H315.46"/>
	<path d="M309.228,403.602c-0.353-0.529-0.764-0.941-1.293-1.353C308.464,402.66,308.875,403.072,309.228,403.602z"/>
	<path d="M308.11,383.848L308.11,383.848L308.11,383.848L308.11,383.848z"/>
	<path d="M321.339,386.611c-0.118,0.764-0.646,0.353-1,0.235c0,0,0,0-0.059,0c-0.117-0.059-0.235-0.118-0.353-0.176
		c-0.059,0-0.117-0.059-0.235-0.059c-0.529-0.177-0.999-0.294-1.587-0.294c-0.823,0-1.882,0.059-2.764,0.294
		c-1.234,0.353-1.646,0.353-2.175,0.059c-0.294-0.176-0.706-0.47-1.059-0.706c-0.059-0.059-0.059-0.059-0.117-0.118
		c0,0-0.06,0-0.06-0.059c-0.176-0.118-0.293-0.235-0.293-0.235l0,0l0,0l0,0c-0.06,0.118-0.235,0.412-0.295,0.529v0.059
		c-0.059,0.706-0.411,1.705-1.058,2.234c-0.059,0.059-0.177,0.118-0.294,0.176c-0.059,0.059-0.177,0.118-0.235,0.118
		c-0.294,0.118-0.588,0.059-0.765-0.059c-0.176-0.117-0.528-0.294-0.94-0.47c0.823,0.647,1.234,1.117,1.588,1.999
		c0.294,0.706,0.646,1.646,1.587,2.646c-0.294,0.235-0.765,0.529-0.94,0.706c-1.588-1.235-4.116-1.999-4.704-3.41
		c-0.353-0.94-0.411-1.411-0.059-1.764c0.176-0.176,0.294-0.411,0.412-0.588c0.529-0.94,0.353-1.764,0.999-2.175
		c0.706-0.47,1.294,0.059,1.646,0.588c-0.235-0.882-0.94-1.058-0.94-1.117c0-0.118,0-0.176,0-0.235c0-0.176,0.059-0.353,0.176-0.47
		c0.06-0.118,0.118-0.235,0.177-0.294l0,0l0,0c0,0,0,0,0-0.059l0.059-0.117v-0.059c0,0,0,0,0.059-0.059c0,0,0,0,0-0.059
		c0,0,0,0,0.06-0.059c0.411-0.47,0.882-0.646,1.176-0.764c0.411-0.176,0.646-0.118,0.94,0.059l0.059,0.059c0,0,0-0.059-0.059-0.059
		c0.059,0,0.117,0,0.235,0c0.059,0,0.117,0,0.176,0c0.118,0,0.235,0.059,0.412,0.059l0,0c0.059,0,0.059,0,0.117,0.059
		c0.059,0,0.059,0.059,0.117,0.059c0.118,0.059,0.295,0.118,0.529,0.177c0.059,0,0.177,0,0.235,0.059l0,0
		c0.353,0.059,0.765,0.059,1.117,0.059h0.059l0,0c0.059,0,0.059,0,0.118,0c0.528-0.059,0.882-0.117,1.058-0.176
		c0.059,0,0.118,0.059,0.177,0.059l0,0l0,0c0-0.059,0-0.059-0.059-0.118c0.294,0,0.47,0.118,0.764,0.176
		c0.059,0,0.118,0.059,0.177,0.059c0.117,0.059,0.294,0.059,0.529,0.118c0.411,0.059,0.646,0.059,0.882,0.059
		c0.117,0,0.234-0.059,0.411-0.118c0.059,0.059,0.177,0.059,0.235,0.118c0,0,0.47-0.118,0.999-0.118c0.059,0,0.118,0,0.177,0
		s0.176,0.059,0.235,0.059l0,0l0,0c0.059,0.059,0.117,0.059,0.176,0.118c0,0,0,0,0.06,0c0.059,0.059,0.117,0.059,0.176,0.059l0,0
		c0.117,0.059,0.412,0.235,0.646,0.353c0.059,0.059,0.118,0.059,0.177,0.118c0.059,0,0.059,0.059,0.117,0.059
		c0.06,0.059,0.118,0.118,0.177,0.118l0,0l0,0l0.059,0.059C321.104,385.141,321.397,385.846,321.339,386.611z"/>
	<path d="M314.695,383.436L314.695,383.436L314.695,383.436z"/>
	<path d="M313.343,383.495h-0.059l0,0H313.343z"/>
	<path d="M318.458,383.318c-0.471,0.059-0.765,0.176-1.059,0.235c-0.117,0.059-0.235,0.059-0.411,0.117
		c-0.235,0.059-0.529,0.059-0.882-0.059c-0.177-0.059-0.353-0.059-0.529-0.118c-0.059,0-0.117-0.059-0.177-0.059
		c-0.294-0.059-0.528-0.118-0.764-0.176c0,0.059,0,0.059,0.059,0.117l0,0l0,0c-0.059,0-0.117-0.059-0.177-0.059l-0.059-0.059l0,0
		c-0.176,0-0.353,0-0.529,0.059c-0.117,0-0.234,0-0.411,0h-0.059c-0.059,0-0.118,0-0.177,0s-0.117,0-0.235,0
		c-0.176,0-0.353,0-0.588,0l0,0c0.118-0.059,0.235-0.118,0.354-0.176c0.353-0.118,0.646-0.294,0.94-0.47c0,0,0.059,0,0.059-0.059
		l0,0c0,0,0,0,0.059,0c0,0,0.059,0,0.059-0.059c0,0,0.06,0,0.06-0.059c0.059,0,0.117-0.059,0.176-0.117
		c0.235-0.118,0.471-0.294,0.646-0.412c0.118-0.059,0.177-0.118,0.294-0.235c0.06-0.059,0.118-0.118,0.177-0.176
		c0.059,0,0.059,0,0.117-0.059c0.06,0,0.118,0,0.177,0s0.117,0,0.177,0c0.234,0,0.47,0.059,0.705,0.176
		c0.059,0,0.117,0.059,0.117,0.059c0.177,0.118,0.354,0.176,0.588,0.353c0.177,0.117,0.294,0.235,0.471,0.353
		c0.117,0.118,0.235,0.176,0.353,0.294c0.118,0.118,0.235,0.235,0.353,0.353C318.34,383.201,318.399,383.26,318.458,383.318
		C318.399,383.26,318.458,383.26,318.458,383.318z"/>
	<path d="M296.823,392.49c0.882,0.941,1.353,2.528,1.47,4.174C298.175,395.018,297.705,393.431,296.823,392.49L296.823,392.49
		C296.823,392.431,296.823,392.431,296.823,392.49C296.823,392.431,296.823,392.49,296.823,392.49z"/>
	<path d="M301.115,389.609c0.176-0.118,0.412-0.176,0.588-0.294C301.467,389.433,301.291,389.55,301.115,389.609
		C301.056,389.609,301.056,389.609,301.115,389.609c-0.118,0.059-0.235,0.176-0.294,0.235c-0.471,0.176-0.941,0.412-1.353,0.646l0,0
		c-0.411,0.235-0.823,0.412-1.234,0.647l0,0c-0.647,0.294-1.235,0.646-1.823,1l0,0l0,0l0,0l0,0c0.118-0.059,0.353-0.177,0.529-0.294
		l0,0c0.706-0.412,1.47-0.765,2.234-1.176l0,0C299.762,390.256,300.468,389.903,301.115,389.609L301.115,389.609z"/>
	<path d="M305.112,387.787c-0.294,0.118-1.646,0.706-3.469,1.587C303.055,388.668,304.348,388.081,305.112,387.787
		C305.171,387.728,305.171,387.728,305.112,387.787C305.171,387.728,305.171,387.728,305.112,387.787z"/>
	<path d="M305.23,388.139L305.23,388.139L305.23,388.139L305.23,388.139z"/>
	<path d="M316.518,393.489c0,0-0.059,0.059-0.117,0.059l0,0l0,0c-0.353,0.353-0.706,0.706-1.059,1.117
		c-0.059,0.059-0.059,0.118-0.117,0.118c-0.412,0.47-0.823,1.058-1.176,1.705c0,0.059-0.059,0.059-0.059,0.118l0,0
		c-0.882,1.47-1.705,3.351-2.47,5.938c-0.294-1.059-0.529-2.939,0.588-6.584c0.059,0,0.118-0.059,0.177-0.059l0.353-0.235
		c0.059,0,0.059-0.059,0.117-0.059c0.06-0.059,0.06-0.059,0.118-0.059c0,0,0.059-0.059,0.117-0.059
		c0.059-0.059,0.059-0.059,0.118-0.118l0.059-0.059c0.059,0,0.059-0.059,0.059-0.059c0.117-0.176,0.294-0.294,0.353-0.353
		c0.177-0.177,0.294-0.177,0.294-0.353l0,0l0,0v-0.059c0-0.059,0-0.118-0.059-0.235c-0.117-0.235-0.411-0.47-0.588-0.588
		l-0.059-0.059c0-0.059,0.059-0.118,0.059-0.176l0,0c0-0.118,0-0.235,0.059-0.294c0-0.117,0-0.235,0.059-0.294l0,0l0.06,0.059
		c0.059,0,0.117,0.059,0.234,0.118c0.06,0,0.118,0.059,0.177,0.059s0.117,0.059,0.235,0.059l0,0l0,0
		c0.059,0,0.117,0.059,0.176,0.059c0.06,0,0.118,0.059,0.177,0.059s0.177,0.059,0.294,0.059s0.177,0.059,0.294,0.059
		c0.235,0.059,0.471,0.118,0.705,0.176C316.048,393.431,316.282,393.431,316.518,393.489z"/>
	<path d="M311.639,385.67L311.639,385.67L311.639,385.67C311.639,385.611,311.639,385.611,311.639,385.67z"/>
	<path d="M311.462,392.784c-1.528-1.764-1.176-2.469-1.764-3.41c0.176-0.059,0.353-0.177,0.588-0.294
		c0.646,0.764,1.353,1.234,1.999,1.646c0.117,0.588,0.176,1,0.353,1.764h-0.059c0,0.176-0.06,0.353-0.06,0.529
		C312.108,392.842,311.639,392.842,311.462,392.784L311.462,392.784z"/>
	<path d="M313.461,394.371L313.461,394.371c0,0.059,0,0.059-0.059,0.118c-0.06,0.059-0.118,0.176-0.235,0.294
		c-0.059,0.059-0.177,0.176-0.294,0.294c-0.059,0.059-0.059,0.059-0.059,0.059c-0.06,0.059-0.177,0.176-0.354,0.235
		c-0.059,0.059-0.117,0.118-0.176,0.118l-0.059,0.059c-0.06,0.059-0.118,0.118-0.177,0.118c-0.118,0.059-0.235,0.059-0.353,0.059
		c-0.118,0-0.235-0.059-0.354-0.118c-0.234-0.117,0.06-0.117-0.234-0.353c-0.588-0.412-0.882-0.706-0.765-1.352v-0.059
		c0-0.059,0-0.117,0.059-0.176c0-0.176,0.294-0.353,0.588-0.588c0.059,0,0.118,0,0.177,0h0.059c0.412,0,0.823,0.059,1.176,0.294
		c0.177,0.059,0.294,0.176,0.412,0.294c0.059,0.059,0.117,0.118,0.234,0.176C313.343,394.019,313.52,394.195,313.461,394.371z"/>
	<path d="M313.931,389.962c-0.705,0.117-0.999,0.059-1.411-0.177c-0.411-0.235-1.058-0.882-1.47-1.352
		c0.412-0.47,0.647-1.176,0.589-2.058c0.059-0.059,0.117-0.176,0.176-0.235l0,0l0.059,0.059c0.294,0.353,0.941,0.823,1.823,1.117
		c-0.529-0.177-0.882,0.47-0.765,1.058C312.99,388.727,313.52,389.139,313.931,389.962z"/>
	<path d="M313.931,389.962L313.931,389.962L313.931,389.962L313.931,389.962z"/>
	<path d="M314.225,391.784c0,0.235,0,0.47-0.059,0.647c-0.411-0.177-0.705-0.353-0.823-0.471c-0.117-0.588-0.176-1.117-0.234-1.411
		c0.353-0.177,0.528-0.294,0.764-0.588C314.107,390.432,314.284,391.02,314.225,391.784z"/>
	<path d="M314.284,392.49h-0.118v-0.059C314.225,392.431,314.284,392.49,314.284,392.49z"/>
	<path d="M317.518,392.607c-0.118,0.118-0.235,0.235-0.412,0.353c-0.117,0.059-0.176,0.176-0.294,0.235l0,0
		c-0.294,0-0.529-0.059-0.764-0.059c-0.06,0-0.06,0-0.118,0c-0.294-0.059-0.646-0.176-0.999-0.353
		c-0.235-0.118-0.471-0.176-0.646-0.294C315.577,392.49,316.636,392.548,317.518,392.607z"/>
	<path d="M307.464,383.965c-0.235,0.294-0.411,0.706-0.411,1.117c0,0.059,0,0.059,0,0.118c-0.294,0.059-1,0.059-1.411,1.176
		c-0.059,0.118-0.059,0.235-0.118,0.353c-0.118,0.471-0.235,0.823-0.353,1.059c-0.823,0.353-2.117,0.94-3.469,1.587l0,0
		c-0.176,0.117-0.412,0.176-0.588,0.294l0,0c-0.647,0.294-1.293,0.646-1.999,0.999l0,0c-0.764,0.353-1.529,0.765-2.234,1.176l0,0
		c-0.235,0.117-0.412,0.176-0.529,0.294l0,0l0,0c-0.529,0.294-1.058,0.588-1.528,0.94l0,0c-0.059,0.059-0.118,0.059-0.235,0.118l0,0
		c-1.94,1.234-3.469,2.469-4.468,3.586c0.706-4.527,4.292-6.878,5.938-7.937C300.115,386.199,303.819,384.964,307.464,383.965z"/>
	<path d="M294.707,392.96c-0.059,0.059-0.118,0.059-0.235,0.118l0,0C294.589,393.078,294.647,393.019,294.707,392.96z"/>
	<path d="M296.294,392.02c0.117-0.059,0.353-0.176,0.529-0.294C296.646,391.843,296.47,391.96,296.294,392.02L296.294,392.02z"/>
	<path d="M301.115,389.609c0.176-0.118,0.412-0.176,0.588-0.294C301.467,389.433,301.291,389.55,301.115,389.609
		C301.056,389.609,301.056,389.609,301.115,389.609c-0.118,0.059-0.235,0.176-0.294,0.235c-0.471,0.176-0.941,0.412-1.353,0.646l0,0
		c-0.117,0.059-0.235,0.118-0.294,0.118C299.762,390.256,300.468,389.903,301.115,389.609L301.115,389.609z"/>
	<path d="M305.112,387.787C305.171,387.728,305.171,387.728,305.112,387.787C305.171,387.728,305.171,387.728,305.112,387.787
		c-0.294,0.118-1.646,0.706-3.469,1.587C303.055,388.668,304.348,388.081,305.112,387.787z"/>
	<path d="M307.993,384.083L307.993,384.083L307.993,384.083L307.993,384.083z"/>
	<path d="M308.17,383.789C308.17,383.789,308.17,383.848,308.17,383.789c-0.06,0.059-0.06,0.059-0.06,0.059
		S308.11,383.848,308.17,383.789C308.11,383.848,308.17,383.789,308.17,383.789z"/>
	<path d="M311.639,385.67L311.639,385.67L311.639,385.67C311.639,385.611,311.639,385.611,311.639,385.67z"/>
	<path d="M311.814,386.082L311.814,386.082L311.814,386.082z"/>
	<path d="M314.695,383.436L314.695,383.436L314.695,383.436z"/>
	<path d="M313.343,383.495h-0.059l0,0H313.343z"/>
	<path d="M315.4,383.436c-0.294-0.059-0.528-0.118-0.764-0.176c0,0.059,0,0.059,0.059,0.117l0,0l0,0
		c-0.059,0-0.117-0.059-0.177-0.059l-0.059-0.059l0,0c-0.176,0-0.353,0-0.529,0.059c-0.117,0-0.234,0-0.411,0h-0.059
		c-0.059,0-0.118,0-0.177,0s-0.117,0-0.235,0c-0.176,0-0.353,0-0.588,0c-0.059,0-0.176,0-0.234,0c0,0,0,0-0.06,0
		c-0.059,0-0.117,0-0.117,0c-0.059,0-0.118,0-0.177,0s-0.117,0-0.234-0.059c-0.06,0-0.06-0.059-0.118-0.118
		c-0.117-0.059-0.235-0.118-0.353-0.176c0.176-0.059,0.411-0.118,0.588-0.177c0.117,0.059,0.176,0.177,0.235,0.235
		c-0.06-0.118-0.06-0.176-0.118-0.294c0.177-0.059,0.354-0.118,0.529-0.176c0.294-0.059,0.646-0.176,0.94-0.294c0,0,0.06,0,0.118,0
		c0.176-0.059,0.353-0.118,0.529-0.176c0.234-0.059,0.47-0.118,0.705-0.235c0.117,0,0.177-0.059,0.294-0.118
		c0.117-0.059,0.235-0.118,0.411-0.118c0,0.059,0,0.118,0.06,0.177c0,0.117,0.059,0.294,0.059,0.411
		c0.059,0.294,0.059,0.588,0.117,0.882l0,0c0,0,0,0,0,0.059c0,0.059,0,0.118,0,0.235l0,0l0,0
		C315.519,383.436,315.46,383.436,315.4,383.436z"/>
	<path d="M319.692,395.665c0-0.059-0.059-0.176-0.059-0.235c0-0.059-0.059-0.118-0.059-0.235l0,0c0-0.059-0.06-0.177-0.06-0.235l0,0
		c0-0.118-0.059-0.176-0.059-0.294s-0.059-0.235-0.059-0.412c-0.059,0.059-0.059,0.176-0.117,0.294c0,0.059-0.059,0.176-0.059,0.235
		c0,0.118,0.059,0.412,0.234,0.706C319.516,395.547,319.575,395.605,319.692,395.665c0,0.059,0,0.059,0,0.118
		C319.692,395.723,319.692,395.723,319.692,395.665z M319.516,383.377L319.516,383.377L319.516,383.377
		c-0.234-0.117-0.47-0.235-0.646-0.353l0,0c-0.235-0.118-0.411-0.235-0.529-0.235c-0.059,0-0.059-0.059-0.117-0.059l0,0
		c-0.235-0.118-0.177-0.176-0.235-0.706c0-0.353,0-0.823-0.059-1.293c0-0.412-0.059-0.764-0.059-0.882c0,0,0-0.059-0.059-0.059
		h-0.06h-0.059l0,0c-0.059,0-0.117,0-0.176-0.059c-0.177-0.059-0.471-0.059-0.765-0.059h-0.117h-0.06h-0.117c0,0,0,0-0.059,0h-0.294
		h-0.059h-0.235c-0.059,0-0.118,0-0.177,0l0,0l0,0l0,0c-0.059,0-0.059,0-0.117,0H315.4c-0.059,0-0.059,0-0.117,0h-0.117
		c-0.06,0-0.118,0-0.177,0l0,0h-0.059h-0.059c-0.06,0-0.06,0-0.118,0h-0.059l0,0h-0.059h-0.059h-0.06c0,0,0,0-0.059,0h-0.059
		c0,0,0,0-0.059,0c0,0,0,0-0.059,0l0,0h-0.06l0,0h-0.059l0,0c-0.059,0-0.117,0-0.176,0.059l0,0l0,0l0,0l0,0l0,0l0,0l0,0l0,0l0,0l0,0
		c-0.06,0-0.06,0-0.06,0.059l0,0c0,0.059,0,0.176-0.059,0.47v0.118c0,0.059,0,0.059,0,0.118c0,0.059,0,0.118,0,0.118l0,0l0,0l0,0
		c0.059,0.059,0.118,0.059,0.118,0.117c0.059,0.059,0.059,0.118,0.117,0.118c0,0.059,0,0.118,0,0.118
		c0,0.294-0.059,0.47-0.117,0.706c0,0.059,0.059,0.118,0.176,0.294c-0.176,0.059-0.353,0.118-0.529,0.176
		c-0.234-0.118-0.47-0.235-0.705-0.294c-0.177,0.059-0.471,0.176-0.471,0.176c0.059,0.118,0.118,0.294,0.177,0.412
		c0.117,0.176,0.294,0.412,0.471,0.529c0.059,0.059,0.117,0.117,0.176,0.176l0,0l0,0h0.059h0.06c0.059,0,0.059,0,0.117,0
		s0.117,0,0.177,0h-0.177c0,0,0,0,0.059,0l0,0l0,0c0.059,0,0.059,0,0.118,0c0.059,0,0.117,0,0.234,0c0.177,0,0.354,0,0.529-0.059
		l0,0l0.059,0.059c0.06,0.059,0.118,0.059,0.177,0.118l0,0l0,0c0-0.059,0-0.059-0.059-0.118c0.294,0.059,0.47,0.118,0.764,0.176
		c0.06,0,0.118,0.059,0.177,0.059c0.117,0.059,0.294,0.059,0.529,0.118c0.411,0.059,0.646,0.059,0.882,0.059
		c0.117,0,0.235-0.059,0.411-0.118c0.294-0.059,0.588-0.176,1.059-0.235l0,0h0.117c0.059,0,0.118,0,0.177,0l0,0h0.059
		c0.117,0.059,0.117,0.059,0.177,0.118c0,0,0.059,0,0.059,0.059l0,0c0,0,0,0,0.059,0s0.118,0.059,0.177,0.059
		s0.117,0.059,0.176,0.059l0,0c0.059,0,0.118,0.059,0.118,0.059l0,0l0,0c0.059-0.059,0.059-0.118,0.117-0.118
		C319.751,383.495,319.634,383.436,319.516,383.377z M313.284,383.495L313.284,383.495h0.059H313.284z"/>
	<path d="M314.695,383.377L314.695,383.377C314.637,383.377,314.637,383.377,314.695,383.377
		C314.637,383.377,314.695,383.377,314.695,383.377z"/>
	<path d="M318.575,383.26h-0.117l0,0c-0.471,0.059-0.765,0.176-1.059,0.235c-0.117,0.059-0.235,0.059-0.411,0.118
		c-0.235,0.059-0.529,0.059-0.882-0.059c-0.177-0.059-0.353-0.059-0.529-0.118c-0.059,0-0.117-0.059-0.177-0.059
		c-0.294-0.059-0.528-0.117-0.764-0.176c0,0,0,0,0-0.059l0,0c-0.059-0.118-0.118-0.235-0.177-0.353c0-0.059-0.059-0.059-0.059-0.117
		c-0.059-0.118-0.117-0.177-0.177-0.294c-0.117-0.118-0.176-0.235-0.234-0.353c-0.118-0.118-0.235-0.235-0.177-0.294
		c0.059-0.235,0.059-0.412,0.117-0.706c0-0.059,0-0.117,0-0.117l0,0c0-0.059,0-0.118,0-0.177c0.06-0.529,0.06-0.94,0.06-0.94
		c0.059,0,0.117-0.059,0.176-0.059c0.823-0.235,3.058-0.117,3.352,0.118c0,0,0,0,0,0.059c0,0.176,0.059,0.529,0.117,0.94l0,0l0,0
		c0,0.059,0,0.176,0,0.235l0,0c0,0.235,0.059,0.47,0.059,0.706l0,0c0,0.294,0,0.47,0,0.646s0,0.294,0.118,0.412l0,0l0.059,0.059
		c0.176,0.059,0.353,0.118,0.47,0.235C318.399,383.201,318.458,383.26,318.575,383.26C318.517,383.26,318.517,383.26,318.575,383.26
		z"/>
	<g>
		<path d="M317.929,380.791c-0.059,0.059-0.117,0.118-0.177,0.176l0,0c-0.059,0.059-0.117,0.118-0.176,0.176l0,0
			c-0.294,0.294-0.646,0.529-0.882,0.647c-0.059,0-0.059,0.059-0.118,0.059l0,0c-0.176,0.059-0.47,0-0.822,0
			c-0.118,0-0.294,0-0.412,0c-0.059,0-0.176,0-0.235,0c-0.059,0-0.117,0-0.176,0c-0.177,0-0.294-0.059-0.353-0.118
			c-0.177-0.176-0.471-0.412-0.647-0.646l-0.059-0.059c-0.117-0.117-0.176-0.176-0.294-0.294l0,0l0,0l0,0
			c0-0.117,0-0.176,0.059-0.294l0,0c0.06-0.294,0.06-0.529,0.06-0.588l0,0c0,0,0.059,0,0.059-0.059l0,0l0,0l0,0l0,0c0,0,0,0,0.059,0
			l0,0l0,0l0,0l0,0l0,0c0.059,0,0.117,0,0.177-0.059l0,0h0.059l0,0h0.059l0,0h0.059c0,0,0,0,0.059,0h0.06c0,0,0,0,0.059,0h0.059
			h0.059h0.059l0,0h0.06c0.059,0,0.059,0,0.117,0h0.059h0.059l0,0c0.06,0,0.118,0,0.177,0l0,0h0.059c0.059,0,0.059,0,0.118,0
			c0.059,0,0.059,0,0.117,0s0.059,0,0.117,0l0,0l0,0l0,0c0.06,0,0.118,0,0.177,0h0.059c0.059,0,0.118,0,0.177,0s0.059,0,0.117,0
			s0.177,0,0.235,0c0,0,0,0,0.059,0c0,0,0,0,0.059,0h0.06c0,0,0,0,0.059,0h0.059h0.059h0.059c0.294,0,0.588,0.059,0.765,0.059
			s0.294,0.059,0.353,0.118c0,0,0,0.059,0.059,0.059C317.87,379.967,317.87,380.379,317.929,380.791z"/>
		<path d="M315.813,381.555c-0.294,0-0.588,0-0.882-0.059c-0.118,0-0.235-0.118-0.353-0.118c-0.177-0.118-0.354-0.235-0.529-0.412
			c-0.353-0.294-0.412-0.412-0.412-0.529c0.177-1.47-0.059-2.704-0.059-2.704s-0.059-0.588,0.823-0.765
			c0.882-0.176,1.411-0.176,1.411-0.176s0.529,0,1.411,0.176c0.882,0.177,0.705,0.765,0.705,0.765s-0.235,1.234-0.059,2.704
			c0,0.059,0,0.235-0.412,0.529c-0.353,0.235-0.588,0.47-0.822,0.529C316.4,381.555,316.048,381.555,315.813,381.555z"/>
		<path d="M318.105,377.146c-0.412-0.529-0.765-0.882-2.352-0.941c-1.529,0-1.823,0.412-2.293,0.882c0,0,0,0,0,0.059
			c0,0.059,0,0.117,0,0.176v0.059c0,0.353,0.059,1,0.176,1.999h0.235c0,0-0.117-0.412-0.117-0.882s0.117-0.47,0.059-0.588
			c-0.117-0.118-0.294-0.353,0.117-0.588c0.06,0,0.06-0.059,0.118-0.059l0,0c0.411-0.117,0.999,0.235,1.705,0.235
			c0.705,0,1.352-0.353,1.764-0.235c0.059,0,0.059,0,0.117,0.059c0.117,0.059,0.235,0.176,0.235,0.235c0,0.059,0,0.059,0,0.059
			c0,0.118-0.059,0.235-0.118,0.294c-0.059,0.118,0,0.118,0.06,0.47l0,0l0,0v0.059c0,0.176,0,0.411-0.06,0.529v0.059l0,0l0,0l0,0
			l0,0l0,0c0,0.117-0.059,0.235-0.059,0.235h0.235C318.105,377.91,318.164,377.263,318.105,377.146z M319.398,394.195
			c0,0,0-0.059,0-0.118c-0.059,0.059-0.059,0.176-0.117,0.294v0.059c0,0.059,0.117,0.059,0.176,0.118
			C319.398,394.489,319.398,394.371,319.398,394.195z"/>
		<path d="M320.692,384.612c0,0-0.06,0-0.06-0.059C320.633,384.553,320.692,384.553,320.692,384.612z"/>
		<path d="M321.75,384.318c0,0-0.353-0.059-1.117,0.059c0,0,0,0-0.059,0l-0.059-0.059l0,0l0,0c-0.059-0.059-0.117-0.118-0.117-0.118
			l0,0c0.234,0,0.646-0.059,1.058,0.059C321.574,384.259,321.691,384.259,321.75,384.318L321.75,384.318L321.75,384.318z"/>
	</g>
	<path d="M319.516,394.9c0,0.117,0.06,0.176,0.06,0.294C319.457,395.077,319.457,394.959,319.516,394.9L319.516,394.9z"/>
	<path d="M320.692,384.612c0,0-0.06,0-0.06-0.059C320.633,384.553,320.692,384.553,320.692,384.612z"/>
	<path d="M323.044,393.959C323.044,393.959,322.984,393.959,323.044,393.959c-0.06,0.059-0.06,0.118-0.118,0.118v-0.059
		c0,0,0,0.059,0,0.117c-0.117,0.353-0.235,1-0.882,1.646c-0.117,0.176-0.294,0.235-0.411,0.294c-0.177,0.059-0.353,0-0.588-0.059
		c-0.353-0.118-0.529-0.235-0.941-0.47c-0.059-0.235-0.117-0.47-0.117-0.706c0-0.118-0.059-0.235-0.059-0.294
		c0-0.059,0-0.235,0-0.412c0.059-0.059,0.117-0.117,0.176-0.176c0,0,0.295-0.412,0.765-0.412c0.471,0,0.882-0.059,1-0.176v-0.059
		v-0.059c0-0.059,0-0.118,0-0.118c-0.177-0.588-0.882-0.764-0.588-1.94c0-0.059,0.059-0.118,0.294-0.176
		c0.059,0,0.117,0,0.234-0.059c-0.528-0.117-0.822-0.117-1.176-0.529l0,0c0.177-0.412,0.354-0.706,0.471-0.941
		c0-0.059,0-0.059,0.059-0.059c0.294-0.646,0.118-1.47,0.118-1.47c0.353-0.118,0.646-0.294,0.705-0.412
		c0.353-1.117-0.294-2.234-0.999-2.939c0.47-0.059,1.058,0.059,1.47,0.47c0.999,1,0.705,2.058,0.411,2.763
		c0.235,0.294,0.882,1.176,0.471,2.175c-0.06,0.235-0.588,0.235-0.941,0.823c0.941-0.529,1.529-0.412,1.705,0.294
		C324.278,392.02,323.632,393.195,323.044,393.959z"/>
	<path d="M308.17,383.789C308.17,383.789,308.17,383.848,308.17,383.789c-0.06,0.059-0.06,0.059-0.06,0.059
		S308.11,383.848,308.17,383.789C308.11,383.848,308.17,383.789,308.17,383.789z"/>
	<path d="M310.345,383.142c0,0-0.059,0-0.059-0.059L310.345,383.142C310.345,383.083,310.345,383.083,310.345,383.142z"/>
	<path d="M313.343,383.495h-0.059l0,0H313.343z"/>
	<path d="M314.695,383.377L314.695,383.377c-0.059,0-0.117-0.059-0.177-0.117l-0.059-0.059l0,0c-0.176,0-0.353,0-0.529,0.059
		c-0.117,0-0.234,0-0.411,0h-0.059c-0.059,0-0.118,0-0.177,0s-0.117,0-0.235,0c-0.176,0-0.353,0-0.588,0c-0.059,0-0.176,0-0.234,0
		c0,0,0,0-0.06,0c-0.059,0-0.117,0-0.117,0c-0.059,0-0.118,0-0.177,0s-0.117,0-0.234-0.059c-0.06,0-0.06-0.059-0.118-0.118
		c-0.117-0.059-0.235-0.117-0.353-0.176c-0.294-0.118-0.646-0.176-1.059-0.176c0.353-0.176,0.588-0.412,0.94-0.353
		c0.235,0.059,0.529,0.176,0.706,0.353c0.117,0.059,0.176,0.176,0.235,0.235c-0.06-0.118-0.06-0.177-0.118-0.294
		c-0.059-0.059-0.117-0.177-0.176-0.235c0.176-0.118,0.294-0.294,0.529-0.353c0,0,0.293-0.177,0.47-0.177
		c0.294,0.118,0.529,0.177,0.706,0.294c0.176,0.118,0.353,0.235,0.528,0.353c0,0,0,0,0.06,0.059c0,0,0,0,0.059,0
		c0.176,0.176,0.353,0.294,0.47,0.47l0.06,0.059l0,0l0,0l0,0C314.637,383.318,314.637,383.318,314.695,383.377
		C314.637,383.377,314.695,383.377,314.695,383.377z"/>
	<path d="M313.343,383.495h-0.059l0,0H313.343z"/>
	<path d="M314.401,383.201c-0.177,0-0.353,0-0.529,0.059c-0.117,0-0.235,0-0.411,0l0,0h-0.059c-0.118,0-0.235,0-0.412,0
		c-0.176,0-0.353,0-0.588,0c-0.059,0-0.176,0-0.235,0l0,0c0,0,0,0-0.059,0c-0.177,0-0.411-0.059-0.529-0.059
		c-0.059-0.059-0.059-0.059-0.117-0.059l0,0l0,0l0,0c-0.118-0.059-0.235-0.118-0.353-0.176c-0.294-0.118-0.647-0.177-1.059-0.177
		c0.353-0.176,0.588-0.411,0.94-0.353c0.235,0.059,0.471,0.176,0.706,0.353c0.117,0.059,0.176,0.177,0.234,0.235
		c-0.059-0.118-0.059-0.176-0.117-0.294c-0.059-0.059-0.117-0.176-0.176-0.235c0.176-0.117,0.293-0.294,0.528-0.353
		c0.06-0.059,0.177-0.059,0.235-0.059c0.353,0.059,0.646,0.117,0.882,0.176c0.235,0.059,0.353,0.176,0.529,0.294c0,0,0,0,0.059,0
		l0.059,0.059c0.177,0.118,0.235,0.294,0.412,0.412C314.343,383.142,314.343,383.201,314.401,383.201L314.401,383.201
		L314.401,383.201z"/>
	<path d="M314.695,383.436L314.695,383.436L314.695,383.436z"/>
	<path d="M321.75,384.318c0,0-0.353-0.059-1.117,0.059c0,0,0,0-0.059,0l-0.059-0.059l0,0l0,0c-0.059-0.059-0.117-0.118-0.117-0.118
		c-0.235-0.176-0.471-0.353-0.765-0.47c-0.059,0-0.118-0.059-0.177-0.059l0,0c-0.117-0.059-0.294-0.059-0.353-0.117c0,0,0,0-0.059,0
		l0,0c0,0,0,0,0-0.059l0,0c0-0.059,0-0.118,0-0.118c0-0.059-0.177-0.176-0.177-0.235l-0.059-0.059c0,0,0,0,0.059,0
		c0.059-0.059,0.177-0.059,0.354-0.117l0,0l0,0c0.059,0,0.176,0,0.234,0.059c0.294,0.118,0.471,0.47,0.471,0.47
		c0.529-0.176,0.588,0,0.823,0.294C321.339,383.612,321.397,383.789,321.75,384.318L321.75,384.318L321.75,384.318z"/>
	<path d="M321.456,384.259c-0.176,0-0.47,0-0.882,0.059l0,0l0,0l0,0c-0.059-0.059-0.117-0.118-0.117-0.118
		c-0.235-0.176-0.471-0.353-0.765-0.47c-0.059,0-0.117-0.059-0.177-0.059l0,0c-0.117-0.059-0.293-0.059-0.353-0.117h0.06l0,0
		c0.117-0.059,0.234-0.118,0.353-0.118l0,0c0.117,0,0.235,0.059,0.353,0.294c0.529-0.176,0.588,0.059,0.882,0.353
		C321.339,383.73,321.397,384.083,321.456,384.259L321.456,384.259z"/>
	<path d="M315.46,405.776h0.059c0,0,0,0,0.059,0h0.059c-0.059,0-0.059,0-0.117,0c0.059,0,0.059,0,0.117,0s0.118,0,0.118,0
		c0.234,0.059,0.528,0.059,0.882,0.118c0.117,0,0.234,0,0.353,0c0.117,0,0.294,0,0.47,0l0,0h0.06c0.117,0,0.234,0,0.353,0
		c0,0,0,0,0.059,0s0.117,0,0.235,0c0.117,0,0.294,0,0.411-0.06c0.059,0,0.118,0,0.177,0l0,0c0.059,0,0.117,0,0.235,0l0,0
		c0.059-0.234,0.117-0.411,0.176-0.588c0.118-0.294,0.235-0.646,0.235-0.882c0.059-0.47,0.059-0.882,0-1.293
		c1.411-1.528,0.823-4.527,0.471-6.82l0,0c0-0.118-0.059-0.235-0.059-0.412c0,0,0-0.059,0-0.118h-0.06l-2.704,0.47h-0.059
		l-1.059,0.177l-0.588,0.117v-0.059c0,0.059,0,0.117,0,0.235c0,0.235,0,0.47,0,0.705v0.059c0,1.588,0.177,2.764,0.353,3.646
		c0.06-0.177,0.177-0.353,0.235-0.529c0.118-0.294,0.235-0.646,0.294-0.999c0.177-0.529,0.353-1.294,0.529-1.94
		c0.059,0,0.117,0,0.177,0h0.059c-0.294,1.411-0.235,2.528-0.823,3.704c0.411,1.117,0.823,1.646,0.882,3.175
		C316.165,404.483,315.636,405.13,315.46,405.776 M316.694,397.604c0,0-0.059,0-0.118,0l0,0c0.06-0.117,0.06-0.235,0.118-0.353
		c0-0.059,0.059-0.118,0.059-0.177c0.059-0.117,0.059-0.176,0.117-0.294c0.06-0.059,0.06-0.176,0.118-0.235l0.059-0.059
		c-0.059,0.235-0.117,0.471-0.177,0.646l0,0l-0.117,0.354C316.812,397.546,316.753,397.546,316.694,397.604z M315.694,405.835
		L315.694,405.835C315.694,405.835,315.754,405.835,315.694,405.835c0.06,0,0.06,0,0.118,0l0,0h0.059l0,0
		C315.871,405.835,315.813,405.835,315.694,405.835C315.754,405.835,315.694,405.835,315.694,405.835z M316.048,408.305
		c-0.118-0.177-0.235-0.412-0.354-0.646c-0.059,0-0.059,0-0.117,0C315.694,407.893,315.871,408.128,316.048,408.305
		c0,0.059,0.059,0.117,0.059,0.117S316.048,408.363,316.048,408.305z M314.931,406.07c0,0.059,0,0.118,0,0.177s0,0.117,0,0.235
		C314.931,406.306,314.931,406.188,314.931,406.07L314.931,406.07z M317.87,406.247h-0.059c0.059,0,0.117,0,0.234,0
		C317.929,406.247,317.929,406.247,317.87,406.247z M313.284,383.495L313.284,383.495h0.059H313.284z M316.93,383.612
		c-0.412-0.118-0.882-0.176-1.353-0.176h-0.059l0,0c-0.059,0-0.059,0-0.118,0c0.06,0,0.118,0.059,0.177,0.059
		c0.117,0.059,0.294,0.059,0.529,0.118c0.411,0.059,0.646,0.059,0.882,0.059C316.988,383.612,316.93,383.612,316.93,383.612z
		 M319.398,393.372c-0.059,0-0.059,0-0.117,0c-0.294,0.059-0.941,0.118-1.764,0.118c-0.294,0-0.647,0-0.941-0.059
		c-0.234,0-0.47-0.059-0.764-0.059c-0.235-0.059-0.471-0.059-0.706-0.176c-0.117-0.059-0.234-0.059-0.294-0.059
		c-0.117,0-0.176-0.059-0.294-0.059c-0.059,0-0.117,0-0.176-0.059c-0.059,0-0.118-0.059-0.177-0.059l0,0l0,0
		c-0.117,0-0.176-0.059-0.235-0.059c-0.059,0-0.117-0.059-0.176-0.059s-0.118-0.059-0.118-0.059c-0.059,0-0.059-0.059-0.117-0.059
		s-0.059-0.059-0.059-0.059l0,0c0,0.059,0,0.176-0.059,0.294c0,0.118,0,0.235-0.06,0.294l0,0c0.235,0,0.529,0,0.765,0.059
		c0.823,0.059,1.587,0.118,2.352,0.235l0,0c1.059,0.118,2.058,0.294,2.881,0.353c0-0.118,0-0.235,0-0.412
		C319.34,393.489,319.34,393.489,319.398,393.372C319.398,393.431,319.398,393.372,319.398,393.372z M320.574,384.318
		L320.574,384.318L320.574,384.318c0,0.059,0.059,0.059,0.059,0.059s0,0,0.06,0C320.633,384.376,320.574,384.318,320.574,384.318z
		 M312.932,388.315c-0.117-0.588,0.235-1.176,0.765-1.058c-0.882-0.294-1.529-0.764-1.823-1.117l-0.059-0.059l0,0
		c-0.059,0.059-0.117,0.176-0.176,0.235c0.117,0.882-0.177,1.587-0.589,2.058c0.412,0.47,1.059,1.176,1.47,1.411
		c0.412,0.235,0.706,0.294,1.411,0.177C313.52,389.139,312.99,388.727,312.932,388.315z M313.931,389.962L313.931,389.962
		L313.931,389.962L313.931,389.962z M313.931,389.962c-0.234,0.294-0.411,0.411-0.764,0.588c0,0.294,0.117,0.823,0.235,1.411
		c0.117,0.118,0.47,0.294,0.822,0.471c0-0.177,0.06-0.412,0.06-0.647C314.284,391.02,314.107,390.432,313.931,389.962z
		 M314.225,392.431L314.225,392.431l0.118,0.059C314.284,392.49,314.225,392.431,314.225,392.431z M319.751,390.55
		c-0.294,0.411-0.646,0.823-1.117,1.234c-0.353,0.294-0.705,0.529-1.116,0.882c-0.882-0.059-1.999-0.118-3.233-0.118
		c0.176,0.118,0.411,0.177,0.646,0.294c0.353,0.118,0.705,0.294,0.999,0.353c0.059,0,0.118,0,0.118,0.059c0.059,0,0.117,0,0.176,0
		c0.118,0,0.235,0,0.353,0.059c0.06,0,0.118,0,0.235,0c0.118,0,0.235,0,0.353,0h0.06c0.822,0,1.764-0.059,2.116-0.118l0,0
		c0,0,0,0,0.059,0l0,0l0,0C319.398,391.96,319.516,391.138,319.751,390.55z M311.639,385.611L311.639,385.611L311.639,385.611
		L311.639,385.611z"/>
	<path d="M316.282,408.834c0-0.06-0.059-0.118-0.059-0.177s-0.059-0.177-0.117-0.235c0.059,0.059,0.059,0.177,0.117,0.235
		C316.224,408.774,316.282,408.834,316.282,408.834c0.118,0.353,0.235,0.822,0.354,1.293
		C316.518,409.716,316.459,409.245,316.282,408.834z M317.87,406.247h-0.059c0.059,0,0.117,0,0.234,0
		C317.929,406.247,317.929,406.247,317.87,406.247z M319.811,396.135L319.811,396.135c0-0.118-0.06-0.235-0.118-0.412
		c0,0,0-0.059,0-0.118c0-0.059-0.059-0.176-0.059-0.235l-0.118,0.059l-2.586,0.588h-0.06l-0.999,0.235l-0.588,0.118l0,0
		c0,0.059,0,0.117,0,0.235c0,0.234,0.059,0.47,0.059,0.705v0.059c0.118,1.411,0.294,2.352,0.529,3.058
		c0.117-0.294,0.235-0.647,0.294-1c0.177-0.528,0.353-1.293,0.529-1.939c0.059,0,0.117,0,0.176,0h0.06
		c-0.294,1.411-0.235,2.527-0.823,3.703c0.411,1.117,0.823,1.646,0.882,3.175c-0.765,0-1.234,0.588-1.47,1.235l0,0h0.059
		c0,0,0,0,0.059,0h0.059c-0.059,0-0.059,0-0.117,0c0.059,0,0.059,0,0.117,0c0.06,0,0.118,0,0.118,0
		c0.235,0.059,0.529,0.059,0.882,0.117c0.117,0,0.235,0,0.353,0s0.294,0,0.471,0h0.059c0.117,0,0.235,0,0.353,0c0,0,0,0,0.059,0
		s0.118,0,0.235,0s0.294,0,0.411-0.059c0.06,0,0.118,0,0.177,0l0,0c0.059,0,0.117,0,0.235,0l0,0
		c0.059-0.235,0.117-0.412,0.177-0.588c0.117-0.294,0.234-0.647,0.234-0.882c0.059-0.471,0.059-0.882,0-1.294
		C320.751,401.426,320.163,398.428,319.811,396.135z M316.694,397.604c0,0-0.059,0-0.118,0l0,0c0.06-0.117,0.06-0.235,0.118-0.353
		c0-0.059,0.059-0.118,0.059-0.177c0.059-0.117,0.059-0.176,0.117-0.294c0.06-0.059,0.06-0.176,0.118-0.235l0.059-0.059
		c-0.059,0.235-0.117,0.471-0.177,0.646l0,0l-0.117,0.354C316.812,397.546,316.753,397.546,316.694,397.604z M315.694,405.835
		L315.694,405.835C315.694,405.835,315.754,405.835,315.694,405.835c0.06,0,0.06,0,0.118,0l0,0h0.059l0,0
		C315.871,405.835,315.813,405.835,315.694,405.835C315.754,405.835,315.694,405.835,315.694,405.835z M311.639,385.611
		L311.639,385.611L311.639,385.611L311.639,385.611z M319.751,390.55c-0.294,0.411-0.646,0.823-1.117,1.234
		c-0.353,0.294-0.705,0.529-1.116,0.882c-0.882-0.059-1.999-0.118-3.233-0.118c0.176,0.118,0.411,0.177,0.646,0.294
		c0.764,0.059,1.47,0.118,2.175,0.177c0.646,0.059,1.353,0.117,2.234,0.117l0,0c0,0,0,0,0.059,0l0,0l0,0
		C319.398,391.96,319.516,391.138,319.751,390.55z M314.225,392.431L314.225,392.431l0.118,0.059
		C314.284,392.49,314.225,392.431,314.225,392.431z M313.931,389.962c-0.234,0.294-0.411,0.411-0.764,0.588
		c0,0.294,0.117,0.823,0.235,1.411c0.117,0.118,0.47,0.294,0.822,0.471c0-0.177,0.06-0.412,0.06-0.647
		C314.284,391.02,314.107,390.432,313.931,389.962z M312.932,388.315c-0.117-0.588,0.235-1.176,0.765-1.058
		c-0.882-0.294-1.529-0.764-1.823-1.117l-0.059-0.059l0,0c-0.059,0.059-0.117,0.176-0.176,0.235
		c0.117,0.882-0.177,1.587-0.589,2.058c0.412,0.47,1.059,1.176,1.47,1.411c0.412,0.235,0.706,0.294,1.411,0.177
		C313.52,389.139,312.99,388.727,312.932,388.315z M313.049,383.318c-0.176,0-0.353,0-0.529,0c-0.059,0-0.059,0-0.117,0
		c0.059,0,0.059,0,0.117,0c0.06,0,0.177,0,0.235,0C312.814,383.318,312.932,383.318,313.049,383.318c0.06,0,0.06,0,0.06,0h0.059
		c0.059,0,0.059,0,0.117,0C313.167,383.318,313.108,383.318,313.049,383.318z M313.284,383.495L313.284,383.495h0.059H313.284z
		 M317.341,383.495c-0.177-0.059-0.294-0.118-0.471-0.176l0,0l0,0c-0.353-0.118-0.705-0.118-1.116-0.176h-0.06
		c-0.059,0-0.117,0-0.117,0c-0.294,0-0.646,0-0.94,0l0,0l0,0l0,0h-0.059c-0.06,0-0.06,0-0.118,0l0,0l0.059,0.059
		c0.06,0.059,0.118,0.059,0.177,0.118l0,0l0,0c0-0.059,0-0.059-0.059-0.118c0.294,0.059,0.47,0.118,0.764,0.176
		c0.06,0,0.118,0.059,0.177,0.059c0.117,0.059,0.294,0.059,0.529,0.118c0.411,0.059,0.646,0.059,0.882,0.059
		C317.105,383.612,317.224,383.554,317.341,383.495C317.341,383.554,317.341,383.495,317.341,383.495z"/>
	<path d="M320.574,387.963c0,0.294-0.059,0.706-0.176,1.117c-0.06,0.059-0.06,0.176-0.118,0.235
		c-0.059,0.118-0.117,0.235-0.177,0.412c-0.059,0.118-0.117,0.235-0.176,0.353c-0.059,0.118-0.117,0.294-0.177,0.412
		c-0.294,0.412-0.646,0.823-1.117,1.176c-0.353,0.294-0.705,0.529-1.116,0.882c-0.882-0.059-1.999-0.117-3.233-0.117
		c0,0-0.06,0-0.118-0.059c0-0.176,0-0.412,0.059-0.646c0-0.765-0.117-1.411-0.353-1.823l0,0l0,0
		c-0.353-0.823-0.882-1.234-0.999-1.646c-0.118-0.588,0.235-1.176,0.764-1.058h0.06c0.47,0.118,0.764,0.059,1.176-0.059
		c1.646-0.412,3.292-0.529,4.82-0.059c0.059,0,0.118,0,0.118,0.059c0.176,0.059,0.353,0.118,0.528,0.235c0,0,0.06,0,0.06,0.059
		C320.574,387.61,320.574,387.787,320.574,387.963z"/>
	<path d="M313.461,394.371L313.461,394.371c0,0.059,0,0.059-0.059,0.118c-0.06,0.059-0.118,0.176-0.235,0.294
		c-0.059,0.059-0.177,0.176-0.294,0.294c-0.059,0.059-0.059,0.059-0.059,0.059c-0.06,0.059-0.177,0.176-0.354,0.235
		c-0.059-0.059-0.059-0.059-0.117-0.118c-0.177-0.176-0.294-0.294-0.353-0.353l0,0l0,0c0.059-0.294,0.294-1.059,0.411-1.529
		c0.177,0.059,0.294,0.176,0.412,0.294c0.059,0.059,0.117,0.118,0.234,0.176C313.343,394.019,313.52,394.195,313.461,394.371z"/>
	<path d="M316.106,393.136c-0.059,0-0.059,0-0.118,0c0.294,0,0.588,0.059,0.882,0.059c0.118,0,0.177,0,0.294,0
		c-0.117,0-0.234,0-0.353,0C316.576,393.195,316.282,393.136,316.106,393.136z"/>
	<path d="M319.751,396.135c-0.47,0.471-1.411,1.059-2.821,1.353h-0.06c0,0,0,0-0.059,0l0.118-0.354l0,0
		c0.059-0.234,0.117-0.411,0.176-0.646l-0.059,0.059c-0.059,0.06-0.117,0.118-0.117,0.235c-0.06,0.059-0.06,0.177-0.118,0.294
		c0,0.059-0.059,0.118-0.059,0.177c-0.059,0.117-0.059,0.235-0.117,0.353l0,0c-0.118,0-0.177,0-0.294,0
		c-0.354,0-0.706-0.117-1.059-0.235h-0.059c-0.177-0.059-0.353-0.117-0.471-0.235c-0.235-0.117-0.47-0.294-0.705-0.47
		c-0.471-0.353-0.882-0.706-1.234-1.059c0.059,0,0.059-0.059,0.117-0.059c0,0,0.059-0.059,0.117-0.059
		c0.06-0.059,0.06-0.059,0.118-0.118l0.059-0.059c0.059,0,0.059-0.059,0.059-0.059c0.118-0.176,0.294-0.294,0.353-0.353
		c0.177-0.177,0.294-0.177,0.294-0.353l0,0l0,0v-0.059c0-0.059,0-0.118-0.059-0.235c-0.117-0.235-0.411-0.47-0.588-0.588
		l-0.059-0.059c0-0.059,0.059-0.118,0.059-0.176l0,0c0-0.118,0-0.235,0.059-0.294c0.235,0,0.471,0,0.765,0l0,0l0,0
		c0.059,0,0.117,0.059,0.177,0.059c0.059,0,0.117,0.059,0.176,0.059s0.177,0.059,0.294,0.059c0.118,0,0.177,0.059,0.294,0.059
		c0.235,0.059,0.471,0.118,0.706,0.176c0.234,0.059,0.47,0.059,0.764,0.059c0.353,0,0.646,0.059,0.94,0.059
		c0.765,0,1.411-0.059,1.765-0.118c0.059,0,0.117,0,0.117,0c0,0.059,0,0.118,0,0.118c0,0.118,0,0.294,0,0.412
		c0,0.059,0,0.118,0,0.176c0,0,0,0.059,0,0.118c0,0.118,0.059,0.294,0.059,0.412s0.059,0.176,0.059,0.294l0,0
		c0,0.118,0.059,0.176,0.059,0.235l0,0c0,0.059,0.06,0.177,0.06,0.235c0,0.118,0.059,0.176,0.059,0.235c0,0.059,0,0.059,0,0.117
		C319.751,395.899,319.751,396.017,319.751,396.135z"/>
	<path d="M313.461,394.253v-0.059c0,0,0-0.059-0.059-0.059l-0.06-0.059l-0.117-0.118l-0.059-0.059c0,0,0-0.059-0.059-0.059l0,0
		c-0.06,0.235-0.118,0.412-0.177,0.647l0,0l0,0c0,0.118-0.059,0.294-0.117,0.412c0,0,0,0.059,0.059,0.117l0,0
		c0.117-0.117,0.235-0.235,0.294-0.294l0,0c0.059-0.059,0.117-0.117,0.176-0.235l0.06-0.059c0,0,0-0.059,0.059-0.059v-0.059
		C313.461,394.313,313.461,394.313,313.461,394.253C313.461,394.313,313.461,394.253,313.461,394.253z M319.398,392.784
		c-0.471-0.059-1.059-0.118-1.822-0.176c-0.882-0.059-1.999-0.118-3.233-0.118c0.176,0.118,0.411,0.176,0.646,0.294
		c0.353,0.118,0.705,0.294,0.999,0.353c0.06,0,0.118,0,0.118,0.059c0.059,0,0.117,0,0.176,0c0.118,0,0.235,0,0.354,0.059
		c0.059,0,0.117,0,0.234,0c0.118,0,0.235,0,0.354,0h0.059c0.823,0,1.764-0.059,2.116-0.118l0,0l0,0
		C319.398,392.96,319.398,392.842,319.398,392.784z M319.751,396.135c0-0.118-0.059-0.235-0.059-0.412c0,0,0-0.059,0-0.118
		c0-0.059-0.059-0.176-0.059-0.235c0-0.059-0.059-0.118-0.059-0.235l0,0c0-0.059-0.06-0.176-0.06-0.235l0,0
		c0-0.118-0.059-0.177-0.059-0.294c0-0.118-0.059-0.235-0.059-0.412c0,0,0-0.059,0-0.118s0-0.118,0-0.176c0-0.118,0-0.235,0-0.412
		c0,0,0-0.059,0-0.118c0,0,0,0,0-0.059c-0.059,0-0.059,0-0.117,0c-0.294,0.059-0.941,0.118-1.764,0.118
		c-0.294,0-0.647,0-0.941-0.059c-0.234,0-0.47-0.059-0.764-0.059c-0.235-0.059-0.471-0.059-0.706-0.177
		c-0.117-0.059-0.234-0.059-0.294-0.059c-0.117,0-0.176-0.059-0.294-0.059c-0.059,0-0.117,0-0.176-0.059
		c-0.059,0-0.118-0.059-0.177-0.059l0,0l0,0c-0.117,0-0.176-0.059-0.235-0.059c-0.059,0-0.117-0.059-0.176-0.059
		s-0.118-0.059-0.118-0.059c-0.059,0-0.059-0.059-0.117-0.059s-0.059-0.059-0.059-0.059l0,0c0,0.059,0,0.176-0.059,0.294
		c0,0.118,0,0.235-0.06,0.294l0,0c0,0.059-0.059,0.118-0.059,0.176l0.059,0.059c0.118,0.176,0.412,0.353,0.588,0.588
		c0.06,0.059,0.06,0.117,0.06,0.235v0.059l0,0l0,0c-0.06,0.176-0.177,0.235-0.294,0.353c-0.06,0.059-0.177,0.176-0.354,0.353
		l-0.059,0.059l-0.059,0.059c0.235,0.294,0.529,0.764,0.94,1.176c0.177,0.176,0.412,0.412,0.646,0.588
		c0.177,0.117,0.294,0.234,0.471,0.294c0,0,0.059,0,0.059,0.059c0.412,0.176,0.823,0.294,1.294,0.176h0.059c0.059,0,0.117,0,0.176,0
		h0.118c1.352,0,2.822,0.06,2.822-1.175C319.811,396.37,319.811,396.252,319.751,396.135z M316.694,397.604c0,0-0.059,0-0.118,0l0,0
		c0.06-0.117,0.06-0.235,0.118-0.353c0-0.059,0.059-0.118,0.059-0.177c0.059-0.117,0.059-0.176,0.117-0.294
		c0.06-0.059,0.06-0.176,0.118-0.235l0.059-0.059c-0.059,0.235-0.117,0.471-0.177,0.646l0,0l-0.117,0.354
		C316.812,397.546,316.753,397.546,316.694,397.604z"/>
	<path d="M313.402,394.43c-0.118,0-0.294,0-0.471,0c-0.117,0-0.177,0-0.294,0.059c-0.177,0-0.294,0.059-0.471,0.059
		c-0.059,0.118-0.059,0.176-0.117,0.294c-0.118,0.294-0.177,0.529-0.294,0.823l0,0c0.059,0,0.059,0,0.117,0s0.059,0,0.118,0
		c0.059,0,0.059,0,0.117-0.059c0,0,0.059,0,0.059-0.059l0,0c0,0,0,0,0.06-0.059c0,0,0,0,0.059-0.059l0.059-0.059
		c0,0,0.117-0.059,0.176-0.118c0,0,0.06-0.059,0.118-0.059c0.059-0.059,0.117-0.118,0.177-0.118c0,0,0.059,0,0.059-0.059
		c0,0,0,0,0.059-0.059c0,0,0,0,0.059-0.059c0.118-0.118,0.235-0.235,0.294-0.294l0,0c0.059-0.059,0.118-0.118,0.177-0.235
		C313.402,394.489,313.402,394.489,313.402,394.43L313.402,394.43z M316.753,397.252c0-0.059,0.059-0.118,0.059-0.177
		c0.059-0.117,0.059-0.176,0.118-0.294c0.059-0.059,0.059-0.176,0.117-0.235l0.059-0.059l0,0c0-0.059-0.117-0.176-0.235-0.411
		l-0.059-0.059c-0.294-0.353-0.764-0.882-1.528-1.234c-0.411-0.176-0.823-0.294-1.353-0.353c-0.059,0.177-0.176,0.235-0.294,0.353
		c-0.059,0.059-0.176,0.176-0.353,0.353l-0.059,0.059l-0.059,0.059c-0.059,0.059-0.118,0.118-0.118,0.118
		c-0.059,0.059-0.059,0.059-0.117,0.059c0,0-0.059,0.059-0.117,0.059c-0.06,0-0.06,0.059-0.118,0.059l-0.353,0.412
		c-0.059,0-0.117,0.059-0.177,0.059c-1.117,3.645-0.882,5.527-0.588,6.584c0.765-2.587,1.588-4.468,2.47-5.938
		c0.235,0.176,0.47,0.294,0.705,0.47c0.177,0.118,0.294,0.235,0.471,0.294c0,1.588,0.176,2.764,0.353,3.646
		c0.059-0.177,0.177-0.353,0.235-0.529c0.117-0.294,0.235-0.646,0.294-0.999c0.176-0.529,0.353-1.294,0.529-1.94
		c0.059,0,0.117,0,0.176,0h0.059v-0.059c0-0.118,0.06-0.235,0.06-0.353l0,0l-0.118,0.353c-0.059,0-0.059,0-0.117,0
		c0,0-0.059,0-0.118,0l0,0C316.636,397.487,316.694,397.369,316.753,397.252z M313.52,403.425L313.52,403.425
		c0.117-0.059,0.235-0.177,0.353-0.294C313.755,403.248,313.637,403.308,313.52,403.425z M312.814,406.012v0.059v0.059v-0.059
		V406.012L312.814,406.012z M312.696,406.776c-0.059,0.294-0.177,0.588-0.235,0.822c0.059-0.117,0.118-0.294,0.177-0.411
		C312.638,407.011,312.696,406.894,312.696,406.776c0.059-0.118,0.059-0.294,0.118-0.471
		C312.755,406.423,312.755,406.6,312.696,406.776z M309.992,406.188L309.992,406.188L309.992,406.188
		c0.059-0.06,0.059-0.118,0.059-0.177C309.992,406.07,309.992,406.129,309.992,406.188z M310.109,405.541
		c-0.059,0.118-0.059,0.294-0.117,0.412C310.051,405.835,310.109,405.718,310.109,405.541L310.109,405.541z"/>
	<path d="M312.402,395.488l-0.059,0.059c0.059-0.118,0.059-0.176,0.117-0.294c0.059-0.235,0.177-0.47,0.235-0.706l0,0
		c0.118,0,0.177-0.059,0.294-0.059c0.177,0,0.353-0.059,0.471-0.059c0,0,0,0.059-0.059,0.059c-0.06,0.059-0.118,0.176-0.235,0.294
		c-0.059,0.059-0.177,0.176-0.294,0.294c-0.059,0.059-0.059,0.059-0.059,0.059c-0.06,0.059-0.177,0.176-0.354,0.235
		C312.461,395.429,312.402,395.488,312.402,395.488z"/>
	<path d="M310.168,405.601c-0.059,0.117-0.117,0.294-0.117,0.411C310.051,405.835,310.109,405.718,310.168,405.601
		C310.109,405.541,310.109,405.541,310.168,405.601z"/>
	<path d="M312.814,406.306c0,0.177-0.06,0.353-0.06,0.471c0,0.117-0.059,0.294-0.117,0.411s-0.118,0.235-0.177,0.411
		c0.118-0.234,0.177-0.528,0.235-0.822C312.755,406.6,312.755,406.423,312.814,406.306z"/>
	<path d="M312.873,405.188L312.873,405.188L312.873,405.188L312.873,405.188z"/>
	<path d="M317.105,396.546l-0.059,0.06c-0.059,0.059-0.117,0.117-0.117,0.234c-0.06,0.06-0.06,0.177-0.118,0.294
		c0,0.06-0.059,0.118-0.059,0.177c-0.059,0.117-0.059,0.235-0.117,0.353l0,0l0,0l0,0c-0.177,0.646-0.354,1.353-0.529,1.94
		c-0.059,0.353-0.177,0.646-0.294,0.999c-0.059,0.177-0.118,0.354-0.235,0.529c-0.177-0.882-0.353-2.058-0.353-3.645
		c-0.177-0.06-0.353-0.177-0.471-0.294c-0.235-0.118-0.47-0.294-0.705-0.471c-0.882,1.47-1.705,3.352-2.47,5.938
		c-0.294-1.058-0.529-2.939,0.588-6.584c0.06,0,0.118-0.059,0.177-0.059l0.353-0.235c0.059,0,0.059-0.059,0.118-0.059
		c0.059-0.059,0.059-0.059,0.117-0.059c0,0,0.059-0.059,0.117-0.059c0.06-0.059,0.06-0.059,0.118-0.117l0.059-0.059
		c0.059,0,0.059-0.059,0.059-0.059c0.118-0.176,0.294-0.294,0.353-0.353c0.177-0.176,0.294-0.176,0.294-0.353l0,0l0,0v-0.059
		c0.588,0,1.059,0.117,1.47,0.294c0.823,0.353,1.235,0.94,1.47,1.352c0,0,0,0.059,0.06,0.059l0,0
		C317.047,396.311,317.105,396.429,317.105,396.546L317.105,396.546z"/>
	<g>
		<path d="M313.461,394.253v-0.059c0,0,0-0.059-0.059-0.059l-0.06-0.059l-0.117-0.118l-0.059-0.059c0,0,0-0.059-0.059-0.059l0,0
			c-0.06-0.059-0.118-0.117-0.235-0.176c-0.118-0.118-0.235-0.235-0.412-0.294c-0.176-0.118-0.353-0.176-0.529-0.176
			c-0.176-0.059-0.411-0.059-0.588-0.059h-0.059c-0.059,0-0.117,0-0.176,0c0,0-0.06,0-0.06,0.059l-0.059,0.059
			c-0.059,0-0.059,0.059-0.117,0.059c0,0-0.059,0.059-0.118,0.059c-0.059,0-0.059,0.059-0.117,0.059
			c-0.117,0.117-0.177,0.176-0.177,0.294c0,0.059-0.059,0.117-0.059,0.176v0.059c-0.059,0.118-0.059,0.294,0,0.412v0.059
			c0,0.118,0.059,0.235,0.118,0.353c0,0.059,0.059,0.059,0.059,0.118c0.117,0.117,0.235,0.235,0.353,0.294
			c0.059,0.059,0.117,0.117,0.177,0.117c0,0,0,0,0.059,0l0,0l0.059,0.059v0.059v0.059l0,0c0,0,0.059,0,0.059,0.059
			c0.118,0.059,0.235,0.118,0.354,0.118c0.059,0,0.059,0,0.117,0s0.059,0,0.117,0s0.059,0,0.118-0.059c0,0,0.059,0,0.059-0.059
			c0,0,0-0.059,0.059-0.059c0,0,0,0,0.059-0.059l0.06-0.059c0,0,0.117-0.059,0.176-0.118c0,0,0.059-0.059,0.117-0.059
			c0.06-0.059,0.118-0.118,0.177-0.118c0,0,0.059,0,0.059-0.059c0,0,0,0,0.06-0.059c0,0,0,0,0.059-0.059
			c0.117-0.118,0.235-0.235,0.294-0.294l0,0c0.059-0.059,0.117-0.118,0.176-0.235l0.06-0.059
			C313.402,394.313,313.402,394.253,313.461,394.253v-0.059c0,0,0,0,0-0.059C313.461,394.313,313.461,394.253,313.461,394.253z
			 M317.812,414.536c1.058,0,2.469,0.294,4.057,0.294C320.339,414.83,318.811,414.36,317.812,414.536z M321.927,414.889
			c-1.588-0.059-3.058-0.294-4.115-0.294h-0.118c0.059,0,0.118,0,0.118,0h-0.765c0-0.117-0.059-0.176-0.059-0.294l-0.94-0.059
			l-0.471-0.059h-0.117l0,0l0,0l0,0l0,0l0,0l0,0l0,0l0,0l0,0l0,0l0,0l0,0c0,0,0,0.059,0.059,0.117l0,0c0,0,0,0.06,0.059,0.06l0,0
			c0,0,0.059,0.059,0.059,0.117c0.059,0.059,0.118,0.059,0.177,0.117l0,0c0.059,0.06,0.176,0.06,0.235,0.06c0.059,0,0.117,0,0.176,0
			c0.118,0,0.235,0,0.353,0c0.118,0,0.235,0,0.294,0c0.118,0,0.177,0,0.294,0c0.294,0,0.529,0,0.823,0s0.588,0,0.882,0.059
			c0.059,0,0.177,0,0.235,0c0.177,0,0.353,0.059,0.588,0.059c0.118,0,0.294,0.059,0.411,0.059c0.883,0.118,1.353,0.235,1.823,0.235
			l0,0c0.117-0.059,0.235-0.177,0.294-0.294C322.103,414.889,322.044,414.889,321.927,414.889z M322.162,415.183L322.162,415.183
			c0,0,0.059,0,0.117,0H322.162z M322.279,415.183c0.059,0,0.117,0,0.177,0c0,0,0.059,0,0.117,0
			C322.456,415.183,322.338,415.183,322.279,415.183z M322.221,414.654c0,0.059,0,0.117-0.059,0.234c0.176,0,0.353,0,0.528,0l0,0
			c0.06-0.059,0.06-0.117,0.06-0.176L322.221,414.654z M322.69,415.124c-0.059,0-0.059,0-0.117,0
			C322.632,415.124,322.632,415.124,322.69,415.124c0.06,0,0.118,0,0.177,0c0.117,0,0.177-0.059,0.235-0.059s0.059,0,0.117-0.059
			C323.103,415.065,322.926,415.065,322.69,415.124z M323.455,414.771L323.455,414.771L323.455,414.771
			C323.455,414.83,323.455,414.83,323.455,414.771L323.455,414.771C323.455,414.83,323.455,414.83,323.455,414.771
			C323.455,414.83,323.455,414.83,323.455,414.771C323.455,414.83,323.455,414.83,323.455,414.771
			C323.455,414.83,323.455,414.83,323.455,414.771C323.455,414.83,323.455,414.771,323.455,414.771L323.455,414.771L323.455,414.771
			z"/>
		<path d="M317.812,414.536c1.058,0,2.469,0.294,4.057,0.294C320.339,414.83,318.811,414.36,317.812,414.536z M321.927,414.889
			c-1.588-0.059-3.058-0.294-4.115-0.294h-0.118c0.059,0,0.118,0,0.118,0h-0.765c0-0.117-0.059-0.176-0.059-0.294v-0.117
			l-0.823-0.117c0,0.059-0.059,0.059-0.059,0.117c-0.059,0.117-0.118,0.235-0.059,0.353l0,0v0.059
			c0.059,0.06,0.117,0.118,0.176,0.177c0.118,0,0.235,0,0.353,0c0.118,0,0.235,0,0.294,0c0.118,0,0.177,0,0.294,0
			c0.294,0,0.529,0,0.823,0s0.588,0,0.882,0.059c0.059,0,0.177,0,0.235,0c0.177,0,0.353,0.059,0.588,0.059
			c0.118,0,0.294,0.06,0.411,0.06c0.883,0.117,1.353,0.234,1.823,0.234l0,0c0.117-0.059,0.235-0.176,0.294-0.294
			C322.103,414.889,322.044,414.889,321.927,414.889z M322.75,414.595l-0.529-0.059c0,0.059,0,0.059,0,0.118
			c0,0.059,0,0.117-0.059,0.234c0.176,0,0.353,0,0.528,0l0,0c0.06-0.059,0.06-0.117,0.06-0.176S322.75,414.654,322.75,414.595z
			 M312.814,406.07v0.059C312.814,406.129,312.814,406.129,312.814,406.07L312.814,406.07z M312.696,406.776
			c-0.059,0.294-0.177,0.588-0.235,0.822c0.059-0.117,0.118-0.294,0.177-0.411C312.638,407.011,312.696,406.894,312.696,406.776
			c0.059-0.118,0.059-0.294,0.118-0.471C312.755,406.423,312.755,406.6,312.696,406.776z M309.992,406.188L309.992,406.188
			L309.992,406.188c0.059-0.06,0.059-0.118,0.059-0.177C309.992,406.07,309.992,406.129,309.992,406.188z M310.109,405.541
			c-0.059,0.118-0.059,0.294-0.117,0.412C310.051,405.835,310.109,405.718,310.109,405.541L310.109,405.541z M305.112,387.787
			L305.112,387.787C305.171,387.787,305.171,387.728,305.112,387.787C305.171,387.728,305.171,387.728,305.112,387.787z
			 M310.286,383.083L310.286,383.083L310.286,383.083C310.345,383.083,310.345,383.083,310.286,383.083z M308.11,383.848
			L308.11,383.848C308.17,383.848,308.17,383.789,308.11,383.848C308.17,383.789,308.11,383.848,308.11,383.848z M311.285,393.019
			c-0.059,0-0.117,0-0.176,0c0,0-0.06,0-0.06,0.059l-0.059,0.059l0,0c-0.059,0-0.059,0.059-0.117,0.059c0,0-0.059,0.059-0.118,0.059
			c-0.059,0-0.059,0.059-0.117,0.059c-0.117,0.118-0.177,0.176-0.177,0.294c0,0.059-0.059,0.118-0.059,0.176v0.059c0,0,0,0,0.059,0
			C310.815,393.666,311.109,393.372,311.285,393.019C311.344,393.078,311.344,393.078,311.285,393.019L311.285,393.019z
			 M311.639,385.611L311.639,385.611L311.639,385.611L311.639,385.611z M305.23,388.139L305.23,388.139L305.23,388.139
			L305.23,388.139z"/>
	</g>
	<path d="M310.345,383.142c0,0-0.059,0-0.059-0.059L310.345,383.142C310.345,383.083,310.345,383.083,310.345,383.142z"/>
	<path d="M311.344,393.136c-0.176,0.294-0.411,0.647-0.822,0.823l-0.06-0.059l0,0c0,0,0,0-0.059-0.059c0-0.059,0-0.117,0.059-0.176
		c0-0.176,0.294-0.353,0.588-0.588c0.06,0,0.118,0,0.177,0S311.285,393.078,311.344,393.136
		C311.344,393.078,311.344,393.078,311.344,393.136z"/>
	<path d="M311.639,385.67L311.639,385.67L311.639,385.67L311.639,385.67z"/>
	<path d="M317.518,377.028c-0.06-0.235-0.588-0.588-1.764-0.588c-1.235,0-1.646,0.353-1.646,0.588c0,0.059-0.117,0.823-0.117,1.117
		c0,0,0,0.353,0,0.94c0,0.353,0.117,0.588,0.176,1.058c0.059,0.529,0.177,0.823,0.412,1.235c0.117,0.059,0.234,0.118,0.353,0.176
		c0.47,0.118,1.293,0.118,1.705,0c0.234-0.059,0.588-0.529,0.646-0.882c0.117-0.47,0.176-0.823,0.235-1.117
		c0.059-0.294,0.059-1,0.117-1.176C317.693,377.851,317.576,377.028,317.518,377.028L317.518,377.028z"/>
	<path d="M315.519,405.776C315.577,405.776,315.577,405.835,315.519,405.776L315.519,405.776h-0.059H315.519z"/>
	<path d="M315.694,405.835C315.694,405.835,315.754,405.835,315.694,405.835L315.694,405.835L315.694,405.835z"/>
	<path d="M315.754,405.835c0.059,0,0.117,0,0.176,0.06l0,0h-0.059l0,0C315.754,405.835,315.754,405.835,315.754,405.835
		L315.754,405.835z"/>
	<path d="M318.34,405.835c-0.059,0-0.117,0-0.176,0s-0.118,0-0.235,0s-0.294,0-0.471,0c-0.176,0-0.294,0-0.47,0
		c-0.118,0-0.235,0-0.353,0c-0.354,0-0.647-0.059-0.882-0.117c-0.06,0-0.118,0-0.118,0c0.059,0,0.118,0,0.118,0
		c0.234,0.059,0.528,0.059,0.882,0.117C317.105,405.953,317.635,405.953,318.34,405.835z"/>
	<path d="M318.693,405.835c-0.06,0-0.118,0-0.177,0s-0.117,0-0.177,0C318.458,405.835,318.575,405.835,318.693,405.835z"/>
	<path d="M315.754,409.656L315.754,409.656L315.754,409.656c0-0.059-0.06-0.059-0.06-0.117c-0.059-0.117-0.059-0.235-0.117-0.353
		C315.636,409.362,315.694,409.539,315.754,409.656z"/>
	<path d="M314.989,406.129C314.989,406.129,314.989,406.07,314.989,406.129L314.989,406.129
		C314.989,406.07,314.989,406.07,314.989,406.129z"/>
	<path d="M314.931,407.011L314.931,407.011c0-0.234-0.059-0.411-0.059-0.588c0,0.235,0.117,0.412,0.234,0.647
		C315.106,407.07,314.989,407.011,314.931,407.011z"/>
	<path d="M315.519,406.247c-0.059,0-0.118,0-0.177,0c-0.117,0-0.176-0.059-0.235-0.059c0.06,0,0.118,0.059,0.235,0.059
		C315.4,406.188,315.46,406.247,315.519,406.247z"/>
	<path d="M316.106,408.48c-0.059-0.059-0.059-0.117-0.118-0.117c-0.117-0.177-0.294-0.411-0.47-0.646c0.059,0,0.059,0,0.117,0
		c0.118,0.235,0.235,0.411,0.353,0.646C316.048,408.363,316.106,408.422,316.106,408.48z"/>
	<path d="M316.636,410.127c-0.118-0.471-0.177-0.94-0.354-1.293c0-0.06,0-0.06-0.059-0.118c-0.059-0.117-0.059-0.176-0.117-0.235
		c0.059,0.06,0.117,0.177,0.117,0.235s0.059,0.118,0.059,0.177C316.459,409.245,316.518,409.716,316.636,410.127z"/>
	<path d="M317.576,406.306c-0.059,0-0.177,0-0.235,0s-0.117,0-0.177,0c-0.176,0-0.353,0-0.528,0c-0.06,0-0.06,0-0.118,0h-0.059
		c-0.117,0-0.235,0-0.294,0c-0.117,0-0.177,0-0.235,0c0.059,0,0.177,0,0.235,0s0.177,0,0.235,0c0.294,0,0.588,0,0.882,0
		C317.341,406.306,317.458,406.306,317.576,406.306z"/>
	<path d="M317.812,414.536c-0.06,0-0.118,0-0.118,0h-0.646c-0.411,0-0.765,0-1.059-0.059c-0.176,0-0.353-0.059-0.47-0.117
		c-0.059,0-0.059-0.06-0.059-0.06s0,0,0-0.059l0,0l0,0l0,0l0,0l0,0l0,0l0,0l0,0l0,0v-0.059v-0.059c0-0.059,0-0.118,0-0.118
		c0-0.059,0-0.117,0-0.117l0,0l0,0l0,0l0,0l0,0v-0.059l0,0l0,0c0,0,0,0,0-0.059c0-0.06,0-0.06,0.059-0.118
		c0-0.059,0.059-0.117,0.059-0.176l0,0c0.059-0.118,0.117-0.235,0.177-0.354c-0.06,0.118-0.118,0.177-0.118,0.294c0,0,0,0,0,0.06
		l0,0c0.412,0.176,0.94,0.294,1.353,0.294c0,0-0.059,0.294-0.059,0.588v0.117c0,0.117,0,0.177,0.059,0.294h0.823V414.536z"/>
	<path d="M317.987,406.247c-0.059,0-0.117,0-0.235,0h0.06C317.929,406.247,317.929,406.247,317.987,406.247z"/>
	<path d="M318.869,406.129c-0.117,0-0.294,0.06-0.47,0.06C318.575,406.188,318.752,406.129,318.869,406.129z"/>
	<path d="M321.868,414.889c-1.588-0.059-2.999-0.294-4.057-0.294C318.811,414.36,320.339,414.83,321.868,414.889z"/>
	<path d="M319.281,406.07L319.281,406.07c0,0.177-0.059,0.471-0.118,0.765l0,0c-0.059,0.176-0.059,0.411-0.117,0.646
		c0,0.177-0.059,0.411-0.059,0.646c0,0.118,0,0.235-0.06,0.353l0,0c0,0.06,0,0.118,0,0.118l0,0c0,0.235-0.059,0.411-0.059,0.646
		c0-0.294,0-0.471,0.059-0.646c-0.059,0-0.117,0.059-0.176,0.059c0.059-0.177,0.059-0.353,0.117-0.529
		c0.059-0.235,0.118-0.411,0.177-0.646c0.059-0.177,0.117-0.411,0.117-0.646c0.06-0.177,0.06-0.353,0.118-0.529
		C319.223,406.247,319.223,406.129,319.281,406.07z"/>
	<path d="M321.985,414.066c-0.059,0-0.177-0.06-0.235-0.06s-0.117-0.059-0.235-0.117c0.06,0,0.118,0.059,0.235,0.059
		C321.868,413.948,321.927,414.007,321.985,414.066z"/>
	<path d="M322.69,414.242c-0.059,0-0.117-0.059-0.234-0.059c-0.177-0.059-0.294-0.117-0.471-0.177c0.059,0,0.177,0.06,0.235,0.06
		C322.396,414.184,322.515,414.242,322.69,414.242z"/>
	<path d="M322.75,414.713c0,0.059,0,0.117-0.06,0.176l0,0c-0.117,0-0.294,0-0.528,0c0.059-0.059,0.059-0.117,0.059-0.234
		c0-0.06,0-0.06,0-0.118l0.529,0.059C322.75,414.654,322.75,414.654,322.75,414.713z"/>
	<path d="M323.278,414.536l-0.646-0.235C322.984,414.36,323.22,414.419,323.278,414.536z"/>
	<path d="M323.455,414.771L323.455,414.771C323.455,414.771,323.455,414.83,323.455,414.771
		C323.455,414.83,323.455,414.83,323.455,414.771C323.455,414.83,323.455,414.83,323.455,414.771
		C323.455,414.83,323.455,414.83,323.455,414.771C323.455,414.83,323.455,414.83,323.455,414.771L323.455,414.771L323.455,414.771z"
		/>
	<path d="M315.519,406.247c-0.059,0-0.118,0-0.177,0c-0.117,0-0.176-0.059-0.235-0.059c0.06,0,0.118,0.059,0.235,0.059
		C315.4,406.188,315.46,406.247,315.519,406.247z"/>
	<path d="M315.754,409.656L315.754,409.656c0-0.059-0.06-0.059-0.06-0.117c-0.117-0.294-0.234-0.529-0.294-0.765
		c-0.059-0.176-0.176-0.353-0.234-0.588c0-0.059-0.06-0.117-0.06-0.176c-0.059-0.118-0.059-0.294-0.117-0.412
		c-0.059-0.234-0.117-0.411-0.117-0.588l0,0c-0.06-0.47-0.118-0.764,0-0.94h0.059c0,0,0,0,0.059,0h0.059h-0.059
		c0,0.118-0.059,0.235-0.059,0.353c0,0.235,0.117,0.412,0.235,0.647c-0.06,0-0.118,0-0.177-0.06c0,0.06,0,0.118,0,0.118
		c0,0.059,0,0.059,0,0.117c0,0,0,0,0,0.059c0,0.118,0.059,0.177,0.059,0.294c0.059,0.177,0.118,0.412,0.177,0.588
		c0.059,0.177,0.117,0.354,0.176,0.588c0.06,0.118,0.118,0.294,0.118,0.412C315.636,409.362,315.694,409.539,315.754,409.656z"/>
	<path d="M316.106,408.48c-0.059-0.059-0.059-0.117-0.118-0.117c-0.117-0.177-0.294-0.411-0.47-0.646c0.059,0,0.059,0,0.117,0
		c0.118,0.235,0.235,0.411,0.353,0.646C316.048,408.363,316.106,408.422,316.106,408.48z"/>
	<path d="M316.636,410.127c-0.118-0.471-0.177-0.94-0.354-1.293c0-0.06,0-0.06-0.059-0.118c-0.059-0.117-0.059-0.176-0.117-0.235
		c0.059,0.06,0.117,0.177,0.117,0.235s0.059,0.118,0.059,0.177C316.459,409.245,316.518,409.716,316.636,410.127z"/>
	<path d="M316.048,412.067L316.048,412.067c0,0.117,0,0.176,0,0.235c0,0.059,0,0.117-0.06,0.176
		c-0.059,0.117-0.117,0.294-0.176,0.412c0,0,0,0,0-0.06l0,0l0,0c0-0.059,0.059-0.176,0.059-0.235c0-0.059,0-0.117,0.059-0.176
		c0-0.059,0-0.117,0-0.235c0-0.177,0-0.411,0-0.705c0-0.177,0-0.412-0.059-0.706c0-0.117-0.059-0.294-0.059-0.411
		c0-0.118-0.059-0.177-0.059-0.294c0,0,0,0.059,0,0.117c0.059,0.177,0.117,0.353,0.117,0.471c0,0.117,0.059,0.235,0.059,0.294
		c0,0.117,0,0.176,0,0.294c0,0.117,0,0.176,0,0.235c0,0.117,0,0.235,0,0.353C316.048,412.008,316.048,412.008,316.048,412.067z"/>
	<path d="M316.459,406.306c-0.117,0-0.235,0-0.294,0c-0.117,0-0.177,0-0.235,0c0.059,0,0.177,0,0.235,0s0.177,0,0.235,0H316.459z"/>
	<path d="M317.341,406.306c-0.059,0-0.117,0-0.177,0c0.06,0,0.06,0,0.118,0H317.341z"/>
	<path d="M318.869,406.129c-0.117,0-0.294,0.06-0.47,0.06C318.575,406.188,318.752,406.129,318.869,406.129z"/>
	<path d="M321.868,414.889c-1.588-0.059-2.999-0.294-4.057-0.294C318.811,414.36,320.339,414.83,321.868,414.889z"/>
	<path d="M318.869,412.067L318.869,412.067c0-0.06-0.059-0.177-0.059-0.294c0-0.177-0.059-0.412-0.059-0.647c0-0.234,0-0.47,0-0.705
		c0-0.059,0-0.059,0-0.117v-0.118c0-0.059,0-0.117,0-0.176l0,0c0-0.06,0-0.118,0-0.177l0,0c0-0.117,0-0.177,0-0.294
		c0,0.294,0,0.646,0,0.94C318.811,411.067,318.869,411.715,318.869,412.067z"/>
	<path d="M319.34,406.129c0,0.06-0.059,0.118-0.059,0.235l0,0c0,0,0,0,0,0.059c0,0.06,0,0.06,0,0.118s0,0.176-0.059,0.294v0.059
		c0,0.059,0,0.117-0.06,0.177v0.059c0,0.059,0,0.117,0,0.117c0,0.059,0,0.118,0,0.177l0,0c0,0.059,0,0.059,0,0.117
		s0,0.118-0.059,0.177c0,0.117-0.059,0.235-0.059,0.294c0,0.117-0.059,0.235-0.059,0.411l0,0c0,0.059,0,0.118,0,0.118
		c-0.06,0-0.118,0.059-0.177,0.059c0.059-0.177,0.059-0.353,0.117-0.529c0.06-0.235,0.118-0.411,0.177-0.646
		c0.059-0.177,0.118-0.412,0.118-0.646c0.059-0.177,0.059-0.354,0.117-0.529c0-0.118,0-0.177,0.059-0.235c0,0,0,0,0.059,0
		C319.34,406.07,319.34,406.07,319.34,406.129L319.34,406.129L319.34,406.129z"/>
	<path d="M321.985,414.066c-0.059,0-0.177-0.06-0.235-0.06s-0.117-0.059-0.235-0.117c0.06,0,0.118,0.059,0.235,0.059
		C321.868,413.948,321.927,414.007,321.985,414.066z"/>
	<path d="M322.162,414.889c-0.06,0.118-0.177,0.235-0.294,0.294l0,0c-0.471,0-0.941-0.117-1.823-0.234
		c-0.117,0-0.294-0.06-0.411-0.06c-0.177,0-0.411-0.059-0.588-0.059c-0.059,0-0.177,0-0.235,0c-0.294,0-0.588-0.059-0.882-0.059
		c-0.235,0-0.529,0-0.823,0h-0.294c-0.117,0-0.176,0-0.294,0c-0.117,0-0.235,0-0.353,0c-0.059,0-0.117,0-0.177,0
		c-0.117,0-0.176-0.059-0.234-0.117l0,0c-0.06-0.06-0.118-0.06-0.177-0.118c0-0.059-0.059-0.059-0.059-0.117l0,0
		c0,0,0-0.059-0.059-0.059l0,0c0,0,0-0.06-0.06-0.118l0,0l0,0l0,0l0,0l0,0l0,0l0,0c0,0,0,0,0-0.059v-0.117
		c0-0.235,0.118-0.529,0.235-0.823c0.412,0.176,0.94,0.294,1.353,0.294c0,0-0.059,0.294-0.059,0.588v0.117
		c0,0.118,0,0.177,0.059,0.294h0.764c-0.059,0-0.117,0-0.117,0h0.117c1.059,0,2.528,0.294,4.116,0.294
		C322.044,414.889,322.103,414.889,322.162,414.889z"/>
	<path d="M322.456,414.184c-0.177-0.059-0.294-0.117-0.471-0.177c0.059,0,0.177,0.06,0.235,0.06
		C322.338,414.125,322.396,414.184,322.456,414.184z"/>
	<path d="M322.75,414.713c0,0.059,0,0.117-0.06,0.176l0,0c-0.117,0-0.294,0-0.528,0c0.059-0.059,0.059-0.117,0.059-0.234
		c0-0.06,0-0.06,0-0.118l0.529,0.059C322.75,414.654,322.75,414.654,322.75,414.713z"/>
	<path d="M316.224,408.716c0-0.059-0.059-0.176-0.117-0.235C316.165,408.54,316.165,408.657,316.224,408.716
		c0,0.059,0.059,0.118,0.059,0.118l0,0C316.282,408.774,316.224,408.774,316.224,408.716z M316.048,408.305
		C316.048,408.305,315.988,408.305,316.048,408.305c0,0.059,0.059,0.117,0.059,0.117S316.048,408.363,316.048,408.305z
		 M315.283,408.246c-0.059,0-0.059,0-0.117,0c0.059,0.176,0.176,0.411,0.234,0.588h0.06
		C315.4,408.599,315.342,408.422,315.283,408.246z M318.987,408.128L318.987,408.128L318.987,408.128
		c-0.06,0-0.118,0.059-0.177,0.059c-0.059,0.177-0.059,0.354-0.117,0.529c0.059,0,0.117-0.059,0.176-0.059l0,0l0,0l0,0l0,0
		c0-0.117,0-0.177,0.059-0.294L318.987,408.128L318.987,408.128z M314.989,407.305L314.989,407.305c0-0.059,0-0.117,0-0.176
		s0-0.118,0-0.118c-0.059,0-0.059,0-0.117,0c0.059,0.177,0.059,0.412,0.117,0.588c0,0,0.059,0,0.117,0
		C315.048,407.54,315.048,407.423,314.989,407.305z M319.223,406.835L319.223,406.835
		C319.163,406.835,319.163,406.835,319.223,406.835c-0.06,0-0.06,0-0.06,0c-0.059,0.235-0.117,0.47-0.117,0.646h0.059l0,0l0,0
		c0-0.059,0-0.117,0-0.177c0-0.059,0-0.059,0-0.117v-0.059c0,0,0-0.059,0-0.118l0,0
		C319.223,406.894,319.223,406.894,319.223,406.835L319.223,406.835z M322.162,415.183L322.162,415.183c0,0,0.059,0,0.117,0H322.162
		z M322.279,415.183c0.059,0,0.117,0,0.177,0c0,0,0.059,0,0.117,0C322.456,415.183,322.338,415.183,322.279,415.183z
		 M322.75,414.595l-0.529-0.059c0,0.059,0,0.059,0,0.118c0,0.059,0,0.117-0.059,0.234c0.176,0,0.353,0,0.528,0l0,0
		c0.06-0.059,0.06-0.117,0.06-0.176S322.75,414.654,322.75,414.595z M322.69,415.124c-0.059,0-0.059,0-0.117,0
		C322.632,415.124,322.632,415.124,322.69,415.124c0.06,0,0.118,0,0.177,0c0.117,0,0.177-0.059,0.235-0.059s0.059,0,0.117-0.059
		C323.103,415.065,322.926,415.065,322.69,415.124z M323.455,414.771L323.455,414.771L323.455,414.771L323.455,414.771
		C323.455,414.83,323.455,414.83,323.455,414.771L323.455,414.771C323.455,414.83,323.455,414.83,323.455,414.771
		C323.455,414.83,323.455,414.83,323.455,414.771C323.455,414.83,323.455,414.83,323.455,414.771
		C323.455,414.83,323.455,414.83,323.455,414.771C323.455,414.83,323.455,414.771,323.455,414.771L323.455,414.771L323.455,414.771z
		 M317.047,414.654v-0.06l0,0c0-0.117-0.059-0.176-0.059-0.294v-0.117c0-0.294,0.059-0.588,0.059-0.588
		c-0.411,0-0.999-0.117-1.353-0.294c0,0,0,0-0.059,0l0,0c0,0,0,0,0,0.059l0,0l0,0l0,0c0,0.059-0.059,0.118-0.059,0.177
		c0,0,0,0,0,0.059l0,0l0,0v0.059l0,0l0,0l0,0l0,0l0,0c0,0.059,0,0.118,0,0.118c0,0.059,0,0.117,0,0.117v0.059v0.059l0,0l0,0l0,0l0,0
		l0,0l0,0l0,0l0,0l0,0c0,0,0,0.06,0.059,0.118l0,0c0,0,0,0.059,0.059,0.059l0,0c0,0,0.06,0.059,0.06,0.117
		c0.059,0.06,0.117,0.06,0.176,0.118l0,0c0.059,0.059,0.177,0.059,0.235,0.059s0.117,0,0.177,0c0.117,0,0.234,0,0.353,0
		c0.117,0,0.235,0,0.294,0c0.117,0,0.176,0,0.294,0l0,0l0,0C317.105,414.713,317.105,414.713,317.047,414.654z"/>
	<path d="M314.989,406.129C314.989,406.129,314.989,406.07,314.989,406.129L314.989,406.129
		C314.989,406.07,314.989,406.07,314.989,406.129z"/>
	<path d="M314.931,407.011L314.931,407.011c0-0.234-0.059-0.411-0.059-0.588c0,0.235,0.117,0.412,0.234,0.647
		C315.106,407.07,314.989,407.011,314.931,407.011z"/>
	<path d="M315.519,406.247c-0.059,0-0.118,0-0.177,0c-0.117,0-0.176-0.059-0.235-0.059c0.06,0,0.118,0.059,0.235,0.059
		C315.4,406.188,315.46,406.247,315.519,406.247z"/>
	<path d="M316.106,408.48c-0.059-0.059-0.059-0.117-0.118-0.117c-0.117-0.177-0.294-0.411-0.47-0.646c0.059,0,0.059,0,0.117,0
		c0.118,0.235,0.235,0.411,0.353,0.646C316.048,408.363,316.106,408.422,316.106,408.48z"/>
	<path d="M316.636,410.127c-0.118-0.471-0.177-0.94-0.354-1.293c0-0.06,0-0.06-0.059-0.118c-0.059-0.117-0.059-0.176-0.117-0.235
		c0.059,0.06,0.117,0.177,0.117,0.235s0.059,0.118,0.059,0.177C316.459,409.245,316.518,409.716,316.636,410.127z"/>
	<path d="M317.047,414.536c-0.411,0-0.765,0-1.059-0.059c-0.234-0.059-0.47-0.117-0.528-0.235c0,0,0-0.059-0.06-0.059l0,0l0,0l0,0
		l0,0v-0.059v-0.059c0-0.06,0-0.118,0-0.118c0-0.059,0-0.117,0-0.117l0,0l0,0l0,0l0,0l0,0v-0.059l0,0l0,0c0,0,0,0,0-0.06
		c0-0.059,0.06-0.117,0.06-0.176l0,0l0,0l0,0c0,0,0,0,0-0.059c0,0,0,0,0-0.06c0,0,0-0.059,0.059-0.059
		c0-0.059,0.059-0.117,0.117-0.176c0,0,0,0,0-0.06l0,0l0,0l0,0l0,0c0.059-0.117,0.118-0.234,0.177-0.353
		c-0.059,0.118-0.118,0.294-0.177,0.412c-0.059,0.117-0.117,0.176-0.117,0.294c0,0,0,0,0,0.059l0,0
		c0.411,0.176,0.94,0.294,1.352,0.294c0,0-0.059,0.294-0.059,0.588v0.117C316.988,414.36,317.047,414.478,317.047,414.536z"/>
	<path d="M317.576,406.306c-0.059,0-0.177,0-0.235,0s-0.117,0-0.177,0c-0.176,0-0.353,0-0.528,0c-0.06,0-0.06,0-0.118,0h-0.059
		c-0.117,0-0.235,0-0.294,0c-0.117,0-0.177,0-0.235,0c0.059,0,0.177,0,0.235,0s0.177,0,0.235,0c0.294,0,0.588,0,0.882,0
		C317.341,406.306,317.458,406.306,317.576,406.306z"/>
	<path d="M317.987,406.247c-0.059,0-0.117,0-0.235,0h0.06C317.929,406.247,317.929,406.247,317.987,406.247z"/>
	<path d="M318.869,406.129c-0.117,0-0.294,0.06-0.47,0.06C318.575,406.188,318.752,406.129,318.869,406.129z"/>
	<path d="M321.868,414.889c-1.588-0.059-2.999-0.294-4.057-0.294C318.811,414.36,320.339,414.83,321.868,414.889z"/>
	<path d="M318.869,412.067L318.869,412.067c0-0.06-0.059-0.177-0.059-0.294C318.869,411.891,318.869,412.008,318.869,412.067z"/>
	<path d="M318.869,409.422L318.869,409.422L318.869,409.422L318.869,409.422L318.869,409.422z"/>
	<path d="M319.34,406.07L319.34,406.07c0,0.059,0,0.059,0,0.118c0,0.059,0,0.117,0,0.176l0,0c0,0,0,0,0,0.059l0,0
		c0,0.118-0.059,0.235-0.059,0.354l0,0v0.059v0.059l0,0c0,0,0,0.059,0,0.117v0.06c0,0.059,0,0.117,0,0.117c0,0.059,0,0.117,0,0.177
		l0,0c0,0.059,0,0.059,0,0.117s0,0.117-0.059,0.177c0,0.059,0,0.117,0,0.117c0,0.059,0,0.117,0,0.177l-0.06,0.234l0,0
		c0,0.06,0,0.177,0,0.235c0,0.118-0.059,0.294-0.059,0.471l0,0c0,0.117,0,0.176,0,0.294c0,0,0,0,0,0.059l0,0l0,0
		c0-0.059,0-0.059,0-0.117c0-0.294,0-0.471,0.059-0.647c-0.059,0-0.117,0.06-0.176,0.06c0.059-0.177,0.059-0.354,0.117-0.529
		c0.059-0.235,0.118-0.412,0.177-0.646c0.059-0.177,0.117-0.412,0.117-0.647c0.059-0.176,0.059-0.353,0.117-0.528
		c0-0.118,0-0.177,0.06-0.235C319.281,406.07,319.281,406.07,319.34,406.07L319.34,406.07z"/>
	<path d="M321.985,414.066c-0.059,0-0.177-0.06-0.235-0.06s-0.117-0.059-0.235-0.117c0.06,0,0.118,0.059,0.235,0.059
		C321.868,413.948,321.927,414.007,321.985,414.066z"/>
	<path d="M322.69,414.242c-0.059,0-0.117-0.059-0.234-0.059c-0.177-0.059-0.294-0.117-0.471-0.177c0.059,0,0.177,0.06,0.235,0.06
		C322.396,414.184,322.515,414.242,322.69,414.242z"/>
	<path d="M322.75,414.713c0,0.059,0,0.117-0.06,0.176l0,0c-0.117,0-0.294,0-0.528,0c0.059-0.059,0.059-0.117,0.059-0.234
		c0-0.06,0-0.06,0-0.118l0.529,0.059C322.75,414.654,322.75,414.654,322.75,414.713z"/>
	<path d="M323.278,414.536l-0.646-0.235C322.984,414.36,323.22,414.419,323.278,414.536z"/>
	<path d="M323.455,414.771L323.455,414.771L323.455,414.771L323.455,414.771L323.455,414.771z"/>
	<path d="M315.46,405.776h0.059c0.059,0,0.059,0,0.059,0s0,0-0.059,0H315.46"/>
	<path d="M315.754,405.835L315.754,405.835L315.754,405.835C315.694,405.835,315.754,405.835,315.754,405.835z"/>
	<path d="M314.989,406.129C314.989,406.129,314.989,406.07,314.989,406.129L314.989,406.129
		C314.989,406.07,314.989,406.07,314.989,406.129z"/>
	<path d="M314.931,407.011L314.931,407.011c0-0.234-0.059-0.411-0.059-0.588c0,0.235,0.117,0.412,0.234,0.647
		C315.106,407.07,314.989,407.011,314.931,407.011z"/>
	<path d="M315.519,406.247c-0.059,0-0.118,0-0.177,0c-0.117,0-0.176-0.059-0.235-0.059c0.06,0,0.118,0.059,0.235,0.059
		C315.4,406.188,315.46,406.247,315.519,406.247z"/>
	<path d="M316.106,408.48c-0.059-0.059-0.059-0.117-0.118-0.117c-0.117-0.177-0.294-0.411-0.47-0.646c0.059,0,0.059,0,0.117,0
		c0.118,0.235,0.235,0.411,0.353,0.646C316.048,408.363,316.106,408.422,316.106,408.48z"/>
	<path d="M316.636,410.127c-0.118-0.471-0.177-0.94-0.354-1.293c0-0.06,0-0.06-0.059-0.118c-0.059-0.117-0.059-0.176-0.117-0.235
		c0.059,0.06,0.117,0.177,0.117,0.235s0.059,0.118,0.059,0.177C316.459,409.245,316.518,409.716,316.636,410.127z"/>
	<path d="M317.576,406.306c-0.059,0-0.177,0-0.235,0s-0.117,0-0.177,0c-0.176,0-0.353,0-0.528,0c-0.06,0-0.06,0-0.118,0h-0.059
		c-0.117,0-0.235,0-0.294,0c-0.117,0-0.177,0-0.235,0c0.059,0,0.177,0,0.235,0s0.177,0,0.235,0c0.294,0,0.588,0,0.882,0
		C317.341,406.306,317.458,406.306,317.576,406.306z"/>
	<path d="M317.812,414.536c-0.06,0-0.118,0-0.118,0c-0.235,0-0.411,0.059-0.588,0.059c-0.411,0-0.764,0-1.058-0.059
		c-0.177-0.059-0.354-0.117-0.471-0.176c-0.059-0.06-0.059-0.06-0.059-0.118s-0.059-0.059-0.059-0.117v-0.059l0,0
		c0-0.177,0.059-0.412,0.117-0.647c0-0.059,0-0.059,0.059-0.117l0,0c0,0,0-0.059,0.059-0.059l0,0c0,0,0,0,0-0.059
		c0,0,0-0.06,0.06-0.06c0-0.059,0.059-0.117,0.117-0.176c0,0,0,0,0-0.059l0,0l0,0l0,0l0,0c0.059-0.118,0.117-0.235,0.177-0.354
		c-0.06,0.118-0.118,0.294-0.177,0.412c-0.059,0.117-0.117,0.176-0.117,0.294c0,0,0,0,0,0.059l0,0
		c0.411,0.177,0.94,0.294,1.352,0.294c0,0-0.059,0.294-0.059,0.588v0.117c0,0.118,0,0.177,0.059,0.294h0.706V414.536z"/>
	<path d="M317.987,406.247c-0.059,0-0.117,0-0.235,0h0.06C317.929,406.247,317.929,406.247,317.987,406.247z"/>
	<path d="M318.869,406.129c-0.117,0-0.294,0.06-0.47,0.06C318.575,406.188,318.752,406.129,318.869,406.129z"/>
	<path d="M318.869,412.067L318.869,412.067c0-0.06-0.059-0.177-0.059-0.294C318.869,411.891,318.869,412.008,318.869,412.067z"/>
	<path d="M318.869,409.422L318.869,409.422L318.869,409.422L318.869,409.422z"/>
	<path d="M323.455,414.713C323.455,414.713,323.455,414.654,323.455,414.713c0-0.059,0-0.059,0-0.059c0-0.06-0.059-0.06-0.117-0.118
		l-0.647-0.235c-0.059,0-0.117-0.059-0.234-0.059c-0.177-0.059-0.294-0.117-0.471-0.176c-0.059,0-0.177-0.06-0.235-0.06
		s-0.117-0.059-0.235-0.117c-0.176-0.059-0.353-0.177-0.528-0.294c-0.529-0.411-2.117-1.117-2.176-1.293c0-0.06,0-0.118,0-0.118
		c0-0.117-0.059-0.235-0.059-0.353c0-0.177-0.059-0.412-0.059-0.646c0-0.235,0-0.471,0-0.706c0-0.059,0-0.059,0-0.117v-0.118
		c0-0.059,0-0.117,0-0.176l0,0c0-0.059,0-0.118,0-0.177l0,0c0-0.117,0-0.176,0-0.294l0,0v-0.059l0,0l0,0l0,0
		c0-0.059,0-0.059,0-0.117c0-0.294,0-0.471,0.059-0.647c-0.059,0-0.118,0.06-0.177,0.06c0.059-0.177,0.059-0.354,0.118-0.529
		c0.059-0.235,0.117-0.412,0.176-0.646c0.059-0.177,0.118-0.412,0.118-0.647c0.059-0.176,0.059-0.353,0.117-0.528
		c0-0.118,0-0.177,0.059-0.235c-0.059,0-0.059,0-0.117,0s-0.177,0.059-0.294,0.059c-0.118,0-0.294,0.059-0.471,0.059
		c-0.117,0-0.294,0-0.411,0.059c-0.059,0-0.118,0-0.235,0l0,0c-0.059,0-0.117,0-0.177,0c-0.059,0-0.176,0-0.234,0
		c-0.06,0-0.118,0-0.177,0c-0.177,0-0.353,0-0.529,0c-0.059,0-0.059,0-0.117,0h0.059c-0.117,0-0.235,0-0.294,0
		c-0.117,0-0.177,0-0.235,0c-0.176,0-0.294-0.059-0.411-0.059c-0.059,0-0.118,0-0.177,0c-0.117,0-0.176-0.059-0.235-0.059
		c0,0-0.059,0-0.059-0.059h-0.059c0,0.117-0.059,0.235-0.059,0.353c0,0.235,0.117,0.411,0.235,0.646c-0.06,0-0.118,0-0.177-0.059
		c0,0.059,0,0.117,0,0.117c0,0.06,0,0.06,0,0.118c0,0,0,0,0,0.059c0,0.117,0.059,0.177,0.059,0.294
		c0.059,0.177,0.118,0.411,0.177,0.588s0.117,0.353,0.176,0.588c0.06,0.117,0.118,0.294,0.118,0.411
		c0.059,0.118,0.117,0.294,0.117,0.412l0,0c0,0.059,0.059,0.117,0.059,0.176l0,0l0,0c0,0.06,0,0.118,0,0.118v0.059
		c0,0,0,0.059,0,0.117c0.06,0.177,0.118,0.354,0.118,0.471s0.059,0.235,0.059,0.294c0,0.117,0,0.177,0,0.294s0,0.177,0,0.235
		c0,0.117,0,0.235,0,0.353c0,0.059,0,0.117,0,0.177v0.059c0,0.059,0,0.117,0,0.235c0,0.059,0,0.117-0.059,0.176
		c-0.059,0.118-0.118,0.294-0.177,0.412c-0.059,0.117-0.117,0.176-0.117,0.294c0,0,0,0,0,0.059l0,0
		c0.411,0.177,0.94,0.294,1.352,0.294c0,0-0.059,0.294-0.059,0.588v0.117c0,0.118,0,0.177,0.059,0.294h0.765
		c0.999-0.176,2.469,0.235,4.057,0.294c-1.588-0.059-2.998-0.294-4.057-0.294c-0.059,0-0.117,0-0.117,0h0.117
		c1.059,0,2.528,0.294,4.115,0.294c0.059,0,0.177,0,0.235,0c-0.059,0.118-0.177,0.235-0.294,0.294c0.059,0,0.177,0,0.235,0l0,0l0,0
		l0,0h0.117c0.059,0,0.177,0,0.235,0l0,0h0.059c0.059,0,0.059,0,0.118,0c0.234-0.059,0.411-0.059,0.528-0.117
		c0.118-0.059,0.177-0.117,0.235-0.177l0,0l0,0l0,0C323.455,414.771,323.455,414.771,323.455,414.713L323.455,414.713z
		 M316.282,408.834c0-0.06,0-0.06-0.059-0.118c-0.059-0.117-0.059-0.176-0.117-0.235c-0.059-0.059-0.059-0.117-0.118-0.117
		c-0.117-0.177-0.294-0.411-0.47-0.646c0.059,0,0.059,0,0.117,0c0.118,0.235,0.235,0.411,0.353,0.646c0,0.059,0.06,0.117,0.06,0.117
		c0.059,0.06,0.117,0.177,0.117,0.235C316.224,408.774,316.282,408.774,316.282,408.834c0.177,0.353,0.235,0.822,0.354,1.293
		C316.518,409.716,316.4,409.245,316.282,408.834z M322.69,414.889L322.69,414.889c-0.117,0-0.294,0-0.528,0
		c0.059-0.059,0.059-0.117,0.059-0.234c0-0.06,0-0.06,0-0.118l0.529,0.059c0,0,0,0.06,0,0.118S322.75,414.83,322.69,414.889z"/>
	<path d="M319.34,406.07L319.34,406.07c0,0.059,0,0.059,0,0.118c0,0.059,0,0.117,0,0.176l0,0c0,0,0,0,0,0.059l0,0
		c0,0.118-0.059,0.235-0.059,0.354l0,0v0.059v0.059l0,0c0,0,0,0.059,0,0.117v0.06c0,0.059,0,0.117,0,0.117c0,0.059,0,0.117,0,0.177
		l0,0c0,0.059,0,0.059,0,0.117s0,0.117-0.059,0.177c0,0.059,0,0.117,0,0.117c0,0.059,0,0.117,0,0.177l-0.06,0.234l0,0
		c0,0.06,0,0.177-0.059,0.235c0,0.118,0,0.294-0.059,0.471l0,0c0,0.117,0,0.176,0,0.294c0,0,0,0,0,0.059l0,0l0,0
		c0-0.059,0-0.059,0-0.117c0-0.294,0-0.471,0.059-0.647c-0.059,0-0.117,0.06-0.177,0.06c0.06-0.177,0.06-0.354,0.118-0.529
		c0.059-0.235,0.117-0.412,0.177-0.646c0.059-0.177,0.117-0.412,0.117-0.647c0.059-0.176,0.059-0.353,0.117-0.528
		c0-0.118,0-0.177,0.059-0.235C319.281,406.07,319.281,406.07,319.34,406.07L319.34,406.07z"/>
	<path d="M321.985,414.066c-0.059,0-0.177-0.06-0.235-0.06s-0.117-0.059-0.235-0.117c0.06,0,0.118,0.059,0.235,0.059
		C321.868,413.948,321.927,414.007,321.985,414.066z"/>
	<path d="M322.69,414.242c-0.059,0-0.117-0.059-0.234-0.059c-0.177-0.059-0.294-0.117-0.471-0.177c0.059,0,0.177,0.06,0.235,0.06
		C322.396,414.184,322.515,414.242,322.69,414.242z"/>
	<path d="M322.75,414.713c0,0.059,0,0.117-0.06,0.176l0,0c-0.117,0-0.294,0-0.528,0c0.059-0.059,0.059-0.117,0.059-0.234
		c0-0.06,0-0.06,0-0.118l0.529,0.059C322.75,414.654,322.75,414.654,322.75,414.713z"/>
	<path d="M323.278,414.536l-0.646-0.235C322.984,414.36,323.22,414.419,323.278,414.536z"/>
	<path d="M323.455,414.771L323.455,414.771L323.455,414.771L323.455,414.771L323.455,414.771z"/>
	<path d="M314.166,392.96L314.166,392.96C314.166,392.96,314.107,392.96,314.166,392.96
		C314.107,392.96,314.166,392.96,314.166,392.96z"/>
	<path d="M314.284,392.49h-0.118v-0.059C314.225,392.431,314.284,392.49,314.284,392.49z"/>
	<path d="M319.457,393.078C319.457,393.078,319.398,393.078,319.457,393.078c-0.059,0-0.059,0-0.059,0
		S319.398,393.078,319.457,393.078C319.398,393.078,319.457,393.078,319.457,393.078L319.457,393.078z"/>
	<path d="M309.992,406.188L309.992,406.188L309.992,406.188c0.059-0.06,0.059-0.118,0.059-0.177
		C309.992,406.07,309.992,406.129,309.992,406.188z M311.344,411.891c0-0.059,0-0.117,0-0.176
		C311.344,411.773,311.344,411.832,311.344,411.891z M312.814,406.012v0.059v0.059v-0.059V406.012L312.814,406.012z"/>
	<path d="M311.579,415.242c0,0.294-0.176,0.47-0.646,0.588c-0.588,0-1.293,0-1.881-0.118c-0.706-0.353-0.941-0.529-0.765-1.176
		c0-0.059,0-0.117,0.059-0.117l0,0c0.177-0.412,0.823-0.882,1.411-1.294c-0.353,0-0.705,0.294-0.705,0
		c0.117-0.588,0.353-0.588,0.528-0.882c-0.117-0.117,1.294-0.059,1.529,0.118l0,0c0,0.294,0.294,0.646,0.176,0.882
		c-0.059,0.117-0.176-0.059-0.353-0.118c0.059,0.471,0.235,1.235,0.529,1.882C311.521,415.065,311.579,415.183,311.579,415.242z"/>
	<path d="M315.577,401.015c-0.235,0.529-0.588,1.058-1.059,1.528c-0.117,0.117-0.176,0.177-0.294,0.294
		c-0.117,0.117-0.234,0.177-0.353,0.294c-0.117,0.059-0.235,0.177-0.353,0.294l0,0c0,0.353-0.117,0.646-0.235,0.823
		c-0.294,0.471-0.705,0.588-0.823,1.293c0.059-0.059,0.059-0.117,0.118-0.117l0.059-0.059l0.059-0.059l0.059-0.06
		c0.06-0.059,0.118-0.059,0.118-0.059l0,0l0,0c0,0.059,0,0.177,0,0.235c0,0.235,0,0.411-0.059,0.588v0.059v0.059
		c0,0.06,0,0.06,0,0.118l0,0l0,0c-0.06,0.176-0.06,0.353-0.118,0.47c-0.059,0.294-0.177,0.588-0.235,0.823
		c-0.176,0.529-0.411,0.94-0.588,1.353c-0.117,0.235-0.176,0.411-0.294,0.646c-0.117,0.294-0.117,0.705-0.176,1.117
		c-0.06,0.411,0,0.764-0.06,0.999c0,0.06,0,0.118,0,0.177l0,0c-0.646,0.117-1.646-0.117-1.939-0.235
		c0.117-0.94,0.117-1.881,0.176-2.822c0.06-0.822,0.118-1.704,0.354-2.646l0,0l0,0c0-0.059,0-0.117,0-0.176
		c0.059-0.118,0.059-0.294,0.117-0.412c0,0,0,0-0.059,0c0-0.059,0.059-0.176,0.059-0.234l0,0c0.235-0.647,0.588-1.117,1.117-1.705
		l0,0c0.117-0.177,0.294-0.354,0.411-0.529c-0.059-0.118-0.117-0.294-0.117-0.471c0.765-2.587,1.587-4.468,2.469-5.938
		c0.235,0.176,0.471,0.294,0.706,0.47c0.176,0.118,0.294,0.235,0.47,0.294C315.225,399.016,315.4,400.133,315.577,401.015z"/>
	<path d="M319.223,383.495C319.163,383.495,319.163,383.495,319.223,383.495c-0.06-0.059-0.06-0.059-0.118-0.059l0,0l0,0l0,0h-0.059
		c0,0,0.059,0,0.059,0.059l0,0C319.104,383.495,319.104,383.495,319.223,383.495c0,0.059,0.059,0.059,0.117,0.118
		c0.059,0,0.117,0.059,0.176,0.059C319.398,383.554,319.281,383.495,319.223,383.495z M314.578,383.201L314.578,383.201
		L314.578,383.201L314.578,383.201c0-0.059-0.06-0.059-0.118-0.059l0,0c0,0-0.059,0-0.117,0l0,0c-0.059,0-0.118,0-0.177,0l0,0
		c-0.059,0-0.117,0-0.176,0.059c-0.118,0-0.294,0.059-0.412,0.059l0,0l0,0c0.059,0,0.059,0,0.118,0c0.059,0,0.117,0,0.234,0
		c0.177,0,0.354,0,0.529-0.059l0,0l0.059,0.059C314.519,383.26,314.578,383.26,314.578,383.201
		C314.578,383.26,314.578,383.26,314.578,383.201C314.578,383.26,314.578,383.201,314.578,383.201z M313.284,383.495
		L313.284,383.495h0.059H313.284z M311.521,383.142c0.059,0,0.118,0.059,0.118,0.059c0.059,0,0.117,0,0.176,0.059h0.059
		c0.059,0,0.059,0,0.118,0C311.814,383.26,311.697,383.201,311.521,383.142z"/>
	<path d="M313.461,394.371L313.461,394.371c0,0.059,0,0.059-0.059,0.118c-0.06,0.059-0.118,0.176-0.235,0.294
		c-0.059,0.059-0.177,0.176-0.294,0.294c-0.059,0.059-0.059,0.059-0.059,0.059c-0.06,0.059-0.177,0.176-0.354,0.235
		c-0.059,0.059-0.117,0.118-0.176,0.118l-0.059,0.059c-0.06,0.059-0.118,0.118-0.177,0.118c-0.118,0.059-0.235,0.059-0.353,0.059
		c-0.118,0-0.235-0.059-0.354-0.118c-0.234-0.117,0.06-0.117-0.234-0.353c-0.588-0.412-0.882-0.706-0.765-1.352v-0.059
		c0-0.059,0-0.117,0.059-0.176c0-0.176,0.294-0.353,0.588-0.588c0.059,0,0.118,0,0.177,0h0.059c0.412,0,0.823,0.059,1.176,0.294
		c0.177,0.059,0.294,0.176,0.412,0.294c0.059,0.059,0.117,0.118,0.234,0.176C313.343,394.019,313.52,394.195,313.461,394.371z"/>
	<path d="M305.289,401.309c-0.176,0-0.353,0-0.529-0.059c-0.118,0-0.235,0-0.353,0s-0.176,0-0.235,0c0.588,0,1.117,0,1.587,0.117
		C305.583,401.367,305.406,401.367,305.289,401.309z M303.172,388.668c-0.47,0.235-0.941,0.47-1.47,0.706
		c0.235-0.118,0.412-0.235,0.646-0.294c0.235-0.118,0.412-0.177,0.588-0.294c0.118-0.059,0.176-0.059,0.294-0.118
		c0.118-0.059,0.176-0.059,0.294-0.118C303.407,388.551,303.29,388.609,303.172,388.668z M305.112,387.787h-0.059
		c0,0-0.059,0-0.118,0.059c-0.059,0-0.118,0.059-0.176,0.059c-0.118,0.059-0.235,0.117-0.353,0.176
		c-0.176,0.059-0.412,0.176-0.588,0.294c-0.118,0.059-0.235,0.118-0.353,0.176l0,0c0.059,0,0.118-0.059,0.118-0.059
		c0.117-0.059,0.235-0.118,0.353-0.177c0.235-0.117,0.412-0.176,0.588-0.294c0.118-0.059,0.235-0.117,0.294-0.117
		C304.995,387.845,305.112,387.787,305.112,387.787C305.171,387.787,305.171,387.728,305.112,387.787
		C305.171,387.728,305.171,387.728,305.112,387.787z M300.233,390.021c-0.294,0.118-0.529,0.294-0.823,0.412
		c0.47-0.235,0.882-0.412,1.411-0.647c0.118-0.059,0.176-0.117,0.294-0.176C300.821,389.727,300.527,389.903,300.233,390.021z
		 M297.411,391.432c-0.118,0.059-0.176,0.117-0.294,0.117c-0.059,0-0.118,0.059-0.118,0.059c-0.059,0-0.117,0.059-0.117,0.059l0,0
		c-0.059,0-0.118,0.059-0.177,0.059c-0.059,0-0.059,0.059-0.117,0.059c-0.118,0.059-0.177,0.118-0.294,0.118l0,0l0,0l0,0
		c0.588-0.353,1.234-0.647,1.822-1C297.881,391.196,297.646,391.314,297.411,391.432z"/>
	<path d="M311.403,396.84c-0.647,1.882-1.059,3.998-0.529,6.174c-0.294,0.411-0.646,0.764-0.882,1.117
		c-0.294-0.06-0.588-0.295-0.765-0.529l0,0c-0.353-0.529-0.764-0.941-1.293-1.353l0,0c-0.882-0.646-1.999-0.999-3.528-0.999
		c-0.059,0-0.176,0-0.235,0c-3.998,0.117-5.526-1.529-5.82-4.645c-0.176-1.646-0.588-3.234-1.47-4.174
		c2.528-1.411,6.114-3.234,7.231-3.586c0.118-0.059,0.235-0.059,0.353-0.118c-0.118,0.294,0.059,0.764,0.176,1.176
		c0.059,0.176,0.118,0.294,0.176,0.412c0.882,1.999,3.469,2.175,5.291,3.704c0,0.235,0,0.47,0.118,0.646
		c0.117,0.294,0.646,0.706,0.646,0.706c-0.118,0.118-0.059,0.294-0.059,0.294c0.294,0.353,0.823,0.412,0.94,0.412
		C311.579,396.37,311.462,396.605,311.403,396.84z"/>
	<path d="M294.53,393.078c0.059-0.059,0.117-0.059,0.235-0.118C294.647,393.019,294.589,393.078,294.53,393.078L294.53,393.078z"/>
	<path d="M296.823,392.49L296.823,392.49L296.823,392.49C296.646,392.548,296.646,392.548,296.823,392.49
		C296.764,392.431,296.764,392.431,296.823,392.49C296.823,392.431,296.823,392.431,296.823,392.49
		C296.823,392.431,296.823,392.49,296.823,392.49z"/>
	<path d="M301.115,389.609c0.176-0.118,0.412-0.176,0.588-0.294C301.467,389.433,301.291,389.55,301.115,389.609
		C301.056,389.609,301.056,389.609,301.115,389.609c-0.118,0.059-0.235,0.176-0.294,0.235c-0.471,0.176-0.941,0.412-1.353,0.646l0,0
		c-0.411,0.235-0.823,0.412-1.234,0.647c0.294-0.177,0.588-0.294,0.94-0.471l0,0C299.762,390.256,300.468,389.903,301.115,389.609
		L301.115,389.609z"/>
	<path d="M312.932,388.315c-0.117-0.588,0.235-1.176,0.765-1.058c-0.882-0.294-1.529-0.764-1.823-1.117l-0.059-0.059l0,0
		c-0.059,0.059-0.117,0.176-0.176,0.235c0.117,0.882-0.177,1.587-0.589,2.058c0.412,0.47,1.059,1.176,1.47,1.411
		c0.412,0.235,0.706,0.294,1.411,0.177C313.52,389.139,312.99,388.727,312.932,388.315z M314.107,392.96
		c-0.117,0-0.177-0.059-0.235-0.059s-0.117-0.059-0.176-0.059c-0.06,0-0.118-0.059-0.118-0.059c-0.059,0-0.059-0.059-0.117-0.059
		s-0.059-0.059-0.059-0.059l0,0c0,0.059,0,0.176-0.06,0.294c0,0.118,0,0.235-0.059,0.294l0,0c0,0.059-0.059,0.118-0.059,0.177
		l0.059,0.059c0.118,0.176,0.412,0.353,0.588,0.588c0.059-0.176,0.118-0.47,0.235-0.823
		C314.107,393.195,314.107,393.078,314.107,392.96C314.166,392.96,314.166,392.96,314.107,392.96L314.107,392.96z M313.931,389.962
		c-0.234,0.294-0.411,0.411-0.764,0.588c0,0.294,0.117,0.823,0.235,1.411c0.117,0.118,0.47,0.294,0.822,0.471
		c0-0.177,0.06-0.412,0.06-0.647C314.284,391.02,314.107,390.432,313.931,389.962z M315.46,405.776c0,0,0.117,0,0.059,0
		c0.059,0,0.059,0,0.117,0s0.118,0,0.118,0c0.234,0.059,0.528,0.059,0.882,0.118l0,0c0.117-0.235,0.528-0.883,0.822-1.294
		c0.354-0.529,0.177-0.646,0-1.881c-0.117-1.117-0.47-3.41-0.528-5.115v-0.411l-0.118,0.353v0.059h0.059
		c-0.294,1.411-0.234,2.528-0.822,3.704c0.411,1.117,0.822,1.646,0.882,3.175C316.165,404.483,315.636,405.13,315.46,405.776
		 M317.752,381.084v-0.059c0-0.117,0-0.235,0-0.235l0,0l-0.117,0.118l-0.411,0.235l-0.118,0.059l-0.059,0.059l0,0v0.059l0,0
		l-0.588,0.471l-0.059,0.059l-0.94-0.176l-0.823-0.118l-0.059-0.176l0,0l-0.118-0.235l-0.059-0.176l0,0h-0.294l0,0h-0.235
		c0,0,0,0,0,0.059v0.059c0.177,0.412,0.412,0.706,0.706,0.882c0.059,0.059,0.117,0.118,0.234,0.118
		c0.118,0.059,0.235,0.117,0.354,0.117c0.059,0,0.117,0.059,0.234,0.059c0.235,0.059,0.471,0.059,0.823,0.059s0.706-0.059,1-0.176
		c0.176-0.059,0.353-0.176,0.47-0.294l0,0C317.752,381.672,317.752,381.319,317.752,381.084z"/>
	<path d="M319.575,383.26c0,0.059-0.06,0.117-0.06,0.117l0,0c-0.059,0.059-0.117,0.177-0.117,0.177s-0.117,0-0.235-0.059h-0.059
		c0,0,0,0-0.059,0l0,0l0,0c-0.118-0.059-0.235-0.118-0.294-0.118s-0.118,0-0.177,0h-0.117l0,0c-0.471,0.059-0.765,0.177-1.059,0.235
		c-0.117,0.059-0.235,0.059-0.411,0.118c-0.235,0.059-0.529,0.059-0.882-0.059c-0.177-0.059-0.353-0.059-0.529-0.117
		c-0.059,0-0.117-0.059-0.177-0.059c-0.294-0.059-0.528-0.118-0.764-0.176l0,0c0,0,0,0-0.059,0c-0.06,0-0.118,0-0.118,0l0,0l0,0
		c-0.117,0-0.294,0-0.47,0c-0.06,0-0.118,0-0.177,0v-0.059l0.117-0.471v-0.059l0,0v-0.059v-0.059c0,0,0,0,0.06,0
		c0.117,0.059,0.234,0.118,0.353,0.176c0.353,0.177,0.764,0.294,1.176,0.412c0.059,0,0.117,0.059,0.235,0.059
		c0.353,0.117,0.646,0.176,0.764,0.176c0.059,0,0.059,0,0.118,0c0.059,0,0.117,0,0.176-0.059h0.059l0,0
		c0.294-0.117,0.588-0.294,0.823-0.411c0.059-0.059,0.118-0.059,0.177-0.118l0,0c0,0,0.059,0,0.059-0.059
		c0.059,0,0.117-0.059,0.177-0.059c0.059,0,0.059,0,0.117,0c0.117,0,0.177,0,0.294,0l0,0c0.117,0,0.177,0,0.235,0.059
		c0.059,0,0.059,0,0.117,0.059c0.059,0,0.059,0.059,0.118,0.059c0.059,0,0.117,0.059,0.117,0.059
		C319.34,382.966,319.457,383.083,319.575,383.26C319.575,383.201,319.634,383.201,319.575,383.26z"/>
	<path d="M319.869,383.671c0,0.059-0.118,0.059-0.177,0c-0.059,0-0.117,0-0.117,0h-0.06l0,0c-0.117-0.059-0.293-0.059-0.353-0.117
		c0,0,0,0-0.059,0l0,0c-0.059,0-0.059-0.059-0.117-0.059l0,0c-0.06-0.059-0.177-0.059-0.235-0.118l0,0
		c-0.059,0-0.177-0.059-0.235-0.059h-0.059c0,0,0,0-0.059,0c-0.471,0.059-0.823,0.176-1.059,0.235l0,0
		c-0.117,0.059-0.294,0.059-0.411,0.117l0,0c-0.235,0.059-0.471,0.059-0.882-0.059c-0.177-0.118-0.354-0.118-0.471-0.176h-0.059l0,0
		c-0.294-0.118-0.588-0.176-0.882-0.176l0,0l0,0l0,0h-0.059c-0.06,0-0.118,0-0.177,0s-0.117,0-0.177,0l0,0c-0.117,0-0.234,0-0.353,0
		h-0.059l0.059-0.471v-0.117c0,0,0,0,0.059,0h0.06c0,0,0.059,0,0.059,0.059c0,0,0,0,0.059,0c0.117,0.059,0.294,0.118,0.411,0.176
		c0.354,0.118,0.765,0.235,1.117,0.294c0.059,0,0.118,0,0.177,0.059l0,0c0.353,0.059,0.646,0.176,0.764,0.176
		c0.06,0,0.118,0,0.177,0l0,0c0.059,0,0.117,0,0.177-0.059h0.059l0,0c0.294-0.117,0.646-0.294,0.823-0.411
		c0.059,0,0.059-0.059,0.117-0.059l0.059-0.059c0,0,0.059,0,0.059-0.059l0,0c0.06,0,0.118-0.059,0.177-0.059
		c0.117-0.059,0.294-0.059,0.411,0l0,0c0.235,0,0.412,0.118,0.589,0.235c0.117,0.059,0.234,0.176,0.293,0.235l0.06,0.059
		C319.811,383.436,319.869,383.612,319.869,383.671z"/>
	<path d="M296.823,392.49C296.646,392.548,296.646,392.548,296.823,392.49C296.764,392.49,296.823,392.49,296.823,392.49z"/>
	<path d="M309.228,403.602c-0.353-0.529-0.764-0.941-1.293-1.353C308.464,402.66,308.875,403.072,309.228,403.602z"/>
</g>
</svg>
