<?xml version="1.0" encoding="utf-8"?>
<!-- Generator: Adobe Illustrator 16.0.0, SVG Export Plug-In . SVG Version: 6.00 Build 0)  -->
<!DOCTYPE svg PUBLIC "-//W3C//DTD SVG 1.1//EN" "http://www.w3.org/Graphics/SVG/1.1/DTD/svg11.dtd">
<svg version="1.1" id="Layer_1" xmlns="http://www.w3.org/2000/svg" xmlns:xlink="http://www.w3.org/1999/xlink" x="0px" y="0px"
	 width="35.235px" height="40px" viewBox="298.732 376 35.235 40" enable-background="new 298.732 376 35.235 40"
	 xml:space="preserve">
<rect x="-1026" y="-108" display="none" fill="#2B2B60" width="6858" height="2385"/>
<path d="M298.732,376l3.235,36l14.353,4l14.471-4l3.177-36H298.732z M327.203,384.588l-0.177,2.235l-0.117,0.941h-16.883
	l0.412,4.588h16.059l-0.117,1.176l-1.06,11.529l-0.059,0.765l-8.941,2.471v0.059l0,0l-9.059-2.529l-0.588-6.94h4.411l0.295,3.529
	l4.94,1.294l0,0v-0.118l4.883-1.294l0.529-5.706h-15.294l-1.059-12.117l-0.118-1.177h22L327.203,384.588z"/>
</svg>
