<svg xmlns="http://www.w3.org/2000/svg" width="41.025" height="40" viewBox="285.487 376 41.025 40"><path fill="#49021F" d="M292.752 376h26.496a7.26 7.26 0 017.265 7.265v25.47a7.26 7.26 0 01-7.265 7.266h-26.496a7.26 7.26 0 01-7.265-7.266v-25.47a7.26 7.26 0 017.265-7.265z"/><g fill="#F36"><path d="M300.393 386.461v17.607c0 .188-.085.273-.239.273h-3.351c-.154 0-.222-.086-.222-.273v-17.607c0-.154.085-.222.239-.222h3.333a.193.193 0 01.222.171c.018.017.018.034.018.051zM310.273 404.547a8.483 8.483 0 01-3.675-.77 5.962 5.962 0 01-2.582-2.324c-.632-1.043-.94-2.342-.94-3.897a7.026 7.026 0 01.94-3.607 7.093 7.093 0 012.718-2.649c1.196-.667 2.632-.991 4.324-.991.086 0 .205 0 .359.017.153.017.324.017.53.034v-5.402c0-.12.051-.188.171-.188h3.47c.085-.017.153.051.171.12v16.307c0 .308.017.649.034 1.025.034.359.051.701.068.992 0 .119-.052.222-.171.273-.889.376-1.829.649-2.786.82-.853.154-1.742.24-2.631.24zm1.676-3.419v-7.521a4.45 4.45 0 00-.462-.085c-.188-.017-.376-.034-.564-.034-.666 0-1.333.137-1.932.445-.581.291-1.077.718-1.453 1.265s-.563 1.282-.563 2.171a4.75 4.75 0 00.29 1.761c.171.462.428.872.77 1.214.325.308.718.547 1.162.684.462.154.94.223 1.419.223.257 0 .496-.018.718-.034.222.013.427-.021.615-.089z"/></g></svg>