<?xml version="1.0" encoding="utf-8"?>
<!-- Generator: Adobe Illustrator 16.0.0, SVG Export Plug-In . SVG Version: 6.00 Build 0)  -->
<!DOCTYPE svg PUBLIC "-//W3C//DTD SVG 1.1//EN" "http://www.w3.org/Graphics/SVG/1.1/DTD/svg11.dtd">
<svg version="1.1" id="Layer_1" xmlns="http://www.w3.org/2000/svg" xmlns:xlink="http://www.w3.org/1999/xlink" x="0px" y="0px"
	 width="40px" height="40px" viewBox="286 376 40 40" enable-background="new 286 376 40 40" xml:space="preserve">
<rect x="-225" y="-108" display="none" fill="#2B2B60" width="6858" height="2385"/>
<path d="M286,376v40h40v-40H286z M307.059,410.235c-0.588,1.177-1.706,2-3,2.353c-2,0.471-3.941,0.177-5.353-0.646
	c-0.941-0.589-1.706-1.471-2.235-2.529c1-0.589,2-1.235,3.059-1.883c0,0,0.118,0.177,0.235,0.354
	c0.412,0.646,0.706,1.117,1.353,1.411c0.647,0.235,2.059,0.354,2.588-0.765c0.353-0.588,0.235-2.471,0.235-4.529
	c0-3.235,0-6.471,0-9.706h3.823c0,3.412,0,6.883,0,10.294C307.765,406.765,307.941,408.706,307.059,410.235z M322.588,409.177
	c-1.294,4.471-8.529,4.588-11.411,1.646c-0.589-0.706-1-1.059-1.354-1.882c1.529-0.883,1.529-0.883,3.06-1.765
	c0.823,1.235,1.588,1.94,2.94,2.235c1.824,0.235,3.706-0.412,3.294-2.354c-0.411-1.588-3.765-2-6-3.706
	c-2.294-1.529-2.823-5.294-0.94-7.47c0.646-0.824,1.706-1.412,2.823-1.647c0.412-0.059,0.765-0.118,1.177-0.177
	c2.294-0.059,3.646,0.53,4.706,1.706c0.294,0.294,0.529,0.588,1,1.294c-1.177,0.765-1.177,0.765-2.941,1.883
	c-0.354-0.824-1-1.294-1.647-1.529c-1-0.295-2.294,0-2.529,1.059c-0.117,0.353-0.059,0.646,0.059,1.177
	c0.412,0.94,1.765,1.353,3,1.882c3.529,1.412,4.706,2.941,5,4.765C323,408,322.647,409.059,322.588,409.177z"/>
</svg>
