<svg xmlns="http://www.w3.org/2000/svg" width="40" height="40" viewBox="286 376 40 40"><path fill="#F7DF1E" d="M286 376h40v40h-40z"/><path d="M312.87 407.25c.806 1.315 1.854 2.282 3.708 2.282 1.557 0 2.552-.778 2.552-1.854 0-1.289-1.022-1.745-2.736-2.495l-.939-.403c-2.713-1.155-4.515-2.604-4.515-5.663 0-2.819 2.148-4.965 5.505-4.965 2.39 0 4.108.832 5.346 3.009l-2.927 1.88c-.645-1.156-1.34-1.611-2.419-1.611-1.101 0-1.799.698-1.799 1.611 0 1.127.698 1.584 2.312 2.282l.939.402c3.193 1.37 4.997 2.766 4.997 5.905 0 3.384-2.658 5.237-6.229 5.237-3.491 0-5.746-1.663-6.85-3.844l3.055-1.773zm-13.278.326c.59 1.047 1.127 1.933 2.419 1.933 1.235 0 2.014-.482 2.014-2.361v-12.781h3.758v12.832c0 3.892-2.282 5.663-5.612 5.663-3.01 0-4.752-1.558-5.639-3.433l3.06-1.853z"/></svg>