<svg xmlns="http://www.w3.org/2000/svg" width="51.428" height="40" viewBox="25.715 0 51.428 40"><path fill="#CB3837" d="M25.715 10h51.428v17.144H51.428V30H40v-2.856H25.715V10zm2.857 14.285h5.714v-8.57h2.857v8.571H40v-11.43H28.572v11.429zm14.285-11.429v14.287h5.715v-2.858h5.713V12.856H42.857zm5.715 2.859h2.856v5.714h-2.856v-5.714zm8.571-2.859v11.429h5.714v-8.57h2.857v8.571h2.857v-8.571h2.856v8.571h2.856v-11.43h-17.14z"/><path fill="#FFF" d="M28.572 24.285h5.713v-8.57h2.858v8.57H40V12.856H28.572zM42.857 12.856v14.287h5.715v-2.858h5.713V12.856H42.857zm8.571 8.573h-2.856v-5.714h2.856v5.714zM57.143 12.856v11.429h5.714v-8.57h2.858v8.57h2.857v-8.57h2.856v8.57h2.857V12.856z"/></svg>