<svg xmlns="http://www.w3.org/2000/svg" width="41.025" height="40" viewBox="285.487 376 41.025 40"><path fill="#001E36" d="M292.752 376h26.496a7.26 7.26 0 017.265 7.265v25.47a7.26 7.26 0 01-7.265 7.266h-26.496a7.26 7.26 0 01-7.265-7.266v-25.47a7.26 7.26 0 017.265-7.265z"/><g fill="#31A8FF"><path d="M294.718 404.051v-17.589c0-.12.051-.188.171-.188.291 0 .564 0 .958-.017.41-.017.837-.017 1.299-.034.461-.017.957-.017 1.487-.034.53-.017 1.043-.017 1.556-.017 1.402 0 2.564.171 3.521.53a6.114 6.114 0 012.291 1.402 5.43 5.43 0 011.248 1.949c.256.718.393 1.453.393 2.222 0 1.47-.342 2.684-1.025 3.641s-1.641 1.676-2.752 2.086c-1.163.427-2.444.581-3.846.581-.41 0-.684 0-.854-.018-.171-.017-.411-.017-.735-.017v5.487a.213.213 0 01-.188.239H294.926c-.14-.001-.208-.069-.208-.223zm3.726-14.479v5.744c.239.017.461.034.667.034h.906c.667 0 1.333-.103 1.966-.308a2.944 2.944 0 001.402-.906c.359-.428.53-1.009.53-1.761.017-.53-.12-1.06-.393-1.521a2.49 2.49 0 00-1.197-.975c-.632-.256-1.316-.359-2.017-.342-.444 0-.837 0-1.162.017a4.016 4.016 0 00-.702.018zM318.308 394.273a6.085 6.085 0 00-1.641-.582 9.007 9.007 0 00-1.915-.222c-.342-.017-.7.034-1.025.12a.875.875 0 00-.53.342c-.085.137-.137.308-.137.461s.068.308.171.444c.154.188.359.342.581.461.394.205.804.393 1.214.564a12.31 12.31 0 012.633 1.248 3.982 3.982 0 011.351 1.418c.273.548.41 1.146.393 1.761a3.969 3.969 0 01-.666 2.273 4.274 4.274 0 01-1.915 1.521c-.838.359-1.863.547-3.094.547-.786 0-1.556-.068-2.325-.222a6.929 6.929 0 01-1.743-.547c-.12-.068-.205-.188-.188-.325v-2.975c0-.051.018-.119.068-.153.052-.034.103-.018.154.017a7.298 7.298 0 002.119.838c.65.171 1.334.257 2.018.257.649 0 1.111-.086 1.419-.239a.796.796 0 00.461-.719c0-.239-.137-.461-.41-.684-.273-.222-.837-.479-1.675-.803a10.561 10.561 0 01-2.428-1.231 4.43 4.43 0 01-1.299-1.453 3.69 3.69 0 01-.394-1.744c0-.735.205-1.436.582-2.068a4.215 4.215 0 011.794-1.573c.804-.41 1.813-.598 3.026-.598.7 0 1.419.051 2.119.154a6.01 6.01 0 011.471.393c.068.017.137.085.171.154a.861.861 0 01.034.205v2.787a.21.21 0 01-.086.171c-.154.037-.24.037-.308.002z"/></g></svg>