<?xml version="1.0" encoding="utf-8"?>
<!-- Generator: Adobe Illustrator 16.0.0, SVG Export Plug-In . SVG Version: 6.00 Build 0)  -->
<!DOCTYPE svg PUBLIC "-//W3C//DTD SVG 1.1//EN" "http://www.w3.org/Graphics/SVG/1.1/DTD/svg11.dtd">
<svg version="1.1" id="Layer_1" xmlns="http://www.w3.org/2000/svg" xmlns:xlink="http://www.w3.org/1999/xlink" x="0px" y="0px"
	 width="44.914px" height="40px" viewBox="11.543 14 44.914 40" enable-background="new 11.543 14 44.914 40" xml:space="preserve">
<g>
	<path d="M56.457,34.006c0-2.972-3.726-5.792-9.438-7.542c1.32-5.826,0.733-10.456-1.85-11.935
		c-0.595-0.344-1.288-0.509-2.041-0.515V14c-2.517,0-5.813,1.797-9.147,4.908c-3.329-3.098-6.631-4.868-9.148-4.868v0.006
		c-0.767,0-1.467,0.165-2.067,0.515c-2.569,1.486-3.15,6.103-1.823,11.909c-5.693,1.757-9.399,4.571-9.399,7.536
		c0,2.972,3.726,5.793,9.438,7.542c-1.321,5.826-0.733,10.456,1.85,11.936C23.426,53.835,24.119,54,24.892,54
		c2.517,0,5.813-1.796,9.148-4.908c3.329,3.092,6.631,4.868,9.148,4.868c0.767,0,1.466-0.165,2.067-0.516
		c2.569-1.485,3.151-6.109,1.823-11.908C52.752,39.792,56.457,36.973,56.457,34.006z M43.114,16.041v0.006
		c0.423,0,0.761,0.086,1.044,0.238c1.242,0.713,1.783,3.435,1.367,6.928c-0.099,0.859-0.264,1.771-0.469,2.695
		c-1.797-0.442-3.751-0.779-5.813-0.997c-1.234-1.691-2.517-3.23-3.811-4.577C38.418,17.567,41.213,16.047,43.114,16.041z
		 M25.889,38.689c0.429,0.733,0.872,1.446,1.321,2.14c-1.302-0.191-2.557-0.43-3.752-0.72c0.337-1.182,0.759-2.397,1.235-3.612
		C25.063,37.23,25.459,37.963,25.889,38.689z M23.426,27.897c1.202-0.284,2.463-0.528,3.771-0.72
		c-0.45,0.707-0.899,1.427-1.321,2.173c-0.423,0.733-0.813,1.466-1.189,2.2C24.191,30.314,23.775,29.086,23.426,27.897z
		 M25.764,34.033c0.568-1.228,1.208-2.45,1.896-3.652c0.713-1.235,1.446-2.411,2.206-3.494c1.367-0.119,2.748-0.185,4.141-0.185
		c1.38,0,2.768,0.066,4.122,0.171c0.76,1.09,1.499,2.252,2.219,3.481c0.694,1.202,1.328,2.417,1.903,3.646
		c-0.575,1.229-1.209,2.45-1.896,3.652c-0.714,1.235-1.447,2.411-2.207,3.494c-1.373,0.119-2.754,0.185-4.147,0.185
		c-1.38,0-2.768-0.065-4.122-0.171c-0.76-1.091-1.499-2.253-2.212-3.481C26.966,36.477,26.338,35.262,25.764,34.033z M42.11,38.663
		c0.423-0.733,0.813-1.473,1.189-2.206c0.495,1.229,0.919,2.45,1.262,3.646c-1.196,0.29-2.464,0.541-3.772,0.732
		C41.239,40.13,41.688,39.402,42.11,38.663z M42.104,29.317c-0.422-0.733-0.871-1.447-1.32-2.14c1.302,0.191,2.557,0.429,3.752,0.72
		c-0.338,1.182-0.76,2.398-1.235,3.62C42.923,30.783,42.533,30.05,42.104,29.317z M36.517,24.713
		c-0.825-0.04-1.664-0.066-2.517-0.066c-0.858,0-1.71,0.02-2.543,0.066c0.826-1.07,1.678-2.047,2.517-2.933
		C34.825,22.659,35.678,23.643,36.517,24.713z M23.782,16.325c0.277-0.165,0.634-0.238,1.05-0.238v-0.006
		c1.896,0,4.709,1.512,7.688,4.267c-1.282,1.347-2.563,2.873-3.778,4.57c-2.067,0.218-4.029,0.562-5.819,1.011
		c-0.211-0.918-0.363-1.803-0.476-2.655C22.019,19.767,22.547,17.052,23.782,16.325z M21.477,39.567
		c-0.905-0.283-1.764-0.594-2.563-0.931c-3.243-1.381-5.337-3.197-5.337-4.63c0-1.439,2.094-3.256,5.337-4.63
		c0.786-0.336,1.651-0.641,2.536-0.925c0.521,1.796,1.208,3.659,2.061,5.575C22.666,35.929,21.986,37.785,21.477,39.567z
		 M24.872,51.966c-0.41-0.007-0.76-0.093-1.037-0.245c-1.242-0.713-1.783-3.435-1.367-6.929c0.099-0.858,0.264-1.763,0.469-2.694
		c1.797,0.442,3.752,0.779,5.813,0.997c1.235,1.691,2.517,3.23,3.811,4.578C29.582,50.446,26.774,51.966,24.872,51.966z
		 M34.02,46.226c-0.852-0.879-1.704-1.855-2.542-2.933c0.826,0.04,1.665,0.066,2.517,0.066c0.859,0,1.71-0.02,2.542-0.066
		C35.711,44.37,34.858,45.347,34.02,46.226z M44.219,51.682c-0.278,0.165-0.635,0.237-1.051,0.237c-1.896,0-4.71-1.513-7.688-4.267
		c1.281-1.348,2.563-2.873,3.778-4.57c2.067-0.218,4.029-0.562,5.825-1.004c0.211,0.925,0.376,1.81,0.476,2.661
		C45.981,48.24,45.453,50.961,44.219,51.682z M49.079,38.637c-0.785,0.337-1.645,0.641-2.536,0.925
		c-0.521-1.797-1.209-3.659-2.061-5.575c0.846-1.902,1.519-3.765,2.034-5.548c0.905,0.284,1.77,0.595,2.569,0.932
		c3.243,1.38,5.337,3.197,5.337,4.63C54.416,35.439,52.315,37.263,49.079,38.637z"/>
	<circle cx="33.994" cy="34.007" r="4.181"/>
</g>
</svg>
