<svg xmlns="http://www.w3.org/2000/svg" width="44.917" height="40" viewBox="283.242 376 44.917 40"><g fill="#61DAFB"><path d="M328.159 396.005c0-2.976-3.727-5.796-9.439-7.544 1.318-5.823.732-10.456-1.85-11.939-.595-.348-1.291-.513-2.051-.513v2.042c.421 0 .76.082 1.044.238 1.245.714 1.785 3.434 1.364 6.931-.101.86-.266 1.767-.467 2.691a44.51 44.51 0 00-5.814-.998 44.61 44.61 0 00-3.809-4.577c2.985-2.774 5.786-4.294 7.69-4.294V376c-2.518 0-5.813 1.795-9.146 4.907-3.333-3.095-6.629-4.87-9.146-4.87v2.041c1.896 0 4.706 1.511 7.69 4.267a43.46 43.46 0 00-3.781 4.568c-2.069.22-4.028.559-5.822 1.007a27.518 27.518 0 01-.477-2.654c-.431-3.498.101-6.217 1.337-6.94.274-.165.632-.237 1.053-.237v-2.042c-.77 0-1.465.165-2.069.513-2.572 1.483-3.149 6.106-1.822 11.911-5.694 1.758-9.402 4.568-9.402 7.535 0 2.976 3.727 5.795 9.439 7.544-1.318 5.822-.732 10.455 1.85 11.938.595.348 1.291.513 2.06.513 2.518 0 5.813-1.795 9.146-4.907 3.333 3.095 6.628 4.87 9.146 4.87.769 0 1.465-.164 2.069-.512 2.572-1.483 3.148-6.107 1.821-11.912 5.678-1.749 9.386-4.569 9.386-7.535zm-11.921-6.107a41.701 41.701 0 01-1.235 3.616 49.407 49.407 0 00-2.518-4.34c1.3.193 2.554.431 3.753.724zm-4.193 9.75a48.572 48.572 0 01-2.206 3.497 47.653 47.653 0 01-4.139.184c-1.382 0-2.765-.064-4.119-.174a50.328 50.328 0 01-2.216-3.479 47.242 47.242 0 01-1.904-3.644 48.928 48.928 0 014.102-7.15 47.63 47.63 0 014.138-.184c1.383 0 2.766.064 4.12.174a50.707 50.707 0 012.216 3.479 47.596 47.596 0 011.904 3.644 51.302 51.302 0 01-1.896 3.653zm2.958-1.19a39.517 39.517 0 011.263 3.644 40.695 40.695 0 01-3.771.732 51.83 51.83 0 001.318-2.169c.42-.732.814-1.475 1.19-2.207zm-9.284 9.769a37.434 37.434 0 01-2.545-2.93 56.1 56.1 0 002.518.064c.86 0 1.712-.019 2.545-.064a35.653 35.653 0 01-2.518 2.93zm-6.812-5.393c-1.3-.191-2.555-.43-3.754-.723.339-1.182.76-2.398 1.236-3.616.375.732.769 1.465 1.199 2.197s.871 1.447 1.319 2.142zm6.766-19.052a37.65 37.65 0 012.546 2.93 56.145 56.145 0 00-2.519-.064c-.86 0-1.712.019-2.545.064a35.847 35.847 0 012.518-2.93zm-6.775 5.393a50.36 50.36 0 00-2.508 4.367 39.53 39.53 0 01-1.264-3.644 44.278 44.278 0 013.772-.723zm-8.286 11.462c-3.241-1.382-5.337-3.194-5.337-4.632s2.096-3.26 5.337-4.633a28.269 28.269 0 012.536-.925 43.704 43.704 0 002.061 5.575 43.154 43.154 0 00-2.033 5.549 27.896 27.896 0 01-2.564-.934zm4.926 13.084c-1.245-.715-1.785-3.434-1.364-6.931.101-.861.266-1.768.467-2.692a44.51 44.51 0 005.814.998 44.519 44.519 0 003.809 4.578c-2.985 2.773-5.787 4.294-7.691 4.294-.413-.01-.76-.092-1.035-.247zm21.717-6.977c.431 3.497-.101 6.216-1.337 6.939-.274.165-.632.238-1.053.238-1.896 0-4.706-1.511-7.69-4.267a43.46 43.46 0 003.781-4.568 42.869 42.869 0 005.822-1.007c.211.925.376 1.814.477 2.665zm3.524-6.107c-.787.339-1.647.642-2.536.925a43.749 43.749 0 00-2.06-5.575 43.282 43.282 0 002.032-5.548c.906.283 1.768.595 2.573.934 3.24 1.382 5.337 3.195 5.337 4.633-.008 1.436-2.104 3.258-5.346 4.631z"/><circle cx="305.691" cy="396.004" r="4.184"/></g></svg>