<?xml version="1.0" encoding="utf-8"?>
<!-- Generator: Adobe Illustrator 16.0.0, SVG Export Plug-In . SVG Version: 6.00 Build 0)  -->
<!DOCTYPE svg PUBLIC "-//W3C//DTD SVG 1.1//EN" "http://www.w3.org/Graphics/SVG/1.1/DTD/svg11.dtd">
<svg version="1.1" id="Layer_1" xmlns="http://www.w3.org/2000/svg" xmlns:xlink="http://www.w3.org/1999/xlink" x="0px" y="0px"
	 width="53.409px" height="40px" viewBox="278.229 375.448 53.409 40" enable-background="new 278.229 375.448 53.409 40"
	 xml:space="preserve">
<rect x="-2610" y="-108" display="none" fill="#2B2B60" width="6858" height="2385"/>
<g>
	<path d="M324.249,398.479c-1.883,0-3.452,0.471-4.864,1.098c-0.472-0.941-0.942-1.883-1.021-2.511
		c-0.078-0.784-0.235-1.177-0.078-2.118c0.156-0.863,0.627-2.197,0.627-2.275c0-0.078-0.078-0.549-1.177-0.549
		c-1.098,0-1.961,0.235-2.118,0.471c-0.078,0.313-0.313,0.941-0.471,1.569c-0.157,0.941-2.118,4.472-3.295,6.276
		c-0.393-0.706-0.706-1.334-0.785-1.805c-0.078-0.784-0.235-1.177-0.078-2.118c0.078-0.941,0.628-2.197,0.628-2.275
		c0-0.078-0.157-0.549-1.178-0.549c-1.098,0-1.961,0.235-2.118,0.471c-0.078,0.313-0.235,0.941-0.471,1.569
		c-0.235,0.628-2.824,6.434-3.53,7.924c-0.314,0.785-0.628,1.412-0.863,1.805v0.078l0,0c-0.157,0.393-0.079,0.55-0.079,0.55l0,0
		c0,0-0.471,0.549-0.549,0.549c-0.078,0-0.157-0.706,0-1.647c0.393-1.962,1.334-5.1,1.334-5.257c0-0.078,0.157-0.628-0.627-0.863
		s-1.02,0.157-1.099,0.157s-0.079,0.078-0.079,0.157c0.079-0.314,0.707-3.531-1.647-3.531c-1.569,0-3.688,1.647-4.708,3.217
		c-0.627,0.393-2.118,1.099-3.609,1.962c-0.549,0.313-1.177,0.628-1.727,0.941l-0.078-0.157c-2.981-3.138-8.474-5.414-8.238-9.729
		c0.078-1.569,0.627-5.649,10.592-10.592c8.16-4.08,14.672-2.981,15.849-0.471c1.647,3.531-3.53,10.121-12.004,11.063
		c-3.217,0.392-4.943-0.863-5.335-1.334c-0.471-0.471-0.471-0.471-0.706-0.393c-0.235,0.157-0.079,0.549,0,0.863
		c0.235,0.628,1.334,1.805,3.06,2.432c1.569,0.549,5.335,0.785,9.886-0.941c5.1-1.961,9.18-7.532,8.003-12.161
		c-1.177-4.708-9.023-6.277-16.398-3.609c-4.394,1.569-9.102,4.001-12.554,7.218c-4.08,3.766-4.708,7.14-4.472,8.474
		c0.941,4.943,7.689,8.081,10.435,10.436c-0.157,0.078-0.235,0.156-0.392,0.235c-1.334,0.627-6.512,3.373-7.846,6.198
		c-1.491,3.217,0.236,5.57,1.334,5.884c3.452,0.942,7.062-0.784,8.944-3.608c1.883-2.903,1.648-6.591,0.785-8.317v-0.078l1.02-0.628
		c0.706-0.392,1.334-0.784,1.961-1.098c-0.314,0.941-0.549,1.961-0.706,3.53c-0.157,1.805,0.627,4.236,1.569,5.179
		c0.471,0.392,0.941,0.392,1.255,0.392c1.177,0,1.648-0.941,2.197-2.118c0.706-1.334,1.255-2.746,1.333-2.981
		c-0.078,0.313-0.706,4.315,1.334,4.315c0.785,0,2.275-1.412,2.354-1.491c-0.078,0-0.392,0-0.392-0.078
		c0.471,0,0.785-0.157,0.785-0.157l0,0c0,0,0.785-1.805,1.805-3.844c1.333-2.668,2.667-5.964,2.667-5.964s0.157,0.785,0.471,2.119
		c0.235,0.784,0.706,1.647,1.099,2.511c-0.314,0.471-0.471,0.706-0.471,0.706l0,0c-0.235,0.313-0.55,0.706-0.863,1.02
		c-1.099,1.256-2.354,2.746-2.511,3.139c-0.157,0.471-0.157,0.863,0.235,1.177c0.313,0.235,0.785,0.235,1.334,0.235
		c0.941-0.078,1.647-0.313,1.961-0.471c0.55-0.157,1.099-0.471,1.727-0.863c1.02-0.784,1.647-1.883,1.647-3.295
		c0-0.785-0.313-1.569-0.628-2.354c0.079-0.157,0.157-0.314,0.314-0.393c1.647-2.433,2.902-5.021,2.902-5.021
		s0.157,0.784,0.471,2.118c0.157,0.706,0.628,1.412,0.942,2.118c-1.569,1.256-2.511,2.746-2.825,3.688
		c-0.627,1.804-0.156,2.589,0.785,2.746c0.392,0.078,1.02-0.079,1.412-0.314c0.549-0.156,1.177-0.471,1.805-0.941
		c1.02-0.784,2.04-1.805,1.961-3.295c0-0.628-0.235-1.334-0.471-1.962c1.334-0.549,2.981-0.863,5.179-0.628
		c4.629,0.55,5.57,3.452,5.335,4.63c-0.157,1.177-1.177,1.883-1.49,2.118c-0.314,0.157-0.393,0.235-0.393,0.393
		c0.078,0.235,0.157,0.235,0.471,0.156c0.393-0.078,2.433-1.02,2.511-3.217C331.859,401.538,329.113,398.399,324.249,398.479z
		 M288.55,410.482c-1.569,1.647-3.688,2.354-4.629,1.805c-1.02-0.55-0.628-3.061,1.255-4.786c1.177-1.099,2.668-2.118,3.609-2.668
		c0.235-0.156,0.549-0.313,0.941-0.549c0.079,0,0.079-0.078,0.079-0.078c0.079-0.079,0.157-0.079,0.235-0.157
		C290.825,406.56,290.119,408.756,288.55,410.482z M299.691,402.872c-0.549,1.334-1.647,4.629-2.354,4.472
		c-0.628-0.156-0.942-2.667-0.157-5.178c0.393-1.256,1.334-2.746,1.805-3.374c0.863-0.941,1.726-1.256,1.961-0.863
		C301.339,398.479,300.083,402.087,299.691,402.872z M311.303,404.441c0,1.49-1.412,2.511-2.118,2.902
		c-0.235,0.079-0.471,0.235-0.549,0.157c-0.079-0.078,0.078-0.235,0.078-0.235s1.177-1.256,1.647-1.805
		c0.235-0.313,0.55-0.706,0.941-1.177V404.441L311.303,404.441z M316.089,405.696c-0.157-0.157-0.157-0.549,0.393-1.726
		c0.235-0.472,0.706-1.256,1.569-2.04c0.078,0.313,0.156,0.627,0.156,0.862C318.207,404.677,316.874,405.383,316.089,405.696z"/>
</g>
</svg>
