<svg xmlns="http://www.w3.org/2000/svg" width="53.41" height="40"><path fill="#CD6799" d="M45.963 22.994a11.04 11.04 0 00-4.832 1.121c-.496-.984-.994-1.861-1.082-2.504-.096-.75-.213-1.208-.096-2.104.115-.896.643-2.173.633-2.271-.01-.097-.117-.555-1.189-.564-1.07-.01-1.996.205-2.104.487s-.313.925-.449 1.588c-.184.974-2.143 4.452-3.264 6.274-.359-.712-.672-1.335-.74-1.832-.098-.75-.213-1.208-.098-2.104.117-.896.645-2.173.635-2.27-.01-.098-.117-.556-1.189-.565s-1.996.205-2.104.487-.225.944-.449 1.588c-.223.644-2.824 6.449-3.507 7.95-.351.77-.653 1.383-.867 1.802 0 0-.01.029-.038.078-.186.36-.293.556-.293.556v.01c-.146.263-.303.506-.38.506-.059 0-.165-.701.02-1.656.39-2.017 1.315-5.153 1.306-5.261 0-.059.175-.604-.604-.886-.76-.283-1.032.185-1.101.185s-.117.166-.117.166.848-3.527-1.617-3.527c-1.539 0-3.663 1.686-4.715 3.205-.662.361-2.076 1.131-3.586 1.959-.574.321-1.168.643-1.725.944-.039-.039-.077-.087-.116-.126-2.981-3.187-8.495-5.437-8.262-9.714.088-1.559.624-5.65 10.59-10.619 8.203-4.043 14.731-2.922 15.86-.438C32.1 9.005 26.986 15.59 18.51 16.545c-3.234.361-4.93-.887-5.358-1.354-.448-.487-.517-.517-.683-.42-.272.146-.098.585 0 .838.254.663 1.297 1.832 3.06 2.406 1.559.508 5.349.79 9.937-.983 5.135-1.987 9.148-7.511 7.971-12.139-1.18-4.696-8.974-6.245-16.349-3.624C12.704 2.828 7.95 5.283 4.53 8.479c-4.063 3.8-4.705 7.102-4.442 8.486.944 4.909 7.716 8.104 10.425 10.473-.137.077-.264.146-.371.204-1.354.673-6.518 3.371-7.803 6.226-1.462 3.234.232 5.553 1.354 5.865 3.479.964 7.053-.771 8.973-3.635s1.686-6.585.799-8.29a.223.223 0 00-.039-.059c.352-.205.711-.419 1.063-.624a51.495 51.495 0 011.958-1.101c-.331.906-.575 1.987-.692 3.546-.146 1.832.604 4.209 1.588 5.145.439.409.955.419 1.287.419 1.148 0 1.666-.955 2.24-2.085.701-1.384 1.334-2.991 1.334-2.991s-.789 4.346 1.355 4.346c.779 0 1.568-1.014 1.918-1.53v.01s.02-.029.059-.097l.127-.205v-.02a83.17 83.17 0 002.057-3.839c1.344-2.649 2.639-5.962 2.639-5.962s.117.809.518 2.153c.232.789.721 1.656 1.109 2.494-.311.438-.506.682-.506.682l.01.01c-.254.331-.525.691-.828 1.042-1.063 1.267-2.328 2.719-2.504 3.138-.205.497-.156.857.234 1.149.281.214.789.243 1.305.214.955-.067 1.627-.302 1.959-.447a6.64 6.64 0 001.686-.887c1.041-.77 1.676-1.871 1.617-3.322-.029-.799-.293-1.598-.615-2.348.098-.137.186-.273.283-.409 1.646-2.407 2.924-5.047 2.924-5.047s.115.809.516 2.153c.195.682.594 1.422.945 2.143-1.549 1.257-2.504 2.719-2.846 3.673-.613 1.773-.137 2.572.77 2.758.41.087.994-.107 1.424-.293a6.462 6.462 0 001.801-.925c1.043-.77 2.047-1.842 1.988-3.293-.029-.663-.205-1.315-.449-1.949 1.316-.545 3.012-.847 5.174-.594 4.637.546 5.553 3.439 5.379 4.657-.176 1.218-1.15 1.88-1.473 2.084-.32.205-.428.273-.398.419.039.215.195.205.467.166.381-.068 2.436-.984 2.523-3.225.142-2.864-2.586-5.991-7.409-5.963zM10.19 35.056c-1.539 1.676-3.683 2.309-4.607 1.773-.994-.575-.604-3.05 1.285-4.823 1.15-1.081 2.631-2.084 3.615-2.698.224-.137.555-.331.954-.575.068-.038.107-.058.107-.058l.233-.146c.692 2.533.03 4.763-1.587 6.527zm11.203-7.618c-.535 1.305-1.656 4.646-2.338 4.462-.584-.156-.945-2.689-.117-5.193.42-1.257 1.307-2.757 1.822-3.341.838-.936 1.764-1.247 1.988-.867.282.495-1.023 4.12-1.355 4.939zm9.246 4.422c-.225.117-.438.194-.535.136-.068-.038.098-.194.098-.194s1.158-1.247 1.617-1.813c.262-.331.574-.721.904-1.159v.127c0 1.49-1.441 2.494-2.084 2.903zm7.131-1.627c-.166-.117-.137-.507.42-1.725.213-.478.721-1.276 1.588-2.046.098.312.166.614.156.896-.01 1.881-1.355 2.583-2.164 2.875z"/></svg>