<svg xmlns="http://www.w3.org/2000/svg" width="40" height="40" viewBox="236 236 40 40"><path fill="#3178C6" d="M272.094 236h-32.188a3.906 3.906 0 00-3.906 3.906v32.188a3.906 3.906 0 003.906 3.906h32.188a3.906 3.906 0 003.906-3.906v-32.188a3.906 3.906 0 00-3.906-3.906zm-12.891 22.188h-5v14.297h-3.984v-14.297h-5v-3.203h13.984v3.203zm12.891 11.726c-.313.703-.852 1.227-1.484 1.641-.625.383-1.328.68-2.188.859s-1.719.266-2.656.266-1.875-.078-2.734-.242-1.633-.406-2.266-.734v-3.754c-.05-.039-.1-.077-.148-.118l.148-.034v.152a7.401 7.401 0 002.195 1.21 7.08 7.08 0 002.5.445c.547 0 .961-.047 1.328-.133.383-.094.688-.219.938-.375s.436-.344.555-.563.18-.453.18-.703c0-.359-.102-.672-.297-.938-.18-.266-.445-.516-.781-.742-.313-.227-.703-.445-1.172-.656s-.945-.43-1.484-.648c-1.328-.625-2.375-1.25-3.047-2.109-.68-.781-1.016-1.797-1.016-2.969 0-.938.18-1.688.547-2.344.391-.703.852-1.219 1.484-1.641.625-.43 1.328-.742 2.188-.938s1.719-.297 2.656-.297 1.719.055 2.422.164 1.359.281 1.953.508v3.672a5.135 5.135 0 00-.938-.539c-.367-.156-.727-.281-1.094-.383s-.734-.177-1.094-.227a7.254 7.254 0 00-1.016-.073c-.477 0-.883.039-1.25.125-.375.086-.688.203-.938.359s-.444.336-.586.555-.211.461-.211.727c0 .289.078.547.234.781.156.227.375.445.664.656.258.203.609.406 1.016.609.469.203.891.406 1.406.617.703.297 1.328.625 1.875.938s1.008.68 1.406 1.094c.422.391.727.859.938 1.406s.32 1.164.32 1.875c.001 1.017-.241 1.798-.553 2.501z"/></svg>