<?xml version="1.0" encoding="utf-8"?>
<!-- Generator: Adobe Illustrator 16.0.0, SVG Export Plug-In . SVG Version: 6.00 Build 0)  -->
<!DOCTYPE svg PUBLIC "-//W3C//DTD SVG 1.1//EN" "http://www.w3.org/Graphics/SVG/1.1/DTD/svg11.dtd">
<svg version="1.1" id="Layer_1" xmlns="http://www.w3.org/2000/svg" xmlns:xlink="http://www.w3.org/1999/xlink" x="0px" y="0px"
	 width="40px" height="40px" viewBox="14 14 40 40" enable-background="new 14 14 40 40" xml:space="preserve">
<rect x="-358" y="-191" display="none" fill="#2B2B60" width="762" height="265"/>
<path d="M14,14v20v20h40V14H14z M36.883,35.706h-5.236v14.765h-3.706V35.706h-5.177v-1.647h0.059v-1.647l7-0.059
	c3.824,0,7,0,7,0.059c0.06,0,0.06,0.765,0.06,1.647V35.706z M50.412,47.471c-0.647,1.647-2.177,2.823-4.412,3.176
	c-0.706,0.118-2.294,0.118-3.059-0.059c-1.589-0.294-3.117-1.117-4.06-2.117c-0.353-0.412-1.059-1.471-1.059-1.529l0.353-0.235
	l1.53-0.883l1.117-0.646l0.235,0.353c0.353,0.529,1.059,1.235,1.471,1.471c1.294,0.647,3.059,0.588,3.882-0.177
	c0.354-0.353,0.53-0.706,0.53-1.177c0-0.47-0.059-0.646-0.294-1c-0.295-0.411-0.941-0.823-2.766-1.588
	c-2.059-0.882-2.94-1.411-3.764-2.294c-0.472-0.529-0.883-1.353-1.118-2c-0.177-0.589-0.177-2-0.059-2.588
	c0.411-2,1.941-3.412,4.117-3.824c0.706-0.118,2.354-0.059,3.059,0.118l0,0c1,0.235,1.824,0.706,2.471,1.412
	c0.354,0.412,0.941,1.118,0.941,1.294c0,0.059-1.706,1.234-2.765,1.882c-0.059,0.059-0.176-0.117-0.354-0.411
	c-0.528-0.765-1.059-1.06-1.882-1.118c-1.176-0.059-2,0.529-2,1.588c0,0.295,0.059,0.471,0.177,0.765
	C43,38.412,43.471,38.765,45,39.471c2.882,1.235,4.118,2.059,4.824,3.177C50.765,43.882,50.941,45.941,50.412,47.471z"/>
</svg>
