<?xml version="1.0" encoding="utf-8"?>
<!-- Generator: Adobe Illustrator 16.0.0, SVG Export Plug-In . SVG Version: 6.00 Build 0)  -->
<!DOCTYPE svg PUBLIC "-//W3C//DTD SVG 1.1//EN" "http://www.w3.org/Graphics/SVG/1.1/DTD/svg11.dtd">
<svg version="1.1" id="Layer_1" xmlns="http://www.w3.org/2000/svg" xmlns:xlink="http://www.w3.org/1999/xlink" x="0px" y="0px"
	 width="39.704px" height="40px" viewBox="286.488 375.509 39.704 40" enable-background="new 286.488 375.509 39.704 40"
	 xml:space="preserve">
<rect x="-2493" y="-927" display="none" fill="#2B2B60" width="6858" height="2385"/>
<g>
	<path d="M286.858,389.662c0,0-0.94-0.706,0.176-1.587l2.705-2.411c0,0,0.764-0.823,1.587-0.118l24.751,18.754v8.995
		c0,0,0,1.411-1.823,1.234L286.858,389.662z"/>
	<path d="M293.384,395.423l-6.408,5.821c0,0-0.647,0.47,0,1.352l2.939,2.705c0,0,0.706,0.764,1.764-0.118l6.761-5.114
		L293.384,395.423z"/>
	<path d="M304.378,395.482l11.7-8.937l-0.06-8.936c0,0-0.47-1.94-2.175-0.941l-15.58,14.169L304.378,395.482z"/>
	<path d="M314.196,415.001c0.706,0.706,1.528,0.471,1.528,0.471l9.407-4.586c1.176-0.823,1.058-1.822,1.058-1.822v-27.515
		c0-1.235-1.234-1.646-1.234-1.646l-8.172-3.939c-1.764-1.117-2.939,0.176-2.939,0.176s1.47-1.058,2.234,0.941v36.392
		c0,0.235-0.06,0.47-0.177,0.705c-0.235,0.412-0.705,0.823-1.764,0.646L314.196,415.001z"/>
</g>
</svg>
