<svg xmlns="http://www.w3.org/2000/svg" width="40.232" height="40"><defs><filter id="prefix__a" filterUnits="userSpaceOnUse" x="-.302" y="0" width="40.233" height="40"><feColorMatrix values="1 0 0 0 0 0 1 0 0 0 0 0 1 0 0 0 0 0 1 0"/></filter></defs><mask maskUnits="userSpaceOnUse" x="-.302" y="0" width="40.233" height="40" id="prefix__b"><path fill="#FFF" filter="url(#prefix__a)" d="M28.235 39.829a2.502 2.502 0 001.994-.076l8.275-3.983a2.513 2.513 0 001.426-2.265V6.496c0-.966-.555-1.846-1.426-2.265L30.229.248a2.51 2.51 0 00-2.858.486L11.525 15.192l-6.903-5.24a1.674 1.674 0 00-2.138.096L.27 12.062a1.676 1.676 0 00-.002 2.478L6.255 20 .27 25.461a1.677 1.677 0 00.002 2.479l2.214 2.015a1.674 1.674 0 002.138.096l6.903-5.239L27.375 39.27c.249.248.543.436.86.559zm1.648-28.956L17.86 20l12.021 9.127.002-18.254z"/></mask><g mask="url(#prefix__b)"><path fill="#0065A9" d="M38.506 4.238L30.225.249a2.504 2.504 0 00-2.857.485L.245 25.462a1.676 1.676 0 00.002 2.478l2.215 2.016a1.678 1.678 0 002.141.096L37.26 5.272c1.098-.831 2.672-.05 2.672 1.326v-.096a2.518 2.518 0 00-1.426-2.264z"/><path fill="#007ACC" d="M38.506 35.764l-8.281 3.988a2.504 2.504 0 01-2.857-.484L.245 14.539a1.676 1.676 0 01.002-2.478l2.215-2.014a1.676 1.676 0 012.14-.095L37.26 34.729c1.098.832 2.672.052 2.672-1.323v.094a2.518 2.518 0 01-1.426 2.264z"/><path fill="#1F9CF0" d="M30.223 39.753a2.506 2.506 0 01-2.857-.485c.926.926 2.512.271 2.512-1.041V1.775c0-1.312-1.586-1.968-2.512-1.041a2.506 2.506 0 012.857-.486l8.281 3.983a2.516 2.516 0 011.426 2.265v27.009c0 .966-.557 1.847-1.426 2.265l-8.281 3.983z"/><g opacity=".25"><linearGradient id="prefix__c" gradientUnits="userSpaceOnUse" x1="-717.331" y1="234.901" x2="-717.331" y2="228.365" gradientTransform="matrix(6.12 0 0 -6.12 4409.87 1437.597)"><stop offset="0" stop-color="#fff"/><stop offset="1" stop-color="#fff" stop-opacity="0"/></linearGradient><path fill="url(#prefix__c)" d="M28.209 39.829a2.502 2.502 0 001.994-.076l8.279-3.983a2.513 2.513 0 001.422-2.265V6.496c0-.966-.553-1.846-1.422-2.265L30.203.248a2.506 2.506 0 00-2.856.486L11.501 15.192 4.6 9.952a1.677 1.677 0 00-2.14.096L.246 12.062a1.679 1.679 0 00-.002 2.478L6.23 20 .244 25.461a1.678 1.678 0 00.002 2.479l2.214 2.015a1.677 1.677 0 002.14.096l6.901-5.239L27.349 39.27c.249.248.544.436.86.559z"/></g></g></svg>