<?xml version="1.0" encoding="utf-8"?>
<!-- Generator: Adobe Illustrator 16.0.0, SVG Export Plug-In . SVG Version: 6.00 Build 0)  -->
<!DOCTYPE svg PUBLIC "-//W3C//DTD SVG 1.1//EN" "http://www.w3.org/Graphics/SVG/1.1/DTD/svg11.dtd">
<svg version="1.1" id="Layer_1" xmlns="http://www.w3.org/2000/svg" xmlns:xlink="http://www.w3.org/1999/xlink" x="0px" y="0px"
	 width="36.07px" height="40px" viewBox="15.965 14 36.07 40" enable-background="new 15.965 14 36.07 40" xml:space="preserve">
<path d="M50.923,44.829L34.712,54v-7.142l10.1-5.559L50.923,44.829L50.923,44.829z M52.035,43.823V24.647l-5.93,3.43v12.33
	L52.035,43.823L52.035,43.823z M17.077,44.829L33.288,54v-7.142L23.182,41.3L17.077,44.829z M15.965,43.823V24.647l5.929,3.43v12.33
	L15.965,43.823z M16.659,23.406L33.288,14v6.9l-10.653,5.865l-0.088,0.047L16.659,23.406z M51.336,23.406L34.712,14v6.9
	l10.653,5.859l0.082,0.047L51.336,23.406z"/>
<path d="M33.288,45.547l-9.971-5.481V29.206l9.971,5.753V45.547z M34.712,45.547l9.965-5.477V29.206l-9.965,5.753V45.547z
	 M23.994,27.953L34,22.453l10.006,5.5L34,33.729L23.994,27.953z"/>
</svg>
