<svg xmlns="http://www.w3.org/2000/svg" width="36.07" height="40"><path fill="#8ED6FB" d="M34.959 30.829L18.748 40v-7.141l10.1-5.559 6.111 3.529zm1.109-1.004V10.648l-5.93 3.428v12.327l5.93 3.422zM1.112 30.829L17.323 40v-7.141L7.217 27.301l-6.105 3.528zM.001 29.825V10.648l5.93 3.428v12.327l-5.93 3.422zm.696-20.42L17.323 0v6.902L6.669 12.764l-.085.048L.697 9.405zm34.676 0L18.748 0v6.902L29.4 12.758l.086.048 5.887-3.401z"/><path fill="#1C78C0" d="M17.323 31.233L7.355 25.75V14.895l9.968 5.754v10.584zm1.425 0l9.967-5.479v-10.86l-9.967 5.754v10.585zM8.03 13.64l10.005-5.499 10.006 5.499-10.006 5.776L8.03 13.64z"/></svg>