<?xml version="1.0" encoding="utf-8"?>
<!-- Generator: Adobe Illustrator 16.0.0, SVG Export Plug-In . SVG Version: 6.00 Build 0)  -->
<!DOCTYPE svg PUBLIC "-//W3C//DTD SVG 1.1//EN" "http://www.w3.org/Graphics/SVG/1.1/DTD/svg11.dtd">
<svg version="1.1" id="Layer_1" xmlns="http://www.w3.org/2000/svg" xmlns:xlink="http://www.w3.org/1999/xlink" x="0px" y="0px"
	 width="40px" height="40px" viewBox="286 376 40 40" enable-background="new 286 376 40 40" xml:space="preserve">
<rect x="-4878" y="-108" display="none" fill="#2B2B60" width="6858" height="2385"/>
<g>
	<path d="M290.353,389c-1,2.235-1.529,4.588-1.529,7c0,6.765,3.941,12.647,9.647,15.412L290.353,389z M314.471,386.353
		c0-1.588,1.177-3.059,2.882-3.059c0.06,0,0.118,0,0.235,0c-3.059-2.765-7.117-4.47-11.588-4.47c-6,0-11.294,3.118-14.353,7.765
		c0.412,0,0.765,0,1.118,0c1.824,0,4.588-0.235,4.588-0.235c0.941-0.059,1.059,1.294,0.118,1.412c0,0-0.941,0.118-1.941,0.177
		l6.235,18.588l3.765-11.235l-2.647-7.353c-1-0.059-1.882-0.177-1.882-0.177c-0.941-0.059-0.824-1.471,0.118-1.412
		c0,0,2.824,0.235,4.529,0.235c1.765,0,4.588-0.235,4.588-0.235c0.941-0.059,1.059,1.294,0.117,1.412c0,0-0.94,0.118-1.94,0.177
		l6.176,18.471l1.706-5.706c0.765-2.354,1.294-4.059,1.294-5.53c0-2.118-0.765-3.588-1.411-4.706
		C315.294,389,314.471,387.765,314.471,386.353z M311.588,411.941l-5.294-14.471l-5.118,15c1.588,0.471,3.177,0.706,4.824,0.706
		c2,0,3.941-0.354,5.706-1C311.647,412.117,311.588,412,311.588,411.941z M321.059,387.765c0.059,0.529,0.118,1.118,0.118,1.765
		c0,1.706-0.354,3.706-1.294,6.118l-5.235,15.176c5.117-3,8.529-8.471,8.529-14.823C323.177,393,322.412,390.235,321.059,387.765z
		 M290.353,389c-1,2.235-1.529,4.588-1.529,7c0,6.765,3.941,12.647,9.647,15.412L290.353,389z M311.588,411.941l-5.294-14.471
		l-5.118,15c1.588,0.471,3.177,0.706,4.824,0.706c2,0,3.941-0.354,5.706-1C311.647,412.117,311.588,412,311.588,411.941z
		 M314.471,386.353c0-1.588,1.177-3.059,2.882-3.059c0.06,0,0.118,0,0.235,0c-3.059-2.765-7.117-4.47-11.588-4.47
		c-6,0-11.294,3.118-14.353,7.765c0.412,0,0.765,0,1.118,0c1.824,0,4.588-0.235,4.588-0.235c0.941-0.059,1.059,1.294,0.118,1.412
		c0,0-0.941,0.118-1.941,0.177l6.235,18.588l3.765-11.235l-2.647-7.353c-1-0.059-1.882-0.177-1.882-0.177
		c-0.941-0.059-0.824-1.471,0.118-1.412c0,0,2.824,0.235,4.529,0.235c1.765,0,4.588-0.235,4.588-0.235
		c0.941-0.059,1.059,1.294,0.117,1.412c0,0-0.94,0.118-1.94,0.177l6.176,18.471l1.706-5.706c0.765-2.354,1.294-4.059,1.294-5.53
		c0-2.118-0.765-3.588-1.411-4.706C315.294,389,314.471,387.765,314.471,386.353z M321.059,387.765
		c0.059,0.529,0.118,1.118,0.118,1.765c0,1.706-0.354,3.706-1.294,6.118l-5.235,15.176c5.117-3,8.529-8.471,8.529-14.823
		C323.177,393,322.412,390.235,321.059,387.765z M314.471,386.353c0-1.588,1.177-3.059,2.882-3.059c0.06,0,0.118,0,0.235,0
		c-3.059-2.765-7.117-4.47-11.588-4.47c-6,0-11.294,3.118-14.353,7.765c0.412,0,0.765,0,1.118,0c1.824,0,4.588-0.235,4.588-0.235
		c0.941-0.059,1.059,1.294,0.118,1.412c0,0-0.941,0.118-1.941,0.177l6.235,18.588l3.765-11.235l-2.647-7.353
		c-1-0.059-1.882-0.177-1.882-0.177c-0.941-0.059-0.824-1.471,0.118-1.412c0,0,2.824,0.235,4.529,0.235
		c1.765,0,4.588-0.235,4.588-0.235c0.941-0.059,1.059,1.294,0.117,1.412c0,0-0.94,0.118-1.94,0.177l6.176,18.471l1.706-5.706
		c0.765-2.354,1.294-4.059,1.294-5.53c0-2.118-0.765-3.588-1.411-4.706C315.294,389,314.471,387.765,314.471,386.353z
		 M311.588,411.941l-5.294-14.471l-5.118,15c1.588,0.471,3.177,0.706,4.824,0.706c2,0,3.941-0.354,5.706-1
		C311.647,412.117,311.588,412,311.588,411.941z M290.353,389c-1,2.235-1.529,4.588-1.529,7c0,6.765,3.941,12.647,9.647,15.412
		L290.353,389z M321.059,387.765c0.059,0.529,0.118,1.118,0.118,1.765c0,1.706-0.354,3.706-1.294,6.118l-5.235,15.176
		c5.117-3,8.529-8.471,8.529-14.823C323.177,393,322.412,390.235,321.059,387.765z M290.353,389c-1,2.235-1.529,4.588-1.529,7
		c0,6.765,3.941,12.647,9.647,15.412L290.353,389z M311.588,411.941l-5.294-14.471l-5.118,15c1.588,0.471,3.177,0.706,4.824,0.706
		c2,0,3.941-0.354,5.706-1C311.647,412.117,311.588,412,311.588,411.941z M314.471,386.353c0-1.588,1.177-3.059,2.882-3.059
		c0.06,0,0.118,0,0.235,0c-3.059-2.765-7.117-4.47-11.588-4.47c-6,0-11.294,3.118-14.353,7.765c0.412,0,0.765,0,1.118,0
		c1.824,0,4.588-0.235,4.588-0.235c0.941-0.059,1.059,1.294,0.118,1.412c0,0-0.941,0.118-1.941,0.177l6.235,18.588l3.765-11.235
		l-2.647-7.353c-1-0.059-1.882-0.177-1.882-0.177c-0.941-0.059-0.824-1.471,0.118-1.412c0,0,2.824,0.235,4.529,0.235
		c1.765,0,4.588-0.235,4.588-0.235c0.941-0.059,1.059,1.294,0.117,1.412c0,0-0.94,0.118-1.94,0.177l6.176,18.471l1.706-5.706
		c0.765-2.354,1.294-4.059,1.294-5.53c0-2.118-0.765-3.588-1.411-4.706C315.294,389,314.471,387.765,314.471,386.353z
		 M321.059,387.765c0.059,0.529,0.118,1.118,0.118,1.765c0,1.706-0.354,3.706-1.294,6.118l-5.235,15.176
		c5.117-3,8.529-8.471,8.529-14.823C323.177,393,322.412,390.235,321.059,387.765z M314.471,386.353
		c0-1.588,1.177-3.059,2.882-3.059c0.06,0,0.118,0,0.235,0c-3.059-2.765-7.117-4.47-11.588-4.47c-6,0-11.294,3.118-14.353,7.765
		c0.412,0,0.765,0,1.118,0c1.824,0,4.588-0.235,4.588-0.235c0.941-0.059,1.059,1.294,0.118,1.412c0,0-0.941,0.118-1.941,0.177
		l6.235,18.588l3.765-11.235l-2.647-7.353c-1-0.059-1.882-0.177-1.882-0.177c-0.941-0.059-0.824-1.471,0.118-1.412
		c0,0,2.824,0.235,4.529,0.235c1.765,0,4.588-0.235,4.588-0.235c0.941-0.059,1.059,1.294,0.117,1.412c0,0-0.94,0.118-1.94,0.177
		l6.176,18.471l1.706-5.706c0.765-2.354,1.294-4.059,1.294-5.53c0-2.118-0.765-3.588-1.411-4.706
		C315.294,389,314.471,387.765,314.471,386.353z M311.588,411.941l-5.294-14.471l-5.118,15c1.588,0.471,3.177,0.706,4.824,0.706
		c2,0,3.941-0.354,5.706-1C311.647,412.117,311.588,412,311.588,411.941z M290.353,389c-1,2.235-1.529,4.588-1.529,7
		c0,6.765,3.941,12.647,9.647,15.412L290.353,389z M321.059,387.765c0.059,0.529,0.118,1.118,0.118,1.765
		c0,1.706-0.354,3.706-1.294,6.118l-5.235,15.176c5.117-3,8.529-8.471,8.529-14.823C323.177,393,322.412,390.235,321.059,387.765z
		 M290.353,389c-1,2.235-1.529,4.588-1.529,7c0,6.765,3.941,12.647,9.647,15.412L290.353,389z M311.588,411.941l-5.294-14.471
		l-5.118,15c1.588,0.471,3.177,0.706,4.824,0.706c2,0,3.941-0.354,5.706-1C311.647,412.117,311.588,412,311.588,411.941z
		 M314.471,386.353c0-1.588,1.177-3.059,2.882-3.059c0.06,0,0.118,0,0.235,0c-3.059-2.765-7.117-4.47-11.588-4.47
		c-6,0-11.294,3.118-14.353,7.765c0.412,0,0.765,0,1.118,0c1.824,0,4.588-0.235,4.588-0.235c0.941-0.059,1.059,1.294,0.118,1.412
		c0,0-0.941,0.118-1.941,0.177l6.235,18.588l3.765-11.235l-2.647-7.353c-1-0.059-1.882-0.177-1.882-0.177
		c-0.941-0.059-0.824-1.471,0.118-1.412c0,0,2.824,0.235,4.529,0.235c1.765,0,4.588-0.235,4.588-0.235
		c0.941-0.059,1.059,1.294,0.117,1.412c0,0-0.94,0.118-1.94,0.177l6.176,18.471l1.706-5.706c0.765-2.354,1.294-4.059,1.294-5.53
		c0-2.118-0.765-3.588-1.411-4.706C315.294,389,314.471,387.765,314.471,386.353z M321.059,387.765
		c0.059,0.529,0.118,1.118,0.118,1.765c0,1.706-0.354,3.706-1.294,6.118l-5.235,15.176c5.117-3,8.529-8.471,8.529-14.823
		C323.177,393,322.412,390.235,321.059,387.765z M314.471,386.353c0-1.588,1.177-3.059,2.882-3.059c0.06,0,0.118,0,0.235,0
		c-3.059-2.765-7.117-4.47-11.588-4.47c-6,0-11.294,3.118-14.353,7.765c0.412,0,0.765,0,1.118,0c1.824,0,4.588-0.235,4.588-0.235
		c0.941-0.059,1.059,1.294,0.118,1.412c0,0-0.941,0.118-1.941,0.177l6.235,18.588l3.765-11.235l-2.647-7.353
		c-1-0.059-1.882-0.177-1.882-0.177c-0.941-0.059-0.824-1.471,0.118-1.412c0,0,2.824,0.235,4.529,0.235
		c1.765,0,4.588-0.235,4.588-0.235c0.941-0.059,1.059,1.294,0.117,1.412c0,0-0.94,0.118-1.94,0.177l6.176,18.471l1.706-5.706
		c0.765-2.354,1.294-4.059,1.294-5.53c0-2.118-0.765-3.588-1.411-4.706C315.294,389,314.471,387.765,314.471,386.353z
		 M311.588,411.941l-5.294-14.471l-5.118,15c1.588,0.471,3.177,0.706,4.824,0.706c2,0,3.941-0.354,5.706-1
		C311.647,412.117,311.588,412,311.588,411.941z M290.353,389c-1,2.235-1.529,4.588-1.529,7c0,6.765,3.941,12.647,9.647,15.412
		L290.353,389z M321.059,387.765c0.059,0.529,0.118,1.118,0.118,1.765c0,1.706-0.354,3.706-1.294,6.118l-5.235,15.176
		c5.117-3,8.529-8.471,8.529-14.823C323.177,393,322.412,390.235,321.059,387.765z M290.353,389c-1,2.235-1.529,4.588-1.529,7
		c0,6.765,3.941,12.647,9.647,15.412L290.353,389z M311.588,411.941l-5.294-14.471l-5.118,15c1.588,0.471,3.177,0.706,4.824,0.706
		c2,0,3.941-0.354,5.706-1C311.647,412.117,311.588,412,311.588,411.941z M314.471,386.353c0-1.588,1.177-3.059,2.882-3.059
		c0.06,0,0.118,0,0.235,0c-3.059-2.765-7.117-4.47-11.588-4.47c-6,0-11.294,3.118-14.353,7.765c0.412,0,0.765,0,1.118,0
		c1.824,0,4.588-0.235,4.588-0.235c0.941-0.059,1.059,1.294,0.118,1.412c0,0-0.941,0.118-1.941,0.177l6.235,18.588l3.765-11.235
		l-2.647-7.353c-1-0.059-1.882-0.177-1.882-0.177c-0.941-0.059-0.824-1.471,0.118-1.412c0,0,2.824,0.235,4.529,0.235
		c1.765,0,4.588-0.235,4.588-0.235c0.941-0.059,1.059,1.294,0.117,1.412c0,0-0.94,0.118-1.94,0.177l6.176,18.471l1.706-5.706
		c0.765-2.354,1.294-4.059,1.294-5.53c0-2.118-0.765-3.588-1.411-4.706C315.294,389,314.471,387.765,314.471,386.353z
		 M321.059,387.765c0.059,0.529,0.118,1.118,0.118,1.765c0,1.706-0.354,3.706-1.294,6.118l-5.235,15.176
		c5.117-3,8.529-8.471,8.529-14.823C323.177,393,322.412,390.235,321.059,387.765z M314.471,386.353
		c0-1.588,1.177-3.059,2.882-3.059c0.06,0,0.118,0,0.235,0c-3.059-2.765-7.117-4.47-11.588-4.47c-6,0-11.294,3.118-14.353,7.765
		c0.412,0,0.765,0,1.118,0c1.824,0,4.588-0.235,4.588-0.235c0.941-0.059,1.059,1.294,0.118,1.412c0,0-0.941,0.118-1.941,0.177
		l6.235,18.588l3.765-11.235l-2.647-7.353c-1-0.059-1.882-0.177-1.882-0.177c-0.941-0.059-0.824-1.471,0.118-1.412
		c0,0,2.824,0.235,4.529,0.235c1.765,0,4.588-0.235,4.588-0.235c0.941-0.059,1.059,1.294,0.117,1.412c0,0-0.94,0.118-1.94,0.177
		l6.176,18.471l1.706-5.706c0.765-2.354,1.294-4.059,1.294-5.53c0-2.118-0.765-3.588-1.411-4.706
		C315.294,389,314.471,387.765,314.471,386.353z M311.588,411.941l-5.294-14.471l-5.118,15c1.588,0.471,3.177,0.706,4.824,0.706
		c2,0,3.941-0.354,5.706-1C311.647,412.117,311.588,412,311.588,411.941z M290.353,389c-1,2.235-1.529,4.588-1.529,7
		c0,6.765,3.941,12.647,9.647,15.412L290.353,389z M321.059,387.765c0.059,0.529,0.118,1.118,0.118,1.765
		c0,1.706-0.354,3.706-1.294,6.118l-5.235,15.176c5.117-3,8.529-8.471,8.529-14.823C323.177,393,322.412,390.235,321.059,387.765z
		 M290.353,389c-1,2.235-1.529,4.588-1.529,7c0,6.765,3.941,12.647,9.647,15.412L290.353,389z M311.588,411.941l-5.294-14.471
		l-5.118,15c1.588,0.471,3.177,0.706,4.824,0.706c2,0,3.941-0.354,5.706-1C311.647,412.117,311.588,412,311.588,411.941z
		 M314.471,386.353c0-1.588,1.177-3.059,2.882-3.059c0.06,0,0.118,0,0.235,0c-3.059-2.765-7.117-4.47-11.588-4.47
		c-6,0-11.294,3.118-14.353,7.765c0.412,0,0.765,0,1.118,0c1.824,0,4.588-0.235,4.588-0.235c0.941-0.059,1.059,1.294,0.118,1.412
		c0,0-0.941,0.118-1.941,0.177l6.235,18.588l3.765-11.235l-2.647-7.353c-1-0.059-1.882-0.177-1.882-0.177
		c-0.941-0.059-0.824-1.471,0.118-1.412c0,0,2.824,0.235,4.529,0.235c1.765,0,4.588-0.235,4.588-0.235
		c0.941-0.059,1.059,1.294,0.117,1.412c0,0-0.94,0.118-1.94,0.177l6.176,18.471l1.706-5.706c0.765-2.354,1.294-4.059,1.294-5.53
		c0-2.118-0.765-3.588-1.411-4.706C315.294,389,314.471,387.765,314.471,386.353z M321.059,387.765
		c0.059,0.529,0.118,1.118,0.118,1.765c0,1.706-0.354,3.706-1.294,6.118l-5.235,15.176c5.117-3,8.529-8.471,8.529-14.823
		C323.177,393,322.412,390.235,321.059,387.765z M314.471,386.353c0-1.588,1.177-3.059,2.882-3.059c0.06,0,0.118,0,0.235,0
		c-3.059-2.765-7.117-4.47-11.588-4.47c-6,0-11.294,3.118-14.353,7.765c0.412,0,0.765,0,1.118,0c1.824,0,4.588-0.235,4.588-0.235
		c0.941-0.059,1.059,1.294,0.118,1.412c0,0-0.941,0.118-1.941,0.177l6.235,18.588l3.765-11.235l-2.647-7.353
		c-1-0.059-1.882-0.177-1.882-0.177c-0.941-0.059-0.824-1.471,0.118-1.412c0,0,2.824,0.235,4.529,0.235
		c1.765,0,4.588-0.235,4.588-0.235c0.941-0.059,1.059,1.294,0.117,1.412c0,0-0.94,0.118-1.94,0.177l6.176,18.471l1.706-5.706
		c0.765-2.354,1.294-4.059,1.294-5.53c0-2.118-0.765-3.588-1.411-4.706C315.294,389,314.471,387.765,314.471,386.353z
		 M311.588,411.941l-5.294-14.471l-5.118,15c1.588,0.471,3.177,0.706,4.824,0.706c2,0,3.941-0.354,5.706-1
		C311.647,412.117,311.588,412,311.588,411.941z M290.353,389c-1,2.235-1.529,4.588-1.529,7c0,6.765,3.941,12.647,9.647,15.412
		L290.353,389z M321.059,387.765c0.059,0.529,0.118,1.118,0.118,1.765c0,1.706-0.354,3.706-1.294,6.118l-5.235,15.176
		c5.117-3,8.529-8.471,8.529-14.823C323.177,393,322.412,390.235,321.059,387.765z M290.353,389c-1,2.235-1.529,4.588-1.529,7
		c0,6.765,3.941,12.647,9.647,15.412L290.353,389z M311.588,411.941l-5.294-14.471l-5.118,15c1.588,0.471,3.177,0.706,4.824,0.706
		c2,0,3.941-0.354,5.706-1C311.647,412.117,311.588,412,311.588,411.941z M314.471,386.353c0-1.588,1.177-3.059,2.882-3.059
		c0.06,0,0.118,0,0.235,0c-3.059-2.765-7.117-4.47-11.588-4.47c-6,0-11.294,3.118-14.353,7.765c0.412,0,0.765,0,1.118,0
		c1.824,0,4.588-0.235,4.588-0.235c0.941-0.059,1.059,1.294,0.118,1.412c0,0-0.941,0.118-1.941,0.177l6.235,18.588l3.765-11.235
		l-2.647-7.353c-1-0.059-1.882-0.177-1.882-0.177c-0.941-0.059-0.824-1.471,0.118-1.412c0,0,2.824,0.235,4.529,0.235
		c1.765,0,4.588-0.235,4.588-0.235c0.941-0.059,1.059,1.294,0.117,1.412c0,0-0.94,0.118-1.94,0.177l6.176,18.471l1.706-5.706
		c0.765-2.354,1.294-4.059,1.294-5.53c0-2.118-0.765-3.588-1.411-4.706C315.294,389,314.471,387.765,314.471,386.353z
		 M321.059,387.765c0.059,0.529,0.118,1.118,0.118,1.765c0,1.706-0.354,3.706-1.294,6.118l-5.235,15.176
		c5.117-3,8.529-8.471,8.529-14.823C323.177,393,322.412,390.235,321.059,387.765z M314.471,386.353
		c0-1.588,1.177-3.059,2.882-3.059c0.06,0,0.118,0,0.235,0c-3.059-2.765-7.117-4.47-11.588-4.47c-6,0-11.294,3.118-14.353,7.765
		c0.412,0,0.765,0,1.118,0c1.824,0,4.588-0.235,4.588-0.235c0.941-0.059,1.059,1.294,0.118,1.412c0,0-0.941,0.118-1.941,0.177
		l6.235,18.588l3.765-11.235l-2.647-7.353c-1-0.059-1.882-0.177-1.882-0.177c-0.941-0.059-0.824-1.471,0.118-1.412
		c0,0,2.824,0.235,4.529,0.235c1.765,0,4.588-0.235,4.588-0.235c0.941-0.059,1.059,1.294,0.117,1.412c0,0-0.94,0.118-1.94,0.177
		l6.176,18.471l1.706-5.706c0.765-2.354,1.294-4.059,1.294-5.53c0-2.118-0.765-3.588-1.411-4.706
		C315.294,389,314.471,387.765,314.471,386.353z M311.588,411.941l-5.294-14.471l-5.118,15c1.588,0.471,3.177,0.706,4.824,0.706
		c2,0,3.941-0.354,5.706-1C311.647,412.117,311.588,412,311.588,411.941z M290.353,389c-1,2.235-1.529,4.588-1.529,7
		c0,6.765,3.941,12.647,9.647,15.412L290.353,389z M321.059,387.765c0.059,0.529,0.118,1.118,0.118,1.765
		c0,1.706-0.354,3.706-1.294,6.118l-5.235,15.176c5.117-3,8.529-8.471,8.529-14.823C323.177,393,322.412,390.235,321.059,387.765z
		 M290.353,389c-1,2.235-1.529,4.588-1.529,7c0,6.765,3.941,12.647,9.647,15.412L290.353,389z M311.588,411.941l-5.294-14.471
		l-5.118,15c1.588,0.471,3.177,0.706,4.824,0.706c2,0,3.941-0.354,5.706-1C311.647,412.117,311.588,412,311.588,411.941z
		 M314.471,386.353c0-1.588,1.177-3.059,2.882-3.059c0.06,0,0.118,0,0.235,0c-3.059-2.765-7.117-4.47-11.588-4.47
		c-6,0-11.294,3.118-14.353,7.765c0.412,0,0.765,0,1.118,0c1.824,0,4.588-0.235,4.588-0.235c0.941-0.059,1.059,1.294,0.118,1.412
		c0,0-0.941,0.118-1.941,0.177l6.235,18.588l3.765-11.235l-2.647-7.353c-1-0.059-1.882-0.177-1.882-0.177
		c-0.941-0.059-0.824-1.471,0.118-1.412c0,0,2.824,0.235,4.529,0.235c1.765,0,4.588-0.235,4.588-0.235
		c0.941-0.059,1.059,1.294,0.117,1.412c0,0-0.94,0.118-1.94,0.177l6.176,18.471l1.706-5.706c0.765-2.354,1.294-4.059,1.294-5.53
		c0-2.118-0.765-3.588-1.411-4.706C315.294,389,314.471,387.765,314.471,386.353z M321.059,387.765
		c0.059,0.529,0.118,1.118,0.118,1.765c0,1.706-0.354,3.706-1.294,6.118l-5.235,15.176c5.117-3,8.529-8.471,8.529-14.823
		C323.177,393,322.412,390.235,321.059,387.765z M314.471,386.353c0-1.588,1.177-3.059,2.882-3.059c0.06,0,0.118,0,0.235,0
		c-3.059-2.765-7.117-4.47-11.588-4.47c-6,0-11.294,3.118-14.353,7.765c0.412,0,0.765,0,1.118,0c1.824,0,4.588-0.235,4.588-0.235
		c0.941-0.059,1.059,1.294,0.118,1.412c0,0-0.941,0.118-1.941,0.177l6.235,18.588l3.765-11.235l-2.647-7.353
		c-1-0.059-1.882-0.177-1.882-0.177c-0.941-0.059-0.824-1.471,0.118-1.412c0,0,2.824,0.235,4.529,0.235
		c1.765,0,4.588-0.235,4.588-0.235c0.941-0.059,1.059,1.294,0.117,1.412c0,0-0.94,0.118-1.94,0.177l6.176,18.471l1.706-5.706
		c0.765-2.354,1.294-4.059,1.294-5.53c0-2.118-0.765-3.588-1.411-4.706C315.294,389,314.471,387.765,314.471,386.353z
		 M311.588,411.941l-5.294-14.471l-5.118,15c1.588,0.471,3.177,0.706,4.824,0.706c2,0,3.941-0.354,5.706-1
		C311.647,412.117,311.588,412,311.588,411.941z M290.353,389c-1,2.235-1.529,4.588-1.529,7c0,6.765,3.941,12.647,9.647,15.412
		L290.353,389z M321.059,387.765c0.059,0.529,0.118,1.118,0.118,1.765c0,1.706-0.354,3.706-1.294,6.118l-5.235,15.176
		c5.117-3,8.529-8.471,8.529-14.823C323.177,393,322.412,390.235,321.059,387.765z M290.353,389c-1,2.235-1.529,4.588-1.529,7
		c0,6.765,3.941,12.647,9.647,15.412L290.353,389z M311.588,411.941l-5.294-14.471l-5.118,15c1.588,0.471,3.177,0.706,4.824,0.706
		c2,0,3.941-0.354,5.706-1C311.647,412.117,311.588,412,311.588,411.941z M314.471,386.353c0-1.588,1.177-3.059,2.882-3.059
		c0.06,0,0.118,0,0.235,0c-3.059-2.765-7.117-4.47-11.588-4.47c-6,0-11.294,3.118-14.353,7.765c0.412,0,0.765,0,1.118,0
		c1.824,0,4.588-0.235,4.588-0.235c0.941-0.059,1.059,1.294,0.118,1.412c0,0-0.941,0.118-1.941,0.177l6.235,18.588l3.765-11.235
		l-2.647-7.353c-1-0.059-1.882-0.177-1.882-0.177c-0.941-0.059-0.824-1.471,0.118-1.412c0,0,2.824,0.235,4.529,0.235
		c1.765,0,4.588-0.235,4.588-0.235c0.941-0.059,1.059,1.294,0.117,1.412c0,0-0.94,0.118-1.94,0.177l6.176,18.471l1.706-5.706
		c0.765-2.354,1.294-4.059,1.294-5.53c0-2.118-0.765-3.588-1.411-4.706C315.294,389,314.471,387.765,314.471,386.353z
		 M321.059,387.765c0.059,0.529,0.118,1.118,0.118,1.765c0,1.706-0.354,3.706-1.294,6.118l-5.235,15.176
		c5.117-3,8.529-8.471,8.529-14.823C323.177,393,322.412,390.235,321.059,387.765z M314.471,386.353
		c0-1.588,1.177-3.059,2.882-3.059c0.06,0,0.118,0,0.235,0c-3.059-2.765-7.117-4.47-11.588-4.47c-6,0-11.294,3.118-14.353,7.765
		c0.412,0,0.765,0,1.118,0c1.824,0,4.588-0.235,4.588-0.235c0.941-0.059,1.059,1.294,0.118,1.412c0,0-0.941,0.118-1.941,0.177
		l6.235,18.588l3.765-11.235l-2.647-7.353c-1-0.059-1.882-0.177-1.882-0.177c-0.941-0.059-0.824-1.471,0.118-1.412
		c0,0,2.824,0.235,4.529,0.235c1.765,0,4.588-0.235,4.588-0.235c0.941-0.059,1.059,1.294,0.117,1.412c0,0-0.94,0.118-1.94,0.177
		l6.176,18.471l1.706-5.706c0.765-2.354,1.294-4.059,1.294-5.53c0-2.118-0.765-3.588-1.411-4.706
		C315.294,389,314.471,387.765,314.471,386.353z M311.588,411.941l-5.294-14.471l-5.118,15c1.588,0.471,3.177,0.706,4.824,0.706
		c2,0,3.941-0.354,5.706-1C311.647,412.117,311.588,412,311.588,411.941z M290.353,389c-1,2.235-1.529,4.588-1.529,7
		c0,6.765,3.941,12.647,9.647,15.412L290.353,389z M321.059,387.765c0.059,0.529,0.118,1.118,0.118,1.765
		c0,1.706-0.354,3.706-1.294,6.118l-5.235,15.176c5.117-3,8.529-8.471,8.529-14.823C323.177,393,322.412,390.235,321.059,387.765z
		 M290.353,389c-1,2.235-1.529,4.588-1.529,7c0,6.765,3.941,12.647,9.647,15.412L290.353,389z M311.588,411.941l-5.294-14.471
		l-5.118,15c1.588,0.471,3.177,0.706,4.824,0.706c2,0,3.941-0.354,5.706-1C311.647,412.117,311.588,412,311.588,411.941z
		 M314.471,386.353c0-1.588,1.177-3.059,2.882-3.059c0.06,0,0.118,0,0.235,0c-3.059-2.765-7.117-4.47-11.588-4.47
		c-6,0-11.294,3.118-14.353,7.765c0.412,0,0.765,0,1.118,0c1.824,0,4.588-0.235,4.588-0.235c0.941-0.059,1.059,1.294,0.118,1.412
		c0,0-0.941,0.118-1.941,0.177l6.235,18.588l3.765-11.235l-2.647-7.353c-1-0.059-1.882-0.177-1.882-0.177
		c-0.941-0.059-0.824-1.471,0.118-1.412c0,0,2.824,0.235,4.529,0.235c1.765,0,4.588-0.235,4.588-0.235
		c0.941-0.059,1.059,1.294,0.117,1.412c0,0-0.94,0.118-1.94,0.177l6.176,18.471l1.706-5.706c0.765-2.354,1.294-4.059,1.294-5.53
		c0-2.118-0.765-3.588-1.411-4.706C315.294,389,314.471,387.765,314.471,386.353z M321.059,387.765
		c0.059,0.529,0.118,1.118,0.118,1.765c0,1.706-0.354,3.706-1.294,6.118l-5.235,15.176c5.117-3,8.529-8.471,8.529-14.823
		C323.177,393,322.412,390.235,321.059,387.765z M314.471,386.353c0-1.588,1.177-3.059,2.882-3.059c0.06,0,0.118,0,0.235,0
		c-3.059-2.765-7.117-4.47-11.588-4.47c-6,0-11.294,3.118-14.353,7.765c0.412,0,0.765,0,1.118,0c1.824,0,4.588-0.235,4.588-0.235
		c0.941-0.059,1.059,1.294,0.118,1.412c0,0-0.941,0.118-1.941,0.177l6.235,18.588l3.765-11.235l-2.647-7.353
		c-1-0.059-1.882-0.177-1.882-0.177c-0.941-0.059-0.824-1.471,0.118-1.412c0,0,2.824,0.235,4.529,0.235
		c1.765,0,4.588-0.235,4.588-0.235c0.941-0.059,1.059,1.294,0.117,1.412c0,0-0.94,0.118-1.94,0.177l6.176,18.471l1.706-5.706
		c0.765-2.354,1.294-4.059,1.294-5.53c0-2.118-0.765-3.588-1.411-4.706C315.294,389,314.471,387.765,314.471,386.353z
		 M311.588,411.941l-5.294-14.471l-5.118,15c1.588,0.471,3.177,0.706,4.824,0.706c2,0,3.941-0.354,5.706-1
		C311.647,412.117,311.588,412,311.588,411.941z M290.353,389c-1,2.235-1.529,4.588-1.529,7c0,6.765,3.941,12.647,9.647,15.412
		L290.353,389z M321.059,387.765c0.059,0.529,0.118,1.118,0.118,1.765c0,1.706-0.354,3.706-1.294,6.118l-5.235,15.176
		c5.117-3,8.529-8.471,8.529-14.823C323.177,393,322.412,390.235,321.059,387.765z M290.353,389c-1,2.235-1.529,4.588-1.529,7
		c0,6.765,3.941,12.647,9.647,15.412L290.353,389z M311.588,411.941l-5.294-14.471l-5.118,15c1.588,0.471,3.177,0.706,4.824,0.706
		c2,0,3.941-0.354,5.706-1C311.647,412.117,311.588,412,311.588,411.941z M314.471,386.353c0-1.588,1.177-3.059,2.882-3.059
		c0.06,0,0.118,0,0.235,0c-3.059-2.765-7.117-4.47-11.588-4.47c-6,0-11.294,3.118-14.353,7.765c0.412,0,0.765,0,1.118,0
		c1.824,0,4.588-0.235,4.588-0.235c0.941-0.059,1.059,1.294,0.118,1.412c0,0-0.941,0.118-1.941,0.177l6.235,18.588l3.765-11.235
		l-2.647-7.353c-1-0.059-1.882-0.177-1.882-0.177c-0.941-0.059-0.824-1.471,0.118-1.412c0,0,2.824,0.235,4.529,0.235
		c1.765,0,4.588-0.235,4.588-0.235c0.941-0.059,1.059,1.294,0.117,1.412c0,0-0.94,0.118-1.94,0.177l6.176,18.471l1.706-5.706
		c0.765-2.354,1.294-4.059,1.294-5.53c0-2.118-0.765-3.588-1.411-4.706C315.294,389,314.471,387.765,314.471,386.353z
		 M321.059,387.765c0.059,0.529,0.118,1.118,0.118,1.765c0,1.706-0.354,3.706-1.294,6.118l-5.235,15.176
		c5.117-3,8.529-8.471,8.529-14.823C323.177,393,322.412,390.235,321.059,387.765z M317.588,395.118
		c0-2.118-0.765-3.588-1.411-4.706c-0.883-1.412-1.706-2.588-1.706-4c0-1.588,1.177-3.059,2.882-3.059c0.06,0,0.118,0,0.235,0
		c-3.059-2.824-7.117-4.529-11.588-4.529c-6,0-11.294,3.118-14.353,7.765c0.412,0,0.765,0,1.118,0c1.824,0,4.588-0.235,4.588-0.235
		c0.941-0.059,1.059,1.294,0.118,1.412c0,0-0.941,0.118-1.941,0.177l6.235,18.588l3.765-11.235l-2.647-7.353
		c-1-0.059-1.882-0.177-1.882-0.177c-0.941-0.059-0.824-1.471,0.118-1.412c0,0,2.824,0.235,4.529,0.235
		c1.765,0,4.588-0.235,4.588-0.235c0.941-0.059,1.059,1.294,0.117,1.412c0,0-0.94,0.118-1.94,0.177l6.176,18.471l1.706-5.706
		C317,398.294,317.588,396.588,317.588,395.118z M306.294,397.471l-5.118,15c1.588,0.471,3.177,0.706,4.824,0.706
		c2,0,3.941-0.354,5.706-1c-0.059-0.06-0.059-0.177-0.118-0.235L306.294,397.471z M288.824,396c0,6.765,3.941,12.647,9.647,15.412
		L290.353,389C289.353,391.235,288.824,393.588,288.824,396z M321.059,387.765c0.059,0.529,0.118,1.118,0.118,1.765
		c0,1.706-0.354,3.706-1.294,6.118l-5.235,15.176c5.117-3,8.529-8.471,8.529-14.823C323.177,393,322.412,390.235,321.059,387.765z
		 M306,376c-11.059,0-20,8.941-20,20s8.941,20,20,20s20-8.941,20-20S317.059,376,306,376z M306,415.059
		c-10.529,0-19.059-8.529-19.059-19.059s8.529-19.059,19.059-19.059s19.059,8.529,19.059,19.059S316.529,415.059,306,415.059z
		 M317.588,395.118c0-2.118-0.765-3.588-1.411-4.706c-0.883-1.412-1.706-2.588-1.706-4c0-1.588,1.177-3.059,2.882-3.059
		c0.06,0,0.118,0,0.235,0c-3.059-2.824-7.117-4.529-11.588-4.529c-6,0-11.294,3.118-14.353,7.765c0.412,0,0.765,0,1.118,0
		c1.824,0,4.588-0.235,4.588-0.235c0.941-0.059,1.059,1.294,0.118,1.412c0,0-0.941,0.118-1.941,0.177l6.235,18.588l3.765-11.235
		l-2.647-7.353c-1-0.059-1.882-0.177-1.882-0.177c-0.941-0.059-0.824-1.471,0.118-1.412c0,0,2.824,0.235,4.529,0.235
		c1.765,0,4.588-0.235,4.588-0.235c0.941-0.059,1.059,1.294,0.117,1.412c0,0-0.94,0.118-1.94,0.177l6.176,18.471l1.706-5.706
		C317,398.294,317.588,396.588,317.588,395.118z M306.294,397.471l-5.118,15c1.588,0.471,3.177,0.706,4.824,0.706
		c2,0,3.941-0.354,5.706-1c-0.059-0.06-0.059-0.177-0.118-0.235L306.294,397.471z M288.824,396c0,6.765,3.941,12.647,9.647,15.412
		L290.353,389C289.353,391.235,288.824,393.588,288.824,396z M321.059,387.765c0.059,0.529,0.118,1.118,0.118,1.765
		c0,1.706-0.354,3.706-1.294,6.118l-5.235,15.176c5.117-3,8.529-8.471,8.529-14.823C323.177,393,322.412,390.235,321.059,387.765z
		 M290.353,389c-1,2.235-1.529,4.588-1.529,7c0,6.765,3.941,12.647,9.647,15.412L290.353,389z M311.588,411.941l-5.294-14.471
		l-5.118,15c1.588,0.471,3.177,0.706,4.824,0.706c2,0,3.941-0.354,5.706-1C311.647,412.117,311.588,412,311.588,411.941z
		 M314.471,386.353c0-1.588,1.177-3.059,2.882-3.059c0.06,0,0.118,0,0.235,0c-3.059-2.765-7.117-4.47-11.588-4.47
		c-6,0-11.294,3.118-14.353,7.765c0.412,0,0.765,0,1.118,0c1.824,0,4.588-0.235,4.588-0.235c0.941-0.059,1.059,1.294,0.118,1.412
		c0,0-0.941,0.118-1.941,0.177l6.235,18.588l3.765-11.235l-2.647-7.353c-1-0.059-1.882-0.177-1.882-0.177
		c-0.941-0.059-0.824-1.471,0.118-1.412c0,0,2.824,0.235,4.529,0.235c1.765,0,4.588-0.235,4.588-0.235
		c0.941-0.059,1.059,1.294,0.117,1.412c0,0-0.94,0.118-1.94,0.177l6.176,18.471l1.706-5.706c0.765-2.354,1.294-4.059,1.294-5.53
		c0-2.118-0.765-3.588-1.411-4.706C315.294,389,314.471,387.765,314.471,386.353z M321.059,387.765
		c0.059,0.529,0.118,1.118,0.118,1.765c0,1.706-0.354,3.706-1.294,6.118l-5.235,15.176c5.117-3,8.529-8.471,8.529-14.823
		C323.177,393,322.412,390.235,321.059,387.765z M314.471,386.353c0-1.588,1.177-3.059,2.882-3.059c0.06,0,0.118,0,0.235,0
		c-3.059-2.765-7.117-4.47-11.588-4.47c-6,0-11.294,3.118-14.353,7.765c0.412,0,0.765,0,1.118,0c1.824,0,4.588-0.235,4.588-0.235
		c0.941-0.059,1.059,1.294,0.118,1.412c0,0-0.941,0.118-1.941,0.177l6.235,18.588l3.765-11.235l-2.647-7.353
		c-1-0.059-1.882-0.177-1.882-0.177c-0.941-0.059-0.824-1.471,0.118-1.412c0,0,2.824,0.235,4.529,0.235
		c1.765,0,4.588-0.235,4.588-0.235c0.941-0.059,1.059,1.294,0.117,1.412c0,0-0.94,0.118-1.94,0.177l6.176,18.471l1.706-5.706
		c0.765-2.354,1.294-4.059,1.294-5.53c0-2.118-0.765-3.588-1.411-4.706C315.294,389,314.471,387.765,314.471,386.353z
		 M311.588,411.941l-5.294-14.471l-5.118,15c1.588,0.471,3.177,0.706,4.824,0.706c2,0,3.941-0.354,5.706-1
		C311.647,412.117,311.588,412,311.588,411.941z M290.353,389c-1,2.235-1.529,4.588-1.529,7c0,6.765,3.941,12.647,9.647,15.412
		L290.353,389z M321.059,387.765c0.059,0.529,0.118,1.118,0.118,1.765c0,1.706-0.354,3.706-1.294,6.118l-5.235,15.176
		c5.117-3,8.529-8.471,8.529-14.823C323.177,393,322.412,390.235,321.059,387.765z M290.353,389c-1,2.235-1.529,4.588-1.529,7
		c0,6.765,3.941,12.647,9.647,15.412L290.353,389z M311.588,411.941l-5.294-14.471l-5.118,15c1.588,0.471,3.177,0.706,4.824,0.706
		c2,0,3.941-0.354,5.706-1C311.647,412.117,311.588,412,311.588,411.941z M314.471,386.353c0-1.588,1.177-3.059,2.882-3.059
		c0.06,0,0.118,0,0.235,0c-3.059-2.765-7.117-4.47-11.588-4.47c-6,0-11.294,3.118-14.353,7.765c0.412,0,0.765,0,1.118,0
		c1.824,0,4.588-0.235,4.588-0.235c0.941-0.059,1.059,1.294,0.118,1.412c0,0-0.941,0.118-1.941,0.177l6.235,18.588l3.765-11.235
		l-2.647-7.353c-1-0.059-1.882-0.177-1.882-0.177c-0.941-0.059-0.824-1.471,0.118-1.412c0,0,2.824,0.235,4.529,0.235
		c1.765,0,4.588-0.235,4.588-0.235c0.941-0.059,1.059,1.294,0.117,1.412c0,0-0.94,0.118-1.94,0.177l6.176,18.471l1.706-5.706
		c0.765-2.354,1.294-4.059,1.294-5.53c0-2.118-0.765-3.588-1.411-4.706C315.294,389,314.471,387.765,314.471,386.353z
		 M321.059,387.765c0.059,0.529,0.118,1.118,0.118,1.765c0,1.706-0.354,3.706-1.294,6.118l-5.235,15.176
		c5.117-3,8.529-8.471,8.529-14.823C323.177,393,322.412,390.235,321.059,387.765z M314.471,386.353
		c0-1.588,1.177-3.059,2.882-3.059c0.06,0,0.118,0,0.235,0c-3.059-2.765-7.117-4.47-11.588-4.47c-6,0-11.294,3.118-14.353,7.765
		c0.412,0,0.765,0,1.118,0c1.824,0,4.588-0.235,4.588-0.235c0.941-0.059,1.059,1.294,0.118,1.412c0,0-0.941,0.118-1.941,0.177
		l6.235,18.588l3.765-11.235l-2.647-7.353c-1-0.059-1.882-0.177-1.882-0.177c-0.941-0.059-0.824-1.471,0.118-1.412
		c0,0,2.824,0.235,4.529,0.235c1.765,0,4.588-0.235,4.588-0.235c0.941-0.059,1.059,1.294,0.117,1.412c0,0-0.94,0.118-1.94,0.177
		l6.176,18.471l1.706-5.706c0.765-2.354,1.294-4.059,1.294-5.53c0-2.118-0.765-3.588-1.411-4.706
		C315.294,389,314.471,387.765,314.471,386.353z M311.588,411.941l-5.294-14.471l-5.118,15c1.588,0.471,3.177,0.706,4.824,0.706
		c2,0,3.941-0.354,5.706-1C311.647,412.117,311.588,412,311.588,411.941z M290.353,389c-1,2.235-1.529,4.588-1.529,7
		c0,6.765,3.941,12.647,9.647,15.412L290.353,389z M321.059,387.765c0.059,0.529,0.118,1.118,0.118,1.765
		c0,1.706-0.354,3.706-1.294,6.118l-5.235,15.176c5.117-3,8.529-8.471,8.529-14.823C323.177,393,322.412,390.235,321.059,387.765z
		 M290.353,389c-1,2.235-1.529,4.588-1.529,7c0,6.765,3.941,12.647,9.647,15.412L290.353,389z M311.588,411.941l-5.294-14.471
		l-5.118,15c1.588,0.471,3.177,0.706,4.824,0.706c2,0,3.941-0.354,5.706-1C311.647,412.117,311.588,412,311.588,411.941z
		 M314.471,386.353c0-1.588,1.177-3.059,2.882-3.059c0.06,0,0.118,0,0.235,0c-3.059-2.765-7.117-4.47-11.588-4.47
		c-6,0-11.294,3.118-14.353,7.765c0.412,0,0.765,0,1.118,0c1.824,0,4.588-0.235,4.588-0.235c0.941-0.059,1.059,1.294,0.118,1.412
		c0,0-0.941,0.118-1.941,0.177l6.235,18.588l3.765-11.235l-2.647-7.353c-1-0.059-1.882-0.177-1.882-0.177
		c-0.941-0.059-0.824-1.471,0.118-1.412c0,0,2.824,0.235,4.529,0.235c1.765,0,4.588-0.235,4.588-0.235
		c0.941-0.059,1.059,1.294,0.117,1.412c0,0-0.94,0.118-1.94,0.177l6.176,18.471l1.706-5.706c0.765-2.354,1.294-4.059,1.294-5.53
		c0-2.118-0.765-3.588-1.411-4.706C315.294,389,314.471,387.765,314.471,386.353z M321.059,387.765
		c0.059,0.529,0.118,1.118,0.118,1.765c0,1.706-0.354,3.706-1.294,6.118l-5.235,15.176c5.117-3,8.529-8.471,8.529-14.823
		C323.177,393,322.412,390.235,321.059,387.765z M314.471,386.353c0-1.588,1.177-3.059,2.882-3.059c0.06,0,0.118,0,0.235,0
		c-3.059-2.765-7.117-4.47-11.588-4.47c-6,0-11.294,3.118-14.353,7.765c0.412,0,0.765,0,1.118,0c1.824,0,4.588-0.235,4.588-0.235
		c0.941-0.059,1.059,1.294,0.118,1.412c0,0-0.941,0.118-1.941,0.177l6.235,18.588l3.765-11.235l-2.647-7.353
		c-1-0.059-1.882-0.177-1.882-0.177c-0.941-0.059-0.824-1.471,0.118-1.412c0,0,2.824,0.235,4.529,0.235
		c1.765,0,4.588-0.235,4.588-0.235c0.941-0.059,1.059,1.294,0.117,1.412c0,0-0.94,0.118-1.94,0.177l6.176,18.471l1.706-5.706
		c0.765-2.354,1.294-4.059,1.294-5.53c0-2.118-0.765-3.588-1.411-4.706C315.294,389,314.471,387.765,314.471,386.353z
		 M311.588,411.941l-5.294-14.471l-5.118,15c1.588,0.471,3.177,0.706,4.824,0.706c2,0,3.941-0.354,5.706-1
		C311.647,412.117,311.588,412,311.588,411.941z M290.353,389c-1,2.235-1.529,4.588-1.529,7c0,6.765,3.941,12.647,9.647,15.412
		L290.353,389z M321.059,387.765c0.059,0.529,0.118,1.118,0.118,1.765c0,1.706-0.354,3.706-1.294,6.118l-5.235,15.176
		c5.117-3,8.529-8.471,8.529-14.823C323.177,393,322.412,390.235,321.059,387.765z M290.353,389c-1,2.235-1.529,4.588-1.529,7
		c0,6.765,3.941,12.647,9.647,15.412L290.353,389z M311.588,411.941l-5.294-14.471l-5.118,15c1.588,0.471,3.177,0.706,4.824,0.706
		c2,0,3.941-0.354,5.706-1C311.647,412.117,311.588,412,311.588,411.941z M314.471,386.353c0-1.588,1.177-3.059,2.882-3.059
		c0.06,0,0.118,0,0.235,0c-3.059-2.765-7.117-4.47-11.588-4.47c-6,0-11.294,3.118-14.353,7.765c0.412,0,0.765,0,1.118,0
		c1.824,0,4.588-0.235,4.588-0.235c0.941-0.059,1.059,1.294,0.118,1.412c0,0-0.941,0.118-1.941,0.177l6.235,18.588l3.765-11.235
		l-2.647-7.353c-1-0.059-1.882-0.177-1.882-0.177c-0.941-0.059-0.824-1.471,0.118-1.412c0,0,2.824,0.235,4.529,0.235
		c1.765,0,4.588-0.235,4.588-0.235c0.941-0.059,1.059,1.294,0.117,1.412c0,0-0.94,0.118-1.94,0.177l6.176,18.471l1.706-5.706
		c0.765-2.354,1.294-4.059,1.294-5.53c0-2.118-0.765-3.588-1.411-4.706C315.294,389,314.471,387.765,314.471,386.353z
		 M321.059,387.765c0.059,0.529,0.118,1.118,0.118,1.765c0,1.706-0.354,3.706-1.294,6.118l-5.235,15.176
		c5.117-3,8.529-8.471,8.529-14.823C323.177,393,322.412,390.235,321.059,387.765z M314.471,386.353
		c0-1.588,1.177-3.059,2.882-3.059c0.06,0,0.118,0,0.235,0c-3.059-2.765-7.117-4.47-11.588-4.47c-6,0-11.294,3.118-14.353,7.765
		c0.412,0,0.765,0,1.118,0c1.824,0,4.588-0.235,4.588-0.235c0.941-0.059,1.059,1.294,0.118,1.412c0,0-0.941,0.118-1.941,0.177
		l6.235,18.588l3.765-11.235l-2.647-7.353c-1-0.059-1.882-0.177-1.882-0.177c-0.941-0.059-0.824-1.471,0.118-1.412
		c0,0,2.824,0.235,4.529,0.235c1.765,0,4.588-0.235,4.588-0.235c0.941-0.059,1.059,1.294,0.117,1.412c0,0-0.94,0.118-1.94,0.177
		l6.176,18.471l1.706-5.706c0.765-2.354,1.294-4.059,1.294-5.53c0-2.118-0.765-3.588-1.411-4.706
		C315.294,389,314.471,387.765,314.471,386.353z M311.588,411.941l-5.294-14.471l-5.118,15c1.588,0.471,3.177,0.706,4.824,0.706
		c2,0,3.941-0.354,5.706-1C311.647,412.117,311.588,412,311.588,411.941z M290.353,389c-1,2.235-1.529,4.588-1.529,7
		c0,6.765,3.941,12.647,9.647,15.412L290.353,389z M321.059,387.765c0.059,0.529,0.118,1.118,0.118,1.765
		c0,1.706-0.354,3.706-1.294,6.118l-5.235,15.176c5.117-3,8.529-8.471,8.529-14.823C323.177,393,322.412,390.235,321.059,387.765z
		 M290.353,389c-1,2.235-1.529,4.588-1.529,7c0,6.765,3.941,12.647,9.647,15.412L290.353,389z M311.588,411.941l-5.294-14.471
		l-5.118,15c1.588,0.471,3.177,0.706,4.824,0.706c2,0,3.941-0.354,5.706-1C311.647,412.117,311.588,412,311.588,411.941z
		 M314.471,386.353c0-1.588,1.177-3.059,2.882-3.059c0.06,0,0.118,0,0.235,0c-3.059-2.765-7.117-4.47-11.588-4.47
		c-6,0-11.294,3.118-14.353,7.765c0.412,0,0.765,0,1.118,0c1.824,0,4.588-0.235,4.588-0.235c0.941-0.059,1.059,1.294,0.118,1.412
		c0,0-0.941,0.118-1.941,0.177l6.235,18.588l3.765-11.235l-2.647-7.353c-1-0.059-1.882-0.177-1.882-0.177
		c-0.941-0.059-0.824-1.471,0.118-1.412c0,0,2.824,0.235,4.529,0.235c1.765,0,4.588-0.235,4.588-0.235
		c0.941-0.059,1.059,1.294,0.117,1.412c0,0-0.94,0.118-1.94,0.177l6.176,18.471l1.706-5.706c0.765-2.354,1.294-4.059,1.294-5.53
		c0-2.118-0.765-3.588-1.411-4.706C315.294,389,314.471,387.765,314.471,386.353z M321.059,387.765
		c0.059,0.529,0.118,1.118,0.118,1.765c0,1.706-0.354,3.706-1.294,6.118l-5.235,15.176c5.117-3,8.529-8.471,8.529-14.823
		C323.177,393,322.412,390.235,321.059,387.765z M314.471,386.353c0-1.588,1.177-3.059,2.882-3.059c0.06,0,0.118,0,0.235,0
		c-3.059-2.765-7.117-4.47-11.588-4.47c-6,0-11.294,3.118-14.353,7.765c0.412,0,0.765,0,1.118,0c1.824,0,4.588-0.235,4.588-0.235
		c0.941-0.059,1.059,1.294,0.118,1.412c0,0-0.941,0.118-1.941,0.177l6.235,18.588l3.765-11.235l-2.647-7.353
		c-1-0.059-1.882-0.177-1.882-0.177c-0.941-0.059-0.824-1.471,0.118-1.412c0,0,2.824,0.235,4.529,0.235
		c1.765,0,4.588-0.235,4.588-0.235c0.941-0.059,1.059,1.294,0.117,1.412c0,0-0.94,0.118-1.94,0.177l6.176,18.471l1.706-5.706
		c0.765-2.354,1.294-4.059,1.294-5.53c0-2.118-0.765-3.588-1.411-4.706C315.294,389,314.471,387.765,314.471,386.353z
		 M311.588,411.941l-5.294-14.471l-5.118,15c1.588,0.471,3.177,0.706,4.824,0.706c2,0,3.941-0.354,5.706-1
		C311.647,412.117,311.588,412,311.588,411.941z M290.353,389c-1,2.235-1.529,4.588-1.529,7c0,6.765,3.941,12.647,9.647,15.412
		L290.353,389z M321.059,387.765c0.059,0.529,0.118,1.118,0.118,1.765c0,1.706-0.354,3.706-1.294,6.118l-5.235,15.176
		c5.117-3,8.529-8.471,8.529-14.823C323.177,393,322.412,390.235,321.059,387.765z M290.353,389c-1,2.235-1.529,4.588-1.529,7
		c0,6.765,3.941,12.647,9.647,15.412L290.353,389z M311.588,411.941l-5.294-14.471l-5.118,15c1.588,0.471,3.177,0.706,4.824,0.706
		c2,0,3.941-0.354,5.706-1C311.647,412.117,311.588,412,311.588,411.941z M314.471,386.353c0-1.588,1.177-3.059,2.882-3.059
		c0.06,0,0.118,0,0.235,0c-3.059-2.765-7.117-4.47-11.588-4.47c-6,0-11.294,3.118-14.353,7.765c0.412,0,0.765,0,1.118,0
		c1.824,0,4.588-0.235,4.588-0.235c0.941-0.059,1.059,1.294,0.118,1.412c0,0-0.941,0.118-1.941,0.177l6.235,18.588l3.765-11.235
		l-2.647-7.353c-1-0.059-1.882-0.177-1.882-0.177c-0.941-0.059-0.824-1.471,0.118-1.412c0,0,2.824,0.235,4.529,0.235
		c1.765,0,4.588-0.235,4.588-0.235c0.941-0.059,1.059,1.294,0.117,1.412c0,0-0.94,0.118-1.94,0.177l6.176,18.471l1.706-5.706
		c0.765-2.354,1.294-4.059,1.294-5.53c0-2.118-0.765-3.588-1.411-4.706C315.294,389,314.471,387.765,314.471,386.353z
		 M321.059,387.765c0.059,0.529,0.118,1.118,0.118,1.765c0,1.706-0.354,3.706-1.294,6.118l-5.235,15.176
		c5.117-3,8.529-8.471,8.529-14.823C323.177,393,322.412,390.235,321.059,387.765z M314.471,386.353
		c0-1.588,1.177-3.059,2.882-3.059c0.06,0,0.118,0,0.235,0c-3.059-2.765-7.117-4.47-11.588-4.47c-6,0-11.294,3.118-14.353,7.765
		c0.412,0,0.765,0,1.118,0c1.824,0,4.588-0.235,4.588-0.235c0.941-0.059,1.059,1.294,0.118,1.412c0,0-0.941,0.118-1.941,0.177
		l6.235,18.588l3.765-11.235l-2.647-7.353c-1-0.059-1.882-0.177-1.882-0.177c-0.941-0.059-0.824-1.471,0.118-1.412
		c0,0,2.824,0.235,4.529,0.235c1.765,0,4.588-0.235,4.588-0.235c0.941-0.059,1.059,1.294,0.117,1.412c0,0-0.94,0.118-1.94,0.177
		l6.176,18.471l1.706-5.706c0.765-2.354,1.294-4.059,1.294-5.53c0-2.118-0.765-3.588-1.411-4.706
		C315.294,389,314.471,387.765,314.471,386.353z M311.588,411.941l-5.294-14.471l-5.118,15c1.588,0.471,3.177,0.706,4.824,0.706
		c2,0,3.941-0.354,5.706-1C311.647,412.117,311.588,412,311.588,411.941z M290.353,389c-1,2.235-1.529,4.588-1.529,7
		c0,6.765,3.941,12.647,9.647,15.412L290.353,389z M321.059,387.765c0.059,0.529,0.118,1.118,0.118,1.765
		c0,1.706-0.354,3.706-1.294,6.118l-5.235,15.176c5.117-3,8.529-8.471,8.529-14.823C323.177,393,322.412,390.235,321.059,387.765z
		 M290.353,389c-1,2.235-1.529,4.588-1.529,7c0,6.765,3.941,12.647,9.647,15.412L290.353,389z M311.588,411.941l-5.294-14.471
		l-5.118,15c1.588,0.471,3.177,0.706,4.824,0.706c2,0,3.941-0.354,5.706-1C311.647,412.117,311.588,412,311.588,411.941z
		 M314.471,386.353c0-1.588,1.177-3.059,2.882-3.059c0.06,0,0.118,0,0.235,0c-3.059-2.765-7.117-4.47-11.588-4.47
		c-6,0-11.294,3.118-14.353,7.765c0.412,0,0.765,0,1.118,0c1.824,0,4.588-0.235,4.588-0.235c0.941-0.059,1.059,1.294,0.118,1.412
		c0,0-0.941,0.118-1.941,0.177l6.235,18.588l3.765-11.235l-2.647-7.353c-1-0.059-1.882-0.177-1.882-0.177
		c-0.941-0.059-0.824-1.471,0.118-1.412c0,0,2.824,0.235,4.529,0.235c1.765,0,4.588-0.235,4.588-0.235
		c0.941-0.059,1.059,1.294,0.117,1.412c0,0-0.94,0.118-1.94,0.177l6.176,18.471l1.706-5.706c0.765-2.354,1.294-4.059,1.294-5.53
		c0-2.118-0.765-3.588-1.411-4.706C315.294,389,314.471,387.765,314.471,386.353z M321.059,387.765
		c0.059,0.529,0.118,1.118,0.118,1.765c0,1.706-0.354,3.706-1.294,6.118l-5.235,15.176c5.117-3,8.529-8.471,8.529-14.823
		C323.177,393,322.412,390.235,321.059,387.765z M314.471,386.353c0-1.588,1.177-3.059,2.882-3.059c0.06,0,0.118,0,0.235,0
		c-3.059-2.765-7.117-4.47-11.588-4.47c-6,0-11.294,3.118-14.353,7.765c0.412,0,0.765,0,1.118,0c1.824,0,4.588-0.235,4.588-0.235
		c0.941-0.059,1.059,1.294,0.118,1.412c0,0-0.941,0.118-1.941,0.177l6.235,18.588l3.765-11.235l-2.647-7.353
		c-1-0.059-1.882-0.177-1.882-0.177c-0.941-0.059-0.824-1.471,0.118-1.412c0,0,2.824,0.235,4.529,0.235
		c1.765,0,4.588-0.235,4.588-0.235c0.941-0.059,1.059,1.294,0.117,1.412c0,0-0.94,0.118-1.94,0.177l6.176,18.471l1.706-5.706
		c0.765-2.354,1.294-4.059,1.294-5.53c0-2.118-0.765-3.588-1.411-4.706C315.294,389,314.471,387.765,314.471,386.353z
		 M311.588,411.941l-5.294-14.471l-5.118,15c1.588,0.471,3.177,0.706,4.824,0.706c2,0,3.941-0.354,5.706-1
		C311.647,412.117,311.588,412,311.588,411.941z M290.353,389c-1,2.235-1.529,4.588-1.529,7c0,6.765,3.941,12.647,9.647,15.412
		L290.353,389z M321.059,387.765c0.059,0.529,0.118,1.118,0.118,1.765c0,1.706-0.354,3.706-1.294,6.118l-5.235,15.176
		c5.117-3,8.529-8.471,8.529-14.823C323.177,393,322.412,390.235,321.059,387.765z M290.353,389c-1,2.235-1.529,4.588-1.529,7
		c0,6.765,3.941,12.647,9.647,15.412L290.353,389z M311.588,411.941l-5.294-14.471l-5.118,15c1.588,0.471,3.177,0.706,4.824,0.706
		c2,0,3.941-0.354,5.706-1C311.647,412.117,311.588,412,311.588,411.941z M314.471,386.353c0-1.588,1.177-3.059,2.882-3.059
		c0.06,0,0.118,0,0.235,0c-3.059-2.765-7.117-4.47-11.588-4.47c-6,0-11.294,3.118-14.353,7.765c0.412,0,0.765,0,1.118,0
		c1.824,0,4.588-0.235,4.588-0.235c0.941-0.059,1.059,1.294,0.118,1.412c0,0-0.941,0.118-1.941,0.177l6.235,18.588l3.765-11.235
		l-2.647-7.353c-1-0.059-1.882-0.177-1.882-0.177c-0.941-0.059-0.824-1.471,0.118-1.412c0,0,2.824,0.235,4.529,0.235
		c1.765,0,4.588-0.235,4.588-0.235c0.941-0.059,1.059,1.294,0.117,1.412c0,0-0.94,0.118-1.94,0.177l6.176,18.471l1.706-5.706
		c0.765-2.354,1.294-4.059,1.294-5.53c0-2.118-0.765-3.588-1.411-4.706C315.294,389,314.471,387.765,314.471,386.353z
		 M321.059,387.765c0.059,0.529,0.118,1.118,0.118,1.765c0,1.706-0.354,3.706-1.294,6.118l-5.235,15.176
		c5.117-3,8.529-8.471,8.529-14.823C323.177,393,322.412,390.235,321.059,387.765z M314.471,386.353
		c0-1.588,1.177-3.059,2.882-3.059c0.06,0,0.118,0,0.235,0c-3.059-2.765-7.117-4.47-11.588-4.47c-6,0-11.294,3.118-14.353,7.765
		c0.412,0,0.765,0,1.118,0c1.824,0,4.588-0.235,4.588-0.235c0.941-0.059,1.059,1.294,0.118,1.412c0,0-0.941,0.118-1.941,0.177
		l6.235,18.588l3.765-11.235l-2.647-7.353c-1-0.059-1.882-0.177-1.882-0.177c-0.941-0.059-0.824-1.471,0.118-1.412
		c0,0,2.824,0.235,4.529,0.235c1.765,0,4.588-0.235,4.588-0.235c0.941-0.059,1.059,1.294,0.117,1.412c0,0-0.94,0.118-1.94,0.177
		l6.176,18.471l1.706-5.706c0.765-2.354,1.294-4.059,1.294-5.53c0-2.118-0.765-3.588-1.411-4.706
		C315.294,389,314.471,387.765,314.471,386.353z M311.588,411.941l-5.294-14.471l-5.118,15c1.588,0.471,3.177,0.706,4.824,0.706
		c2,0,3.941-0.354,5.706-1C311.647,412.117,311.588,412,311.588,411.941z M290.353,389c-1,2.235-1.529,4.588-1.529,7
		c0,6.765,3.941,12.647,9.647,15.412L290.353,389z M321.059,387.765c0.059,0.529,0.118,1.118,0.118,1.765
		c0,1.706-0.354,3.706-1.294,6.118l-5.235,15.176c5.117-3,8.529-8.471,8.529-14.823C323.177,393,322.412,390.235,321.059,387.765z
		 M290.353,389c-1,2.235-1.529,4.588-1.529,7c0,6.765,3.941,12.647,9.647,15.412L290.353,389z M311.588,411.941l-5.294-14.471
		l-5.118,15c1.588,0.471,3.177,0.706,4.824,0.706c2,0,3.941-0.354,5.706-1C311.647,412.117,311.588,412,311.588,411.941z
		 M314.471,386.353c0-1.588,1.177-3.059,2.882-3.059c0.06,0,0.118,0,0.235,0c-3.059-2.765-7.117-4.47-11.588-4.47
		c-6,0-11.294,3.118-14.353,7.765c0.412,0,0.765,0,1.118,0c1.824,0,4.588-0.235,4.588-0.235c0.941-0.059,1.059,1.294,0.118,1.412
		c0,0-0.941,0.118-1.941,0.177l6.235,18.588l3.765-11.235l-2.647-7.353c-1-0.059-1.882-0.177-1.882-0.177
		c-0.941-0.059-0.824-1.471,0.118-1.412c0,0,2.824,0.235,4.529,0.235c1.765,0,4.588-0.235,4.588-0.235
		c0.941-0.059,1.059,1.294,0.117,1.412c0,0-0.94,0.118-1.94,0.177l6.176,18.471l1.706-5.706c0.765-2.354,1.294-4.059,1.294-5.53
		c0-2.118-0.765-3.588-1.411-4.706C315.294,389,314.471,387.765,314.471,386.353z M321.059,387.765
		c0.059,0.529,0.118,1.118,0.118,1.765c0,1.706-0.354,3.706-1.294,6.118l-5.235,15.176c5.117-3,8.529-8.471,8.529-14.823
		C323.177,393,322.412,390.235,321.059,387.765z M314.471,386.353c0-1.588,1.177-3.059,2.882-3.059c0.06,0,0.118,0,0.235,0
		c-3.059-2.765-7.117-4.47-11.588-4.47c-6,0-11.294,3.118-14.353,7.765c0.412,0,0.765,0,1.118,0c1.824,0,4.588-0.235,4.588-0.235
		c0.941-0.059,1.059,1.294,0.118,1.412c0,0-0.941,0.118-1.941,0.177l6.235,18.588l3.765-11.235l-2.647-7.353
		c-1-0.059-1.882-0.177-1.882-0.177c-0.941-0.059-0.824-1.471,0.118-1.412c0,0,2.824,0.235,4.529,0.235
		c1.765,0,4.588-0.235,4.588-0.235c0.941-0.059,1.059,1.294,0.117,1.412c0,0-0.94,0.118-1.94,0.177l6.176,18.471l1.706-5.706
		c0.765-2.354,1.294-4.059,1.294-5.53c0-2.118-0.765-3.588-1.411-4.706C315.294,389,314.471,387.765,314.471,386.353z
		 M311.588,411.941l-5.294-14.471l-5.118,15c1.588,0.471,3.177,0.706,4.824,0.706c2,0,3.941-0.354,5.706-1
		C311.647,412.117,311.588,412,311.588,411.941z M290.353,389c-1,2.235-1.529,4.588-1.529,7c0,6.765,3.941,12.647,9.647,15.412
		L290.353,389z M321.059,387.765c0.059,0.529,0.118,1.118,0.118,1.765c0,1.706-0.354,3.706-1.294,6.118l-5.235,15.176
		c5.117-3,8.529-8.471,8.529-14.823C323.177,393,322.412,390.235,321.059,387.765z M290.353,389c-1,2.235-1.529,4.588-1.529,7
		c0,6.765,3.941,12.647,9.647,15.412L290.353,389z M311.588,411.941l-5.294-14.471l-5.118,15c1.588,0.471,3.177,0.706,4.824,0.706
		c2,0,3.941-0.354,5.706-1C311.647,412.117,311.588,412,311.588,411.941z M314.471,386.353c0-1.588,1.177-3.059,2.882-3.059
		c0.06,0,0.118,0,0.235,0c-3.059-2.765-7.117-4.47-11.588-4.47c-6,0-11.294,3.118-14.353,7.765c0.412,0,0.765,0,1.118,0
		c1.824,0,4.588-0.235,4.588-0.235c0.941-0.059,1.059,1.294,0.118,1.412c0,0-0.941,0.118-1.941,0.177l6.235,18.588l3.765-11.235
		l-2.647-7.353c-1-0.059-1.882-0.177-1.882-0.177c-0.941-0.059-0.824-1.471,0.118-1.412c0,0,2.824,0.235,4.529,0.235
		c1.765,0,4.588-0.235,4.588-0.235c0.941-0.059,1.059,1.294,0.117,1.412c0,0-0.94,0.118-1.94,0.177l6.176,18.471l1.706-5.706
		c0.765-2.354,1.294-4.059,1.294-5.53c0-2.118-0.765-3.588-1.411-4.706C315.294,389,314.471,387.765,314.471,386.353z
		 M321.059,387.765c0.059,0.529,0.118,1.118,0.118,1.765c0,1.706-0.354,3.706-1.294,6.118l-5.235,15.176
		c5.117-3,8.529-8.471,8.529-14.823C323.177,393,322.412,390.235,321.059,387.765z"/>
</g>
</svg>
