<svg xmlns="http://www.w3.org/2000/svg" width="40" height="40"><g fill="#32373C"><path d="M20 1.2a18.677 18.677 0 0110.51 3.21 18.931 18.931 0 015.079 5.079 18.642 18.642 0 011.733 3.193A18.67 18.67 0 0138.801 20a18.682 18.682 0 01-3.211 10.509 18.99 18.99 0 01-5.079 5.08 18.78 18.78 0 01-3.193 1.733c-2.317.981-4.78 1.478-7.318 1.478a18.681 18.681 0 01-10.51-3.21 18.938 18.938 0 01-5.079-5.08A18.673 18.673 0 011.2 20 18.686 18.686 0 014.41 9.489 18.942 18.942 0 019.489 4.41 18.69 18.69 0 0120 1.2M20 0C8.954 0 0 8.954 0 20s8.954 20 20 20 20-8.954 20-20S31.046 0 20 0"/><path d="M3.333 19.999c0 6.597 3.834 12.298 9.394 14.999l-7.95-21.782a16.602 16.602 0 00-1.444 6.783m27.918-.84c0-2.061-.739-3.487-1.373-4.596-.846-1.374-1.638-2.536-1.638-3.909 0-1.532 1.162-2.958 2.799-2.958.074 0 .144.009.216.014A16.6 16.6 0 0020 3.333c-5.823 0-10.945 2.988-13.926 7.512.392.013.761.021 1.073.021 1.742 0 4.441-.212 4.441-.212.898-.053 1.005 1.267.107 1.374 0 0-.903.106-1.908.158l6.069 18.053L19.503 19.3l-2.596-7.114c-.898-.052-1.748-.158-1.748-.158-.898-.053-.794-1.426.105-1.374 0 0 2.752.212 4.39.212 1.742 0 4.442-.212 4.442-.212.898-.053 1.004 1.267.105 1.374 0 0-.903.106-1.907.158l6.023 17.916 1.72-5.448c.767-2.383 1.214-4.07 1.214-5.495m-10.958 2.298l-5.001 14.53a16.662 16.662 0 0010.243-.265 1.503 1.503 0 01-.12-.229l-5.122-14.036zm14.333-9.453c.071.53.112 1.1.112 1.713 0 1.691-.317 3.592-1.269 5.97l-5.09 14.717c4.955-2.889 8.287-8.257 8.287-14.405a16.58 16.58 0 00-2.04-7.995"/></g></svg>