<svg xmlns="http://www.w3.org/2000/svg" width="39.69" height="40" viewBox="1.155 0 39.69 40"><path fill="#FB7A24" d="M20.989 0h15.455c.646 0 1.287.056 1.907.245 1.345.41 2.057 1.375 2.336 2.704.111.527.143 1.064.144 1.602.008 3.608.015 7.216.015 10.824 0 6.571.001 13.143-.013 19.714-.002.92-.051 1.85-.505 2.688-.504.93-1.193 1.665-2.24 1.988-.188.059-.387.125-.58.125-.447 0-.882.111-1.327.111-10.088-.001-20.176.005-30.264-.012-.821-.001-1.654-.061-2.434-.395-.155-.066-.312-.122-.448-.227-.993-.756-1.666-1.699-1.811-2.976-.052-.46-.069-.918-.069-1.378.002-10.225.003-20.45.008-30.675 0-.593.006-1.196.188-1.764C1.837 1.061 2.9.235 4.476.068 4.843.029 5.213.003 5.58.003 10.717-.001 15.853 0 20.989 0z"/><path fill="#FFF" d="M21.12 25.444c-.113.69-.192 1.314-.44 1.89-1.162 2.695-3.141 4.338-6.107 4.664a7.187 7.187 0 01-7.721-5.14c-.353-1.219-.317-2.461-.189-3.7a10.574 10.574 0 011.136-3.767c.087-.169.085-.297-.023-.461-.936-1.408-1.299-2.962-1.167-4.641a6.77 6.77 0 01.695-2.559c1.192-2.354 3.809-4.352 7.314-4.021 3.082.292 5.937 2.95 6.383 5.94.022.15.065.297.114.519.074-.401.127-.732.196-1.06.574-2.717 3.232-5.559 7.002-5.594 3.82-.035 6.649 2.96 7.183 5.743.226 1.176.187 2.351.001 3.525a12.588 12.588 0 01-1.035 3.376c-.11.237-.1.408.043.628.823 1.274 1.186 2.674 1.14 4.194-.098 3.172-2.341 6.016-5.427 6.76-4.309 1.038-7.611-1.539-8.724-4.656-.182-.505-.268-1.035-.374-1.64zm7.828-5.572c.046-.179.185-.287.284-.419 1.08-1.436 1.648-3.039 1.521-4.845-.092-1.318-1.176-2.246-2.488-2.197-1.313.049-2.302 1.062-2.32 2.375-.002.108.005.215-.002.322-.09 1.4-.862 2.167-2.033 2.253-.214.016-.429.035-.643.035-1.52.003-3.039.003-4.558.001-.664 0-1.322.071-1.954.267-2.95.91-4.67 2.928-5.24 5.935-.113.595-.214 1.212-.019 1.823.28.876.801 1.527 1.725 1.746.957.226 1.791-.024 2.453-.776.428-.485.563-1.063.595-1.697.083-1.63.971-2.445 2.451-2.433 2.271.019 4.542.004 6.814.006.403 0 .407.006.409.404.004.736-.02 1.474.01 2.21.046 1.2 1.103 2.199 2.327 2.234 1.264.036 2.39-.898 2.472-2.118a24.028 24.028 0 00-.003-3.175c-.053-.817-.495-1.4-1.245-1.739-.18-.081-.369-.141-.556-.212zM14.71 17.394c.488 0 .887-.004 1.286.002.198.003.271-.082.269-.275-.006-.766.033-1.535-.016-2.299-.064-1.007-.6-1.735-1.538-2.103-.961-.376-1.841-.162-2.585.548-.748.714-.848 1.586-.586 2.542.24.878.808 1.376 1.701 1.527.518.087 1.039.045 1.469.058z"/></svg>