<?xml version="1.0" encoding="utf-8"?>
<!-- Generator: Adobe Illustrator 16.0.0, SVG Export Plug-In . SVG Version: 6.00 Build 0)  -->
<!DOCTYPE svg PUBLIC "-//W3C//DTD SVG 1.1//EN" "http://www.w3.org/Graphics/SVG/1.1/DTD/svg11.dtd">
<svg version="1.1" id="Layer_1" xmlns="http://www.w3.org/2000/svg" xmlns:xlink="http://www.w3.org/1999/xlink" x="0px" y="0px"
	 width="40px" height="40px" viewBox="286 376 40 40" enable-background="new 286 376 40 40" xml:space="preserve">
<rect x="-990" y="-1629" display="none" fill="#2B2B60" width="6858" height="2385"/>
<g>
	<path d="M312.471,394.941c-1.588,0-2.765,1.176-2.765,3.176c0,1.941,1.235,3.177,2.765,3.177s2.765-1.177,2.765-3.177
		C315.235,396.118,314,394.941,312.471,394.941z"/>
	<path d="M321.294,376h-30.588c-2.588,0-4.706,2.118-4.706,4.706v30.588c0,2.589,2.118,4.706,4.706,4.706h30.588
		c2.589,0,4.706-2.117,4.706-4.706v-30.588C326,378.118,323.883,376,321.294,376z M303,403.765l-3.412-5.117l-3.353,5.117h-3.765
		l5.294-7.529l-4.941-7.294h3.706l3.235,4.823l3.177-4.823h3.529l-4.882,7.176l5.235,7.647H303z M318.294,403.765h-3v-1.294
		c-0.765,1-1.941,1.471-3.353,1.471c-3.059,0-5.412-2.294-5.412-5.883c0-3.588,2.354-5.882,5.412-5.882
		c1.353,0,2.471,0.471,3.235,1.353V388h3.117V403.765z"/>
</g>
</svg>
