<svg xmlns="http://www.w3.org/2000/svg" width="41.025" height="40" viewBox="285.487 376 41.025 40"><path fill="#470137" d="M292.752 376h26.496a7.26 7.26 0 017.265 7.265v25.47a7.26 7.26 0 01-7.265 7.266h-26.496a7.26 7.26 0 01-7.265-7.266v-25.47a7.26 7.26 0 017.265-7.265z"/><g fill="#FF61F6"><path d="M307.06 386.513l-5.128 8.461 5.47 8.974c.034.068.052.137.034.205-.017.068-.085.018-.188.034h-3.915c-.273 0-.462-.017-.582-.188-.359-.718-.735-1.419-1.094-2.137a67.46 67.46 0 00-1.163-2.154c-.41-.734-.82-1.47-1.23-2.222h-.034c-.359.734-.752 1.47-1.146 2.205-.393.734-.786 1.47-1.163 2.188-.393.718-.786 1.453-1.179 2.154-.068.171-.205.188-.393.188h-3.761c-.068 0-.12.034-.12-.051a.238.238 0 01.034-.188l5.316-8.718-5.179-8.769c-.051-.068-.068-.137-.034-.171.034-.051.103-.068.171-.068h3.88c.085 0 .171.017.239.034.068.034.12.085.171.154.325.735.701 1.47 1.094 2.205.41.735.803 1.453 1.23 2.171.41.718.787 1.436 1.146 2.171h.034c.359-.752.735-1.487 1.111-2.205s.77-1.436 1.163-2.154.769-1.453 1.146-2.154c.017-.068.051-.137.103-.171.068-.034.137-.051.222-.034h3.606a.157.157 0 01.188.12c.019.017-.015.086-.049.12zM314.957 404.547a8.486 8.486 0 01-3.675-.77 5.954 5.954 0 01-2.581-2.324c-.633-1.043-.94-2.342-.94-3.897a7.017 7.017 0 01.94-3.607 7.093 7.093 0 012.718-2.649c1.196-.667 2.632-.991 4.324-.991.086 0 .206 0 .359.017.154.017.325.017.53.034v-5.402c0-.12.051-.188.171-.188h3.47c.086-.017.154.051.171.12v16.307c0 .308.018.649.034 1.025.034.359.052.701.068.992 0 .119-.051.222-.171.273-.889.376-1.829.649-2.786.82a15.05 15.05 0 01-2.632.24zm1.676-3.419v-7.521c-.154-.034-.308-.068-.462-.085-.188-.017-.376-.034-.564-.034-.666 0-1.333.137-1.932.445a3.834 3.834 0 00-1.452 1.265c-.377.547-.564 1.282-.564 2.171a4.73 4.73 0 00.291 1.761c.171.462.427.872.769 1.214.325.308.718.547 1.162.684.462.154.94.223 1.419.223.257 0 .496-.018.719-.034.22.013.409-.021.614-.089z"/></g></svg>