<?xml version="1.0" encoding="utf-8"?>
<!-- Generator: Adobe Illustrator 16.0.0, SVG Export Plug-In . SVG Version: 6.00 Build 0)  -->
<!DOCTYPE svg PUBLIC "-//W3C//DTD SVG 1.1//EN" "http://www.w3.org/Graphics/SVG/1.1/DTD/svg11.dtd">
<svg version="1.1" id="Layer_1" xmlns="http://www.w3.org/2000/svg" xmlns:xlink="http://www.w3.org/1999/xlink" x="0px" y="0px"
	 width="41.025px" height="40px" viewBox="285.487 376 41.025 40" enable-background="new 285.487 376 41.025 40"
	 xml:space="preserve">
<title>Adobe Illustrator CC logo</title>
<g id="vlpa">
	<g id="vlpb">
		<g id="vlpc">
			<g id="vlpd">
				<path fill="#330000" d="M292.752,376h26.496c4.017,0,7.265,3.248,7.265,7.265v25.47c0,4.018-3.248,7.266-7.265,7.266h-26.496
					c-4.017,0-7.265-3.248-7.265-7.266v-25.47C285.487,379.248,288.735,376,292.752,376z"/>
			</g>
		</g>
	</g>
	<g id="vlpe">
		<g id="vlpf">
			<path fill="#FF9A00" d="M305.316,399.932h-6.359l-1.299,4.017c-0.034,0.154-0.171,0.257-0.325,0.239h-3.214
				c-0.188,0-0.239-0.103-0.188-0.308l5.504-15.846c0.051-0.171,0.103-0.359,0.171-0.564c0.068-0.359,0.103-0.735,0.103-1.111
				c-0.017-0.085,0.051-0.171,0.137-0.188h0.051h4.376c0.137,0,0.205,0.051,0.222,0.137l6.24,17.606
				c0.051,0.188,0,0.273-0.171,0.273h-3.573c-0.119,0.018-0.239-0.068-0.273-0.188L305.316,399.932L305.316,399.932z
				 M299.949,396.461h4.342c-0.103-0.359-0.239-0.787-0.393-1.231c-0.154-0.461-0.308-0.957-0.461-1.47
				c-0.171-0.53-0.325-1.042-0.496-1.572c-0.171-0.53-0.325-1.026-0.462-1.521c-0.137-0.479-0.256-0.923-0.376-1.333h-0.034
				c-0.154,0.735-0.342,1.47-0.581,2.205c-0.256,0.821-0.513,1.675-0.787,2.53C300.461,394.94,300.205,395.743,299.949,396.461
				L299.949,396.461z"/>
			<path fill="#FF9A00" d="M314.547,389.162c-0.564,0.017-1.111-0.205-1.521-0.598c-0.393-0.427-0.598-0.992-0.581-1.573
				c-0.017-0.581,0.205-1.128,0.615-1.521c0.41-0.393,0.958-0.598,1.521-0.598c0.667,0,1.18,0.205,1.556,0.598
				c0.376,0.41,0.581,0.958,0.564,1.521c0.017,0.581-0.188,1.146-0.599,1.573C315.709,388.974,315.128,389.196,314.547,389.162
				L314.547,389.162z M312.633,404v-13.163c0-0.171,0.068-0.239,0.222-0.239h3.385c0.154,0,0.223,0.085,0.223,0.239V404
				c0,0.188-0.068,0.273-0.223,0.273h-3.351C312.718,404.273,312.633,404.171,312.633,404z"/>
		</g>
	</g>
</g>
</svg>
