<?xml version="1.0" encoding="utf-8"?>
<!-- Generator: Adobe Illustrator 16.0.0, SVG Export Plug-In . SVG Version: 6.00 Build 0)  -->
<!DOCTYPE svg PUBLIC "-//W3C//DTD SVG 1.1//EN" "http://www.w3.org/Graphics/SVG/1.1/DTD/svg11.dtd">
<svg version="1.1" id="Layer_1" xmlns="http://www.w3.org/2000/svg" xmlns:xlink="http://www.w3.org/1999/xlink" x="0px" y="0px"
	 width="37.234px" height="40px" viewBox="0 0 37.234 40" enable-background="new 0 0 37.234 40" xml:space="preserve">
<rect x="-443" y="-191" display="none" fill="#2B2B60" width="762" height="265"/>
<g>
	<polygon fill="#DD0031" points="18.617,0 18.617,0 18.617,0 -0.003,6.64 2.837,31.26 18.617,40 18.617,40 18.617,40 34.398,31.26 
		37.238,6.64 	"/>
	<polygon fill="#C3002F" points="18.617,0 18.617,4.44 18.617,4.42 18.617,24.68 18.617,24.68 18.617,40 18.617,40 34.398,31.26 
		37.238,6.64 	"/>
	<path fill="#FFFFFF" d="M18.617,4.42l-11.64,26.1l0,0h4.34l0,0l2.34-5.84h9.88l2.34,5.84l0,0h4.341l0,0L18.617,4.42L18.617,4.42
		L18.617,4.42L18.617,4.42L18.617,4.42z M22.018,21.08h-6.801l3.4-8.181L22.018,21.08z"/>
</g>
</svg>
