<?xml version="1.0" encoding="utf-8"?>
<!-- Generator: Adobe Illustrator 16.0.0, SVG Export Plug-In . SVG Version: 6.00 Build 0)  -->
<!DOCTYPE svg PUBLIC "-//W3C//DTD SVG 1.1//EN" "http://www.w3.org/Graphics/SVG/1.1/DTD/svg11.dtd">
<svg version="1.1" id="Layer_1" xmlns="http://www.w3.org/2000/svg" xmlns:xlink="http://www.w3.org/1999/xlink" x="0px" y="0px"
	 width="48.477px" height="40px" viewBox="282.063 376 48.477 40" enable-background="new 282.063 376 48.477 40"
	 xml:space="preserve">
<g>
	<path fill="#282828" d="M282.063,382.19h11.333v3.333h-11.333V382.19z M282.063,376h11.333v3.333h-11.333V376z M302.396,388.333
		h-20.333v3.333h19.572c2.143,0,7.143,0.048,9,3.048v-1.857C309.729,389.905,307.063,388.333,302.396,388.333z M302.444,394.524
		h-20.381v3.333h19.572c4.762,0,7.762,0.19,9,0.856v-1.476C309.682,394.905,305.682,394.524,302.444,394.524z M302.396,410.238
		h-20.333v-3.333h19.572c2.143,0,7.143-0.048,9-3.048v1.856C309.729,408.667,307.063,410.238,302.396,410.238z M302.444,404.048
		h-20.381v-3.334h19.572c4.762,0,7.762-0.19,9-0.856v1.476C309.682,403.667,305.682,404.048,302.444,404.048z M315.587,416h14.952
		v-2.048h-14.524c-1.285,0-4.333-0.048-5.428-1.81v1.144C311.11,415.048,312.729,416,315.587,416L315.587,416z M315.539,412.238
		h14.952v-2.048h-14.477c-2.904,0-4.714-0.095-5.428-0.523v0.904C311.158,412,313.587,412.238,315.539,412.238z"/>
</g>
</svg>
