<?xml version="1.0" encoding="utf-8"?>
<!-- Generator: Adobe Illustrator 16.0.0, SVG Export Plug-In . SVG Version: 6.00 Build 0)  -->
<!DOCTYPE svg PUBLIC "-//W3C//DTD SVG 1.1//EN" "http://www.w3.org/Graphics/SVG/1.1/DTD/svg11.dtd">
<svg version="1.1" id="Layer_1" xmlns="http://www.w3.org/2000/svg" xmlns:xlink="http://www.w3.org/1999/xlink" x="0px" y="0px"
	 width="50.213px" height="40px" viewBox="0.079 0 50.213 40" enable-background="new 0.079 0 50.213 40" xml:space="preserve">
<rect x="-4113" y="-108" display="none" fill="#2B2B60" width="6858" height="2385"/>
<path fill="#7952B3" d="M10.508,0c-2.865,0-4.985,2.508-4.89,5.227c0.091,2.613-0.027,5.997-0.879,8.756
	c-0.855,2.768-2.3,4.521-4.66,4.746v2.541c2.36,0.226,3.805,1.979,4.66,4.746c0.852,2.76,0.97,6.144,0.879,8.756
	C5.523,37.492,7.644,40,10.509,40h29.357c2.865,0,4.985-2.508,4.89-5.228c-0.091-2.612,0.027-5.996,0.879-8.756
	c0.855-2.768,2.297-4.521,4.657-4.746v-2.541c-2.36-0.226-3.802-1.979-4.657-4.746c-0.852-2.759-0.97-6.144-0.879-8.756
	C44.852,2.508,42.731,0,39.866,0H10.508L10.508,0z M34.122,24.623c0,3.744-2.794,6.016-7.429,6.016h-7.891
	c-0.47,0-0.852-0.381-0.852-0.852l0,0V10.213c0-0.47,0.381-0.851,0.852-0.851h7.846c3.865,0,6.401,2.094,6.401,5.308
	c0,2.256-1.706,4.276-3.88,4.63v0.118C32.129,19.742,34.122,21.792,34.122,24.623L34.122,24.623z M25.833,12.06h-4.5v6.355h3.79
	c2.93,0,4.545-1.179,4.545-3.288C29.667,13.151,28.278,12.06,25.833,12.06L25.833,12.06z M21.333,20.937v7.003h4.665
	c3.051,0,4.666-1.224,4.666-3.523s-1.661-3.48-4.861-3.48L21.333,20.937L21.333,20.937z"/>
</svg>
