<?xml version="1.0" encoding="utf-8"?>
<!-- Generator: Adobe Illustrator 16.0.0, SVG Export Plug-In . SVG Version: 6.00 Build 0)  -->
<!DOCTYPE svg PUBLIC "-//W3C//DTD SVG 1.1//EN" "http://www.w3.org/Graphics/SVG/1.1/DTD/svg11.dtd">
<svg version="1.1" id="Layer_1" xmlns="http://www.w3.org/2000/svg" xmlns:xlink="http://www.w3.org/1999/xlink" x="0px" y="0px"
	 width="35.354px" height="40px" viewBox="0 0 35.354 40" enable-background="new 0 0 35.354 40" xml:space="preserve">
<rect x="-1836" y="-108" display="none" fill="#2B2B60" width="6858" height="2385"/>
<g>
	<path fill="#1B73BA" d="M3.089,35.863L0.154,0l35.045,0.072l-3.103,35.791L17.808,40L3.089,35.863z"/>
	<path fill="#1C88C7" d="M17.808,36.536V3.416l14.433,0.048l-2.574,29.633L17.808,36.536z"/>
	<path fill="#FFFFFF" d="M28.657,7.649H6.456l0.602,4.33h10.535l-10.367,4.45l0.602,4.185H23.1l-0.553,5.845l-5.172,1.011
		l-4.69-1.203l-0.36-3.319H8.019l0.577,6.903l9.236,2.574l8.852-2.814l1.131-13.494h-9.357l10.199-4.233V7.649z"/>
</g>
</svg>
