<?xml version="1.0" encoding="utf-8"?>
<!-- Generator: Adobe Illustrator 16.0.0, SVG Export Plug-In . SVG Version: 6.00 Build 0)  -->
<!DOCTYPE svg PUBLIC "-//W3C//DTD SVG 1.1//EN" "http://www.w3.org/Graphics/SVG/1.1/DTD/svg11.dtd">
<svg version="1.1" id="Layer_1" xmlns="http://www.w3.org/2000/svg" xmlns:xlink="http://www.w3.org/1999/xlink" x="0px" y="0px"
	 width="26.666px" height="40px" viewBox="0.159 0 26.666 40" enable-background="new 0.159 0 26.666 40" xml:space="preserve">
<rect x="-3222" y="-927" display="none" fill="#2B2B60" width="6858" height="2385"/>
<g>
	<path fill="#0ACF83" d="M6.825,40c3.681,0,6.667-2.986,6.667-6.668v-6.666H6.825c-3.68,0-6.666,2.986-6.666,6.666
		C0.159,37.014,3.146,40,6.825,40z"/>
	<path fill="#A259FF" d="M0.159,20c0-3.681,2.986-6.667,6.666-6.667h6.667v13.333H6.825C3.146,26.667,0.159,23.68,0.159,20z"/>
	<path fill="#F24E1E" d="M0.159,6.667C0.159,2.987,3.146,0,6.825,0h6.667v13.333H6.825C3.146,13.333,0.159,10.347,0.159,6.667z"/>
	<path fill="#FF7262" d="M13.492,0h6.666c3.681,0,6.667,2.987,6.667,6.667c0,3.68-2.986,6.667-6.667,6.667h-6.666V0z"/>
	<path fill="#1ABCFE" d="M26.825,20c0,3.68-2.986,6.666-6.667,6.666c-3.68,0-6.666-2.986-6.666-6.666
		c0-3.681,2.986-6.667,6.666-6.667C23.839,13.333,26.825,16.32,26.825,20z"/>
</g>
</svg>
