<?xml version="1.0" encoding="utf-8"?>
<!-- Generator: Adobe Illustrator 16.0.0, SVG Export Plug-In . SVG Version: 6.00 Build 0)  -->
<!DOCTYPE svg PUBLIC "-//W3C//DTD SVG 1.1//EN" "http://www.w3.org/Graphics/SVG/1.1/DTD/svg11.dtd">
<svg version="1.1" id="Layer_1" xmlns="http://www.w3.org/2000/svg" xmlns:xlink="http://www.w3.org/1999/xlink" x="0px" y="0px"
	 width="40.001px" height="40px" viewBox="0.003 0 40.001 40" enable-background="new 0.003 0 40.001 40" xml:space="preserve">
<rect x="-225" y="-927" display="none" fill="#2B2B60" width="6858" height="2385"/>
<path fill="#DE4C36" d="M39.25,18.218L21.786,0.754c-1.006-1.006-2.637-1.006-3.644,0l-3.626,3.627l4.601,4.601
	c1.069-0.361,2.296-0.119,3.148,0.733c0.855,0.857,1.096,2.094,0.727,3.167l4.434,4.434c1.072-0.37,2.311-0.13,3.168,0.728
	c1.197,1.197,1.197,3.136,0,4.333c-1.199,1.198-3.139,1.198-4.336,0c-0.9-0.901-1.123-2.224-0.668-3.333l-4.135-4.135V25.79
	c0.299,0.147,0.572,0.344,0.811,0.579c1.197,1.197,1.197,3.137,0,4.336c-1.197,1.197-3.139,1.197-4.335,0
	c-1.197-1.199-1.197-3.139,0-4.336c0.287-0.287,0.628-0.515,1.003-0.669V14.719c-0.376-0.154-0.717-0.381-1.003-0.669
	c-0.907-0.906-1.125-2.237-0.661-3.351l-4.535-4.536L0.758,18.138c-1.006,1.007-1.006,2.638,0,3.644l17.465,17.464
	c1.006,1.006,2.637,1.006,3.645,0L39.25,21.862C40.256,20.856,40.256,19.224,39.25,18.218"/>
</svg>
