<?xml version="1.0" encoding="utf-8"?>
<!-- Generator: Adobe Illustrator 16.0.0, SVG Export Plug-In . SVG Version: 6.00 Build 0)  -->
<!DOCTYPE svg PUBLIC "-//W3C//DTD SVG 1.1//EN" "http://www.w3.org/Graphics/SVG/1.1/DTD/svg11.dtd">
<svg version="1.1" id="Layer_1" xmlns="http://www.w3.org/2000/svg" xmlns:xlink="http://www.w3.org/1999/xlink" x="0px" y="0px"
	 width="43.422px" height="40px" viewBox="0 0 43.422 40" enable-background="new 0 0 43.422 40" xml:space="preserve">
<rect x="-225" y="-927" display="none" fill="#2B2B60" width="6858" height="2385"/>
<g>
	<path fill="#E24329" d="M21.711,40l7.997-24.607H13.716L21.711,40L21.711,40z"/>
	<path fill="#FC6D26" d="M21.711,40l-7.995-24.607H2.51L21.711,40z"/>
	<path fill="#FCA326" d="M2.51,15.393l-2.43,7.479c-0.221,0.683,0.021,1.429,0.602,1.851L21.711,40L2.51,15.393L2.51,15.393z"/>
	<path fill="#E24329" d="M2.51,15.393h11.206L8.901,0.572c-0.248-0.763-1.326-0.763-1.574,0L2.51,15.393L2.51,15.393z"/>
	<path fill="#FC6D26" d="M21.711,40l7.997-24.607h11.205L21.711,40L21.711,40z"/>
	<path fill="#FCA326" d="M40.913,15.393l2.43,7.479c0.222,0.683-0.021,1.429-0.602,1.851L21.711,40L40.913,15.393L40.913,15.393z"/>
	<path fill="#E24329" d="M40.913,15.393H29.708l4.814-14.82c0.248-0.763,1.328-0.763,1.574,0L40.913,15.393L40.913,15.393z"/>
</g>
</svg>
