<?xml version="1.0" encoding="utf-8"?>
<!-- Generator: Adobe Illustrator 16.0.0, SVG Export Plug-In . SVG Version: 6.00 Build 0)  -->
<!DOCTYPE svg PUBLIC "-//W3C//DTD SVG 1.1//EN" "http://www.w3.org/Graphics/SVG/1.1/DTD/svg11.dtd">
<svg version="1.1" id="Layer_1" xmlns="http://www.w3.org/2000/svg" xmlns:xlink="http://www.w3.org/1999/xlink" x="0px" y="0px"
	 width="34.508px" height="39.999px" viewBox="-0.249 0 34.508 39.999" enable-background="new -0.249 0 34.508 39.999"
	 xml:space="preserve">
<rect x="-963" y="-927" display="none" fill="#2B2B60" width="6858" height="2385"/>
<g>
	<path fill="#010101" d="M5.165,17.486c-1.168,0.549-4.258,3.022-4.854,3.754c-0.618,0.732-0.801-0.412-0.16-2.313
		c0.504-1.534,1.785-3.617,3.938-5.403c1.26-1.03,4.029-2.518,5.724-3.388c0.344-0.184,4.785-2.061,8.746-2.999
		c0.343-0.092-0.412,0.572-0.526,0.938C17.437,9.816,5.554,17.28,5.554,17.28L5.165,17.486z M21.901,38.479
		c0.205,1.236,0.022,1.328-1.26,1.488s-2.221-0.32-2.564-0.641c-0.343-0.32-0.412-1.03-0.068-1.672
		c0.206-0.412,0.412-0.549,0.527-1.053c0.113-0.48,0.205-0.596,0.297-0.778c0.092-0.16,0.115-0.32,0.138-1.442s0-3.229,0.114-4.121
		c0.115-0.916,4.075,0.412,4.075,0.412s-0.938,2.335-1.19,2.908c-0.252,0.572-0.229,1.671-0.229,1.899
		c0,0.229-0.092,0.687-0.16,0.71c-0.069,0.022,0.229,0.618,0.091,0.962C21.581,37.473,21.878,38.297,21.901,38.479L21.901,38.479z
		 M23.412,3.475c-0.138-0.87,0-2.587,0.183-2.862c0.572-0.778,3.595-0.87,4.236,0.046c0.274,0.412,0.252,1.374,0.205,1.992
		c-0.045,0.618-0.205,1.946-0.229,2.381c-0.022,0.32-3.342,0.824-4.075-0.046C23.526,4.756,23.412,3.475,23.412,3.475L23.412,3.475z
		 M30.144,36.259c1.396,1.008,2.472,1.191,3.182,1.557c0.71,0.367,0.526,1.076-0.664,1.283c-0.961,0.183-2.473-0.184-3.479-0.184
		c-1.008,0-3.251,0.114-3.847-0.298c-0.687-0.48-0.389-1.374-0.389-1.374c0.183-0.503,0.641-1.625,0.503-2.541
		s-0.32-1.419-0.663-2.267c-0.344-0.847-0.596-2.93-0.275-3.045c0.32-0.114,0.229,0,0.641,0.092s0.871,0.229,1.764,0.229
		s1.877-0.137,2.221-0.206c0.344-0.068,0.618-0.137,0.504,0.572c-0.115,0.71-0.458,2.038-0.481,3.068
		c-0.022,1.03-0.022,2.221,0.046,2.427S29.776,36.007,30.144,36.259L30.144,36.259z"/>
	<path fill="#8AC640" d="M25.243,5.764c-2.518,2.175-7.395,2.771-14.629,5.563c-1.854,0.71-6.8,2.839-7.99,5.06
		c4.006-2.312,5.494,0.87,5.814,4.144c0.298,3.068,1.832,4.671,5.77,4.579c4.053-0.091,5.289,2.267,6.411,5.037
		c2.175-10.601,5.655-12.661,7.898-14.469C33.279,11.808,27.419,4.985,25.243,5.764L25.243,5.764z"/>
	<path fill="#8AC640" d="M25.243,5.764c-6.044,2.106-12.02,2.633-19.048,6.96c-1.671,1.03-5.196,3.365-5.884,7.83
		c2.564-2.839,8.494-6.41,15.752-8.677c3.662-1.145,6.342-1.9,9.592-3.16C25.427,7.252,25.427,6.68,25.243,5.764L25.243,5.764z"/>
	<path fill="#010101" d="M32.959,18.31c0,0-0.436,1.488-1.306,1.969c0,0-0.641,0.229-1.922-0.481
		c-0.367-0.206-0.642-0.915-0.619-1.145c0.023-0.549,0.367-0.801,0.367-0.801s0.366-0.618,0.801-0.595
		c0.436,0.023,1.168,0.092,1.396-0.114C31.883,16.913,33.005,17.554,32.959,18.31L32.959,18.31z M23.618,3.909
		c0,0-0.092,1.168-0.252,1.9c-0.023,0.138-0.71,0.206-1.213,0.412c0.961,2.747,6.754,2.725,7.509,1.374
		c-0.366-0.251-1.099-0.641-1.442-0.778s-0.32-0.114-0.344-0.755c-0.022-0.641-0.068-1.832-0.114-2.152
		C27.716,3.589,24.167,3.589,23.618,3.909L23.618,3.909z"/>
	<path fill="#F0EFEF" d="M23.847,3.909c0,0,0,0.664-0.068,1.305c-0.023,0.297-0.046,0.481-0.092,0.709
		c-0.022,0.138,0.779,0.687,1.008,1.9c1.099,2.45,3.641,1.236,4.693,0.069c-0.366-0.252-0.962-0.595-1.648-0.87
		c-0.344-0.137-0.184-0.435-0.206-1.076s-0.114-1.58-0.16-1.923S24.396,3.589,23.847,3.909L23.847,3.909z"/>
	<g>
		<path fill="#010101" d="M23.618,3.909c0,0-0.023,0.412-0.092,0.893c0.298,0.297,0.688,0.709,0.984,0.961
			c0.206,0.184,0.71,0.16,1.168,0.16c0.412,0,0.778,0.046,0.938-0.045c0.366-0.183,0.894-0.641,1.19-0.985
			c-0.022-0.412-0.045-0.801-0.068-0.984C27.716,3.589,24.167,3.589,23.618,3.909z"/>
		<path fill="#010101" d="M25.702,5.649c-0.275,0-0.596-0.023-0.848-0.069c-0.115-0.023-0.229-0.091-0.32-0.137
			c-0.16-0.115-0.321-0.252-0.504-0.39c-0.366-0.274-0.389-0.435-0.389-0.503c0.16-1.442-0.047-2.656-0.047-2.656
			s-0.16-0.618,0.71-0.778s1.396-0.183,1.396-0.183s0.55,0,1.396,0.183c0.87,0.16,0.71,0.778,0.71,0.778s-0.206,1.213-0.046,2.656
			c0,0.069-0.022,0.229-0.39,0.503c-0.32,0.229-0.572,0.481-0.823,0.527C26.297,5.626,25.976,5.649,25.702,5.649z"/>
		<path fill="#010101" d="M25.702,0.338c-1.512,0-1.81,0.412-2.244,0.87c-0.092,0.114-0.023,0.801,0.137,2.267h0.207
			c0,0-0.138-0.413-0.115-0.893c0.023-0.481,0.115-0.458,0.046-0.573c-0.091-0.137-0.274-0.366,0.138-0.595
			c0.412-0.229,1.053,0.183,1.832,0.206c0.777-0.023,1.441-0.436,1.854-0.206c0.412,0.229,0.229,0.458,0.138,0.595
			c-0.092,0.138,0.022,0.092,0.046,0.573c0.022,0.48-0.115,0.893-0.115,0.893h0.207c0.137-1.466,0.229-2.106,0.16-2.221
			C27.602,0.75,27.212,0.36,25.702,0.338z M32.959,18.379c0,0-0.436,1.396-1.282,1.877c-0.184-0.092-0.16-0.229-0.32-0.435
			c-0.046-0.069-0.206-0.115-0.275-0.184c-0.068-0.068-0.045-0.184-0.16-0.274c-0.092-0.092-0.16-0.023-0.252-0.092
			c-0.091-0.092-0.114-0.206-0.183-0.274c-0.046-0.046-0.229-0.068-0.274-0.115c-0.115-0.114-1.122-0.32-1.076-0.549
			c0.092-0.344,0.274-0.596,0.274-0.596s0.435-0.641,0.87-0.618c0.436,0.023,0.848,0.115,1.076-0.091
			C31.608,16.799,33.027,17.646,32.959,18.379L32.959,18.379z"/>
		<path fill="#010101" d="M29.982,8.259c0,0,1.442-0.343,2.427,0.595c0.985,0.962,0.916,2.152,0.618,2.885
			c0.252,0.298,0.71,1.122,0.367,2.106c1.511,1.282,0.847,3.251-0.504,4.556c0,0-0.32-1.19-1.603-1.259
			c0.045-0.458-1.191-0.824-0.619-2.015c-0.869-0.206-0.847-0.801-0.984-1.534C29.571,12.861,29.982,8.259,29.982,8.259
			L29.982,8.259z"/>
	</g>
	<path fill="#F0EFEF" d="M29.456,8.9c0,0,1.672-0.847,2.656,0.114c0.984,0.962,0.709,2.015,0.411,2.748
		c0.252,0.297,0.848,1.145,0.481,2.152c-0.069,0.229-0.572,0.229-0.938,0.824c0.915-0.526,1.487-0.389,1.693,0.275
		c0.321,1.03-0.389,2.266-1.007,2.953c0-0.023-0.023-0.046-0.023-0.069c-0.091,0.344-0.206,1.008-0.893,1.74
		c-0.344,0.366-0.618,0.32-1.008,0.229c-0.457-0.114-0.617-0.32-1.259-0.663c-0.366-0.206-0.16-0.458-0.16-0.664
		c0-0.046,0.046-0.115,0.114-0.206c0.046-0.115,0.184-0.298,0.39-0.504c0,0,0.298-0.412,0.732-0.389s0.894-0.069,1.007-0.183
		c0-0.801-0.915-0.824-0.595-2.198c0.022-0.068,0.138-0.183,0.504-0.229c-0.55-0.115-0.802-0.138-1.19-0.504
		c-0.275-0.252-0.48-0.572-0.55-0.984C29.685,12.632,29.456,8.9,29.456,8.9z"/>
	<path fill="#010101" d="M24.626,7.458c-0.138-0.183-0.848-1.099-2.198-1.465c-0.39-0.115-0.642,0.206-1.03,0.435
		c-0.115-0.068-0.618-0.298-0.893-0.138c-0.275,0.16-0.458,0.321-0.732,0.436c-0.139-0.069-0.504-0.069-0.802,0.045
		c-0.298,0.092-0.756,0.298-1.19,0.893c-0.275,0.984,4.854,0.252,4.854,0.252L24.626,7.458z"/>
	<path fill="#8AC640" d="M24.671,7.458c-0.732-0.252-0.618-1.099-2.243-1.236c-0.321-0.023-0.526,0.229-0.756,0.389
		c0.114,0.115,0.229,0.297,0.298,0.481c-0.206-0.229-0.572-0.527-0.939-0.596c-0.343-0.068-0.572,0.184-0.938,0.367
		c0.068,0.068,0.137,0.183,0.229,0.321c-0.32-0.206-0.55-0.275-0.984-0.115c-0.298,0.091-0.87,0.343-1.305,0.961
		c-0.275,0.984,4.624-0.114,4.624-0.114L24.671,7.458z"/>
	<path fill="#010101" d="M28.976,7.824c0,0,0-0.252-0.023-0.48c0-0.046-0.183-0.16-0.183-0.206l-0.046-0.046
		c0,0,0.366-0.206,0.641-0.092c0.298,0.092,0.458,0.481,0.458,0.481c0.526-0.183,0.572,0.023,0.824,0.297
		c0.55-0.114,0.618,0.092,0.962,0.596c0,0-0.412-0.069-1.213,0.068C29.616,8.557,28.976,7.801,28.976,7.824L28.976,7.824z"/>
	<path fill="#8AC640" d="M28.884,7.71c0,0,0.137-0.115,0.092-0.138c0.252-0.137,0.595-0.297,0.756,0.138
		c0.525-0.184,0.595,0.068,0.847,0.343c0.641-0.297,0.687,0.069,0.732,0.229c-0.206,0-0.504,0.023-0.916,0.068
		C29.616,8.465,28.86,7.687,28.884,7.71z"/>
	<path fill="#010101" d="M21.1,7.138c0,0,1.306,0.458,2.404,0.389c1.099-0.091,2.976-0.183,3.983,0.412c0,0,1.03-0.366,1.992-0.114
		c0.961,0.252,2.724,1.9,2.197,3.64c-0.046,0.115-0.344,0.298-0.687,0.412c0,0,0.183,0.778-0.138,1.419
		c-0.32,0.618-1.03,1.809-1.053,3.457c-0.023,0.275-0.068,0.847-0.115,1.122c-1.785-0.069-4.532-0.733-7.234-0.687
		c0.023-0.297,0.046-0.481,0.068-0.778h0.069c-0.138-0.755-0.183-1.145-0.321-1.717c-0.869-0.549-1.785-1.19-2.563-2.404
		C18.947,11.075,21.1,7.138,21.1,7.138L21.1,7.138z M29.937,19.501c0,0,1.42,5.082-0.252,7.211c0,0,0.252,0.984-0.32,2.038
		c-0.092,0.458-0.206,0.87-0.274,1.327c-0.298,1.9-0.802,2.702-0.938,5.747l-1.374-0.022c0,0-0.16-2.198-0.642-3.366
		c-0.273-0.663-1.35-1.557-1.305-2.449c0.046-0.687,0.184-1.26,1.352-2.175c0.092-1.328-1.236-2.588-1.03-7.533L29.937,19.501z"/>
	<path fill="#F0EFEF" d="M29.524,19.294c0.367,2.336,1.214,5.793-0.32,7.486c0.091,0.43,0.099,0.873,0.023,1.306
		c-0.046,0.274-0.138,0.572-0.252,0.893c-0.229,0.55-0.32,1.351-0.39,1.831c-0.298,1.9-0.298,1.992-0.435,5.037l-1.374-0.022
		c0,0-0.16-2.198-0.642-3.365c-0.273-0.664-0.847-1.236-0.893-2.13c-0.045-0.687,0.436-2.061,1.58-2.015
		c-0.068-2.77-1.351-2.221-1.694-7.99L29.524,19.294z M21.1,7.138c0,0,0.504,0.16,1.054,0.206c0.549,0.045,1.145,0,1.671-0.023
		c1.099-0.091,2.655-0.206,3.687,0.39c0,0,0.572-0.184,1.189-0.138c0.275,0.023,0.55,0.252,0.871,0.344
		c1.007,0.251,1.969,1.923,1.533,3.434c-0.046,0.114-0.366,0-0.732,0.114c0.068,0.321,0.114,1.053-0.252,1.832
		c-0.389,0.779-0.893,1.786-0.802,3.709c-2.403-0.114-3.479-0.274-5.86-0.389c-0.207-0.847-0.344-1.694-0.367-2.129
		c0.321-0.16,0.504-0.297,0.756-0.572c-0.687,0.115-0.961,0.069-1.373-0.16s-1.145-0.961-1.512-1.442
		c-0.045-0.046-0.297,0.71-0.869,0.733c-0.207-0.298,0.663-1.145,0.503-1.465C20.023,10.411,21.1,7.138,21.1,7.138L21.1,7.138z"/>
	<path fill="#010101" d="M29.708,17.394c0,0,0.046,0.824,0.046,1.03c0,0.229,0.183,0.916,0.206,1.237
		c-0.252,0.435-1.352,1.419-3.343,1.785c-1.969,0.412-4.579-2.679-4.579-2.679c0.068-0.297,0.298-1.167,0.458-1.625
		c0.022-0.046,0.069-0.161,0.069-0.206C22.771,16.639,29.708,17.394,29.708,17.394z"/>
	<path fill="#F0EFEF" d="M29.204,17.463c0,0.572,0.092,0.984,0.16,1.351c0.115,0.664,0.298,1.1,0.298,1.534
		c0,1.328-1.74,1.099-3.205,1.145c-1.97,0.412-3.641-2.679-3.641-2.679c0.138-0.526,0.229-1.122,0.435-1.625
		c0.023-0.274,0.069-0.618,0.092-0.778c2.793,0,4.762,0.161,5.907,0.275C29.296,16.937,29.25,17.371,29.204,17.463L29.204,17.463z"
		/>
	<path fill="#010101" d="M27.007,20.416c0,0-1.214-2.701-4.854-1.9c-0.871,2.45-2.038,5.266-1.283,8.311
		c-0.755,1.029-1.625,1.603-1.625,3.502c0,1.9,0.092,2.221,0.092,2.221l2.678,0.138c0,0,0.871-1.121,1.214-2.335
		c0.092-0.344,0.184-0.962,0.114-1.671c0.092-0.138,0.481-0.458,0.527-1.076c0,0,1.305-0.687,2.061-2.358
		C26.64,23.736,26.457,22.431,27.007,20.416L27.007,20.416z"/>
	<path fill="#F0EFEF" d="M27.007,20.416c-0.069-0.252-0.984-2.724-4.373-1.992c-1.992,5.312-1.26,7.509-0.962,8.471
		c-1.351,1.717-1.969,2.083-1.694,5.563h1.786c0.824-1.306,1.007-1.786,1.054-3.503c0-0.069-0.252,0.137-0.436,0.366
		c0.137-0.71,0.526-0.847,0.824-1.282c0.137-0.184,0.252-0.458,0.252-0.824c1.603-1.076,2.197-2.427,2.541-3.823
		C26.274,22.431,26.595,20.852,27.007,20.416L27.007,20.416z"/>
	<g>
		<path fill="#010101" d="M21.352,16.73c0,0,0.618,0.022,1.167,0.206c0.527,0.183,0.527,0.297,0.733,0.526s0.71,0.572,0.618,0.916
			c-0.046,0.183-0.16,0.229-0.32,0.389c-0.068,0.069-0.572,0.618-0.688,0.687c-0.068,0.046-0.16,0.115-0.229,0.161l-0.344,0.229
			c-0.229,0.114-0.389,0.184-0.641,0.16c0,0-0.572-0.022-0.939-0.412c0,0-0.045-0.183,0.047-0.274c0,0-0.481-0.412-0.619-0.687
			c-0.137-0.274-0.137-0.664-0.045-0.87C20.138,17.554,21.03,16.982,21.352,16.73L21.352,16.73z M21.924,39.007l-0.068,0.572
			c0,0-0.206,0.252-1.74,0.229c-1.557-0.022-1.969-0.503-2.106-0.755l-0.092-0.596c0,0,0.299-0.435,0.367-0.435
			c0.504,0.045,2.221,0.732,3.411,0.915C21.81,38.938,21.832,38.983,21.924,39.007L21.924,39.007z M25.243,37.839
			c0,0.252-0.022,0.252-0.022,0.504c0.274,0.206,0.962,0.32,2.267,0.297c1.9-0.045,3.663,0.573,5.815,0.206l0.022-0.411
			l-0.206-0.023l-7.624-0.618L25.243,37.839z"/>
		<path fill="#010101" d="M26.915,38.641h0.572c1.236-0.046,2.404,0.229,3.663,0.297c0.664-0.022,1.488-0.183,1.42-0.663
			l-6.503-0.55C25.679,38.159,25.976,38.525,26.915,38.641L26.915,38.641z M19.451,29.002c0.206,0.137,1.603,0.961,3.869,0.847
			c-0.046,0.436-0.022,1.282-1.03,2.771c-0.504,0.732-0.938,2.015-1.03,3.64c0.022,0.367,0.229,0.688-0.046,1.168
			c0.092,0.298,0.458,0.893,0.641,1.259c0.184,0.367,0.275,0.779-0.938,0.802c-1.236,0.022-3.229-0.114-2.954-1.076
			c0.138-0.504,0.526-1.03,0.573-1.236c0.045-0.206,0.045-0.824,0.434-1.236c0.344-1.145,0.229-2.243,0.161-3.273
			C19.017,31.589,18.993,29.872,19.451,29.002L19.451,29.002z M21.581,10.343c1.625-2.175,0.251-3.915-2.358-3.389
			c-1.054,0.206-2.106,0.939-2.175,2.267c-0.344,0.046-1.122,0.092-1.512,1.511c-0.297,1.099-0.457,1.305-0.984,1.854
			c-0.344,0.39,0.023,1.191,0.275,1.763c0.847,1.969,3.457,2.152,5.219,3.64c0.596-0.16,1.214-0.824,1.397-1.259
			c-1.488-1.763-1.168-2.45-1.763-3.366C20.321,13.136,21.786,12.243,21.581,10.343L21.581,10.343z"/>
	</g>
	<path fill="#F0EFEF" d="M21.26,10.205c0.092-0.137,0.252-0.435,0.321-0.549c0.022-0.023,0.273,0.412,0.297,0.389
		c0.618-1.007,0.778-2.473,0.068-2.61c-0.16-0.023-0.457-0.091-0.709-0.183c-0.458-0.161-0.87-0.161-1.604-0.023
		c-1.007,0.183-2.014,0.916-2.014,1.969c0,0.069,0.709,0.275,0.915,1.122c-0.343-0.481-0.938-1.007-1.648-0.549
		c-0.755,0.48-0.366,1.579-1.374,2.724c-0.343,0.389-0.297,0.847,0.069,1.763c0.595,1.442,3.411,2.221,4.945,3.595
		c0.366-0.161,0.618-0.527,0.802-0.801c-1.031-1.076-1.443-2.083-1.74-2.816c-0.367-0.847-0.779-1.328-1.58-1.969
		c0.412,0.16,0.732,0.32,0.916,0.458c0.205,0.137,0.504,0.16,0.778,0.068C20.688,12.449,21.214,11.075,21.26,10.205L21.26,10.205z"
		/>
	<path fill="#010101" d="M31.219,10.572c-0.068,0.87-0.71,0.435-1.053,0.274c-0.687-0.297-1.374-0.503-2.175-0.503
		c-0.802,0-1.832,0.068-2.725,0.297c-1.236,0.343-1.603,0.321-2.152,0.046c-0.549-0.297-1.511-1.03-1.511-1.03
		s-0.022,0.229,0.206,0.527c0.297,0.366,0.961,0.824,1.854,1.122c0.435,0.137,0.778,0.045,1.167-0.046
		c2.038-0.503,4.19-0.595,5.999,0.504c0.091,0.045,0.412-0.092,0.55-0.298C31.563,11.167,31.219,10.572,31.219,10.572z"/>
	<path fill="#0A1825" d="M20.802,19.294c0.184,0.115,0.412,0.184,0.664,0.39c0,0-0.206,0-0.297-0.092
		C21.054,19.523,20.825,19.317,20.802,19.294z"/>
	<path fill="#F0EFEF" d="M27.419,1.139c-0.069-0.206-0.572-0.573-1.74-0.573c-1.26,0-1.626,0.39-1.648,0.596
		c0,0.068-0.092,0.801-0.115,1.099c0,0,0,0.366,0.023,0.916c0.023,0.366,0.114,0.572,0.16,1.053
		c0.046,0.504,0.184,0.824,0.436,1.236c0.114,0.069,0.205,0.138,0.32,0.161c0.458,0.091,1.259,0.114,1.694,0
		c0.251-0.069,0.572-0.504,0.641-0.893c0.092-0.48,0.183-0.824,0.206-1.122c0.046-0.297,0.068-0.961,0.092-1.145
		C27.556,1.963,27.441,1.185,27.419,1.139z"/>
	<path fill="#010101" d="M25.015,29.437c0,0,1.213,0.526,4.213,0.068c0,0-0.848,4.259-0.458,6.388c0,0,0.39,0.55,3.273,1.603
		c0,0,1.282,0.32,1.236,0.962c0,0,0.046,0.138-1.511,0.092s-3.021-0.321-4.053-0.321c-1.029,0-2.129,0.046-2.313-0.251
		c-0.205-0.275,0.047-0.985,0.344-1.397c0.32-0.435,0.229-0.755,0.207-1.533C25.885,33.008,24.327,30.901,25.015,29.437
		L25.015,29.437z"/>
	<path fill="#8AC640" d="M24.763,29.826c-0.16,0.229,0.023,1.099,0.252,1.945c0.229,0.848,0.732,1.352,0.848,2.748
		c0.113,1.373,0.137,1.557-0.252,2.357c-0.39,0.802-0.504,1.534,0.847,1.558c1.351,0.022,2.083-0.023,3.457,0.183
		s1.854,0.274,2.609,0.16c0.756-0.114,0.916-0.366,0.596-0.595c-0.32-0.229-1.648-0.481-2.221-0.939
		c-0.55-0.412-2.106-1.099-2.129-1.281c-0.069-0.619-0.092-2.862,0.022-3.595c0.115-0.733,0.275-1.786,0.32-2.061
		c0.047-0.274,0.275-0.55-0.114-0.458s-1.854,0.298-2.953,0.229C24.946,30.009,24.831,29.757,24.763,29.826L24.763,29.826z"/>
	<path opacity="0.3" fill="#010101" enable-background="new    " d="M25.541,36.9c0.39,0.183,0.962,0.32,1.396,0.32
		c0,0-0.16,0.756,0.092,1.214c0.252,0.457-1.831,0.183-1.831,0.183l-0.092-1.625L25.541,36.9z M31.608,38.869
		c0.366-0.114,0.618-0.526,0.32-0.916c-0.32-0.389-0.596-0.458-0.184-0.48c0.413-0.022,1.924,0.893,1.924,0.893l-0.778,0.71
		L31.608,38.869z M24.694,30.719c0.526,0.183,1.328,0.229,2.015,0.206c0.687-0.023,1.717-0.114,2.381-0.344
		c0.664-0.229,0.39,0.252,0.39,0.252l-0.367,0.344c0,0-0.869,0.344-2.289,0.32c-1.671-0.022-2.175-0.206-2.175-0.206L24.694,30.719z
		 M24.739,31.863c0.527,0.184,1.328,0.229,2.016,0.206c0.687-0.022,1.603-0.022,2.266-0.274c0.275-0.092,0.115,0.298,0.115,0.298
		l-0.115,0.206c0,0-0.893,0.32-2.289,0.297c-1.671-0.022-1.969-0.16-1.969-0.16L24.739,31.863z"/>
	<path fill="none" d="M25.015,29.437c0,0,1.992,0.71,4.235,0.229c0,0-0.87,4.098-0.48,6.204c0,0,0.39,0.549,3.273,1.603
		c0,0,1.282,0.32,1.236,0.962c0,0,0.046,0.137-1.511,0.091s-3.021-0.32-4.053-0.32c-1.029,0-2.129,0.046-2.313-0.252
		c-0.205-0.274,0.047-0.984,0.344-1.396c0.32-0.435,0.229-0.756,0.207-1.534C25.885,33.008,24.327,30.901,25.015,29.437
		L25.015,29.437z"/>
	<path fill="none" d="M25.015,29.437c0,0,1.992,0.687,4.235,0.206c0,0-0.87,4.121-0.48,6.228c0,0,0.39,0.549,3.273,1.603
		c0,0,1.282,0.32,1.236,0.962c0,0,0.046,0.137-1.511,0.091s-3.045-0.48-4.053-0.32c-1.076,0.184-2.129,0.114-2.313-0.252
		c-0.16-0.298,0.047-0.984,0.344-1.396c0.32-0.435,0.229-0.756,0.207-1.534C25.885,33.008,24.327,30.901,25.015,29.437
		L25.015,29.437z"/>
	<path fill="#010101" d="M23.229,15.814c0,0.16,1.786,1.053,2.771,1.236s3.045,0,3.365-0.068l-0.046,0.32
		c0,0-2.449,0.366-4.327-0.137c-1.877-0.504-1.671-0.619-1.671-0.619L23.229,15.814z"/>
	<path fill="#F0EFEF" d="M19.405,35.344c0.275,0.137,1.26,0.389,1.9,0.252c0.092-0.023,0-1.58,0.252-2.29
		c0.366-0.984,0.961-1.785,1.236-3.525c-0.962-0.092-2.061-0.344-2.633-0.527C19.429,31.497,19.681,33.42,19.405,35.344z
		 M20.939,36.786c0.16,0.045,0.274,0.229,0.32,0.114c0.092-0.206-0.16-0.596-0.183-0.87v-0.022
		c-0.207-0.184-1.604-0.206-1.512-0.115c-0.16,0.298-0.412,0.252-0.503,0.848c-0.046,0.298,0.32,0.046,0.663,0.022
		c-0.617,0.412-1.327,0.939-1.441,1.396c-0.138,0.642,0.092,0.824,0.778,1.168c0.595,0.138,1.305,0.16,1.854,0.138
		c0.617-0.115,0.732-0.412,0.549-0.824C21.191,38.022,21.008,37.221,20.939,36.786L20.939,36.786z"/>
	<path fill="#010101" d="M21.191,7.046C21.946,7.481,23,7.366,23.39,7.344c0.091,0,1.007-0.161,1.053-0.138
		c0.092,0.023,0.092,0.092,0.092,0.092S24.19,7.48,23.412,7.526c-0.733,0.046-1.603,0-2.083-0.229
		C20.757,7.046,21.191,7.046,21.191,7.046L21.191,7.046z M28.976,7.481c0.137,0.091,1.03,0.435,1.42,0.847
		c0.343,0.366,0.16,0.343,0.091,0.252c-0.091-0.115-0.802-0.596-1.076-0.71s-0.618-0.32-0.618-0.366S28.976,7.481,28.976,7.481
		L28.976,7.481z"/>
	<path fill="#F0EFEF" d="M21.077,16.982c0.664-0.045,1.351,0.115,1.785,0.572c0.229,0.229,0.596,0.481,0.55,0.71
		c0,0.069-0.138,0.252-0.252,0.389c-0.068,0.091-0.274,0.298-0.343,0.366c-0.092,0.068-0.412,0.32-0.481,0.366
		c-0.068,0.046-0.16,0.16-0.229,0.184c-0.229,0.114-0.48,0.022-0.709-0.092s0.046-0.138-0.206-0.32
		c-0.618-0.435-0.962-0.733-0.71-1.58C20.505,17.417,20.757,17.234,21.077,16.982L21.077,16.982z"/>
	<path opacity="0.4" fill="#010101" enable-background="new    " d="M15.239,11.739c-2.061,0.824-7.304,3.434-8.792,4.235
		c1.236,0.778,1.809,2.656,1.991,4.556c0.023,0.184,0.047,0.344,0.069,0.527c0.022,0.16,0.046,0.274,0.068,0.344
		c0,0.022,0,0.068,0.022,0.091c1.352-3.686,6.182-7.578,6.365-7.875c0.092-0.137-0.114-0.733,0.206-1.305
		C15.582,11.579,16.384,11.258,15.239,11.739L15.239,11.739z M20.138,29.024c1.054-2.106,1.076-4.121,1.054-6.479
		c0-0.985,0.71-2.382,0.343-1.992c-1.373,1.533-4.83,4.418-7.326,4.579C17.712,25.018,19.085,26.781,20.138,29.024z"/>
	<path fill="#010101" d="M4.433,17.921c1.305-0.939,8.059-4.533,9.684-5.037c1.626-0.526,1.123-1.145,1.123-1.145
		s-6.594,2.839-10.532,5.289"/>
	<path opacity="0.4" fill="#010101" enable-background="new    " d="M23.664,11.304c-0.526-0.206-0.938,0.412-0.802,1.007
		c0.138,0.596,1.374,1.259,1.305,3.435c-0.045,1.786-0.435,2.518-0.435,2.518l-0.87-1.099c0,0-0.137-2.473-0.435-2.839
		s-1.236-1.03-1.603-1.374c-0.367-0.343,0.412-0.801,0.366-1.442c-0.046-0.618,0.39-1.854,0.39-1.854L23.664,11.304z M26.847,21.058
		c-0.047,1.717,0.343,4.258,0.503,5.472c0.161,1.213,0.366,1.305,0,1.854c-0.366,0.526-0.847,1.396-0.847,1.396l-1.58-0.138
		c0,0,1.26-1.603,1.328-1.9c0.068-0.297-0.641-2.563-0.641-2.563L26.847,21.058z M23.802,5.031c0.32,0.709,0.709,1.03,1.327,1.236
		c0.366,0.137,1.809,0.32,2.382-0.321c0.251-0.297,0.091-1.099,0.091-1.099l-1.305,1.053l-1.763-0.32l-0.207-0.527L23.802,5.031z"/>
	<path fill="#8AC640" stroke="#010101" stroke-width="1.586" stroke-linejoin="round" stroke-miterlimit="10" d="M23.938,6.611
		C24.534,7,26.022,7.366,26.435,7.435C26.847,7.526,27.51,7,27.831,6.863c0.343-0.16,0.938-0.252,1.625,0.366
		c0.068,0.069-0.16,0.366-0.16,0.366c-0.023-0.023-0.16-0.023-0.344-0.114c-0.184-0.092-0.344-0.161-0.618-0.137
		c-1.145,0.137-1.327,0.526-2.335,0.297s-1.26-0.412-2.244-0.367"/>
	<path fill="#8AC640" d="M23.732,6.68c0.756,0.32,2.221,0.664,2.633,0.755c0.412,0.092,1.076-0.321,1.396-0.527
		c0.573-0.366,1.306-0.068,1.648,0.321c0.229,0.252,0.321,0.412,0.321,0.481c0,0.091-0.275,0-0.275,0
		c-0.16-0.069-0.344-0.092-0.48-0.184c-0.184-0.091-0.367-0.229-0.641-0.206c-1.146,0.138-1.374,0.527-2.358,0.298
		s-1.236-0.435-2.29-0.366"/>
	<path fill="#010101" d="M20.184,28.063c-0.046-0.046,0.046-0.091,0-0.091c-0.298,0-0.71-0.229-0.938-0.55
		c-0.984-1.419-2.427-2.358-5.037-2.289c-3.914,0.091-5.472-1.511-5.77-4.579c-0.16-1.672-0.617-3.297-1.557-4.213l-0.549,0.344
		c1.053,0.916,1.396,2.404,1.625,4.441c0.366,3.068,2.839,4.487,5.724,4.533c2.999,0.046,4.075,0.664,5.197,2.175
		c0.366,0.481,0.778,0.642,1.099,0.71L20.184,28.063z"/>
	<path opacity="0.4" fill="#010101" enable-background="new    " d="M30.807,13.342c0.069,0.343,0.252,1.007,0.618,1.328
		c0.16,0.161,0.184,0.206,0.046,0.206s-1.145-0.045-1.145-0.045l-0.274-0.481L30.807,13.342z"/>
</g>
</svg>
