<?xml version="1.0" encoding="utf-8"?>
<!-- Generator: Adobe Illustrator 16.0.0, SVG Export Plug-In . SVG Version: 6.00 Build 0)  -->
<!DOCTYPE svg PUBLIC "-//W3C//DTD SVG 1.1//EN" "http://www.w3.org/Graphics/SVG/1.1/DTD/svg11.dtd">
<svg version="1.1" id="Layer_1" xmlns="http://www.w3.org/2000/svg" xmlns:xlink="http://www.w3.org/1999/xlink" x="0px" y="0px"
	 width="41.025px" height="40px" viewBox="285.487 376 41.025 40" enable-background="new 285.487 376 41.025 40"
	 xml:space="preserve">
<title>Adobe InDesign CC logo</title>
<g>
	<path fill="#49021F" d="M292.752,376h26.496c4.017,0,7.265,3.248,7.265,7.265v25.47c0,4.018-3.248,7.266-7.265,7.266h-26.496
		c-4.017,0-7.265-3.248-7.265-7.266v-25.47C285.487,379.248,288.735,376,292.752,376z"/>
	<g id="vlpa">
		<g id="vlpb">
			<path fill="#FF3366" d="M300.393,386.461v17.607c0,0.188-0.085,0.273-0.239,0.273h-3.351c-0.154,0-0.222-0.086-0.222-0.273
				v-17.607c0-0.154,0.085-0.222,0.239-0.222h3.333c0.103-0.017,0.205,0.051,0.222,0.171
				C300.393,386.427,300.393,386.444,300.393,386.461z"/>
			<path fill="#FF3366" d="M310.273,404.547c-1.265,0.017-2.53-0.239-3.675-0.77c-1.077-0.495-1.966-1.316-2.582-2.324
				c-0.632-1.043-0.94-2.342-0.94-3.897c-0.017-1.265,0.308-2.513,0.94-3.607c0.649-1.111,1.59-2.034,2.718-2.649
				c1.196-0.667,2.632-0.991,4.324-0.991c0.086,0,0.205,0,0.359,0.017c0.153,0.017,0.324,0.017,0.53,0.034v-5.402
				c0-0.12,0.051-0.188,0.171-0.188h3.47c0.085-0.017,0.153,0.051,0.171,0.12v0.034v16.273c0,0.308,0.017,0.649,0.034,1.025
				c0.034,0.359,0.051,0.701,0.068,0.992c0,0.119-0.052,0.222-0.171,0.273c-0.889,0.376-1.829,0.649-2.786,0.82
				C312.051,404.461,311.162,404.547,310.273,404.547L310.273,404.547z M311.949,401.128v-7.521
				c-0.154-0.034-0.309-0.068-0.462-0.085c-0.188-0.017-0.376-0.034-0.564-0.034c-0.666,0-1.333,0.137-1.932,0.445
				c-0.581,0.291-1.077,0.718-1.453,1.265s-0.563,1.282-0.563,2.171c-0.018,0.599,0.085,1.196,0.29,1.761
				c0.171,0.462,0.428,0.872,0.77,1.214c0.325,0.308,0.718,0.547,1.162,0.684c0.462,0.154,0.94,0.223,1.419,0.223
				c0.257,0,0.496-0.018,0.718-0.034C311.556,401.23,311.761,401.196,311.949,401.128L311.949,401.128z"/>
		</g>
	</g>
</g>
</svg>
