<?xml version="1.0" encoding="utf-8"?>
<!-- Generator: Adobe Illustrator 16.0.0, SVG Export Plug-In . SVG Version: 6.00 Build 0)  -->
<!DOCTYPE svg PUBLIC "-//W3C//DTD SVG 1.1//EN" "http://www.w3.org/Graphics/SVG/1.1/DTD/svg11.dtd">
<svg version="1.1" id="Layer_1" xmlns="http://www.w3.org/2000/svg" xmlns:xlink="http://www.w3.org/1999/xlink" x="0px" y="0px"
	 width="40px" height="40px" viewBox="286 376 40 40" enable-background="new 286 376 40 40" xml:space="preserve">
<g>
	<rect x="286" y="376" fill="#F7DF1E" width="40" height="40"/>
	<path d="M312.87,407.25c0.806,1.315,1.854,2.282,3.708,2.282c1.557,0,2.552-0.778,2.552-1.854c0-1.289-1.022-1.745-2.736-2.495
		l-0.939-0.403c-2.713-1.155-4.515-2.604-4.515-5.663c0-2.819,2.148-4.965,5.505-4.965c2.39,0,4.108,0.832,5.346,3.009l-2.927,1.88
		c-0.645-1.156-1.34-1.611-2.419-1.611c-1.101,0-1.799,0.698-1.799,1.611c0,1.127,0.698,1.584,2.312,2.282l0.939,0.402
		c3.193,1.37,4.997,2.766,4.997,5.905c0,3.384-2.658,5.237-6.229,5.237c-3.491,0-5.746-1.663-6.85-3.844L312.87,407.25z
		 M299.592,407.576c0.59,1.047,1.127,1.933,2.419,1.933c1.235,0,2.014-0.482,2.014-2.361v-12.781h3.758v12.832
		c0,3.892-2.282,5.663-5.612,5.663c-3.01,0-4.752-1.558-5.639-3.433L299.592,407.576z"/>
</g>
</svg>
