<?xml version="1.0" encoding="utf-8"?>
<!-- Generator: Adobe Illustrator 16.0.0, SVG Export Plug-In . SVG Version: 6.00 Build 0)  -->
<!DOCTYPE svg PUBLIC "-//W3C//DTD SVG 1.1//EN" "http://www.w3.org/Graphics/SVG/1.1/DTD/svg11.dtd">
<svg version="1.1" id="Layer_1" xmlns="http://www.w3.org/2000/svg" xmlns:xlink="http://www.w3.org/1999/xlink" x="0px" y="0px"
	 width="51.428px" height="40px" viewBox="25.715 0 51.428 40" enable-background="new 25.715 0 51.428 40" xml:space="preserve">
<g>
	<path fill="#CB3837" d="M25.715,10h51.428v17.144H51.428V30H40v-2.856H25.715V10z M28.572,24.285h5.714v-8.57h2.857v8.571H40
		v-11.43H28.572V24.285L28.572,24.285z M42.857,12.856v14.287h5.715v-2.858h5.713V12.856H42.857z M48.572,15.715h2.856v5.714h-2.856
		V15.715z M57.143,12.856v11.429h5.714v-8.57h2.857v8.571h2.857v-8.571h2.856v8.571h2.856v-11.43H57.143z"/>
	<polygon fill="#FFFFFF" points="28.572,24.285 34.285,24.285 34.285,15.715 37.143,15.715 37.143,24.285 40,24.285 40,12.856 
		28.572,12.856 	"/>
	<path fill="#FFFFFF" d="M42.857,12.856v14.287h5.715v-2.858h5.713V12.856H42.857z M51.428,21.429h-2.856v-5.714h2.856V21.429z"/>
	<polygon fill="#FFFFFF" points="57.143,12.856 57.143,24.285 62.857,24.285 62.857,15.715 65.715,15.715 65.715,24.285 
		68.572,24.285 68.572,15.715 71.428,15.715 71.428,24.285 74.285,24.285 74.285,12.856 	"/>
</g>
</svg>
