<?xml version="1.0" encoding="utf-8"?>
<!-- Generator: Adobe Illustrator 16.0.0, SVG Export Plug-In . SVG Version: 6.00 Build 0)  -->
<!DOCTYPE svg PUBLIC "-//W3C//DTD SVG 1.1//EN" "http://www.w3.org/Graphics/SVG/1.1/DTD/svg11.dtd">
<svg version="1.1" id="Layer_1" xmlns="http://www.w3.org/2000/svg" xmlns:xlink="http://www.w3.org/1999/xlink" x="0px" y="0px"
	 width="41.025px" height="40px" viewBox="285.487 376 41.025 40" enable-background="new 285.487 376 41.025 40"
	 xml:space="preserve">
<g id="Layer_2_1_">
	<g id="Surfaces">
		<g id="Photo_Surface">
			<g id="Outline_no_shadow">
				<path fill="#001E36" d="M292.752,376h26.496c4.017,0,7.265,3.248,7.265,7.265v25.47c0,4.018-3.248,7.266-7.265,7.266h-26.496
					c-4.017,0-7.265-3.248-7.265-7.266v-25.47C285.487,379.248,288.735,376,292.752,376z"/>
			</g>
		</g>
	</g>
	<g id="Outlined_Mnemonics_Logos">
		<g id="Ps">
			<path fill="#31A8FF" d="M294.718,404.051v-17.589c0-0.12,0.051-0.188,0.171-0.188c0.291,0,0.564,0,0.958-0.017
				c0.41-0.017,0.837-0.017,1.299-0.034c0.461-0.017,0.957-0.017,1.487-0.034c0.53-0.017,1.043-0.017,1.556-0.017
				c1.402,0,2.564,0.171,3.521,0.53c0.854,0.291,1.641,0.769,2.291,1.402c0.547,0.547,0.975,1.213,1.248,1.949
				c0.256,0.718,0.393,1.453,0.393,2.222c0,1.47-0.342,2.684-1.025,3.641s-1.641,1.676-2.752,2.086
				c-1.163,0.427-2.444,0.581-3.846,0.581c-0.41,0-0.684,0-0.854-0.018c-0.171-0.017-0.411-0.017-0.735-0.017v5.487
				c0.017,0.119-0.068,0.222-0.188,0.239c-0.017,0-0.034,0-0.068,0h-3.248C294.786,404.273,294.718,404.205,294.718,404.051z
				 M298.444,389.572v5.744c0.239,0.017,0.461,0.034,0.667,0.034h0.906c0.667,0,1.333-0.103,1.966-0.308
				c0.547-0.154,1.026-0.479,1.402-0.906c0.359-0.428,0.53-1.009,0.53-1.761c0.017-0.53-0.12-1.06-0.393-1.521
				c-0.291-0.444-0.701-0.786-1.197-0.975c-0.632-0.256-1.316-0.359-2.017-0.342c-0.444,0-0.837,0-1.162,0.017
				C298.803,389.538,298.564,389.555,298.444,389.572L298.444,389.572z"/>
			<path fill="#31A8FF" d="M318.308,394.273c-0.513-0.273-1.06-0.462-1.641-0.582c-0.633-0.137-1.266-0.222-1.915-0.222
				c-0.342-0.017-0.7,0.034-1.025,0.12c-0.223,0.051-0.41,0.171-0.53,0.342c-0.085,0.137-0.137,0.308-0.137,0.461
				s0.068,0.308,0.171,0.444c0.154,0.188,0.359,0.342,0.581,0.461c0.394,0.205,0.804,0.393,1.214,0.564
				c0.924,0.308,1.813,0.734,2.633,1.248c0.564,0.358,1.025,0.837,1.351,1.418c0.273,0.548,0.41,1.146,0.393,1.761
				c0.018,0.804-0.222,1.607-0.666,2.273c-0.479,0.685-1.146,1.214-1.915,1.521c-0.838,0.359-1.863,0.547-3.094,0.547
				c-0.786,0-1.556-0.068-2.325-0.222c-0.598-0.103-1.196-0.291-1.743-0.547c-0.12-0.068-0.205-0.188-0.188-0.325v-2.975
				c0-0.051,0.018-0.119,0.068-0.153c0.052-0.034,0.103-0.018,0.154,0.017c0.667,0.394,1.367,0.667,2.119,0.838
				c0.65,0.171,1.334,0.257,2.018,0.257c0.649,0,1.111-0.086,1.419-0.239c0.273-0.12,0.461-0.411,0.461-0.719
				c0-0.239-0.137-0.461-0.41-0.684c-0.273-0.222-0.837-0.479-1.675-0.803c-0.872-0.309-1.675-0.719-2.428-1.231
				c-0.529-0.376-0.974-0.871-1.299-1.453c-0.273-0.547-0.41-1.146-0.394-1.744c0-0.735,0.205-1.436,0.582-2.068
				c0.427-0.684,1.06-1.231,1.794-1.573c0.804-0.41,1.813-0.598,3.026-0.598c0.7,0,1.419,0.051,2.119,0.154
				c0.513,0.068,1.009,0.205,1.471,0.393c0.068,0.017,0.137,0.085,0.171,0.154c0.017,0.068,0.034,0.137,0.034,0.205v2.787
				c0,0.068-0.034,0.137-0.086,0.171C318.462,394.308,318.376,394.308,318.308,394.273z"/>
		</g>
	</g>
</g>
</svg>
