<?xml version="1.0" encoding="utf-8"?>
<!-- Generator: Adobe Illustrator 16.0.0, SVG Export Plug-In . SVG Version: 6.00 Build 0)  -->
<!DOCTYPE svg PUBLIC "-//W3C//DTD SVG 1.1//EN" "http://www.w3.org/Graphics/SVG/1.1/DTD/svg11.dtd">
<svg version="1.1" id="Layer_1" xmlns="http://www.w3.org/2000/svg" xmlns:xlink="http://www.w3.org/1999/xlink" x="0px" y="0px"
	 width="44.917px" height="40px" viewBox="283.242 376 44.917 40" enable-background="new 283.242 376 44.917 40"
	 xml:space="preserve">
<title>React Logo</title>
<g>
	<path fill="#61DAFB" d="M328.159,396.005c0-2.976-3.727-5.796-9.439-7.544c1.318-5.823,0.732-10.456-1.85-11.939
		c-0.595-0.348-1.291-0.513-2.051-0.513v2.042c0.421,0,0.76,0.082,1.044,0.238c1.245,0.714,1.785,3.434,1.364,6.931
		c-0.101,0.86-0.266,1.767-0.467,2.691c-1.795-0.439-3.754-0.778-5.814-0.998c-1.235-1.693-2.518-3.231-3.809-4.577
		c2.985-2.774,5.786-4.294,7.69-4.294V376c-2.518,0-5.813,1.795-9.146,4.907c-3.333-3.095-6.629-4.87-9.146-4.87v2.041
		c1.896,0,4.706,1.511,7.69,4.267c-1.281,1.346-2.563,2.875-3.781,4.568c-2.069,0.22-4.028,0.559-5.822,1.007
		c-0.211-0.915-0.367-1.803-0.477-2.654c-0.431-3.498,0.101-6.217,1.337-6.94c0.274-0.165,0.632-0.237,1.053-0.237v-2.042
		c-0.77,0-1.465,0.165-2.069,0.513c-2.572,1.483-3.149,6.106-1.822,11.911c-5.694,1.758-9.402,4.568-9.402,7.535
		c0,2.976,3.727,5.795,9.439,7.544c-1.318,5.822-0.732,10.455,1.85,11.938c0.595,0.348,1.291,0.513,2.06,0.513
		c2.518,0,5.813-1.795,9.146-4.907c3.333,3.095,6.628,4.87,9.146,4.87c0.769,0,1.465-0.164,2.069-0.512
		c2.572-1.483,3.148-6.107,1.821-11.912C324.451,401.791,328.159,398.971,328.159,396.005L328.159,396.005z M316.238,389.898
		c-0.339,1.181-0.76,2.398-1.235,3.616c-0.376-0.732-0.77-1.465-1.2-2.197c-0.421-0.732-0.869-1.447-1.318-2.143
		C313.785,389.367,315.039,389.605,316.238,389.898L316.238,389.898z M312.045,399.648c-0.714,1.236-1.446,2.408-2.206,3.497
		c-1.364,0.119-2.747,0.184-4.139,0.184c-1.382,0-2.765-0.064-4.119-0.174c-0.761-1.09-1.502-2.253-2.216-3.479
		c-0.696-1.199-1.328-2.417-1.904-3.644c0.567-1.228,1.208-2.454,1.895-3.653c0.715-1.236,1.447-2.408,2.207-3.497
		c1.364-0.119,2.746-0.184,4.138-0.184c1.383,0,2.766,0.064,4.12,0.174c0.76,1.09,1.502,2.253,2.216,3.479
		c0.696,1.199,1.327,2.417,1.904,3.644C313.363,397.223,312.732,398.449,312.045,399.648L312.045,399.648z M315.003,398.458
		c0.494,1.228,0.915,2.454,1.263,3.644c-1.199,0.293-2.463,0.541-3.771,0.732c0.448-0.704,0.896-1.428,1.318-2.169
		C314.233,399.933,314.627,399.19,315.003,398.458L315.003,398.458z M305.719,408.227c-0.852-0.879-1.703-1.858-2.545-2.93
		c0.824,0.037,1.666,0.064,2.518,0.064c0.86,0,1.712-0.019,2.545-0.064C307.413,406.368,306.562,407.348,305.719,408.227z
		 M298.907,402.834c-1.3-0.191-2.555-0.43-3.754-0.723c0.339-1.182,0.76-2.398,1.236-3.616c0.375,0.732,0.769,1.465,1.199,2.197
		S298.459,402.139,298.907,402.834z M305.673,383.782c0.852,0.879,1.703,1.858,2.546,2.93c-0.824-0.037-1.667-0.064-2.519-0.064
		c-0.86,0-1.712,0.019-2.545,0.064C303.979,385.641,304.831,384.661,305.673,383.782z M298.898,389.175
		c-0.449,0.705-0.897,1.428-1.318,2.17c-0.422,0.732-0.815,1.465-1.19,2.197c-0.494-1.228-0.916-2.454-1.264-3.644
		C296.325,389.614,297.589,389.367,298.898,389.175L298.898,389.175z M290.612,400.637c-3.241-1.382-5.337-3.194-5.337-4.632
		s2.096-3.26,5.337-4.633c0.788-0.339,1.648-0.641,2.536-0.925c0.521,1.795,1.209,3.662,2.061,5.575
		c-0.843,1.904-1.521,3.764-2.033,5.549C292.27,401.287,291.409,400.976,290.612,400.637L290.612,400.637z M295.538,413.721
		c-1.245-0.715-1.785-3.434-1.364-6.931c0.101-0.861,0.266-1.768,0.467-2.692c1.795,0.439,3.754,0.778,5.814,0.998
		c1.235,1.694,2.518,3.232,3.809,4.578c-2.985,2.773-5.787,4.294-7.691,4.294C296.16,413.958,295.813,413.876,295.538,413.721
		L295.538,413.721z M317.255,406.744c0.431,3.497-0.101,6.216-1.337,6.939c-0.274,0.165-0.632,0.238-1.053,0.238
		c-1.896,0-4.706-1.511-7.69-4.267c1.281-1.346,2.563-2.875,3.781-4.568c2.069-0.22,4.028-0.559,5.822-1.007
		C316.989,405.004,317.154,405.893,317.255,406.744z M320.779,400.637c-0.787,0.339-1.647,0.642-2.536,0.925
		c-0.521-1.794-1.208-3.662-2.06-5.575c0.842-1.904,1.52-3.763,2.032-5.548c0.906,0.283,1.768,0.595,2.573,0.934
		c3.24,1.382,5.337,3.195,5.337,4.633C326.117,397.442,324.021,399.264,320.779,400.637L320.779,400.637z"/>
	<circle fill="#61DAFB" cx="305.691" cy="396.004" r="4.184"/>
</g>
</svg>
