<?xml version="1.0" encoding="utf-8"?>
<!-- Generator: Adobe Illustrator 16.0.0, SVG Export Plug-In . SVG Version: 6.00 Build 0)  -->
<!DOCTYPE svg PUBLIC "-//W3C//DTD SVG 1.1//EN" "http://www.w3.org/Graphics/SVG/1.1/DTD/svg11.dtd">
<svg version="1.1" id="Layer_1" xmlns="http://www.w3.org/2000/svg" xmlns:xlink="http://www.w3.org/1999/xlink" x="0px" y="0px"
	 width="53.41px" height="40px" viewBox="0 0 53.41 40" enable-background="new 0 0 53.41 40" xml:space="preserve">
<rect x="-2610" y="-108" display="none" fill="#2B2B60" width="6858" height="2385"/>
<path fill="#CD6799" d="M45.963,22.994c-1.861,0.01-3.477,0.458-4.832,1.121c-0.496-0.984-0.994-1.861-1.082-2.504
	c-0.096-0.75-0.213-1.208-0.096-2.104c0.115-0.896,0.643-2.173,0.633-2.271c-0.01-0.097-0.117-0.555-1.189-0.564
	c-1.07-0.01-1.996,0.205-2.104,0.487s-0.313,0.925-0.449,1.588c-0.184,0.974-2.143,4.452-3.264,6.274
	c-0.359-0.712-0.672-1.335-0.74-1.832c-0.098-0.75-0.213-1.208-0.098-2.104c0.117-0.896,0.645-2.173,0.635-2.27
	c-0.01-0.098-0.117-0.556-1.189-0.565s-1.996,0.205-2.104,0.487s-0.225,0.944-0.449,1.588c-0.223,0.644-2.824,6.449-3.507,7.95
	c-0.351,0.77-0.653,1.383-0.867,1.802l0,0c0,0-0.01,0.029-0.038,0.078c-0.186,0.36-0.293,0.556-0.293,0.556s0,0,0,0.01
	c-0.146,0.263-0.303,0.506-0.38,0.506c-0.059,0-0.165-0.701,0.02-1.656c0.39-2.017,1.315-5.153,1.306-5.261
	c0-0.059,0.175-0.604-0.604-0.886c-0.76-0.283-1.032,0.185-1.101,0.185s-0.117,0.166-0.117,0.166s0.848-3.527-1.617-3.527
	c-1.539,0-3.663,1.686-4.715,3.205c-0.662,0.361-2.076,1.131-3.586,1.959c-0.574,0.321-1.168,0.643-1.725,0.944
	c-0.039-0.039-0.077-0.087-0.116-0.126c-2.981-3.187-8.495-5.437-8.262-9.714c0.088-1.559,0.624-5.65,10.59-10.619
	c8.203-4.043,14.731-2.922,15.86-0.438C32.1,9.005,26.986,15.59,18.51,16.545c-3.234,0.361-4.93-0.887-5.358-1.354
	c-0.448-0.487-0.517-0.517-0.683-0.42c-0.272,0.146-0.098,0.585,0,0.838c0.254,0.663,1.297,1.832,3.06,2.406
	c1.559,0.508,5.349,0.79,9.937-0.983c5.135-1.987,9.148-7.511,7.971-12.139c-1.18-4.696-8.974-6.245-16.349-3.624
	C12.704,2.828,7.95,5.283,4.53,8.479c-4.063,3.8-4.705,7.102-4.442,8.486c0.944,4.909,7.716,8.104,10.425,10.473
	c-0.137,0.077-0.264,0.146-0.371,0.204c-1.354,0.673-6.518,3.371-7.803,6.226c-1.462,3.234,0.232,5.553,1.354,5.865
	c3.479,0.964,7.053-0.771,8.973-3.635s1.686-6.585,0.799-8.29c-0.01-0.02-0.02-0.039-0.039-0.059
	c0.352-0.205,0.711-0.419,1.063-0.624c0.691-0.409,1.373-0.789,1.958-1.101c-0.331,0.906-0.575,1.987-0.692,3.546
	c-0.146,1.832,0.604,4.209,1.588,5.145c0.439,0.409,0.955,0.419,1.287,0.419c1.148,0,1.666-0.955,2.24-2.085
	c0.701-1.384,1.334-2.991,1.334-2.991s-0.789,4.346,1.355,4.346c0.779,0,1.568-1.014,1.918-1.53c0,0.01,0,0.01,0,0.01
	s0.02-0.029,0.059-0.097c0.078-0.127,0.127-0.205,0.127-0.205s0-0.01,0-0.02c0.313-0.546,1.014-1.783,2.057-3.839
	c1.344-2.649,2.639-5.962,2.639-5.962s0.117,0.809,0.518,2.153c0.232,0.789,0.721,1.656,1.109,2.494
	c-0.311,0.438-0.506,0.682-0.506,0.682s0,0,0.01,0.01c-0.254,0.331-0.525,0.691-0.828,1.042c-1.063,1.267-2.328,2.719-2.504,3.138
	c-0.205,0.497-0.156,0.857,0.234,1.149c0.281,0.214,0.789,0.243,1.305,0.214c0.955-0.067,1.627-0.302,1.959-0.447
	c0.516-0.186,1.119-0.468,1.686-0.887c1.041-0.77,1.676-1.871,1.617-3.322c-0.029-0.799-0.293-1.598-0.615-2.348
	c0.098-0.137,0.186-0.273,0.283-0.409c1.646-2.407,2.924-5.047,2.924-5.047s0.115,0.809,0.516,2.153
	c0.195,0.682,0.594,1.422,0.945,2.143c-1.549,1.257-2.504,2.719-2.846,3.673c-0.613,1.773-0.137,2.572,0.77,2.758
	c0.41,0.087,0.994-0.107,1.424-0.293c0.545-0.175,1.188-0.477,1.801-0.925c1.043-0.77,2.047-1.842,1.988-3.293
	c-0.029-0.663-0.205-1.315-0.449-1.949c1.316-0.545,3.012-0.847,5.174-0.594c4.637,0.546,5.553,3.439,5.379,4.657
	c-0.176,1.218-1.15,1.88-1.473,2.084c-0.32,0.205-0.428,0.273-0.398,0.419c0.039,0.215,0.195,0.205,0.467,0.166
	c0.381-0.068,2.436-0.984,2.523-3.225C53.514,26.093,50.786,22.966,45.963,22.994z M10.19,35.056
	c-1.539,1.676-3.683,2.309-4.607,1.773c-0.994-0.575-0.604-3.05,1.285-4.823c1.15-1.081,2.631-2.084,3.615-2.698
	c0.224-0.137,0.555-0.331,0.954-0.575c0.068-0.038,0.107-0.058,0.107-0.058l0,0c0.077-0.049,0.155-0.098,0.233-0.146
	C12.469,31.062,11.807,33.292,10.19,35.056z M21.393,27.438c-0.535,1.305-1.656,4.646-2.338,4.462
	c-0.584-0.156-0.945-2.689-0.117-5.193c0.42-1.257,1.307-2.757,1.822-3.341c0.838-0.936,1.764-1.247,1.988-0.867
	C23.03,22.994,21.725,26.619,21.393,27.438z M30.639,31.86c-0.225,0.117-0.438,0.194-0.535,0.136
	c-0.068-0.038,0.098-0.194,0.098-0.194s1.158-1.247,1.617-1.813c0.262-0.331,0.574-0.721,0.904-1.159c0,0.039,0,0.088,0,0.127
	C32.723,30.447,31.282,31.451,30.639,31.86z M37.77,30.233c-0.166-0.117-0.137-0.507,0.42-1.725
	c0.213-0.478,0.721-1.276,1.588-2.046c0.098,0.312,0.166,0.614,0.156,0.896C39.924,29.239,38.579,29.941,37.77,30.233z"/>
</svg>
