<?xml version="1.0" encoding="utf-8"?>
<!-- Generator: Adobe Illustrator 16.0.0, SVG Export Plug-In . SVG Version: 6.00 Build 0)  -->
<!DOCTYPE svg PUBLIC "-//W3C//DTD SVG 1.1//EN" "http://www.w3.org/Graphics/SVG/1.1/DTD/svg11.dtd">
<svg version="1.1"
	 id="Layer_1" xmlns:rdf="http://www.w3.org/1999/02/22-rdf-syntax-ns#" xmlns:cc="http://creativecommons.org/ns#" xmlns:dc="http://purl.org/dc/elements/1.1/"
	 xmlns="http://www.w3.org/2000/svg" xmlns:xlink="http://www.w3.org/1999/xlink" x="0px" y="0px" width="40px" height="40px"
	 viewBox="236 236 40 40" enable-background="new 236 236 40 40" xml:space="preserve">
<path fill="#3178C6" d="M272.094,236h-32.188c-2.157,0-3.906,1.749-3.906,3.906v32.188c0,2.157,1.749,3.906,3.906,3.906h32.188
	c2.157,0,3.906-1.749,3.906-3.906v-32.188C276,237.749,274.251,236,272.094,236z M259.203,258.188h-5v14.297h-3.984v-14.297h-5
	v-3.203h13.984V258.188z M272.094,269.914c-0.313,0.703-0.852,1.227-1.484,1.641c-0.625,0.383-1.328,0.68-2.188,0.859
	s-1.719,0.266-2.656,0.266s-1.875-0.078-2.734-0.242s-1.633-0.406-2.266-0.734v-3.754c-0.05-0.039-0.1-0.077-0.148-0.118
	l0.148-0.034v0.152c0.664,0.527,1.396,0.934,2.195,1.21c0.781,0.297,1.641,0.445,2.5,0.445c0.547,0,0.961-0.047,1.328-0.133
	c0.383-0.094,0.688-0.219,0.938-0.375s0.436-0.344,0.555-0.563s0.18-0.453,0.18-0.703c0-0.359-0.102-0.672-0.297-0.938
	c-0.18-0.266-0.445-0.516-0.781-0.742c-0.313-0.227-0.703-0.445-1.172-0.656s-0.945-0.43-1.484-0.648
	c-1.328-0.625-2.375-1.25-3.047-2.109c-0.68-0.781-1.016-1.797-1.016-2.969c0-0.938,0.18-1.688,0.547-2.344
	c0.391-0.703,0.852-1.219,1.484-1.641c0.625-0.43,1.328-0.742,2.188-0.938s1.719-0.297,2.656-0.297s1.719,0.055,2.422,0.164
	s1.359,0.281,1.953,0.508v3.672c-0.273-0.203-0.594-0.383-0.938-0.539c-0.367-0.156-0.727-0.281-1.094-0.383
	s-0.734-0.177-1.094-0.227c-0.344-0.049-0.688-0.073-1.016-0.073c-0.477,0-0.883,0.039-1.25,0.125
	c-0.375,0.086-0.688,0.203-0.938,0.359s-0.444,0.336-0.586,0.555s-0.211,0.461-0.211,0.727c0,0.289,0.078,0.547,0.234,0.781
	c0.156,0.227,0.375,0.445,0.664,0.656c0.258,0.203,0.609,0.406,1.016,0.609c0.469,0.203,0.891,0.406,1.406,0.617
	c0.703,0.297,1.328,0.625,1.875,0.938s1.008,0.68,1.406,1.094c0.422,0.391,0.727,0.859,0.938,1.406s0.32,1.164,0.32,1.875
	C272.648,268.43,272.406,269.211,272.094,269.914z"/>
</svg>
