<?xml version="1.0" encoding="utf-8"?>
<!-- Generator: Adobe Illustrator 16.0.0, SVG Export Plug-In . SVG Version: 6.00 Build 0)  -->
<!DOCTYPE svg PUBLIC "-//W3C//DTD SVG 1.1//EN" "http://www.w3.org/Graphics/SVG/1.1/DTD/svg11.dtd">
<svg version="1.1" id="Layer_1" xmlns="http://www.w3.org/2000/svg" xmlns:xlink="http://www.w3.org/1999/xlink" x="0px" y="0px"
	 width="40.232px" height="40px" viewBox="0 0 40.232 40" enable-background="new 0 0 40.232 40" xml:space="preserve">
<rect x="-2493" y="-927" display="none" fill="#2B2B60" width="6858" height="2385"/>
<defs>
	<filter id="Adobe_OpacityMaskFilter" filterUnits="userSpaceOnUse" x="-0.302" y="0" width="40.233" height="40">
		<feColorMatrix  type="matrix" values="1 0 0 0 0  0 1 0 0 0  0 0 1 0 0  0 0 0 1 0"/>
	</filter>
</defs>
<mask maskUnits="userSpaceOnUse" x="-0.302" y="0" width="40.233" height="40" id="mask0_1_">
	<path fill="#FFFFFF" filter="url(#Adobe_OpacityMaskFilter)" d="M28.235,39.829c0.633,0.247,1.354,0.231,1.994-0.076l8.275-3.983
		c0.871-0.418,1.426-1.299,1.426-2.265V6.496c0-0.966-0.555-1.846-1.426-2.265l-8.275-3.983c-0.84-0.403-1.82-0.305-2.559,0.23
		c-0.104,0.077-0.205,0.162-0.299,0.256L11.525,15.192l-6.903-5.24c-0.642-0.487-1.54-0.447-2.138,0.096L0.27,12.062
		c-0.73,0.664-0.731,1.813-0.002,2.478L6.255,20L0.27,25.461c-0.729,0.665-0.729,1.813,0.002,2.479l2.214,2.015
		c0.597,0.543,1.496,0.583,2.138,0.096l6.903-5.239L27.375,39.27C27.624,39.518,27.918,39.706,28.235,39.829z M29.883,10.873
		L17.86,20l12.021,9.127L29.883,10.873L29.883,10.873z"/>
</mask>
<g mask="url(#mask0_1_)">
	<path fill="#0065A9" d="M38.506,4.238l-8.281-3.989c-0.959-0.462-2.105-0.267-2.857,0.485L0.245,25.462
		c-0.729,0.665-0.729,1.813,0.002,2.478l2.215,2.016c0.599,0.543,1.496,0.583,2.141,0.096L37.26,5.272
		c1.098-0.831,2.672-0.05,2.672,1.326V6.502C39.93,5.537,39.377,4.657,38.506,4.238z"/>
	<g>
		<path fill="#007ACC" d="M38.506,35.764l-8.281,3.988c-0.959,0.462-2.105,0.268-2.857-0.484L0.245,14.539
			c-0.729-0.665-0.729-1.813,0.002-2.478l2.215-2.014C3.06,9.504,3.958,9.464,4.602,9.952L37.26,34.729
			c1.098,0.832,2.672,0.052,2.672-1.323V33.5C39.93,34.465,39.377,35.345,38.506,35.764z"/>
	</g>
	<g>
		<path fill="#1F9CF0" d="M30.223,39.753c-0.959,0.461-2.105,0.267-2.857-0.485c0.926,0.926,2.512,0.271,2.512-1.041V1.775
			c0-1.312-1.586-1.968-2.512-1.041c0.752-0.752,1.898-0.947,2.857-0.486l8.281,3.983c0.87,0.419,1.426,1.299,1.426,2.265v27.009
			c0,0.966-0.557,1.847-1.426,2.265L30.223,39.753z"/>
	</g>
	<g opacity="0.25">
		
			<linearGradient id="SVGID_1_" gradientUnits="userSpaceOnUse" x1="-717.3308" y1="234.9014" x2="-717.3308" y2="228.3652" gradientTransform="matrix(6.12 0 0 -6.12 4409.8691 1437.5972)">
			<stop  offset="0" style="stop-color:#FFFFFF"/>
			<stop  offset="1" style="stop-color:#FFFFFF;stop-opacity:0"/>
		</linearGradient>
		<path fill="url(#SVGID_1_)" d="M28.209,39.829c0.633,0.247,1.355,0.231,1.994-0.076l8.279-3.983
			c0.869-0.418,1.422-1.299,1.422-2.265V6.496c0-0.966-0.553-1.846-1.422-2.265l-8.279-3.983c-0.838-0.403-1.82-0.305-2.557,0.23
			c-0.105,0.077-0.205,0.162-0.299,0.256L11.501,15.192l-6.901-5.24c-0.644-0.487-1.542-0.447-2.14,0.096l-2.214,2.014
			c-0.729,0.664-0.729,1.813-0.002,2.478L6.23,20l-5.986,5.461c-0.729,0.665-0.728,1.813,0.002,2.479l2.214,2.015
			c0.599,0.543,1.496,0.583,2.14,0.096l6.901-5.239L27.349,39.27C27.598,39.518,27.893,39.706,28.209,39.829z"/>
	</g>
</g>
</svg>
