<?xml version="1.0" encoding="utf-8"?>
<!-- Generator: Adobe Illustrator 16.0.0, SVG Export Plug-In . SVG Version: 6.00 Build 0)  -->
<!DOCTYPE svg PUBLIC "-//W3C//DTD SVG 1.1//EN" "http://www.w3.org/Graphics/SVG/1.1/DTD/svg11.dtd">
<svg version="1.1" id="Layer_1" xmlns="http://www.w3.org/2000/svg" xmlns:xlink="http://www.w3.org/1999/xlink" x="0px" y="0px"
	 width="36.07px" height="40px" viewBox="0 0 36.07 40" enable-background="new 0 0 36.07 40" xml:space="preserve">
<g>
	<path fill="#8ED6FB" d="M34.959,30.829L18.748,40v-7.141l10.1-5.559L34.959,30.829L34.959,30.829z M36.068,29.825V10.648
		l-5.93,3.428v12.327L36.068,29.825L36.068,29.825z M1.112,30.829L17.323,40v-7.141L7.217,27.301L1.112,30.829z M0.001,29.825
		V10.648l5.93,3.428v12.327L0.001,29.825z M0.697,9.405L17.323,0v6.902L6.669,12.764l-0.085,0.048L0.697,9.405z M35.373,9.405
		L18.748,0v6.902L29.4,12.758l0.086,0.048L35.373,9.405z"/>
	<path fill="#1C78C0" d="M17.323,31.233L7.355,25.75V14.895l9.968,5.754V31.233z M18.748,31.233l9.967-5.479v-10.86l-9.967,5.754
		V31.233z M8.03,13.64l10.005-5.499l10.006,5.499l-10.006,5.776L8.03,13.64z"/>
</g>
</svg>
