<?xml version="1.0" encoding="utf-8"?>
<!-- Generator: Adobe Illustrator 16.0.0, SVG Export Plug-In . SVG Version: 6.00 Build 0)  -->
<!DOCTYPE svg PUBLIC "-//W3C//DTD SVG 1.1//EN" "http://www.w3.org/Graphics/SVG/1.1/DTD/svg11.dtd">
<svg version="1.1" id="Layer_1" xmlns="http://www.w3.org/2000/svg" xmlns:xlink="http://www.w3.org/1999/xlink" x="0px" y="0px"
	 width="40px" height="40px" viewBox="0 0 40 40" enable-background="new 0 0 40 40" xml:space="preserve">
<rect x="-4878" y="-108" display="none" fill="#2B2B60" width="6858" height="2385"/>
<g>
	<path fill="#32373C" d="M20,1.2c2.538,0,5.001,0.497,7.317,1.477c1.114,0.471,2.188,1.054,3.193,1.733
		c0.995,0.673,1.932,1.445,2.783,2.296c0.851,0.851,1.624,1.788,2.296,2.783c0.68,1.005,1.263,2.079,1.733,3.193
		C38.303,15,38.801,17.461,38.801,20c0,2.538-0.498,5-1.478,7.317c-0.471,1.113-1.054,2.188-1.733,3.192
		c-0.672,0.996-1.445,1.933-2.296,2.783c-0.852,0.852-1.788,1.624-2.783,2.297c-1.005,0.679-2.079,1.262-3.193,1.733
		C25.001,38.303,22.538,38.8,20,38.8s-5-0.497-7.317-1.477c-1.113-0.472-2.188-1.055-3.193-1.733
		c-0.995-0.673-1.932-1.445-2.783-2.297c-0.851-0.851-1.623-1.787-2.296-2.783c-0.679-1.005-1.262-2.079-1.733-3.192
		C1.697,25,1.2,22.538,1.2,20c0-2.539,0.497-5,1.477-7.318c0.472-1.114,1.055-2.188,1.733-3.193
		c0.673-0.996,1.445-1.932,2.296-2.783C7.558,5.855,8.494,5.083,9.489,4.41c1.005-0.679,2.08-1.262,3.193-1.733
		C15,1.697,17.462,1.2,20,1.2 M20,0C8.954,0,0,8.954,0,20s8.954,20,20,20s20-8.954,20-20S31.046,0,20,0"/>
	<path fill="#32373C" d="M3.333,19.999c0,6.597,3.834,12.298,9.394,14.999l-7.95-21.782C3.852,15.289,3.333,17.583,3.333,19.999
		 M31.251,19.159c0-2.061-0.739-3.487-1.373-4.596c-0.846-1.374-1.638-2.536-1.638-3.909c0-1.532,1.162-2.958,2.799-2.958
		c0.074,0,0.144,0.009,0.216,0.014C28.29,4.992,24.339,3.333,20,3.333c-5.823,0-10.945,2.988-13.926,7.512
		c0.392,0.013,0.761,0.021,1.073,0.021c1.742,0,4.441-0.212,4.441-0.212c0.898-0.053,1.005,1.267,0.107,1.374
		c0,0-0.903,0.106-1.908,0.158l6.069,18.053l3.647-10.939l-2.596-7.114c-0.898-0.052-1.748-0.158-1.748-0.158
		c-0.898-0.053-0.794-1.426,0.105-1.374c0,0,2.752,0.212,4.39,0.212c1.742,0,4.442-0.212,4.442-0.212
		c0.898-0.053,1.004,1.267,0.105,1.374c0,0-0.903,0.106-1.907,0.158l6.023,17.916l1.72-5.448
		C30.804,22.271,31.251,20.584,31.251,19.159 M20.293,21.457l-5.001,14.53c1.493,0.439,3.072,0.679,4.708,0.679
		c1.941,0,3.803-0.335,5.535-0.944c-0.045-0.071-0.086-0.147-0.12-0.229L20.293,21.457z M34.626,12.004
		c0.071,0.53,0.112,1.1,0.112,1.713c0,1.691-0.317,3.592-1.269,5.97l-5.09,14.717c4.955-2.889,8.287-8.257,8.287-14.405
		C36.667,17.102,35.926,14.377,34.626,12.004"/>
</g>
</svg>
