<?xml version="1.0" encoding="utf-8"?>
<!-- Generator: Adobe Illustrator 16.0.0, SVG Export Plug-In . SVG Version: 6.00 Build 0)  -->
<!DOCTYPE svg PUBLIC "-//W3C//DTD SVG 1.1//EN" "http://www.w3.org/Graphics/SVG/1.1/DTD/svg11.dtd">
<svg version="1.1" id="Layer_1" xmlns="http://www.w3.org/2000/svg" xmlns:xlink="http://www.w3.org/1999/xlink" x="0px" y="0px"
	 width="39.69px" height="40px" viewBox="1.155 0 39.69 40" enable-background="new 1.155 0 39.69 40" xml:space="preserve">
<g>
	<g>
		<path fill="#FB7A24" d="M20.989,0c5.152,0,10.303,0,15.455,0c0.646,0,1.287,0.056,1.907,0.245c1.345,0.41,2.057,1.375,2.336,2.704
			c0.111,0.527,0.143,1.064,0.144,1.602c0.008,3.608,0.015,7.216,0.015,10.824c0,6.571,0.001,13.143-0.013,19.714
			c-0.002,0.92-0.051,1.85-0.505,2.688c-0.504,0.93-1.193,1.665-2.24,1.988c-0.188,0.059-0.387,0.125-0.58,0.125
			c-0.447,0-0.882,0.111-1.327,0.111c-10.088-0.001-20.176,0.005-30.264-0.012c-0.821-0.001-1.654-0.061-2.434-0.395
			c-0.155-0.066-0.312-0.122-0.448-0.227c-0.993-0.756-1.666-1.699-1.811-2.976c-0.052-0.46-0.069-0.918-0.069-1.378
			c0.002-10.225,0.003-20.45,0.008-30.675c0-0.593,0.006-1.196,0.188-1.764c0.486-1.513,1.549-2.339,3.125-2.506
			C4.843,0.029,5.213,0.003,5.58,0.003C10.717-0.001,15.853,0,20.989,0L20.989,0z"/>
		<path fill="#FFFFFF" d="M21.12,25.444c-0.113,0.69-0.192,1.314-0.44,1.89c-1.162,2.695-3.141,4.338-6.107,4.664
			c-3.507,0.387-6.747-1.778-7.721-5.14c-0.353-1.219-0.317-2.461-0.189-3.7c0.137-1.325,0.527-2.582,1.136-3.767
			c0.087-0.169,0.085-0.297-0.023-0.461c-0.936-1.408-1.299-2.962-1.167-4.641c0.07-0.897,0.288-1.755,0.695-2.559
			c1.192-2.354,3.809-4.352,7.314-4.021c3.082,0.292,5.937,2.95,6.383,5.94c0.022,0.15,0.065,0.297,0.114,0.519
			c0.074-0.401,0.127-0.732,0.196-1.06c0.574-2.717,3.232-5.559,7.002-5.594c3.82-0.035,6.649,2.96,7.183,5.743
			c0.226,1.176,0.187,2.351,0.001,3.525c-0.187,1.173-0.531,2.301-1.035,3.376c-0.11,0.237-0.1,0.408,0.043,0.628
			c0.823,1.274,1.186,2.674,1.14,4.194c-0.098,3.172-2.341,6.016-5.427,6.76c-4.309,1.038-7.611-1.539-8.724-4.656
			C21.312,26.579,21.226,26.049,21.12,25.444L21.12,25.444z M28.948,19.872c0.046-0.179,0.185-0.287,0.284-0.419
			c1.08-1.436,1.648-3.039,1.521-4.845c-0.092-1.318-1.176-2.246-2.488-2.197c-1.313,0.049-2.302,1.062-2.32,2.375
			c-0.002,0.108,0.005,0.215-0.002,0.322c-0.09,1.4-0.862,2.167-2.033,2.253c-0.214,0.016-0.429,0.035-0.643,0.035
			c-1.52,0.003-3.039,0.003-4.558,0.001c-0.664,0-1.322,0.071-1.954,0.267c-2.95,0.91-4.67,2.928-5.24,5.935
			c-0.113,0.595-0.214,1.212-0.019,1.823c0.28,0.876,0.801,1.527,1.725,1.746c0.957,0.226,1.791-0.024,2.453-0.776
			c0.428-0.485,0.563-1.063,0.595-1.697c0.083-1.63,0.971-2.445,2.451-2.433c2.271,0.019,4.542,0.004,6.814,0.006
			c0.403,0,0.407,0.006,0.409,0.404c0.004,0.736-0.02,1.474,0.01,2.21c0.046,1.2,1.103,2.199,2.327,2.234
			c1.264,0.036,2.39-0.898,2.472-2.118c0.071-1.056,0.066-2.118-0.003-3.175c-0.053-0.817-0.495-1.4-1.245-1.739
			C29.324,20.003,29.135,19.943,28.948,19.872L28.948,19.872z M14.71,17.394c0.488,0,0.887-0.004,1.286,0.002
			c0.198,0.003,0.271-0.082,0.269-0.275c-0.006-0.766,0.033-1.535-0.016-2.299c-0.064-1.007-0.6-1.735-1.538-2.103
			c-0.961-0.376-1.841-0.162-2.585,0.548c-0.748,0.714-0.848,1.586-0.586,2.542c0.24,0.878,0.808,1.376,1.701,1.527
			C13.759,17.423,14.28,17.381,14.71,17.394L14.71,17.394z"/>
	</g>
</g>
</svg>
