<?xml version="1.0" encoding="utf-8"?>
<!-- Generator: Adobe Illustrator 16.0.0, SVG Export Plug-In . SVG Version: 6.00 Build 0)  -->
<!DOCTYPE svg PUBLIC "-//W3C//DTD SVG 1.1//EN" "http://www.w3.org/Graphics/SVG/1.1/DTD/svg11.dtd">
<svg version="1.1" id="Layer_1" xmlns="http://www.w3.org/2000/svg" xmlns:xlink="http://www.w3.org/1999/xlink" x="0px" y="0px"
	 width="41.025px" height="40px" viewBox="285.487 376 41.025 40" enable-background="new 285.487 376 41.025 40"
	 xml:space="preserve">
<g id="Layer_2_1_">
	<g id="Surfaces">
		<g id="UI_UX_Surface">
			<g id="Outline_no_shadow">
				<path fill="#470137" d="M292.752,376h26.496c4.017,0,7.265,3.248,7.265,7.265v25.47c0,4.018-3.248,7.266-7.265,7.266h-26.496
					c-4.017,0-7.265-3.248-7.265-7.266v-25.47C285.487,379.248,288.735,376,292.752,376z"/>
			</g>
		</g>
	</g>
	<g id="Outlined_Mnemonics_Logos">
		<g id="Xd">
			<path fill="#FF61F6" d="M307.06,386.513l-5.128,8.461l5.47,8.974c0.034,0.068,0.052,0.137,0.034,0.205
				c-0.017,0.068-0.085,0.018-0.188,0.034h-3.915c-0.273,0-0.462-0.017-0.582-0.188c-0.359-0.718-0.735-1.419-1.094-2.137
				c-0.359-0.701-0.752-1.419-1.163-2.154c-0.41-0.734-0.82-1.47-1.23-2.222h-0.034c-0.359,0.734-0.752,1.47-1.146,2.205
				c-0.393,0.734-0.786,1.47-1.163,2.188c-0.393,0.718-0.786,1.453-1.179,2.154c-0.068,0.171-0.205,0.188-0.393,0.188h-3.761
				c-0.068,0-0.12,0.034-0.12-0.051c-0.017-0.068,0-0.137,0.034-0.188l5.316-8.718l-5.179-8.769
				c-0.051-0.068-0.068-0.137-0.034-0.171c0.034-0.051,0.103-0.068,0.171-0.068h3.88c0.085,0,0.171,0.017,0.239,0.034
				c0.068,0.034,0.12,0.085,0.171,0.154c0.325,0.735,0.701,1.47,1.094,2.205c0.41,0.735,0.803,1.453,1.23,2.171
				c0.41,0.718,0.787,1.436,1.146,2.171h0.034c0.359-0.752,0.735-1.487,1.111-2.205c0.376-0.718,0.77-1.436,1.163-2.154
				c0.393-0.718,0.769-1.453,1.146-2.154c0.017-0.068,0.051-0.137,0.103-0.171c0.068-0.034,0.137-0.051,0.222-0.034h3.606
				c0.086-0.017,0.171,0.034,0.188,0.12C307.128,386.41,307.094,386.479,307.06,386.513L307.06,386.513z"/>
			<path fill="#FF61F6" d="M314.957,404.547c-1.265,0.017-2.529-0.239-3.675-0.77c-1.077-0.495-1.966-1.316-2.581-2.324
				c-0.633-1.043-0.94-2.342-0.94-3.897c-0.018-1.265,0.308-2.513,0.94-3.607c0.649-1.111,1.59-2.034,2.718-2.649
				c1.196-0.667,2.632-0.991,4.324-0.991c0.086,0,0.206,0,0.359,0.017c0.154,0.017,0.325,0.017,0.53,0.034v-5.402
				c0-0.12,0.051-0.188,0.171-0.188h3.47c0.086-0.017,0.154,0.051,0.171,0.12c0,0.017,0,0.034,0,0.034v16.273
				c0,0.308,0.018,0.649,0.034,1.025c0.034,0.359,0.052,0.701,0.068,0.992c0,0.119-0.051,0.222-0.171,0.273
				c-0.889,0.376-1.829,0.649-2.786,0.82C316.718,404.461,315.846,404.547,314.957,404.547z M316.633,401.128v-7.521
				c-0.154-0.034-0.308-0.068-0.462-0.085c-0.188-0.017-0.376-0.034-0.564-0.034c-0.666,0-1.333,0.137-1.932,0.445
				c-0.581,0.291-1.076,0.718-1.452,1.265c-0.377,0.547-0.564,1.282-0.564,2.171c-0.018,0.599,0.085,1.196,0.291,1.761
				c0.171,0.462,0.427,0.872,0.769,1.214c0.325,0.308,0.718,0.547,1.162,0.684c0.462,0.154,0.94,0.223,1.419,0.223
				c0.257,0,0.496-0.018,0.719-0.034C316.239,401.23,316.428,401.196,316.633,401.128z"/>
		</g>
	</g>
</g>
</svg>
